%TF.GenerationSoftware,KiCad,Pcbnew,10.0.6*%
%TF.CreationDate,2026-09-28T17:22:17-04:00*%
%TF.ProjectId,DepthSensor,44657074-6853-4656-9e73-6f722e6b6963,rev?*%
%TF.SameCoordinates,Original*%
%TF.FileFunction,Legend,Top*%
%TF.FilePolarity,Positive*%
%FSLAX46Y46*%
G04 Gerber Fmt 4.6, Leading zero omitted, Abs format (unit mm)*
G04 Created by KiCad (PCBNEW 10.0.6) date 2026-09-28 17:22:17*
%MOMM*%
%LPD*%
G01*
G04 APERTURE LIST*
%ADD10C,0.150000*%
%ADD11C,0.120000*%
%ADD12C,0.200000*%
G04 APERTURE END LIST*
D10*
X116692586Y-91585200D02*
X116864015Y-91642342D01*
X116864015Y-91642342D02*
X117149729Y-91642342D01*
X117149729Y-91642342D02*
X117264015Y-91585200D01*
X117264015Y-91585200D02*
X117321157Y-91528057D01*
X117321157Y-91528057D02*
X117378300Y-91413771D01*
X117378300Y-91413771D02*
X117378300Y-91299485D01*
X117378300Y-91299485D02*
X117321157Y-91185200D01*
X117321157Y-91185200D02*
X117264015Y-91128057D01*
X117264015Y-91128057D02*
X117149729Y-91070914D01*
X117149729Y-91070914D02*
X116921157Y-91013771D01*
X116921157Y-91013771D02*
X116806872Y-90956628D01*
X116806872Y-90956628D02*
X116749729Y-90899485D01*
X116749729Y-90899485D02*
X116692586Y-90785200D01*
X116692586Y-90785200D02*
X116692586Y-90670914D01*
X116692586Y-90670914D02*
X116749729Y-90556628D01*
X116749729Y-90556628D02*
X116806872Y-90499485D01*
X116806872Y-90499485D02*
X116921157Y-90442342D01*
X116921157Y-90442342D02*
X117206872Y-90442342D01*
X117206872Y-90442342D02*
X117378300Y-90499485D01*
X118406872Y-91642342D02*
X118406872Y-91013771D01*
X118406872Y-91013771D02*
X118349729Y-90899485D01*
X118349729Y-90899485D02*
X118235443Y-90842342D01*
X118235443Y-90842342D02*
X118006872Y-90842342D01*
X118006872Y-90842342D02*
X117892586Y-90899485D01*
X118406872Y-91585200D02*
X118292586Y-91642342D01*
X118292586Y-91642342D02*
X118006872Y-91642342D01*
X118006872Y-91642342D02*
X117892586Y-91585200D01*
X117892586Y-91585200D02*
X117835443Y-91470914D01*
X117835443Y-91470914D02*
X117835443Y-91356628D01*
X117835443Y-91356628D02*
X117892586Y-91242342D01*
X117892586Y-91242342D02*
X118006872Y-91185200D01*
X118006872Y-91185200D02*
X118292586Y-91185200D01*
X118292586Y-91185200D02*
X118406872Y-91128057D01*
X119149728Y-91642342D02*
X119035443Y-91585200D01*
X119035443Y-91585200D02*
X118978300Y-91470914D01*
X118978300Y-91470914D02*
X118978300Y-90442342D01*
X119435442Y-90842342D02*
X119892585Y-90842342D01*
X119606871Y-90442342D02*
X119606871Y-91470914D01*
X119606871Y-91470914D02*
X119664014Y-91585200D01*
X119664014Y-91585200D02*
X119778299Y-91642342D01*
X119778299Y-91642342D02*
X119892585Y-91642342D01*
X120292585Y-91642342D02*
X120292585Y-90442342D01*
X120292585Y-90442342D02*
X120692585Y-91299485D01*
X120692585Y-91299485D02*
X121092585Y-90442342D01*
X121092585Y-90442342D02*
X121092585Y-91642342D01*
X121835442Y-91642342D02*
X121721157Y-91585200D01*
X121721157Y-91585200D02*
X121664014Y-91528057D01*
X121664014Y-91528057D02*
X121606871Y-91413771D01*
X121606871Y-91413771D02*
X121606871Y-91070914D01*
X121606871Y-91070914D02*
X121664014Y-90956628D01*
X121664014Y-90956628D02*
X121721157Y-90899485D01*
X121721157Y-90899485D02*
X121835442Y-90842342D01*
X121835442Y-90842342D02*
X122006871Y-90842342D01*
X122006871Y-90842342D02*
X122121157Y-90899485D01*
X122121157Y-90899485D02*
X122178300Y-90956628D01*
X122178300Y-90956628D02*
X122235442Y-91070914D01*
X122235442Y-91070914D02*
X122235442Y-91413771D01*
X122235442Y-91413771D02*
X122178300Y-91528057D01*
X122178300Y-91528057D02*
X122121157Y-91585200D01*
X122121157Y-91585200D02*
X122006871Y-91642342D01*
X122006871Y-91642342D02*
X121835442Y-91642342D01*
X122749728Y-90842342D02*
X122749728Y-91642342D01*
X122749728Y-90956628D02*
X122806871Y-90899485D01*
X122806871Y-90899485D02*
X122921156Y-90842342D01*
X122921156Y-90842342D02*
X123092585Y-90842342D01*
X123092585Y-90842342D02*
X123206871Y-90899485D01*
X123206871Y-90899485D02*
X123264014Y-91013771D01*
X123264014Y-91013771D02*
X123264014Y-91642342D01*
X125264014Y-91585200D02*
X125149728Y-91642342D01*
X125149728Y-91642342D02*
X124921156Y-91642342D01*
X124921156Y-91642342D02*
X124806871Y-91585200D01*
X124806871Y-91585200D02*
X124749728Y-91528057D01*
X124749728Y-91528057D02*
X124692585Y-91413771D01*
X124692585Y-91413771D02*
X124692585Y-91070914D01*
X124692585Y-91070914D02*
X124749728Y-90956628D01*
X124749728Y-90956628D02*
X124806871Y-90899485D01*
X124806871Y-90899485D02*
X124921156Y-90842342D01*
X124921156Y-90842342D02*
X125149728Y-90842342D01*
X125149728Y-90842342D02*
X125264014Y-90899485D01*
X126292585Y-91642342D02*
X126292585Y-91013771D01*
X126292585Y-91013771D02*
X126235442Y-90899485D01*
X126235442Y-90899485D02*
X126121156Y-90842342D01*
X126121156Y-90842342D02*
X125892585Y-90842342D01*
X125892585Y-90842342D02*
X125778299Y-90899485D01*
X126292585Y-91585200D02*
X126178299Y-91642342D01*
X126178299Y-91642342D02*
X125892585Y-91642342D01*
X125892585Y-91642342D02*
X125778299Y-91585200D01*
X125778299Y-91585200D02*
X125721156Y-91470914D01*
X125721156Y-91470914D02*
X125721156Y-91356628D01*
X125721156Y-91356628D02*
X125778299Y-91242342D01*
X125778299Y-91242342D02*
X125892585Y-91185200D01*
X125892585Y-91185200D02*
X126178299Y-91185200D01*
X126178299Y-91185200D02*
X126292585Y-91128057D01*
X126864013Y-91642342D02*
X126864013Y-90842342D01*
X126864013Y-91070914D02*
X126921156Y-90956628D01*
X126921156Y-90956628D02*
X126978299Y-90899485D01*
X126978299Y-90899485D02*
X127092584Y-90842342D01*
X127092584Y-90842342D02*
X127206870Y-90842342D01*
X127606870Y-91642342D02*
X127606870Y-90842342D01*
X127606870Y-91070914D02*
X127664013Y-90956628D01*
X127664013Y-90956628D02*
X127721156Y-90899485D01*
X127721156Y-90899485D02*
X127835441Y-90842342D01*
X127835441Y-90842342D02*
X127949727Y-90842342D01*
X128349727Y-91642342D02*
X128349727Y-90842342D01*
X128349727Y-90442342D02*
X128292584Y-90499485D01*
X128292584Y-90499485D02*
X128349727Y-90556628D01*
X128349727Y-90556628D02*
X128406870Y-90499485D01*
X128406870Y-90499485D02*
X128349727Y-90442342D01*
X128349727Y-90442342D02*
X128349727Y-90556628D01*
X129378299Y-91585200D02*
X129264013Y-91642342D01*
X129264013Y-91642342D02*
X129035442Y-91642342D01*
X129035442Y-91642342D02*
X128921156Y-91585200D01*
X128921156Y-91585200D02*
X128864013Y-91470914D01*
X128864013Y-91470914D02*
X128864013Y-91013771D01*
X128864013Y-91013771D02*
X128921156Y-90899485D01*
X128921156Y-90899485D02*
X129035442Y-90842342D01*
X129035442Y-90842342D02*
X129264013Y-90842342D01*
X129264013Y-90842342D02*
X129378299Y-90899485D01*
X129378299Y-90899485D02*
X129435442Y-91013771D01*
X129435442Y-91013771D02*
X129435442Y-91128057D01*
X129435442Y-91128057D02*
X128864013Y-91242342D01*
X129949727Y-91642342D02*
X129949727Y-90842342D01*
X129949727Y-91070914D02*
X130006870Y-90956628D01*
X130006870Y-90956628D02*
X130064013Y-90899485D01*
X130064013Y-90899485D02*
X130178298Y-90842342D01*
X130178298Y-90842342D02*
X130292584Y-90842342D01*
X131492584Y-90842342D02*
X131778298Y-91642342D01*
X131778298Y-91642342D02*
X132064013Y-90842342D01*
X132749727Y-90442342D02*
X132864013Y-90442342D01*
X132864013Y-90442342D02*
X132978299Y-90499485D01*
X132978299Y-90499485D02*
X133035442Y-90556628D01*
X133035442Y-90556628D02*
X133092584Y-90670914D01*
X133092584Y-90670914D02*
X133149727Y-90899485D01*
X133149727Y-90899485D02*
X133149727Y-91185200D01*
X133149727Y-91185200D02*
X133092584Y-91413771D01*
X133092584Y-91413771D02*
X133035442Y-91528057D01*
X133035442Y-91528057D02*
X132978299Y-91585200D01*
X132978299Y-91585200D02*
X132864013Y-91642342D01*
X132864013Y-91642342D02*
X132749727Y-91642342D01*
X132749727Y-91642342D02*
X132635442Y-91585200D01*
X132635442Y-91585200D02*
X132578299Y-91528057D01*
X132578299Y-91528057D02*
X132521156Y-91413771D01*
X132521156Y-91413771D02*
X132464013Y-91185200D01*
X132464013Y-91185200D02*
X132464013Y-90899485D01*
X132464013Y-90899485D02*
X132521156Y-90670914D01*
X132521156Y-90670914D02*
X132578299Y-90556628D01*
X132578299Y-90556628D02*
X132635442Y-90499485D01*
X132635442Y-90499485D02*
X132749727Y-90442342D01*
X133664013Y-91528057D02*
X133721156Y-91585200D01*
X133721156Y-91585200D02*
X133664013Y-91642342D01*
X133664013Y-91642342D02*
X133606870Y-91585200D01*
X133606870Y-91585200D02*
X133664013Y-91528057D01*
X133664013Y-91528057D02*
X133664013Y-91642342D01*
X134864013Y-91642342D02*
X134178299Y-91642342D01*
X134521156Y-91642342D02*
X134521156Y-90442342D01*
X134521156Y-90442342D02*
X134406870Y-90613771D01*
X134406870Y-90613771D02*
X134292585Y-90728057D01*
X134292585Y-90728057D02*
X134178299Y-90785200D01*
X109516395Y-70901819D02*
X110087823Y-70901819D01*
X109802109Y-71901819D02*
X109802109Y-70901819D01*
X110421157Y-71901819D02*
X110421157Y-70901819D01*
X110421157Y-70901819D02*
X110802109Y-70901819D01*
X110802109Y-70901819D02*
X110897347Y-70949438D01*
X110897347Y-70949438D02*
X110944966Y-70997057D01*
X110944966Y-70997057D02*
X110992585Y-71092295D01*
X110992585Y-71092295D02*
X110992585Y-71235152D01*
X110992585Y-71235152D02*
X110944966Y-71330390D01*
X110944966Y-71330390D02*
X110897347Y-71378009D01*
X110897347Y-71378009D02*
X110802109Y-71425628D01*
X110802109Y-71425628D02*
X110421157Y-71425628D01*
X111373538Y-70997057D02*
X111421157Y-70949438D01*
X111421157Y-70949438D02*
X111516395Y-70901819D01*
X111516395Y-70901819D02*
X111754490Y-70901819D01*
X111754490Y-70901819D02*
X111849728Y-70949438D01*
X111849728Y-70949438D02*
X111897347Y-70997057D01*
X111897347Y-70997057D02*
X111944966Y-71092295D01*
X111944966Y-71092295D02*
X111944966Y-71187533D01*
X111944966Y-71187533D02*
X111897347Y-71330390D01*
X111897347Y-71330390D02*
X111325919Y-71901819D01*
X111325919Y-71901819D02*
X111944966Y-71901819D01*
X123133119Y-62658333D02*
X123847404Y-62658333D01*
X123847404Y-62658333D02*
X123990261Y-62705952D01*
X123990261Y-62705952D02*
X124085500Y-62801190D01*
X124085500Y-62801190D02*
X124133119Y-62944047D01*
X124133119Y-62944047D02*
X124133119Y-63039285D01*
X123133119Y-62277380D02*
X123133119Y-61658333D01*
X123133119Y-61658333D02*
X123514071Y-61991666D01*
X123514071Y-61991666D02*
X123514071Y-61848809D01*
X123514071Y-61848809D02*
X123561690Y-61753571D01*
X123561690Y-61753571D02*
X123609309Y-61705952D01*
X123609309Y-61705952D02*
X123704547Y-61658333D01*
X123704547Y-61658333D02*
X123942642Y-61658333D01*
X123942642Y-61658333D02*
X124037880Y-61705952D01*
X124037880Y-61705952D02*
X124085500Y-61753571D01*
X124085500Y-61753571D02*
X124133119Y-61848809D01*
X124133119Y-61848809D02*
X124133119Y-62134523D01*
X124133119Y-62134523D02*
X124085500Y-62229761D01*
X124085500Y-62229761D02*
X124037880Y-62277380D01*
X121994966Y-125126009D02*
X121661633Y-125126009D01*
X121661633Y-125649819D02*
X121661633Y-124649819D01*
X121661633Y-124649819D02*
X122137823Y-124649819D01*
X123042585Y-125649819D02*
X122471157Y-125649819D01*
X122756871Y-125649819D02*
X122756871Y-124649819D01*
X122756871Y-124649819D02*
X122661633Y-124792676D01*
X122661633Y-124792676D02*
X122566395Y-124887914D01*
X122566395Y-124887914D02*
X122471157Y-124935533D01*
X162826395Y-54719819D02*
X162826395Y-55529342D01*
X162826395Y-55529342D02*
X162874014Y-55624580D01*
X162874014Y-55624580D02*
X162921633Y-55672200D01*
X162921633Y-55672200D02*
X163016871Y-55719819D01*
X163016871Y-55719819D02*
X163207347Y-55719819D01*
X163207347Y-55719819D02*
X163302585Y-55672200D01*
X163302585Y-55672200D02*
X163350204Y-55624580D01*
X163350204Y-55624580D02*
X163397823Y-55529342D01*
X163397823Y-55529342D02*
X163397823Y-54719819D01*
X163826395Y-54815057D02*
X163874014Y-54767438D01*
X163874014Y-54767438D02*
X163969252Y-54719819D01*
X163969252Y-54719819D02*
X164207347Y-54719819D01*
X164207347Y-54719819D02*
X164302585Y-54767438D01*
X164302585Y-54767438D02*
X164350204Y-54815057D01*
X164350204Y-54815057D02*
X164397823Y-54910295D01*
X164397823Y-54910295D02*
X164397823Y-55005533D01*
X164397823Y-55005533D02*
X164350204Y-55148390D01*
X164350204Y-55148390D02*
X163778776Y-55719819D01*
X163778776Y-55719819D02*
X164397823Y-55719819D01*
X170611633Y-110954580D02*
X170564014Y-111002200D01*
X170564014Y-111002200D02*
X170421157Y-111049819D01*
X170421157Y-111049819D02*
X170325919Y-111049819D01*
X170325919Y-111049819D02*
X170183062Y-111002200D01*
X170183062Y-111002200D02*
X170087824Y-110906961D01*
X170087824Y-110906961D02*
X170040205Y-110811723D01*
X170040205Y-110811723D02*
X169992586Y-110621247D01*
X169992586Y-110621247D02*
X169992586Y-110478390D01*
X169992586Y-110478390D02*
X170040205Y-110287914D01*
X170040205Y-110287914D02*
X170087824Y-110192676D01*
X170087824Y-110192676D02*
X170183062Y-110097438D01*
X170183062Y-110097438D02*
X170325919Y-110049819D01*
X170325919Y-110049819D02*
X170421157Y-110049819D01*
X170421157Y-110049819D02*
X170564014Y-110097438D01*
X170564014Y-110097438D02*
X170611633Y-110145057D01*
X171468776Y-110383152D02*
X171468776Y-111049819D01*
X171230681Y-110002200D02*
X170992586Y-110716485D01*
X170992586Y-110716485D02*
X171611633Y-110716485D01*
X138517823Y-69739819D02*
X138184490Y-69263628D01*
X137946395Y-69739819D02*
X137946395Y-68739819D01*
X137946395Y-68739819D02*
X138327347Y-68739819D01*
X138327347Y-68739819D02*
X138422585Y-68787438D01*
X138422585Y-68787438D02*
X138470204Y-68835057D01*
X138470204Y-68835057D02*
X138517823Y-68930295D01*
X138517823Y-68930295D02*
X138517823Y-69073152D01*
X138517823Y-69073152D02*
X138470204Y-69168390D01*
X138470204Y-69168390D02*
X138422585Y-69216009D01*
X138422585Y-69216009D02*
X138327347Y-69263628D01*
X138327347Y-69263628D02*
X137946395Y-69263628D01*
X138946395Y-69739819D02*
X138946395Y-68739819D01*
X138946395Y-68739819D02*
X139517823Y-69739819D01*
X139517823Y-69739819D02*
X139517823Y-68739819D01*
X140517823Y-69739819D02*
X139946395Y-69739819D01*
X140232109Y-69739819D02*
X140232109Y-68739819D01*
X140232109Y-68739819D02*
X140136871Y-68882676D01*
X140136871Y-68882676D02*
X140041633Y-68977914D01*
X140041633Y-68977914D02*
X139946395Y-69025533D01*
X109516395Y-82901819D02*
X110087823Y-82901819D01*
X109802109Y-83901819D02*
X109802109Y-82901819D01*
X110421157Y-83901819D02*
X110421157Y-82901819D01*
X110421157Y-82901819D02*
X110802109Y-82901819D01*
X110802109Y-82901819D02*
X110897347Y-82949438D01*
X110897347Y-82949438D02*
X110944966Y-82997057D01*
X110944966Y-82997057D02*
X110992585Y-83092295D01*
X110992585Y-83092295D02*
X110992585Y-83235152D01*
X110992585Y-83235152D02*
X110944966Y-83330390D01*
X110944966Y-83330390D02*
X110897347Y-83378009D01*
X110897347Y-83378009D02*
X110802109Y-83425628D01*
X110802109Y-83425628D02*
X110421157Y-83425628D01*
X111897347Y-82901819D02*
X111421157Y-82901819D01*
X111421157Y-82901819D02*
X111373538Y-83378009D01*
X111373538Y-83378009D02*
X111421157Y-83330390D01*
X111421157Y-83330390D02*
X111516395Y-83282771D01*
X111516395Y-83282771D02*
X111754490Y-83282771D01*
X111754490Y-83282771D02*
X111849728Y-83330390D01*
X111849728Y-83330390D02*
X111897347Y-83378009D01*
X111897347Y-83378009D02*
X111944966Y-83473247D01*
X111944966Y-83473247D02*
X111944966Y-83711342D01*
X111944966Y-83711342D02*
X111897347Y-83806580D01*
X111897347Y-83806580D02*
X111849728Y-83854200D01*
X111849728Y-83854200D02*
X111754490Y-83901819D01*
X111754490Y-83901819D02*
X111516395Y-83901819D01*
X111516395Y-83901819D02*
X111421157Y-83854200D01*
X111421157Y-83854200D02*
X111373538Y-83806580D01*
X172715442Y-103549819D02*
X172382109Y-103073628D01*
X172144014Y-103549819D02*
X172144014Y-102549819D01*
X172144014Y-102549819D02*
X172524966Y-102549819D01*
X172524966Y-102549819D02*
X172620204Y-102597438D01*
X172620204Y-102597438D02*
X172667823Y-102645057D01*
X172667823Y-102645057D02*
X172715442Y-102740295D01*
X172715442Y-102740295D02*
X172715442Y-102883152D01*
X172715442Y-102883152D02*
X172667823Y-102978390D01*
X172667823Y-102978390D02*
X172620204Y-103026009D01*
X172620204Y-103026009D02*
X172524966Y-103073628D01*
X172524966Y-103073628D02*
X172144014Y-103073628D01*
X173667823Y-103549819D02*
X173096395Y-103549819D01*
X173382109Y-103549819D02*
X173382109Y-102549819D01*
X173382109Y-102549819D02*
X173286871Y-102692676D01*
X173286871Y-102692676D02*
X173191633Y-102787914D01*
X173191633Y-102787914D02*
X173096395Y-102835533D01*
X174620204Y-103549819D02*
X174048776Y-103549819D01*
X174334490Y-103549819D02*
X174334490Y-102549819D01*
X174334490Y-102549819D02*
X174239252Y-102692676D01*
X174239252Y-102692676D02*
X174144014Y-102787914D01*
X174144014Y-102787914D02*
X174048776Y-102835533D01*
X175191633Y-67749819D02*
X174858300Y-67273628D01*
X174620205Y-67749819D02*
X174620205Y-66749819D01*
X174620205Y-66749819D02*
X175001157Y-66749819D01*
X175001157Y-66749819D02*
X175096395Y-66797438D01*
X175096395Y-66797438D02*
X175144014Y-66845057D01*
X175144014Y-66845057D02*
X175191633Y-66940295D01*
X175191633Y-66940295D02*
X175191633Y-67083152D01*
X175191633Y-67083152D02*
X175144014Y-67178390D01*
X175144014Y-67178390D02*
X175096395Y-67226009D01*
X175096395Y-67226009D02*
X175001157Y-67273628D01*
X175001157Y-67273628D02*
X174620205Y-67273628D01*
X175572586Y-66845057D02*
X175620205Y-66797438D01*
X175620205Y-66797438D02*
X175715443Y-66749819D01*
X175715443Y-66749819D02*
X175953538Y-66749819D01*
X175953538Y-66749819D02*
X176048776Y-66797438D01*
X176048776Y-66797438D02*
X176096395Y-66845057D01*
X176096395Y-66845057D02*
X176144014Y-66940295D01*
X176144014Y-66940295D02*
X176144014Y-67035533D01*
X176144014Y-67035533D02*
X176096395Y-67178390D01*
X176096395Y-67178390D02*
X175524967Y-67749819D01*
X175524967Y-67749819D02*
X176144014Y-67749819D01*
X183311633Y-106954580D02*
X183264014Y-107002200D01*
X183264014Y-107002200D02*
X183121157Y-107049819D01*
X183121157Y-107049819D02*
X183025919Y-107049819D01*
X183025919Y-107049819D02*
X182883062Y-107002200D01*
X182883062Y-107002200D02*
X182787824Y-106906961D01*
X182787824Y-106906961D02*
X182740205Y-106811723D01*
X182740205Y-106811723D02*
X182692586Y-106621247D01*
X182692586Y-106621247D02*
X182692586Y-106478390D01*
X182692586Y-106478390D02*
X182740205Y-106287914D01*
X182740205Y-106287914D02*
X182787824Y-106192676D01*
X182787824Y-106192676D02*
X182883062Y-106097438D01*
X182883062Y-106097438D02*
X183025919Y-106049819D01*
X183025919Y-106049819D02*
X183121157Y-106049819D01*
X183121157Y-106049819D02*
X183264014Y-106097438D01*
X183264014Y-106097438D02*
X183311633Y-106145057D01*
X183883062Y-106478390D02*
X183787824Y-106430771D01*
X183787824Y-106430771D02*
X183740205Y-106383152D01*
X183740205Y-106383152D02*
X183692586Y-106287914D01*
X183692586Y-106287914D02*
X183692586Y-106240295D01*
X183692586Y-106240295D02*
X183740205Y-106145057D01*
X183740205Y-106145057D02*
X183787824Y-106097438D01*
X183787824Y-106097438D02*
X183883062Y-106049819D01*
X183883062Y-106049819D02*
X184073538Y-106049819D01*
X184073538Y-106049819D02*
X184168776Y-106097438D01*
X184168776Y-106097438D02*
X184216395Y-106145057D01*
X184216395Y-106145057D02*
X184264014Y-106240295D01*
X184264014Y-106240295D02*
X184264014Y-106287914D01*
X184264014Y-106287914D02*
X184216395Y-106383152D01*
X184216395Y-106383152D02*
X184168776Y-106430771D01*
X184168776Y-106430771D02*
X184073538Y-106478390D01*
X184073538Y-106478390D02*
X183883062Y-106478390D01*
X183883062Y-106478390D02*
X183787824Y-106526009D01*
X183787824Y-106526009D02*
X183740205Y-106573628D01*
X183740205Y-106573628D02*
X183692586Y-106668866D01*
X183692586Y-106668866D02*
X183692586Y-106859342D01*
X183692586Y-106859342D02*
X183740205Y-106954580D01*
X183740205Y-106954580D02*
X183787824Y-107002200D01*
X183787824Y-107002200D02*
X183883062Y-107049819D01*
X183883062Y-107049819D02*
X184073538Y-107049819D01*
X184073538Y-107049819D02*
X184168776Y-107002200D01*
X184168776Y-107002200D02*
X184216395Y-106954580D01*
X184216395Y-106954580D02*
X184264014Y-106859342D01*
X184264014Y-106859342D02*
X184264014Y-106668866D01*
X184264014Y-106668866D02*
X184216395Y-106573628D01*
X184216395Y-106573628D02*
X184168776Y-106526009D01*
X184168776Y-106526009D02*
X184073538Y-106478390D01*
X185444966Y-82169819D02*
X185444966Y-82884104D01*
X185444966Y-82884104D02*
X185397347Y-83026961D01*
X185397347Y-83026961D02*
X185302109Y-83122200D01*
X185302109Y-83122200D02*
X185159252Y-83169819D01*
X185159252Y-83169819D02*
X185064014Y-83169819D01*
X186349728Y-82503152D02*
X186349728Y-83169819D01*
X186111633Y-82122200D02*
X185873538Y-82836485D01*
X185873538Y-82836485D02*
X186492585Y-82836485D01*
X179244966Y-121049819D02*
X179244966Y-121764104D01*
X179244966Y-121764104D02*
X179197347Y-121906961D01*
X179197347Y-121906961D02*
X179102109Y-122002200D01*
X179102109Y-122002200D02*
X178959252Y-122049819D01*
X178959252Y-122049819D02*
X178864014Y-122049819D01*
X179673538Y-121145057D02*
X179721157Y-121097438D01*
X179721157Y-121097438D02*
X179816395Y-121049819D01*
X179816395Y-121049819D02*
X180054490Y-121049819D01*
X180054490Y-121049819D02*
X180149728Y-121097438D01*
X180149728Y-121097438D02*
X180197347Y-121145057D01*
X180197347Y-121145057D02*
X180244966Y-121240295D01*
X180244966Y-121240295D02*
X180244966Y-121335533D01*
X180244966Y-121335533D02*
X180197347Y-121478390D01*
X180197347Y-121478390D02*
X179625919Y-122049819D01*
X179625919Y-122049819D02*
X180244966Y-122049819D01*
X109516395Y-74901819D02*
X110087823Y-74901819D01*
X109802109Y-75901819D02*
X109802109Y-74901819D01*
X110421157Y-75901819D02*
X110421157Y-74901819D01*
X110421157Y-74901819D02*
X110802109Y-74901819D01*
X110802109Y-74901819D02*
X110897347Y-74949438D01*
X110897347Y-74949438D02*
X110944966Y-74997057D01*
X110944966Y-74997057D02*
X110992585Y-75092295D01*
X110992585Y-75092295D02*
X110992585Y-75235152D01*
X110992585Y-75235152D02*
X110944966Y-75330390D01*
X110944966Y-75330390D02*
X110897347Y-75378009D01*
X110897347Y-75378009D02*
X110802109Y-75425628D01*
X110802109Y-75425628D02*
X110421157Y-75425628D01*
X111325919Y-74901819D02*
X111944966Y-74901819D01*
X111944966Y-74901819D02*
X111611633Y-75282771D01*
X111611633Y-75282771D02*
X111754490Y-75282771D01*
X111754490Y-75282771D02*
X111849728Y-75330390D01*
X111849728Y-75330390D02*
X111897347Y-75378009D01*
X111897347Y-75378009D02*
X111944966Y-75473247D01*
X111944966Y-75473247D02*
X111944966Y-75711342D01*
X111944966Y-75711342D02*
X111897347Y-75806580D01*
X111897347Y-75806580D02*
X111849728Y-75854200D01*
X111849728Y-75854200D02*
X111754490Y-75901819D01*
X111754490Y-75901819D02*
X111468776Y-75901819D01*
X111468776Y-75901819D02*
X111373538Y-75854200D01*
X111373538Y-75854200D02*
X111325919Y-75806580D01*
X122361633Y-102204580D02*
X122314014Y-102252200D01*
X122314014Y-102252200D02*
X122171157Y-102299819D01*
X122171157Y-102299819D02*
X122075919Y-102299819D01*
X122075919Y-102299819D02*
X121933062Y-102252200D01*
X121933062Y-102252200D02*
X121837824Y-102156961D01*
X121837824Y-102156961D02*
X121790205Y-102061723D01*
X121790205Y-102061723D02*
X121742586Y-101871247D01*
X121742586Y-101871247D02*
X121742586Y-101728390D01*
X121742586Y-101728390D02*
X121790205Y-101537914D01*
X121790205Y-101537914D02*
X121837824Y-101442676D01*
X121837824Y-101442676D02*
X121933062Y-101347438D01*
X121933062Y-101347438D02*
X122075919Y-101299819D01*
X122075919Y-101299819D02*
X122171157Y-101299819D01*
X122171157Y-101299819D02*
X122314014Y-101347438D01*
X122314014Y-101347438D02*
X122361633Y-101395057D01*
X123314014Y-102299819D02*
X122742586Y-102299819D01*
X123028300Y-102299819D02*
X123028300Y-101299819D01*
X123028300Y-101299819D02*
X122933062Y-101442676D01*
X122933062Y-101442676D02*
X122837824Y-101537914D01*
X122837824Y-101537914D02*
X122742586Y-101585533D01*
X122691633Y-79549819D02*
X122358300Y-79073628D01*
X122120205Y-79549819D02*
X122120205Y-78549819D01*
X122120205Y-78549819D02*
X122501157Y-78549819D01*
X122501157Y-78549819D02*
X122596395Y-78597438D01*
X122596395Y-78597438D02*
X122644014Y-78645057D01*
X122644014Y-78645057D02*
X122691633Y-78740295D01*
X122691633Y-78740295D02*
X122691633Y-78883152D01*
X122691633Y-78883152D02*
X122644014Y-78978390D01*
X122644014Y-78978390D02*
X122596395Y-79026009D01*
X122596395Y-79026009D02*
X122501157Y-79073628D01*
X122501157Y-79073628D02*
X122120205Y-79073628D01*
X123167824Y-79549819D02*
X123358300Y-79549819D01*
X123358300Y-79549819D02*
X123453538Y-79502200D01*
X123453538Y-79502200D02*
X123501157Y-79454580D01*
X123501157Y-79454580D02*
X123596395Y-79311723D01*
X123596395Y-79311723D02*
X123644014Y-79121247D01*
X123644014Y-79121247D02*
X123644014Y-78740295D01*
X123644014Y-78740295D02*
X123596395Y-78645057D01*
X123596395Y-78645057D02*
X123548776Y-78597438D01*
X123548776Y-78597438D02*
X123453538Y-78549819D01*
X123453538Y-78549819D02*
X123263062Y-78549819D01*
X123263062Y-78549819D02*
X123167824Y-78597438D01*
X123167824Y-78597438D02*
X123120205Y-78645057D01*
X123120205Y-78645057D02*
X123072586Y-78740295D01*
X123072586Y-78740295D02*
X123072586Y-78978390D01*
X123072586Y-78978390D02*
X123120205Y-79073628D01*
X123120205Y-79073628D02*
X123167824Y-79121247D01*
X123167824Y-79121247D02*
X123263062Y-79168866D01*
X123263062Y-79168866D02*
X123453538Y-79168866D01*
X123453538Y-79168866D02*
X123548776Y-79121247D01*
X123548776Y-79121247D02*
X123596395Y-79073628D01*
X123596395Y-79073628D02*
X123644014Y-78978390D01*
X185911633Y-111454580D02*
X185864014Y-111502200D01*
X185864014Y-111502200D02*
X185721157Y-111549819D01*
X185721157Y-111549819D02*
X185625919Y-111549819D01*
X185625919Y-111549819D02*
X185483062Y-111502200D01*
X185483062Y-111502200D02*
X185387824Y-111406961D01*
X185387824Y-111406961D02*
X185340205Y-111311723D01*
X185340205Y-111311723D02*
X185292586Y-111121247D01*
X185292586Y-111121247D02*
X185292586Y-110978390D01*
X185292586Y-110978390D02*
X185340205Y-110787914D01*
X185340205Y-110787914D02*
X185387824Y-110692676D01*
X185387824Y-110692676D02*
X185483062Y-110597438D01*
X185483062Y-110597438D02*
X185625919Y-110549819D01*
X185625919Y-110549819D02*
X185721157Y-110549819D01*
X185721157Y-110549819D02*
X185864014Y-110597438D01*
X185864014Y-110597438D02*
X185911633Y-110645057D01*
X186768776Y-110549819D02*
X186578300Y-110549819D01*
X186578300Y-110549819D02*
X186483062Y-110597438D01*
X186483062Y-110597438D02*
X186435443Y-110645057D01*
X186435443Y-110645057D02*
X186340205Y-110787914D01*
X186340205Y-110787914D02*
X186292586Y-110978390D01*
X186292586Y-110978390D02*
X186292586Y-111359342D01*
X186292586Y-111359342D02*
X186340205Y-111454580D01*
X186340205Y-111454580D02*
X186387824Y-111502200D01*
X186387824Y-111502200D02*
X186483062Y-111549819D01*
X186483062Y-111549819D02*
X186673538Y-111549819D01*
X186673538Y-111549819D02*
X186768776Y-111502200D01*
X186768776Y-111502200D02*
X186816395Y-111454580D01*
X186816395Y-111454580D02*
X186864014Y-111359342D01*
X186864014Y-111359342D02*
X186864014Y-111121247D01*
X186864014Y-111121247D02*
X186816395Y-111026009D01*
X186816395Y-111026009D02*
X186768776Y-110978390D01*
X186768776Y-110978390D02*
X186673538Y-110930771D01*
X186673538Y-110930771D02*
X186483062Y-110930771D01*
X186483062Y-110930771D02*
X186387824Y-110978390D01*
X186387824Y-110978390D02*
X186340205Y-111026009D01*
X186340205Y-111026009D02*
X186292586Y-111121247D01*
X153611633Y-78454580D02*
X153564014Y-78502200D01*
X153564014Y-78502200D02*
X153421157Y-78549819D01*
X153421157Y-78549819D02*
X153325919Y-78549819D01*
X153325919Y-78549819D02*
X153183062Y-78502200D01*
X153183062Y-78502200D02*
X153087824Y-78406961D01*
X153087824Y-78406961D02*
X153040205Y-78311723D01*
X153040205Y-78311723D02*
X152992586Y-78121247D01*
X152992586Y-78121247D02*
X152992586Y-77978390D01*
X152992586Y-77978390D02*
X153040205Y-77787914D01*
X153040205Y-77787914D02*
X153087824Y-77692676D01*
X153087824Y-77692676D02*
X153183062Y-77597438D01*
X153183062Y-77597438D02*
X153325919Y-77549819D01*
X153325919Y-77549819D02*
X153421157Y-77549819D01*
X153421157Y-77549819D02*
X153564014Y-77597438D01*
X153564014Y-77597438D02*
X153611633Y-77645057D01*
X153992586Y-77645057D02*
X154040205Y-77597438D01*
X154040205Y-77597438D02*
X154135443Y-77549819D01*
X154135443Y-77549819D02*
X154373538Y-77549819D01*
X154373538Y-77549819D02*
X154468776Y-77597438D01*
X154468776Y-77597438D02*
X154516395Y-77645057D01*
X154516395Y-77645057D02*
X154564014Y-77740295D01*
X154564014Y-77740295D02*
X154564014Y-77835533D01*
X154564014Y-77835533D02*
X154516395Y-77978390D01*
X154516395Y-77978390D02*
X153944967Y-78549819D01*
X153944967Y-78549819D02*
X154564014Y-78549819D01*
X109516395Y-86901819D02*
X110087823Y-86901819D01*
X109802109Y-87901819D02*
X109802109Y-86901819D01*
X110421157Y-87901819D02*
X110421157Y-86901819D01*
X110421157Y-86901819D02*
X110802109Y-86901819D01*
X110802109Y-86901819D02*
X110897347Y-86949438D01*
X110897347Y-86949438D02*
X110944966Y-86997057D01*
X110944966Y-86997057D02*
X110992585Y-87092295D01*
X110992585Y-87092295D02*
X110992585Y-87235152D01*
X110992585Y-87235152D02*
X110944966Y-87330390D01*
X110944966Y-87330390D02*
X110897347Y-87378009D01*
X110897347Y-87378009D02*
X110802109Y-87425628D01*
X110802109Y-87425628D02*
X110421157Y-87425628D01*
X111849728Y-86901819D02*
X111659252Y-86901819D01*
X111659252Y-86901819D02*
X111564014Y-86949438D01*
X111564014Y-86949438D02*
X111516395Y-86997057D01*
X111516395Y-86997057D02*
X111421157Y-87139914D01*
X111421157Y-87139914D02*
X111373538Y-87330390D01*
X111373538Y-87330390D02*
X111373538Y-87711342D01*
X111373538Y-87711342D02*
X111421157Y-87806580D01*
X111421157Y-87806580D02*
X111468776Y-87854200D01*
X111468776Y-87854200D02*
X111564014Y-87901819D01*
X111564014Y-87901819D02*
X111754490Y-87901819D01*
X111754490Y-87901819D02*
X111849728Y-87854200D01*
X111849728Y-87854200D02*
X111897347Y-87806580D01*
X111897347Y-87806580D02*
X111944966Y-87711342D01*
X111944966Y-87711342D02*
X111944966Y-87473247D01*
X111944966Y-87473247D02*
X111897347Y-87378009D01*
X111897347Y-87378009D02*
X111849728Y-87330390D01*
X111849728Y-87330390D02*
X111754490Y-87282771D01*
X111754490Y-87282771D02*
X111564014Y-87282771D01*
X111564014Y-87282771D02*
X111468776Y-87330390D01*
X111468776Y-87330390D02*
X111421157Y-87378009D01*
X111421157Y-87378009D02*
X111373538Y-87473247D01*
X175191633Y-74149819D02*
X174858300Y-73673628D01*
X174620205Y-74149819D02*
X174620205Y-73149819D01*
X174620205Y-73149819D02*
X175001157Y-73149819D01*
X175001157Y-73149819D02*
X175096395Y-73197438D01*
X175096395Y-73197438D02*
X175144014Y-73245057D01*
X175144014Y-73245057D02*
X175191633Y-73340295D01*
X175191633Y-73340295D02*
X175191633Y-73483152D01*
X175191633Y-73483152D02*
X175144014Y-73578390D01*
X175144014Y-73578390D02*
X175096395Y-73626009D01*
X175096395Y-73626009D02*
X175001157Y-73673628D01*
X175001157Y-73673628D02*
X174620205Y-73673628D01*
X176048776Y-73483152D02*
X176048776Y-74149819D01*
X175810681Y-73102200D02*
X175572586Y-73816485D01*
X175572586Y-73816485D02*
X176191633Y-73816485D01*
X116120205Y-96629819D02*
X116120205Y-95629819D01*
X116120205Y-95629819D02*
X116358300Y-95629819D01*
X116358300Y-95629819D02*
X116501157Y-95677438D01*
X116501157Y-95677438D02*
X116596395Y-95772676D01*
X116596395Y-95772676D02*
X116644014Y-95867914D01*
X116644014Y-95867914D02*
X116691633Y-96058390D01*
X116691633Y-96058390D02*
X116691633Y-96201247D01*
X116691633Y-96201247D02*
X116644014Y-96391723D01*
X116644014Y-96391723D02*
X116596395Y-96486961D01*
X116596395Y-96486961D02*
X116501157Y-96582200D01*
X116501157Y-96582200D02*
X116358300Y-96629819D01*
X116358300Y-96629819D02*
X116120205Y-96629819D01*
X117072586Y-95725057D02*
X117120205Y-95677438D01*
X117120205Y-95677438D02*
X117215443Y-95629819D01*
X117215443Y-95629819D02*
X117453538Y-95629819D01*
X117453538Y-95629819D02*
X117548776Y-95677438D01*
X117548776Y-95677438D02*
X117596395Y-95725057D01*
X117596395Y-95725057D02*
X117644014Y-95820295D01*
X117644014Y-95820295D02*
X117644014Y-95915533D01*
X117644014Y-95915533D02*
X117596395Y-96058390D01*
X117596395Y-96058390D02*
X117024967Y-96629819D01*
X117024967Y-96629819D02*
X117644014Y-96629819D01*
X111516395Y-97349819D02*
X111516395Y-96349819D01*
X112087823Y-97349819D02*
X111659252Y-96778390D01*
X112087823Y-96349819D02*
X111516395Y-96921247D01*
X132111633Y-109454580D02*
X132064014Y-109502200D01*
X132064014Y-109502200D02*
X131921157Y-109549819D01*
X131921157Y-109549819D02*
X131825919Y-109549819D01*
X131825919Y-109549819D02*
X131683062Y-109502200D01*
X131683062Y-109502200D02*
X131587824Y-109406961D01*
X131587824Y-109406961D02*
X131540205Y-109311723D01*
X131540205Y-109311723D02*
X131492586Y-109121247D01*
X131492586Y-109121247D02*
X131492586Y-108978390D01*
X131492586Y-108978390D02*
X131540205Y-108787914D01*
X131540205Y-108787914D02*
X131587824Y-108692676D01*
X131587824Y-108692676D02*
X131683062Y-108597438D01*
X131683062Y-108597438D02*
X131825919Y-108549819D01*
X131825919Y-108549819D02*
X131921157Y-108549819D01*
X131921157Y-108549819D02*
X132064014Y-108597438D01*
X132064014Y-108597438D02*
X132111633Y-108645057D01*
X132444967Y-108549819D02*
X133064014Y-108549819D01*
X133064014Y-108549819D02*
X132730681Y-108930771D01*
X132730681Y-108930771D02*
X132873538Y-108930771D01*
X132873538Y-108930771D02*
X132968776Y-108978390D01*
X132968776Y-108978390D02*
X133016395Y-109026009D01*
X133016395Y-109026009D02*
X133064014Y-109121247D01*
X133064014Y-109121247D02*
X133064014Y-109359342D01*
X133064014Y-109359342D02*
X133016395Y-109454580D01*
X133016395Y-109454580D02*
X132968776Y-109502200D01*
X132968776Y-109502200D02*
X132873538Y-109549819D01*
X132873538Y-109549819D02*
X132587824Y-109549819D01*
X132587824Y-109549819D02*
X132492586Y-109502200D01*
X132492586Y-109502200D02*
X132444967Y-109454580D01*
X183311633Y-103454580D02*
X183264014Y-103502200D01*
X183264014Y-103502200D02*
X183121157Y-103549819D01*
X183121157Y-103549819D02*
X183025919Y-103549819D01*
X183025919Y-103549819D02*
X182883062Y-103502200D01*
X182883062Y-103502200D02*
X182787824Y-103406961D01*
X182787824Y-103406961D02*
X182740205Y-103311723D01*
X182740205Y-103311723D02*
X182692586Y-103121247D01*
X182692586Y-103121247D02*
X182692586Y-102978390D01*
X182692586Y-102978390D02*
X182740205Y-102787914D01*
X182740205Y-102787914D02*
X182787824Y-102692676D01*
X182787824Y-102692676D02*
X182883062Y-102597438D01*
X182883062Y-102597438D02*
X183025919Y-102549819D01*
X183025919Y-102549819D02*
X183121157Y-102549819D01*
X183121157Y-102549819D02*
X183264014Y-102597438D01*
X183264014Y-102597438D02*
X183311633Y-102645057D01*
X183644967Y-102549819D02*
X184311633Y-102549819D01*
X184311633Y-102549819D02*
X183883062Y-103549819D01*
X183311633Y-99954580D02*
X183264014Y-100002200D01*
X183264014Y-100002200D02*
X183121157Y-100049819D01*
X183121157Y-100049819D02*
X183025919Y-100049819D01*
X183025919Y-100049819D02*
X182883062Y-100002200D01*
X182883062Y-100002200D02*
X182787824Y-99906961D01*
X182787824Y-99906961D02*
X182740205Y-99811723D01*
X182740205Y-99811723D02*
X182692586Y-99621247D01*
X182692586Y-99621247D02*
X182692586Y-99478390D01*
X182692586Y-99478390D02*
X182740205Y-99287914D01*
X182740205Y-99287914D02*
X182787824Y-99192676D01*
X182787824Y-99192676D02*
X182883062Y-99097438D01*
X182883062Y-99097438D02*
X183025919Y-99049819D01*
X183025919Y-99049819D02*
X183121157Y-99049819D01*
X183121157Y-99049819D02*
X183264014Y-99097438D01*
X183264014Y-99097438D02*
X183311633Y-99145057D01*
X184216395Y-99049819D02*
X183740205Y-99049819D01*
X183740205Y-99049819D02*
X183692586Y-99526009D01*
X183692586Y-99526009D02*
X183740205Y-99478390D01*
X183740205Y-99478390D02*
X183835443Y-99430771D01*
X183835443Y-99430771D02*
X184073538Y-99430771D01*
X184073538Y-99430771D02*
X184168776Y-99478390D01*
X184168776Y-99478390D02*
X184216395Y-99526009D01*
X184216395Y-99526009D02*
X184264014Y-99621247D01*
X184264014Y-99621247D02*
X184264014Y-99859342D01*
X184264014Y-99859342D02*
X184216395Y-99954580D01*
X184216395Y-99954580D02*
X184168776Y-100002200D01*
X184168776Y-100002200D02*
X184073538Y-100049819D01*
X184073538Y-100049819D02*
X183835443Y-100049819D01*
X183835443Y-100049819D02*
X183740205Y-100002200D01*
X183740205Y-100002200D02*
X183692586Y-99954580D01*
X172715442Y-100049819D02*
X172382109Y-99573628D01*
X172144014Y-100049819D02*
X172144014Y-99049819D01*
X172144014Y-99049819D02*
X172524966Y-99049819D01*
X172524966Y-99049819D02*
X172620204Y-99097438D01*
X172620204Y-99097438D02*
X172667823Y-99145057D01*
X172667823Y-99145057D02*
X172715442Y-99240295D01*
X172715442Y-99240295D02*
X172715442Y-99383152D01*
X172715442Y-99383152D02*
X172667823Y-99478390D01*
X172667823Y-99478390D02*
X172620204Y-99526009D01*
X172620204Y-99526009D02*
X172524966Y-99573628D01*
X172524966Y-99573628D02*
X172144014Y-99573628D01*
X173667823Y-100049819D02*
X173096395Y-100049819D01*
X173382109Y-100049819D02*
X173382109Y-99049819D01*
X173382109Y-99049819D02*
X173286871Y-99192676D01*
X173286871Y-99192676D02*
X173191633Y-99287914D01*
X173191633Y-99287914D02*
X173096395Y-99335533D01*
X174286871Y-99049819D02*
X174382109Y-99049819D01*
X174382109Y-99049819D02*
X174477347Y-99097438D01*
X174477347Y-99097438D02*
X174524966Y-99145057D01*
X174524966Y-99145057D02*
X174572585Y-99240295D01*
X174572585Y-99240295D02*
X174620204Y-99430771D01*
X174620204Y-99430771D02*
X174620204Y-99668866D01*
X174620204Y-99668866D02*
X174572585Y-99859342D01*
X174572585Y-99859342D02*
X174524966Y-99954580D01*
X174524966Y-99954580D02*
X174477347Y-100002200D01*
X174477347Y-100002200D02*
X174382109Y-100049819D01*
X174382109Y-100049819D02*
X174286871Y-100049819D01*
X174286871Y-100049819D02*
X174191633Y-100002200D01*
X174191633Y-100002200D02*
X174144014Y-99954580D01*
X174144014Y-99954580D02*
X174096395Y-99859342D01*
X174096395Y-99859342D02*
X174048776Y-99668866D01*
X174048776Y-99668866D02*
X174048776Y-99430771D01*
X174048776Y-99430771D02*
X174096395Y-99240295D01*
X174096395Y-99240295D02*
X174144014Y-99145057D01*
X174144014Y-99145057D02*
X174191633Y-99097438D01*
X174191633Y-99097438D02*
X174286871Y-99049819D01*
X172715442Y-107049819D02*
X172382109Y-106573628D01*
X172144014Y-107049819D02*
X172144014Y-106049819D01*
X172144014Y-106049819D02*
X172524966Y-106049819D01*
X172524966Y-106049819D02*
X172620204Y-106097438D01*
X172620204Y-106097438D02*
X172667823Y-106145057D01*
X172667823Y-106145057D02*
X172715442Y-106240295D01*
X172715442Y-106240295D02*
X172715442Y-106383152D01*
X172715442Y-106383152D02*
X172667823Y-106478390D01*
X172667823Y-106478390D02*
X172620204Y-106526009D01*
X172620204Y-106526009D02*
X172524966Y-106573628D01*
X172524966Y-106573628D02*
X172144014Y-106573628D01*
X173667823Y-107049819D02*
X173096395Y-107049819D01*
X173382109Y-107049819D02*
X173382109Y-106049819D01*
X173382109Y-106049819D02*
X173286871Y-106192676D01*
X173286871Y-106192676D02*
X173191633Y-106287914D01*
X173191633Y-106287914D02*
X173096395Y-106335533D01*
X174048776Y-106145057D02*
X174096395Y-106097438D01*
X174096395Y-106097438D02*
X174191633Y-106049819D01*
X174191633Y-106049819D02*
X174429728Y-106049819D01*
X174429728Y-106049819D02*
X174524966Y-106097438D01*
X174524966Y-106097438D02*
X174572585Y-106145057D01*
X174572585Y-106145057D02*
X174620204Y-106240295D01*
X174620204Y-106240295D02*
X174620204Y-106335533D01*
X174620204Y-106335533D02*
X174572585Y-106478390D01*
X174572585Y-106478390D02*
X174001157Y-107049819D01*
X174001157Y-107049819D02*
X174620204Y-107049819D01*
X175191633Y-77349819D02*
X174858300Y-76873628D01*
X174620205Y-77349819D02*
X174620205Y-76349819D01*
X174620205Y-76349819D02*
X175001157Y-76349819D01*
X175001157Y-76349819D02*
X175096395Y-76397438D01*
X175096395Y-76397438D02*
X175144014Y-76445057D01*
X175144014Y-76445057D02*
X175191633Y-76540295D01*
X175191633Y-76540295D02*
X175191633Y-76683152D01*
X175191633Y-76683152D02*
X175144014Y-76778390D01*
X175144014Y-76778390D02*
X175096395Y-76826009D01*
X175096395Y-76826009D02*
X175001157Y-76873628D01*
X175001157Y-76873628D02*
X174620205Y-76873628D01*
X176096395Y-76349819D02*
X175620205Y-76349819D01*
X175620205Y-76349819D02*
X175572586Y-76826009D01*
X175572586Y-76826009D02*
X175620205Y-76778390D01*
X175620205Y-76778390D02*
X175715443Y-76730771D01*
X175715443Y-76730771D02*
X175953538Y-76730771D01*
X175953538Y-76730771D02*
X176048776Y-76778390D01*
X176048776Y-76778390D02*
X176096395Y-76826009D01*
X176096395Y-76826009D02*
X176144014Y-76921247D01*
X176144014Y-76921247D02*
X176144014Y-77159342D01*
X176144014Y-77159342D02*
X176096395Y-77254580D01*
X176096395Y-77254580D02*
X176048776Y-77302200D01*
X176048776Y-77302200D02*
X175953538Y-77349819D01*
X175953538Y-77349819D02*
X175715443Y-77349819D01*
X175715443Y-77349819D02*
X175620205Y-77302200D01*
X175620205Y-77302200D02*
X175572586Y-77254580D01*
X152856395Y-128549819D02*
X152856395Y-129359342D01*
X152856395Y-129359342D02*
X152904014Y-129454580D01*
X152904014Y-129454580D02*
X152951633Y-129502200D01*
X152951633Y-129502200D02*
X153046871Y-129549819D01*
X153046871Y-129549819D02*
X153237347Y-129549819D01*
X153237347Y-129549819D02*
X153332585Y-129502200D01*
X153332585Y-129502200D02*
X153380204Y-129454580D01*
X153380204Y-129454580D02*
X153427823Y-129359342D01*
X153427823Y-129359342D02*
X153427823Y-128549819D01*
X154427823Y-129549819D02*
X153856395Y-129549819D01*
X154142109Y-129549819D02*
X154142109Y-128549819D01*
X154142109Y-128549819D02*
X154046871Y-128692676D01*
X154046871Y-128692676D02*
X153951633Y-128787914D01*
X153951633Y-128787914D02*
X153856395Y-128835533D01*
D11*
X144221633Y-99773855D02*
X144221633Y-100345283D01*
X144221633Y-100345283D02*
X144183538Y-100459569D01*
X144183538Y-100459569D02*
X144107347Y-100535760D01*
X144107347Y-100535760D02*
X143993062Y-100573855D01*
X143993062Y-100573855D02*
X143916871Y-100573855D01*
X145021633Y-100573855D02*
X144564490Y-100573855D01*
X144793062Y-100573855D02*
X144793062Y-99773855D01*
X144793062Y-99773855D02*
X144716871Y-99888140D01*
X144716871Y-99888140D02*
X144640681Y-99964331D01*
X144640681Y-99964331D02*
X144564490Y-100002426D01*
D10*
X152356395Y-144949819D02*
X152356395Y-145759342D01*
X152356395Y-145759342D02*
X152404014Y-145854580D01*
X152404014Y-145854580D02*
X152451633Y-145902200D01*
X152451633Y-145902200D02*
X152546871Y-145949819D01*
X152546871Y-145949819D02*
X152737347Y-145949819D01*
X152737347Y-145949819D02*
X152832585Y-145902200D01*
X152832585Y-145902200D02*
X152880204Y-145854580D01*
X152880204Y-145854580D02*
X152927823Y-145759342D01*
X152927823Y-145759342D02*
X152927823Y-144949819D01*
X153356395Y-145902200D02*
X153499252Y-145949819D01*
X153499252Y-145949819D02*
X153737347Y-145949819D01*
X153737347Y-145949819D02*
X153832585Y-145902200D01*
X153832585Y-145902200D02*
X153880204Y-145854580D01*
X153880204Y-145854580D02*
X153927823Y-145759342D01*
X153927823Y-145759342D02*
X153927823Y-145664104D01*
X153927823Y-145664104D02*
X153880204Y-145568866D01*
X153880204Y-145568866D02*
X153832585Y-145521247D01*
X153832585Y-145521247D02*
X153737347Y-145473628D01*
X153737347Y-145473628D02*
X153546871Y-145426009D01*
X153546871Y-145426009D02*
X153451633Y-145378390D01*
X153451633Y-145378390D02*
X153404014Y-145330771D01*
X153404014Y-145330771D02*
X153356395Y-145235533D01*
X153356395Y-145235533D02*
X153356395Y-145140295D01*
X153356395Y-145140295D02*
X153404014Y-145045057D01*
X153404014Y-145045057D02*
X153451633Y-144997438D01*
X153451633Y-144997438D02*
X153546871Y-144949819D01*
X153546871Y-144949819D02*
X153784966Y-144949819D01*
X153784966Y-144949819D02*
X153927823Y-144997438D01*
X154689728Y-145426009D02*
X154832585Y-145473628D01*
X154832585Y-145473628D02*
X154880204Y-145521247D01*
X154880204Y-145521247D02*
X154927823Y-145616485D01*
X154927823Y-145616485D02*
X154927823Y-145759342D01*
X154927823Y-145759342D02*
X154880204Y-145854580D01*
X154880204Y-145854580D02*
X154832585Y-145902200D01*
X154832585Y-145902200D02*
X154737347Y-145949819D01*
X154737347Y-145949819D02*
X154356395Y-145949819D01*
X154356395Y-145949819D02*
X154356395Y-144949819D01*
X154356395Y-144949819D02*
X154689728Y-144949819D01*
X154689728Y-144949819D02*
X154784966Y-144997438D01*
X154784966Y-144997438D02*
X154832585Y-145045057D01*
X154832585Y-145045057D02*
X154880204Y-145140295D01*
X154880204Y-145140295D02*
X154880204Y-145235533D01*
X154880204Y-145235533D02*
X154832585Y-145330771D01*
X154832585Y-145330771D02*
X154784966Y-145378390D01*
X154784966Y-145378390D02*
X154689728Y-145426009D01*
X154689728Y-145426009D02*
X154356395Y-145426009D01*
D11*
X162481633Y-99773855D02*
X162481633Y-100345283D01*
X162481633Y-100345283D02*
X162443538Y-100459569D01*
X162443538Y-100459569D02*
X162367347Y-100535760D01*
X162367347Y-100535760D02*
X162253062Y-100573855D01*
X162253062Y-100573855D02*
X162176871Y-100573855D01*
X162786395Y-99773855D02*
X163281633Y-99773855D01*
X163281633Y-99773855D02*
X163014967Y-100078617D01*
X163014967Y-100078617D02*
X163129252Y-100078617D01*
X163129252Y-100078617D02*
X163205443Y-100116712D01*
X163205443Y-100116712D02*
X163243538Y-100154807D01*
X163243538Y-100154807D02*
X163281633Y-100230998D01*
X163281633Y-100230998D02*
X163281633Y-100421474D01*
X163281633Y-100421474D02*
X163243538Y-100497664D01*
X163243538Y-100497664D02*
X163205443Y-100535760D01*
X163205443Y-100535760D02*
X163129252Y-100573855D01*
X163129252Y-100573855D02*
X162900681Y-100573855D01*
X162900681Y-100573855D02*
X162824490Y-100535760D01*
X162824490Y-100535760D02*
X162786395Y-100497664D01*
D10*
X175191633Y-70949819D02*
X174858300Y-70473628D01*
X174620205Y-70949819D02*
X174620205Y-69949819D01*
X174620205Y-69949819D02*
X175001157Y-69949819D01*
X175001157Y-69949819D02*
X175096395Y-69997438D01*
X175096395Y-69997438D02*
X175144014Y-70045057D01*
X175144014Y-70045057D02*
X175191633Y-70140295D01*
X175191633Y-70140295D02*
X175191633Y-70283152D01*
X175191633Y-70283152D02*
X175144014Y-70378390D01*
X175144014Y-70378390D02*
X175096395Y-70426009D01*
X175096395Y-70426009D02*
X175001157Y-70473628D01*
X175001157Y-70473628D02*
X174620205Y-70473628D01*
X175524967Y-69949819D02*
X176144014Y-69949819D01*
X176144014Y-69949819D02*
X175810681Y-70330771D01*
X175810681Y-70330771D02*
X175953538Y-70330771D01*
X175953538Y-70330771D02*
X176048776Y-70378390D01*
X176048776Y-70378390D02*
X176096395Y-70426009D01*
X176096395Y-70426009D02*
X176144014Y-70521247D01*
X176144014Y-70521247D02*
X176144014Y-70759342D01*
X176144014Y-70759342D02*
X176096395Y-70854580D01*
X176096395Y-70854580D02*
X176048776Y-70902200D01*
X176048776Y-70902200D02*
X175953538Y-70949819D01*
X175953538Y-70949819D02*
X175667824Y-70949819D01*
X175667824Y-70949819D02*
X175572586Y-70902200D01*
X175572586Y-70902200D02*
X175524967Y-70854580D01*
X138823119Y-142178333D02*
X139537404Y-142178333D01*
X139537404Y-142178333D02*
X139680261Y-142225952D01*
X139680261Y-142225952D02*
X139775500Y-142321190D01*
X139775500Y-142321190D02*
X139823119Y-142464047D01*
X139823119Y-142464047D02*
X139823119Y-142559285D01*
X139823119Y-141178333D02*
X139823119Y-141749761D01*
X139823119Y-141464047D02*
X138823119Y-141464047D01*
X138823119Y-141464047D02*
X138965976Y-141559285D01*
X138965976Y-141559285D02*
X139061214Y-141654523D01*
X139061214Y-141654523D02*
X139108833Y-141749761D01*
X175191633Y-64549819D02*
X174858300Y-64073628D01*
X174620205Y-64549819D02*
X174620205Y-63549819D01*
X174620205Y-63549819D02*
X175001157Y-63549819D01*
X175001157Y-63549819D02*
X175096395Y-63597438D01*
X175096395Y-63597438D02*
X175144014Y-63645057D01*
X175144014Y-63645057D02*
X175191633Y-63740295D01*
X175191633Y-63740295D02*
X175191633Y-63883152D01*
X175191633Y-63883152D02*
X175144014Y-63978390D01*
X175144014Y-63978390D02*
X175096395Y-64026009D01*
X175096395Y-64026009D02*
X175001157Y-64073628D01*
X175001157Y-64073628D02*
X174620205Y-64073628D01*
X176144014Y-64549819D02*
X175572586Y-64549819D01*
X175858300Y-64549819D02*
X175858300Y-63549819D01*
X175858300Y-63549819D02*
X175763062Y-63692676D01*
X175763062Y-63692676D02*
X175667824Y-63787914D01*
X175667824Y-63787914D02*
X175572586Y-63835533D01*
X109516395Y-78901819D02*
X110087823Y-78901819D01*
X109802109Y-79901819D02*
X109802109Y-78901819D01*
X110421157Y-79901819D02*
X110421157Y-78901819D01*
X110421157Y-78901819D02*
X110802109Y-78901819D01*
X110802109Y-78901819D02*
X110897347Y-78949438D01*
X110897347Y-78949438D02*
X110944966Y-78997057D01*
X110944966Y-78997057D02*
X110992585Y-79092295D01*
X110992585Y-79092295D02*
X110992585Y-79235152D01*
X110992585Y-79235152D02*
X110944966Y-79330390D01*
X110944966Y-79330390D02*
X110897347Y-79378009D01*
X110897347Y-79378009D02*
X110802109Y-79425628D01*
X110802109Y-79425628D02*
X110421157Y-79425628D01*
X111849728Y-79235152D02*
X111849728Y-79901819D01*
X111611633Y-78854200D02*
X111373538Y-79568485D01*
X111373538Y-79568485D02*
X111992585Y-79568485D01*
X109516395Y-66901819D02*
X110087823Y-66901819D01*
X109802109Y-67901819D02*
X109802109Y-66901819D01*
X110421157Y-67901819D02*
X110421157Y-66901819D01*
X110421157Y-66901819D02*
X110802109Y-66901819D01*
X110802109Y-66901819D02*
X110897347Y-66949438D01*
X110897347Y-66949438D02*
X110944966Y-66997057D01*
X110944966Y-66997057D02*
X110992585Y-67092295D01*
X110992585Y-67092295D02*
X110992585Y-67235152D01*
X110992585Y-67235152D02*
X110944966Y-67330390D01*
X110944966Y-67330390D02*
X110897347Y-67378009D01*
X110897347Y-67378009D02*
X110802109Y-67425628D01*
X110802109Y-67425628D02*
X110421157Y-67425628D01*
X111944966Y-67901819D02*
X111373538Y-67901819D01*
X111659252Y-67901819D02*
X111659252Y-66901819D01*
X111659252Y-66901819D02*
X111564014Y-67044676D01*
X111564014Y-67044676D02*
X111468776Y-67139914D01*
X111468776Y-67139914D02*
X111373538Y-67187533D01*
X175191633Y-80549819D02*
X174858300Y-80073628D01*
X174620205Y-80549819D02*
X174620205Y-79549819D01*
X174620205Y-79549819D02*
X175001157Y-79549819D01*
X175001157Y-79549819D02*
X175096395Y-79597438D01*
X175096395Y-79597438D02*
X175144014Y-79645057D01*
X175144014Y-79645057D02*
X175191633Y-79740295D01*
X175191633Y-79740295D02*
X175191633Y-79883152D01*
X175191633Y-79883152D02*
X175144014Y-79978390D01*
X175144014Y-79978390D02*
X175096395Y-80026009D01*
X175096395Y-80026009D02*
X175001157Y-80073628D01*
X175001157Y-80073628D02*
X174620205Y-80073628D01*
X176048776Y-79549819D02*
X175858300Y-79549819D01*
X175858300Y-79549819D02*
X175763062Y-79597438D01*
X175763062Y-79597438D02*
X175715443Y-79645057D01*
X175715443Y-79645057D02*
X175620205Y-79787914D01*
X175620205Y-79787914D02*
X175572586Y-79978390D01*
X175572586Y-79978390D02*
X175572586Y-80359342D01*
X175572586Y-80359342D02*
X175620205Y-80454580D01*
X175620205Y-80454580D02*
X175667824Y-80502200D01*
X175667824Y-80502200D02*
X175763062Y-80549819D01*
X175763062Y-80549819D02*
X175953538Y-80549819D01*
X175953538Y-80549819D02*
X176048776Y-80502200D01*
X176048776Y-80502200D02*
X176096395Y-80454580D01*
X176096395Y-80454580D02*
X176144014Y-80359342D01*
X176144014Y-80359342D02*
X176144014Y-80121247D01*
X176144014Y-80121247D02*
X176096395Y-80026009D01*
X176096395Y-80026009D02*
X176048776Y-79978390D01*
X176048776Y-79978390D02*
X175953538Y-79930771D01*
X175953538Y-79930771D02*
X175763062Y-79930771D01*
X175763062Y-79930771D02*
X175667824Y-79978390D01*
X175667824Y-79978390D02*
X175620205Y-80026009D01*
X175620205Y-80026009D02*
X175572586Y-80121247D01*
X122420205Y-122269819D02*
X122420205Y-121269819D01*
X122420205Y-121269819D02*
X122658300Y-121269819D01*
X122658300Y-121269819D02*
X122801157Y-121317438D01*
X122801157Y-121317438D02*
X122896395Y-121412676D01*
X122896395Y-121412676D02*
X122944014Y-121507914D01*
X122944014Y-121507914D02*
X122991633Y-121698390D01*
X122991633Y-121698390D02*
X122991633Y-121841247D01*
X122991633Y-121841247D02*
X122944014Y-122031723D01*
X122944014Y-122031723D02*
X122896395Y-122126961D01*
X122896395Y-122126961D02*
X122801157Y-122222200D01*
X122801157Y-122222200D02*
X122658300Y-122269819D01*
X122658300Y-122269819D02*
X122420205Y-122269819D01*
X123944014Y-122269819D02*
X123372586Y-122269819D01*
X123658300Y-122269819D02*
X123658300Y-121269819D01*
X123658300Y-121269819D02*
X123563062Y-121412676D01*
X123563062Y-121412676D02*
X123467824Y-121507914D01*
X123467824Y-121507914D02*
X123372586Y-121555533D01*
X130516395Y-121149819D02*
X130516395Y-120149819D01*
X131087823Y-121149819D02*
X130659252Y-120578390D01*
X131087823Y-120149819D02*
X130516395Y-120721247D01*
X175191633Y-86949819D02*
X174858300Y-86473628D01*
X174620205Y-86949819D02*
X174620205Y-85949819D01*
X174620205Y-85949819D02*
X175001157Y-85949819D01*
X175001157Y-85949819D02*
X175096395Y-85997438D01*
X175096395Y-85997438D02*
X175144014Y-86045057D01*
X175144014Y-86045057D02*
X175191633Y-86140295D01*
X175191633Y-86140295D02*
X175191633Y-86283152D01*
X175191633Y-86283152D02*
X175144014Y-86378390D01*
X175144014Y-86378390D02*
X175096395Y-86426009D01*
X175096395Y-86426009D02*
X175001157Y-86473628D01*
X175001157Y-86473628D02*
X174620205Y-86473628D01*
X175763062Y-86378390D02*
X175667824Y-86330771D01*
X175667824Y-86330771D02*
X175620205Y-86283152D01*
X175620205Y-86283152D02*
X175572586Y-86187914D01*
X175572586Y-86187914D02*
X175572586Y-86140295D01*
X175572586Y-86140295D02*
X175620205Y-86045057D01*
X175620205Y-86045057D02*
X175667824Y-85997438D01*
X175667824Y-85997438D02*
X175763062Y-85949819D01*
X175763062Y-85949819D02*
X175953538Y-85949819D01*
X175953538Y-85949819D02*
X176048776Y-85997438D01*
X176048776Y-85997438D02*
X176096395Y-86045057D01*
X176096395Y-86045057D02*
X176144014Y-86140295D01*
X176144014Y-86140295D02*
X176144014Y-86187914D01*
X176144014Y-86187914D02*
X176096395Y-86283152D01*
X176096395Y-86283152D02*
X176048776Y-86330771D01*
X176048776Y-86330771D02*
X175953538Y-86378390D01*
X175953538Y-86378390D02*
X175763062Y-86378390D01*
X175763062Y-86378390D02*
X175667824Y-86426009D01*
X175667824Y-86426009D02*
X175620205Y-86473628D01*
X175620205Y-86473628D02*
X175572586Y-86568866D01*
X175572586Y-86568866D02*
X175572586Y-86759342D01*
X175572586Y-86759342D02*
X175620205Y-86854580D01*
X175620205Y-86854580D02*
X175667824Y-86902200D01*
X175667824Y-86902200D02*
X175763062Y-86949819D01*
X175763062Y-86949819D02*
X175953538Y-86949819D01*
X175953538Y-86949819D02*
X176048776Y-86902200D01*
X176048776Y-86902200D02*
X176096395Y-86854580D01*
X176096395Y-86854580D02*
X176144014Y-86759342D01*
X176144014Y-86759342D02*
X176144014Y-86568866D01*
X176144014Y-86568866D02*
X176096395Y-86473628D01*
X176096395Y-86473628D02*
X176048776Y-86426009D01*
X176048776Y-86426009D02*
X175953538Y-86378390D01*
X175191633Y-83749819D02*
X174858300Y-83273628D01*
X174620205Y-83749819D02*
X174620205Y-82749819D01*
X174620205Y-82749819D02*
X175001157Y-82749819D01*
X175001157Y-82749819D02*
X175096395Y-82797438D01*
X175096395Y-82797438D02*
X175144014Y-82845057D01*
X175144014Y-82845057D02*
X175191633Y-82940295D01*
X175191633Y-82940295D02*
X175191633Y-83083152D01*
X175191633Y-83083152D02*
X175144014Y-83178390D01*
X175144014Y-83178390D02*
X175096395Y-83226009D01*
X175096395Y-83226009D02*
X175001157Y-83273628D01*
X175001157Y-83273628D02*
X174620205Y-83273628D01*
X175524967Y-82749819D02*
X176191633Y-82749819D01*
X176191633Y-82749819D02*
X175763062Y-83749819D01*
%TO.C,TP2*%
D11*
X109828300Y-72145000D02*
X111728300Y-72145000D01*
X109828300Y-74045000D02*
X109828300Y-72145000D01*
X111728300Y-72145000D02*
X111728300Y-74045000D01*
X111728300Y-74045000D02*
X109828300Y-74045000D01*
%TO.C,J3*%
X124568300Y-57765000D02*
X152768300Y-57765000D01*
X124568300Y-66885000D02*
X124568300Y-57765000D01*
X125868300Y-59075000D02*
X151468300Y-59075000D01*
X125868300Y-65575000D02*
X125868300Y-59075000D01*
X129278300Y-68275000D02*
X130278300Y-68275000D01*
X129778300Y-67275000D02*
X129278300Y-68275000D01*
X130278300Y-68275000D02*
X129778300Y-67275000D01*
X136618300Y-65575000D02*
X125868300Y-65575000D01*
X136618300Y-66885000D02*
X136618300Y-65575000D01*
X140718300Y-65575000D02*
X140718300Y-66885000D01*
X151468300Y-59075000D02*
X151468300Y-65575000D01*
X151468300Y-65575000D02*
X140718300Y-65575000D01*
X152768300Y-57765000D02*
X152768300Y-66885000D01*
X152768300Y-66885000D02*
X124568300Y-66885000D01*
%TO.C,F1*%
X118798300Y-126095000D02*
X119200300Y-126095000D01*
X118798300Y-126484000D02*
X118798300Y-126095000D01*
X118798300Y-129295000D02*
X118798300Y-127706000D01*
X120356300Y-126095000D02*
X125858300Y-126095000D01*
X124300300Y-129295000D02*
X118798300Y-129295000D01*
X125858300Y-126095000D02*
X125858300Y-127684000D01*
X125858300Y-128906000D02*
X125858300Y-129295000D01*
X125858300Y-129295000D02*
X125456300Y-129295000D01*
%TO.C,U2*%
X160938300Y-56265000D02*
X160938300Y-79245000D01*
X160938300Y-79245000D02*
X166238300Y-79245000D01*
X162588300Y-56265000D02*
X160938300Y-56265000D01*
X166238300Y-56265000D02*
X164588300Y-56265000D01*
X166238300Y-79245000D02*
X166238300Y-56265000D01*
X158448300Y-56205000D02*
X168728300Y-56205000D01*
X168728300Y-79305000D01*
X158448300Y-79305000D01*
X158448300Y-56205000D01*
X164588300Y-56265000D02*
G75*
G02*
X162588300Y-56265000I-1000000J0D01*
G01*
%TO.C,C4*%
X168158300Y-109225000D02*
X173398300Y-109225000D01*
X168158300Y-109562000D02*
X168158300Y-109225000D01*
X168158300Y-111965000D02*
X168158300Y-111628000D01*
X173398300Y-109225000D02*
X173398300Y-109562000D01*
X173398300Y-111628000D02*
X173398300Y-111965000D01*
X173398300Y-111965000D02*
X168158300Y-111965000D01*
%TO.C,RN1*%
X129048300Y-70285000D02*
X129048300Y-72905000D01*
X126428300Y-70285000D02*
X149448300Y-70285000D01*
X149448300Y-72905000D01*
X126428300Y-72905000D01*
X126428300Y-70285000D01*
%TO.C,TP5*%
X109828300Y-84145000D02*
X111728300Y-84145000D01*
X109828300Y-86045000D02*
X109828300Y-84145000D01*
X111728300Y-84145000D02*
X111728300Y-86045000D01*
X111728300Y-86045000D02*
X109828300Y-86045000D01*
%TO.C,R11*%
X169318300Y-103095000D02*
X170088300Y-103095000D01*
X177398300Y-103095000D02*
X176628300Y-103095000D01*
X170088300Y-101725000D02*
X176628300Y-101725000D01*
X176628300Y-104465000D01*
X170088300Y-104465000D01*
X170088300Y-101725000D01*
%TO.C,R2*%
X171318300Y-67295000D02*
X172088300Y-67295000D01*
X179398300Y-67295000D02*
X178628300Y-67295000D01*
X172088300Y-65925000D02*
X178628300Y-65925000D01*
X178628300Y-68665000D01*
X172088300Y-68665000D01*
X172088300Y-65925000D01*
%TO.C,C8*%
X180858300Y-105225000D02*
X186098300Y-105225000D01*
X180858300Y-105562000D02*
X180858300Y-105225000D01*
X180858300Y-107965000D02*
X180858300Y-107628000D01*
X186098300Y-105225000D02*
X186098300Y-105562000D01*
X186098300Y-107628000D02*
X186098300Y-107965000D01*
X186098300Y-107965000D02*
X180858300Y-107965000D01*
%TO.C,J4*%
X184398300Y-83715000D02*
X185778300Y-83715000D01*
X184398300Y-85095000D02*
X184398300Y-83715000D01*
X184398300Y-86365000D02*
X184398300Y-94095000D01*
X184398300Y-86365000D02*
X187158300Y-86365000D01*
X184398300Y-94095000D02*
X187158300Y-94095000D01*
X187158300Y-86365000D02*
X187158300Y-94095000D01*
%TO.C,J2*%
X167568300Y-115765000D02*
X183068300Y-115765000D01*
X167568300Y-124885000D02*
X167568300Y-115765000D01*
X168868300Y-117075000D02*
X181768300Y-117075000D01*
X168868300Y-123575000D02*
X168868300Y-117075000D01*
X172278300Y-126275000D02*
X173278300Y-126275000D01*
X172778300Y-125275000D02*
X172278300Y-126275000D01*
X173268300Y-123575000D02*
X168868300Y-123575000D01*
X173268300Y-124885000D02*
X173268300Y-123575000D01*
X173278300Y-126275000D02*
X172778300Y-125275000D01*
X177368300Y-123575000D02*
X177368300Y-124885000D01*
X181768300Y-117075000D02*
X181768300Y-123575000D01*
X181768300Y-123575000D02*
X177368300Y-123575000D01*
X183068300Y-115765000D02*
X183068300Y-124885000D01*
X183068300Y-124885000D02*
X167568300Y-124885000D01*
%TO.C,TP3*%
X109828300Y-76145000D02*
X111728300Y-76145000D01*
X109828300Y-78045000D02*
X109828300Y-76145000D01*
X111728300Y-76145000D02*
X111728300Y-78045000D01*
X111728300Y-78045000D02*
X109828300Y-78045000D01*
%TO.C,C1*%
X118118602Y-104780000D02*
X118918602Y-104780000D01*
X118518602Y-104380000D02*
X118518602Y-105180000D01*
X122528300Y-103015000D02*
X122528300Y-111175000D01*
X122568300Y-103015000D02*
X122568300Y-111175000D01*
X122608300Y-103016000D02*
X122608300Y-111174000D01*
X122648300Y-103017000D02*
X122648300Y-111173000D01*
X122688300Y-103018000D02*
X122688300Y-111172000D01*
X122728300Y-103020000D02*
X122728300Y-111170000D01*
X122768300Y-103022000D02*
X122768300Y-111168000D01*
X122808300Y-103025000D02*
X122808300Y-111165000D01*
X122848300Y-103027000D02*
X122848300Y-111163000D01*
X122888300Y-103031000D02*
X122888300Y-111159000D01*
X122928300Y-103034000D02*
X122928300Y-111156000D01*
X122968300Y-103039000D02*
X122968300Y-111151000D01*
X123008300Y-103043000D02*
X123008300Y-111147000D01*
X123048300Y-103048000D02*
X123048300Y-111142000D01*
X123088300Y-103053000D02*
X123088300Y-111137000D01*
X123128300Y-103059000D02*
X123128300Y-111131000D01*
X123168300Y-103065000D02*
X123168300Y-111125000D01*
X123208300Y-103072000D02*
X123208300Y-111118000D01*
X123248300Y-103078000D02*
X123248300Y-106055000D01*
X123248300Y-108135000D02*
X123248300Y-111112000D01*
X123288300Y-103086000D02*
X123288300Y-106055000D01*
X123288300Y-108135000D02*
X123288300Y-111104000D01*
X123328300Y-103093000D02*
X123328300Y-106055000D01*
X123328300Y-108135000D02*
X123328300Y-111097000D01*
X123368300Y-103102000D02*
X123368300Y-106055000D01*
X123368300Y-108135000D02*
X123368300Y-111088000D01*
X123408300Y-103110000D02*
X123408300Y-106055000D01*
X123408300Y-108135000D02*
X123408300Y-111080000D01*
X123448300Y-103119000D02*
X123448300Y-106055000D01*
X123448300Y-108135000D02*
X123448300Y-111071000D01*
X123488300Y-103128000D02*
X123488300Y-106055000D01*
X123488300Y-108135000D02*
X123488300Y-111062000D01*
X123528300Y-103138000D02*
X123528300Y-106055000D01*
X123528300Y-108135000D02*
X123528300Y-111052000D01*
X123568300Y-103148000D02*
X123568300Y-106055000D01*
X123568300Y-108135000D02*
X123568300Y-111042000D01*
X123608300Y-103159000D02*
X123608300Y-106055000D01*
X123608300Y-108135000D02*
X123608300Y-111031000D01*
X123648300Y-103170000D02*
X123648300Y-106055000D01*
X123648300Y-108135000D02*
X123648300Y-111020000D01*
X123688300Y-103182000D02*
X123688300Y-106055000D01*
X123688300Y-108135000D02*
X123688300Y-111008000D01*
X123728300Y-103194000D02*
X123728300Y-106055000D01*
X123728300Y-108135000D02*
X123728300Y-110996000D01*
X123768300Y-103206000D02*
X123768300Y-106055000D01*
X123768300Y-108135000D02*
X123768300Y-110984000D01*
X123808300Y-103219000D02*
X123808300Y-106055000D01*
X123808300Y-108135000D02*
X123808300Y-110971000D01*
X123848300Y-103232000D02*
X123848300Y-106055000D01*
X123848300Y-108135000D02*
X123848300Y-110958000D01*
X123888300Y-103246000D02*
X123888300Y-106055000D01*
X123888300Y-108135000D02*
X123888300Y-110944000D01*
X123928300Y-103260000D02*
X123928300Y-106055000D01*
X123928300Y-108135000D02*
X123928300Y-110930000D01*
X123968300Y-103275000D02*
X123968300Y-106055000D01*
X123968300Y-108135000D02*
X123968300Y-110915000D01*
X124008300Y-103290000D02*
X124008300Y-106055000D01*
X124008300Y-108135000D02*
X124008300Y-110900000D01*
X124048300Y-103306000D02*
X124048300Y-106055000D01*
X124048300Y-108135000D02*
X124048300Y-110884000D01*
X124088300Y-103322000D02*
X124088300Y-106055000D01*
X124088300Y-108135000D02*
X124088300Y-110868000D01*
X124128300Y-103338000D02*
X124128300Y-106055000D01*
X124128300Y-108135000D02*
X124128300Y-110852000D01*
X124168300Y-103355000D02*
X124168300Y-106055000D01*
X124168300Y-108135000D02*
X124168300Y-110835000D01*
X124208300Y-103373000D02*
X124208300Y-106055000D01*
X124208300Y-108135000D02*
X124208300Y-110817000D01*
X124248300Y-103391000D02*
X124248300Y-106055000D01*
X124248300Y-108135000D02*
X124248300Y-110799000D01*
X124288300Y-103410000D02*
X124288300Y-106055000D01*
X124288300Y-108135000D02*
X124288300Y-110780000D01*
X124328300Y-103429000D02*
X124328300Y-106055000D01*
X124328300Y-108135000D02*
X124328300Y-110761000D01*
X124368300Y-103449000D02*
X124368300Y-106055000D01*
X124368300Y-108135000D02*
X124368300Y-110741000D01*
X124408300Y-103469000D02*
X124408300Y-106055000D01*
X124408300Y-108135000D02*
X124408300Y-110721000D01*
X124448300Y-103490000D02*
X124448300Y-106055000D01*
X124448300Y-108135000D02*
X124448300Y-110700000D01*
X124488300Y-103511000D02*
X124488300Y-106055000D01*
X124488300Y-108135000D02*
X124488300Y-110679000D01*
X124528300Y-103533000D02*
X124528300Y-106055000D01*
X124528300Y-108135000D02*
X124528300Y-110657000D01*
X124568300Y-103556000D02*
X124568300Y-106055000D01*
X124568300Y-108135000D02*
X124568300Y-110634000D01*
X124608300Y-103579000D02*
X124608300Y-106055000D01*
X124608300Y-108135000D02*
X124608300Y-110611000D01*
X124648300Y-103602000D02*
X124648300Y-106055000D01*
X124648300Y-108135000D02*
X124648300Y-110588000D01*
X124688300Y-103627000D02*
X124688300Y-106055000D01*
X124688300Y-108135000D02*
X124688300Y-110563000D01*
X124728300Y-103652000D02*
X124728300Y-106055000D01*
X124728300Y-108135000D02*
X124728300Y-110538000D01*
X124768300Y-103677000D02*
X124768300Y-106055000D01*
X124768300Y-108135000D02*
X124768300Y-110513000D01*
X124808300Y-103703000D02*
X124808300Y-106055000D01*
X124808300Y-108135000D02*
X124808300Y-110487000D01*
X124848300Y-103730000D02*
X124848300Y-106055000D01*
X124848300Y-108135000D02*
X124848300Y-110460000D01*
X124888300Y-103758000D02*
X124888300Y-106055000D01*
X124888300Y-108135000D02*
X124888300Y-110432000D01*
X124928300Y-103786000D02*
X124928300Y-106055000D01*
X124928300Y-108135000D02*
X124928300Y-110404000D01*
X124968300Y-103815000D02*
X124968300Y-106055000D01*
X124968300Y-108135000D02*
X124968300Y-110375000D01*
X125008300Y-103845000D02*
X125008300Y-106055000D01*
X125008300Y-108135000D02*
X125008300Y-110345000D01*
X125048300Y-103876000D02*
X125048300Y-106055000D01*
X125048300Y-108135000D02*
X125048300Y-110314000D01*
X125088300Y-103907000D02*
X125088300Y-106055000D01*
X125088300Y-108135000D02*
X125088300Y-110283000D01*
X125128300Y-103939000D02*
X125128300Y-106055000D01*
X125128300Y-108135000D02*
X125128300Y-110251000D01*
X125168300Y-103972000D02*
X125168300Y-106055000D01*
X125168300Y-108135000D02*
X125168300Y-110218000D01*
X125208300Y-104006000D02*
X125208300Y-106055000D01*
X125208300Y-108135000D02*
X125208300Y-110184000D01*
X125248300Y-104040000D02*
X125248300Y-106055000D01*
X125248300Y-108135000D02*
X125248300Y-110150000D01*
X125288300Y-104076000D02*
X125288300Y-106055000D01*
X125288300Y-108135000D02*
X125288300Y-110114000D01*
X125328300Y-104113000D02*
X125328300Y-110077000D01*
X125368300Y-104150000D02*
X125368300Y-110040000D01*
X125408300Y-104189000D02*
X125408300Y-110001000D01*
X125448300Y-104228000D02*
X125448300Y-109962000D01*
X125488300Y-104269000D02*
X125488300Y-109921000D01*
X125528300Y-104311000D02*
X125528300Y-109879000D01*
X125568300Y-104354000D02*
X125568300Y-109836000D01*
X125608300Y-104399000D02*
X125608300Y-109791000D01*
X125648300Y-104444000D02*
X125648300Y-109746000D01*
X125688300Y-104491000D02*
X125688300Y-109699000D01*
X125728300Y-104540000D02*
X125728300Y-109650000D01*
X125768300Y-104590000D02*
X125768300Y-109600000D01*
X125808300Y-104642000D02*
X125808300Y-109548000D01*
X125848300Y-104695000D02*
X125848300Y-109495000D01*
X125888300Y-104751000D02*
X125888300Y-109439000D01*
X125928300Y-104808000D02*
X125928300Y-109382000D01*
X125968300Y-104868000D02*
X125968300Y-109322000D01*
X126008300Y-104930000D02*
X126008300Y-109260000D01*
X126048300Y-104994000D02*
X126048300Y-109196000D01*
X126088300Y-105061000D02*
X126088300Y-109129000D01*
X126128300Y-105131000D02*
X126128300Y-109059000D01*
X126168300Y-105205000D02*
X126168300Y-108985000D01*
X126208300Y-105282000D02*
X126208300Y-108908000D01*
X126248300Y-105364000D02*
X126248300Y-108826000D01*
X126288300Y-105451000D02*
X126288300Y-108739000D01*
X126328300Y-105543000D02*
X126328300Y-108647000D01*
X126368300Y-105642000D02*
X126368300Y-108548000D01*
X126408300Y-105749000D02*
X126408300Y-108441000D01*
X126448300Y-105867000D02*
X126448300Y-108323000D01*
X126488300Y-105998000D02*
X126488300Y-108192000D01*
X126528300Y-106148000D02*
X126528300Y-108042000D01*
X126568300Y-106327000D02*
X126568300Y-107863000D01*
X126608300Y-106562000D02*
X126608300Y-107628000D01*
X126648300Y-107095000D02*
G75*
G02*
X118408300Y-107095000I-4120000J0D01*
G01*
X118408300Y-107095000D02*
G75*
G02*
X126648300Y-107095000I4120000J0D01*
G01*
%TO.C,R9*%
X118818300Y-79095000D02*
X119588300Y-79095000D01*
X126898300Y-79095000D02*
X126128300Y-79095000D01*
X119588300Y-77725000D02*
X126128300Y-77725000D01*
X126128300Y-80465000D01*
X119588300Y-80465000D01*
X119588300Y-77725000D01*
%TO.C,C6*%
X177973525Y-109620000D02*
X178473525Y-109620000D01*
X178223525Y-109370000D02*
X178223525Y-109870000D01*
X180778300Y-108515000D02*
X180778300Y-110055000D01*
X180778300Y-112135000D02*
X180778300Y-113675000D01*
X180818300Y-108515000D02*
X180818300Y-110055000D01*
X180818300Y-112135000D02*
X180818300Y-113675000D01*
X180858300Y-108516000D02*
X180858300Y-110055000D01*
X180858300Y-112135000D02*
X180858300Y-113674000D01*
X180898300Y-108518000D02*
X180898300Y-110055000D01*
X180898300Y-112135000D02*
X180898300Y-113672000D01*
X180938300Y-108520000D02*
X180938300Y-110055000D01*
X180938300Y-112135000D02*
X180938300Y-113670000D01*
X180978300Y-108523000D02*
X180978300Y-110055000D01*
X180978300Y-112135000D02*
X180978300Y-113667000D01*
X181018300Y-108526000D02*
X181018300Y-110055000D01*
X181018300Y-112135000D02*
X181018300Y-113664000D01*
X181058300Y-108530000D02*
X181058300Y-110055000D01*
X181058300Y-112135000D02*
X181058300Y-113660000D01*
X181098300Y-108535000D02*
X181098300Y-110055000D01*
X181098300Y-112135000D02*
X181098300Y-113655000D01*
X181138300Y-108540000D02*
X181138300Y-110055000D01*
X181138300Y-112135000D02*
X181138300Y-113650000D01*
X181178300Y-108546000D02*
X181178300Y-110055000D01*
X181178300Y-112135000D02*
X181178300Y-113644000D01*
X181218300Y-108552000D02*
X181218300Y-110055000D01*
X181218300Y-112135000D02*
X181218300Y-113638000D01*
X181258300Y-108559000D02*
X181258300Y-110055000D01*
X181258300Y-112135000D02*
X181258300Y-113631000D01*
X181298300Y-108567000D02*
X181298300Y-110055000D01*
X181298300Y-112135000D02*
X181298300Y-113623000D01*
X181338300Y-108576000D02*
X181338300Y-110055000D01*
X181338300Y-112135000D02*
X181338300Y-113614000D01*
X181378300Y-108585000D02*
X181378300Y-110055000D01*
X181378300Y-112135000D02*
X181378300Y-113605000D01*
X181418300Y-108594000D02*
X181418300Y-110055000D01*
X181418300Y-112135000D02*
X181418300Y-113596000D01*
X181458300Y-108605000D02*
X181458300Y-110055000D01*
X181458300Y-112135000D02*
X181458300Y-113585000D01*
X181498300Y-108616000D02*
X181498300Y-110055000D01*
X181498300Y-112135000D02*
X181498300Y-113574000D01*
X181538300Y-108628000D02*
X181538300Y-110055000D01*
X181538300Y-112135000D02*
X181538300Y-113562000D01*
X181578300Y-108640000D02*
X181578300Y-110055000D01*
X181578300Y-112135000D02*
X181578300Y-113550000D01*
X181618300Y-108653000D02*
X181618300Y-110055000D01*
X181618300Y-112135000D02*
X181618300Y-113537000D01*
X181658300Y-108667000D02*
X181658300Y-110055000D01*
X181658300Y-112135000D02*
X181658300Y-113523000D01*
X181698300Y-108682000D02*
X181698300Y-110055000D01*
X181698300Y-112135000D02*
X181698300Y-113508000D01*
X181738300Y-108697000D02*
X181738300Y-110055000D01*
X181738300Y-112135000D02*
X181738300Y-113493000D01*
X181778300Y-108713000D02*
X181778300Y-110055000D01*
X181778300Y-112135000D02*
X181778300Y-113477000D01*
X181818300Y-108730000D02*
X181818300Y-110055000D01*
X181818300Y-112135000D02*
X181818300Y-113460000D01*
X181858300Y-108748000D02*
X181858300Y-110055000D01*
X181858300Y-112135000D02*
X181858300Y-113442000D01*
X181898300Y-108766000D02*
X181898300Y-110055000D01*
X181898300Y-112135000D02*
X181898300Y-113424000D01*
X181938300Y-108786000D02*
X181938300Y-110055000D01*
X181938300Y-112135000D02*
X181938300Y-113404000D01*
X181978300Y-108806000D02*
X181978300Y-110055000D01*
X181978300Y-112135000D02*
X181978300Y-113384000D01*
X182018300Y-108827000D02*
X182018300Y-110055000D01*
X182018300Y-112135000D02*
X182018300Y-113363000D01*
X182058300Y-108849000D02*
X182058300Y-110055000D01*
X182058300Y-112135000D02*
X182058300Y-113341000D01*
X182098300Y-108872000D02*
X182098300Y-110055000D01*
X182098300Y-112135000D02*
X182098300Y-113318000D01*
X182138300Y-108896000D02*
X182138300Y-110055000D01*
X182138300Y-112135000D02*
X182138300Y-113294000D01*
X182178300Y-108920000D02*
X182178300Y-110055000D01*
X182178300Y-112135000D02*
X182178300Y-113270000D01*
X182218300Y-108946000D02*
X182218300Y-110055000D01*
X182218300Y-112135000D02*
X182218300Y-113244000D01*
X182258300Y-108973000D02*
X182258300Y-110055000D01*
X182258300Y-112135000D02*
X182258300Y-113217000D01*
X182298300Y-109001000D02*
X182298300Y-110055000D01*
X182298300Y-112135000D02*
X182298300Y-113189000D01*
X182338300Y-109030000D02*
X182338300Y-110055000D01*
X182338300Y-112135000D02*
X182338300Y-113160000D01*
X182378300Y-109060000D02*
X182378300Y-110055000D01*
X182378300Y-112135000D02*
X182378300Y-113130000D01*
X182418300Y-109092000D02*
X182418300Y-110055000D01*
X182418300Y-112135000D02*
X182418300Y-113098000D01*
X182458300Y-109125000D02*
X182458300Y-110055000D01*
X182458300Y-112135000D02*
X182458300Y-113065000D01*
X182498300Y-109159000D02*
X182498300Y-110055000D01*
X182498300Y-112135000D02*
X182498300Y-113031000D01*
X182538300Y-109194000D02*
X182538300Y-110055000D01*
X182538300Y-112135000D02*
X182538300Y-112996000D01*
X182578300Y-109231000D02*
X182578300Y-110055000D01*
X182578300Y-112135000D02*
X182578300Y-112959000D01*
X182618300Y-109270000D02*
X182618300Y-110055000D01*
X182618300Y-112135000D02*
X182618300Y-112920000D01*
X182658300Y-109310000D02*
X182658300Y-110055000D01*
X182658300Y-112135000D02*
X182658300Y-112880000D01*
X182698300Y-109352000D02*
X182698300Y-110055000D01*
X182698300Y-112135000D02*
X182698300Y-112838000D01*
X182738300Y-109396000D02*
X182738300Y-110055000D01*
X182738300Y-112135000D02*
X182738300Y-112794000D01*
X182778300Y-109443000D02*
X182778300Y-110055000D01*
X182778300Y-112135000D02*
X182778300Y-112747000D01*
X182818300Y-109491000D02*
X182818300Y-112699000D01*
X182858300Y-109542000D02*
X182858300Y-112648000D01*
X182898300Y-109596000D02*
X182898300Y-112594000D01*
X182938300Y-109652000D02*
X182938300Y-112538000D01*
X182978300Y-109712000D02*
X182978300Y-112478000D01*
X183018300Y-109776000D02*
X183018300Y-112414000D01*
X183058300Y-109844000D02*
X183058300Y-112346000D01*
X183098300Y-109918000D02*
X183098300Y-112272000D01*
X183138300Y-109997000D02*
X183138300Y-112193000D01*
X183178300Y-110084000D02*
X183178300Y-112106000D01*
X183218300Y-110181000D02*
X183218300Y-112009000D01*
X183258300Y-110290000D02*
X183258300Y-111900000D01*
X183298300Y-110418000D02*
X183298300Y-111772000D01*
X183338300Y-110578000D02*
X183338300Y-111612000D01*
X183378300Y-110812000D02*
X183378300Y-111378000D01*
X183398300Y-111095000D02*
G75*
G02*
X178158300Y-111095000I-2620000J0D01*
G01*
X178158300Y-111095000D02*
G75*
G02*
X183398300Y-111095000I2620000J0D01*
G01*
%TO.C,C2*%
X151158300Y-76725000D02*
X156398300Y-76725000D01*
X151158300Y-77062000D02*
X151158300Y-76725000D01*
X151158300Y-79465000D02*
X151158300Y-79128000D01*
X156398300Y-76725000D02*
X156398300Y-77062000D01*
X156398300Y-79128000D02*
X156398300Y-79465000D01*
X156398300Y-79465000D02*
X151158300Y-79465000D01*
%TO.C,TP6*%
X109828300Y-88145000D02*
X111728300Y-88145000D01*
X109828300Y-90045000D02*
X109828300Y-88145000D01*
X111728300Y-88145000D02*
X111728300Y-90045000D01*
X111728300Y-90045000D02*
X109828300Y-90045000D01*
%TO.C,R4*%
X171318300Y-73695000D02*
X172088300Y-73695000D01*
X179398300Y-73695000D02*
X178628300Y-73695000D01*
X172088300Y-72325000D02*
X178628300Y-72325000D01*
X178628300Y-75065000D01*
X172088300Y-75065000D01*
X172088300Y-72325000D01*
%TO.C,D2*%
X112938300Y-97175000D02*
X120778300Y-97175000D01*
X112938300Y-97655000D02*
X112938300Y-97175000D01*
X112938300Y-100535000D02*
X112938300Y-101015000D01*
X112938300Y-101015000D02*
X120778300Y-101015000D01*
X114078300Y-97175000D02*
X114078300Y-101015000D01*
X114198300Y-97175000D02*
X114198300Y-101015000D01*
X114318300Y-97175000D02*
X114318300Y-101015000D01*
X120778300Y-97175000D02*
X120778300Y-97655000D01*
X120778300Y-101015000D02*
X120778300Y-100535000D01*
%TO.C,C3*%
X129658300Y-107725000D02*
X134898300Y-107725000D01*
X129658300Y-108062000D02*
X129658300Y-107725000D01*
X129658300Y-110465000D02*
X129658300Y-110128000D01*
X134898300Y-107725000D02*
X134898300Y-108062000D01*
X134898300Y-110128000D02*
X134898300Y-110465000D01*
X134898300Y-110465000D02*
X129658300Y-110465000D01*
%TO.C,C7*%
X180858300Y-101725000D02*
X186098300Y-101725000D01*
X180858300Y-102062000D02*
X180858300Y-101725000D01*
X180858300Y-104465000D02*
X180858300Y-104128000D01*
X186098300Y-101725000D02*
X186098300Y-102062000D01*
X186098300Y-104128000D02*
X186098300Y-104465000D01*
X186098300Y-104465000D02*
X180858300Y-104465000D01*
%TO.C,C5*%
X180858300Y-98225000D02*
X186098300Y-98225000D01*
X180858300Y-98562000D02*
X180858300Y-98225000D01*
X180858300Y-100965000D02*
X180858300Y-100628000D01*
X186098300Y-98225000D02*
X186098300Y-98562000D01*
X186098300Y-100628000D02*
X186098300Y-100965000D01*
X186098300Y-100965000D02*
X180858300Y-100965000D01*
%TO.C,R10*%
X169318300Y-99595000D02*
X170088300Y-99595000D01*
X177398300Y-99595000D02*
X176628300Y-99595000D01*
X170088300Y-98225000D02*
X176628300Y-98225000D01*
X176628300Y-100965000D01*
X170088300Y-100965000D01*
X170088300Y-98225000D01*
%TO.C,R12*%
X169318300Y-106595000D02*
X170088300Y-106595000D01*
X177398300Y-106595000D02*
X176628300Y-106595000D01*
X170088300Y-105225000D02*
X176628300Y-105225000D01*
X176628300Y-107965000D01*
X170088300Y-107965000D01*
X170088300Y-105225000D01*
%TO.C,R5*%
X171318300Y-76895000D02*
X172088300Y-76895000D01*
X179398300Y-76895000D02*
X178628300Y-76895000D01*
X172088300Y-75525000D02*
X178628300Y-75525000D01*
X178628300Y-78265000D01*
X172088300Y-78265000D01*
X172088300Y-75525000D01*
%TO.C,U1*%
D12*
X139988300Y-99410000D02*
X139988300Y-101410000D01*
D11*
X140808300Y-99835000D02*
X140808300Y-146095000D01*
X166428300Y-99835000D02*
X166428300Y-146095000D01*
%TO.C,R3*%
X171318300Y-70495000D02*
X172088300Y-70495000D01*
X179398300Y-70495000D02*
X178628300Y-70495000D01*
X172088300Y-69125000D02*
X178628300Y-69125000D01*
X178628300Y-71865000D01*
X172088300Y-71865000D01*
X172088300Y-69125000D01*
%TO.C,J1*%
X128778300Y-132355000D02*
X130518300Y-132355000D01*
X128778300Y-134095000D02*
X128778300Y-132355000D01*
X129018300Y-132595000D02*
X131818300Y-132595000D01*
X129018300Y-146595000D02*
X129018300Y-132595000D01*
X135418300Y-132595000D02*
X138218300Y-132595000D01*
X138218300Y-132595000D02*
X138218300Y-134595000D01*
X138218300Y-138195000D02*
X138218300Y-146595000D01*
%TO.C,R1*%
X171318300Y-64095000D02*
X172088300Y-64095000D01*
X179398300Y-64095000D02*
X178628300Y-64095000D01*
X172088300Y-62725000D02*
X178628300Y-62725000D01*
X178628300Y-65465000D01*
X172088300Y-65465000D01*
X172088300Y-62725000D01*
%TO.C,TP4*%
X109828300Y-80145000D02*
X111728300Y-80145000D01*
X109828300Y-82045000D02*
X109828300Y-80145000D01*
X111728300Y-80145000D02*
X111728300Y-82045000D01*
X111728300Y-82045000D02*
X109828300Y-82045000D01*
%TO.C,TP1*%
X109828300Y-68145000D02*
X111728300Y-68145000D01*
X109828300Y-70045000D02*
X109828300Y-68145000D01*
X111728300Y-68145000D02*
X111728300Y-70045000D01*
X111728300Y-70045000D02*
X109828300Y-70045000D01*
%TO.C,R6*%
X171318300Y-80095000D02*
X172088300Y-80095000D01*
X179398300Y-80095000D02*
X178628300Y-80095000D01*
X172088300Y-78725000D02*
X178628300Y-78725000D01*
X178628300Y-81465000D01*
X172088300Y-81465000D01*
X172088300Y-78725000D01*
%TO.C,D1*%
X117378300Y-118095000D02*
X118288300Y-118095000D01*
X126363300Y-120815000D02*
X126363300Y-115375000D01*
X126483300Y-120815000D02*
X126483300Y-115375000D01*
X126603300Y-120815000D02*
X126603300Y-115375000D01*
X128938300Y-118095000D02*
X128028300Y-118095000D01*
X118288300Y-115375000D02*
X128028300Y-115375000D01*
X128028300Y-120815000D01*
X118288300Y-120815000D01*
X118288300Y-115375000D01*
%TO.C,R8*%
X171318300Y-86495000D02*
X172088300Y-86495000D01*
X179398300Y-86495000D02*
X178628300Y-86495000D01*
X172088300Y-85125000D02*
X178628300Y-85125000D01*
X178628300Y-87865000D01*
X172088300Y-87865000D01*
X172088300Y-85125000D01*
%TO.C,R7*%
X171318300Y-83295000D02*
X172088300Y-83295000D01*
X179398300Y-83295000D02*
X178628300Y-83295000D01*
X172088300Y-81925000D02*
X178628300Y-81925000D01*
X178628300Y-84665000D01*
X172088300Y-84665000D01*
X172088300Y-81925000D01*
%TD*%
M02*
