M48
; DRILL file KiCad 10.0.6 date 2026-09-28T17:22:02
; FORMAT={-:-/ absolute / metric / decimal}
; #@! TF.CreationDate,2026-09-28T17:22:02-04:00
; #@! TF.GenerationSoftware,Kicad,Pcbnew,10.0.6
; #@! TF.FileFunction,Plated,1,2,PTH
FMAT,2
METRIC
; #@! TA.AperFunction,Plated,PTH,ViaDrill
T1C0.400
; #@! TA.AperFunction,Plated,PTH,ComponentDrill
T2C0.700
; #@! TA.AperFunction,Plated,PTH,ComponentDrill
T3C0.710
; #@! TA.AperFunction,Plated,PTH,ComponentDrill
T4C0.800
; #@! TA.AperFunction,Plated,PTH,ComponentDrill
T5C1.000
; #@! TA.AperFunction,Plated,PTH,ComponentDrill
T6C1.200
; #@! TA.AperFunction,Plated,PTH,ComponentDrill
T7C1.600
%
G90
G05
T1
X134.858Y-56.934
X136.144Y-77.278
X136.866Y-74.704
X138.333Y-73.059
X139.754Y-76.486
X140.652Y-68.469
X141.688Y-79.269
X142.718Y-73.505
X148.029Y-79.449
X157.563Y-58.848
X178.182Y-75.49
T2
X110.778Y-69.095
X110.778Y-73.095
X110.778Y-77.095
X110.778Y-81.095
X110.778Y-85.095
X110.778Y-89.095
T3
X119.778Y-127.095
X124.878Y-128.295
T4
X117.778Y-79.095
X120.778Y-107.095
X124.278Y-107.095
X127.778Y-71.595
X127.938Y-79.095
X129.778Y-109.095
X130.318Y-71.595
X132.858Y-71.595
X134.778Y-109.095
X135.398Y-71.595
X137.938Y-71.595
X140.478Y-71.595
X143.018Y-71.595
X145.558Y-71.595
X148.098Y-71.595
X151.278Y-78.095
X156.278Y-78.095
X159.778Y-57.595
X159.778Y-60.135
X159.778Y-62.675
X159.778Y-65.215
X159.778Y-67.755
X159.778Y-70.295
X159.778Y-72.835
X159.778Y-75.375
X159.778Y-77.915
X167.398Y-57.595
X167.398Y-60.135
X167.398Y-62.675
X167.398Y-65.215
X167.398Y-67.755
X167.398Y-70.295
X167.398Y-72.835
X167.398Y-75.375
X167.398Y-77.915
X168.278Y-99.595
X168.278Y-103.095
X168.278Y-106.595
X168.278Y-110.595
X170.278Y-64.095
X170.278Y-67.295
X170.278Y-70.495
X170.278Y-73.695
X170.278Y-76.895
X170.278Y-80.095
X170.278Y-83.295
X170.278Y-86.495
X173.278Y-110.595
X178.438Y-99.595
X178.438Y-103.095
X178.438Y-106.595
X179.778Y-111.095
X180.438Y-64.095
X180.438Y-67.295
X180.438Y-70.495
X180.438Y-73.695
X180.438Y-76.895
X180.438Y-80.095
X180.438Y-83.295
X180.438Y-86.495
X180.978Y-99.595
X180.978Y-103.095
X180.978Y-106.595
X181.778Y-111.095
X185.978Y-99.595
X185.978Y-103.095
X185.978Y-106.595
T5
X129.778Y-61.055
X129.778Y-63.595
X132.318Y-61.055
X132.318Y-63.595
X134.858Y-61.055
X134.858Y-63.595
X137.398Y-61.055
X137.398Y-63.595
X139.938Y-61.055
X139.938Y-63.595
X142.188Y-100.41
X142.188Y-102.95
X142.188Y-105.49
X142.188Y-108.03
X142.188Y-110.57
X142.188Y-113.11
X142.188Y-115.65
X142.188Y-118.19
X142.188Y-120.73
X142.188Y-123.27
X142.188Y-125.81
X142.188Y-128.35
X142.188Y-130.89
X142.188Y-133.43
X142.188Y-135.97
X142.478Y-61.055
X142.478Y-63.595
X145.018Y-61.055
X145.018Y-63.595
X147.558Y-61.055
X147.558Y-63.595
X165.048Y-100.41
X165.048Y-102.95
X165.048Y-105.49
X165.048Y-108.03
X165.048Y-110.57
X165.048Y-113.11
X165.048Y-115.65
X165.048Y-118.19
X165.048Y-120.73
X165.048Y-123.27
X165.048Y-125.81
X165.048Y-128.35
X165.048Y-130.89
X165.048Y-133.43
X165.048Y-135.97
X172.778Y-119.055
X172.778Y-121.595
X175.318Y-119.055
X175.318Y-121.595
X177.858Y-119.055
X177.858Y-121.595
X185.778Y-85.095
X185.778Y-87.635
X185.778Y-90.175
X185.778Y-92.715
T6
X111.778Y-99.095
X121.938Y-99.095
T7
X115.538Y-118.095
X130.778Y-118.095
X133.618Y-133.395
X133.618Y-139.395
X138.318Y-136.395
M30
