%TF.GenerationSoftware,KiCad,Pcbnew,10.0.6*%
%TF.CreationDate,2026-09-28T17:22:17-04:00*%
%TF.ProjectId,DepthSensor,44657074-6853-4656-9e73-6f722e6b6963,rev?*%
%TF.SameCoordinates,Original*%
%TF.FileFunction,Soldermask,Bot*%
%TF.FilePolarity,Negative*%
%FSLAX46Y46*%
G04 Gerber Fmt 4.6, Leading zero omitted, Abs format (unit mm)*
G04 Created by KiCad (PCBNEW 10.0.6) date 2026-09-28 17:22:17*
%MOMM*%
%LPD*%
G01*
G04 APERTURE LIST*
G04 Aperture macros list*
%AMRoundRect*
0 Rectangle with rounded corners*
0 $1 Rounding radius*
0 $2 $3 $4 $5 $6 $7 $8 $9 X,Y pos of 4 corners*
0 Add a 4 corners polygon primitive as box body*
4,1,4,$2,$3,$4,$5,$6,$7,$8,$9,$2,$3,0*
0 Add four circle primitives for the rounded corners*
1,1,$1+$1,$2,$3*
1,1,$1+$1,$4,$5*
1,1,$1+$1,$6,$7*
1,1,$1+$1,$8,$9*
0 Add four rect primitives between the rounded corners*
20,1,$1+$1,$2,$3,$4,$5,0*
20,1,$1+$1,$4,$5,$6,$7,0*
20,1,$1+$1,$6,$7,$8,$9,0*
20,1,$1+$1,$8,$9,$2,$3,0*%
G04 Aperture macros list end*
%ADD10C,3.200000*%
%ADD11R,1.500000X1.500000*%
%ADD12RoundRect,0.250000X0.600000X-0.600000X0.600000X0.600000X-0.600000X0.600000X-0.600000X-0.600000X0*%
%ADD13C,1.700000*%
%ADD14C,1.710000*%
%ADD15RoundRect,0.250000X-0.550000X-0.550000X0.550000X-0.550000X0.550000X0.550000X-0.550000X0.550000X0*%
%ADD16C,1.600000*%
%ADD17R,1.600000X1.600000*%
%ADD18R,1.700000X1.700000*%
%ADD19RoundRect,0.250001X-0.949999X-0.949999X0.949999X-0.949999X0.949999X0.949999X-0.949999X0.949999X0*%
%ADD20C,2.400000*%
%ADD21R,2.600000X2.600000*%
%ADD22C,2.600000*%
%ADD23RoundRect,0.250000X1.350000X1.350000X-1.350000X1.350000X-1.350000X-1.350000X1.350000X-1.350000X0*%
G04 APERTURE END LIST*
D10*
%TO.C,H1*%
X111778300Y-59095000D03*
%TD*%
D11*
%TO.C,TP2*%
X110778300Y-73095000D03*
%TD*%
D12*
%TO.C,J3*%
X129778300Y-63595000D03*
D13*
X129778300Y-61055000D03*
X132318300Y-63595000D03*
X132318300Y-61055000D03*
X134858300Y-63595000D03*
X134858300Y-61055000D03*
X137398300Y-63595000D03*
X137398300Y-61055000D03*
X139938300Y-63595000D03*
X139938300Y-61055000D03*
X142478300Y-63595000D03*
X142478300Y-61055000D03*
X145018300Y-63595000D03*
X145018300Y-61055000D03*
X147558300Y-63595000D03*
X147558300Y-61055000D03*
%TD*%
D14*
%TO.C,F1*%
X119778300Y-127095000D03*
X124878300Y-128295000D03*
%TD*%
D15*
%TO.C,U2*%
X159778300Y-57595000D03*
D16*
X159778300Y-60135000D03*
X159778300Y-62675000D03*
X159778300Y-65215000D03*
X159778300Y-67755000D03*
X159778300Y-70295000D03*
X159778300Y-72835000D03*
X159778300Y-75375000D03*
X159778300Y-77915000D03*
X167398300Y-77915000D03*
X167398300Y-75375000D03*
X167398300Y-72835000D03*
X167398300Y-70295000D03*
X167398300Y-67755000D03*
X167398300Y-65215000D03*
X167398300Y-62675000D03*
X167398300Y-60135000D03*
X167398300Y-57595000D03*
%TD*%
%TO.C,C4*%
X168278300Y-110595000D03*
X173278300Y-110595000D03*
%TD*%
D17*
%TO.C,RN1*%
X127778300Y-71595000D03*
D16*
X130318300Y-71595000D03*
X132858300Y-71595000D03*
X135398300Y-71595000D03*
X137938300Y-71595000D03*
X140478300Y-71595000D03*
X143018300Y-71595000D03*
X145558300Y-71595000D03*
X148098300Y-71595000D03*
%TD*%
D11*
%TO.C,TP5*%
X110778300Y-85095000D03*
%TD*%
D16*
%TO.C,R11*%
X168278300Y-103095000D03*
X178438300Y-103095000D03*
%TD*%
%TO.C,R2*%
X170278300Y-67295000D03*
X180438300Y-67295000D03*
%TD*%
%TO.C,C8*%
X180978300Y-106595000D03*
X185978300Y-106595000D03*
%TD*%
D10*
%TO.C,H3*%
X111778300Y-129095000D03*
%TD*%
D18*
%TO.C,J4*%
X185778300Y-85095000D03*
D13*
X185778300Y-87635000D03*
X185778300Y-90175000D03*
X185778300Y-92715000D03*
%TD*%
D10*
%TO.C,H4*%
X184278300Y-129095000D03*
%TD*%
D12*
%TO.C,J2*%
X172778300Y-121595000D03*
D13*
X172778300Y-119055000D03*
X175318300Y-121595000D03*
X175318300Y-119055000D03*
X177858300Y-121595000D03*
X177858300Y-119055000D03*
%TD*%
D11*
%TO.C,TP3*%
X110778300Y-77095000D03*
%TD*%
D15*
%TO.C,C1*%
X120778300Y-107095000D03*
D16*
X124278300Y-107095000D03*
%TD*%
%TO.C,R9*%
X117778300Y-79095000D03*
X127938300Y-79095000D03*
%TD*%
D15*
%TO.C,C6*%
X179778300Y-111095000D03*
D16*
X181778300Y-111095000D03*
%TD*%
D10*
%TO.C,H2*%
X184778300Y-59095000D03*
%TD*%
D16*
%TO.C,C2*%
X151278300Y-78095000D03*
X156278300Y-78095000D03*
%TD*%
D11*
%TO.C,TP6*%
X110778300Y-89095000D03*
%TD*%
D16*
%TO.C,R4*%
X170278300Y-73695000D03*
X180438300Y-73695000D03*
%TD*%
D19*
%TO.C,D2*%
X111778300Y-99095000D03*
D20*
X121938300Y-99095000D03*
%TD*%
D16*
%TO.C,C3*%
X129778300Y-109095000D03*
X134778300Y-109095000D03*
%TD*%
%TO.C,C7*%
X180978300Y-103095000D03*
X185978300Y-103095000D03*
%TD*%
%TO.C,C5*%
X180978300Y-99595000D03*
X185978300Y-99595000D03*
%TD*%
%TO.C,R10*%
X168278300Y-99595000D03*
X178438300Y-99595000D03*
%TD*%
%TO.C,R12*%
X168278300Y-106595000D03*
X178438300Y-106595000D03*
%TD*%
%TO.C,R5*%
X170278300Y-76895000D03*
X180438300Y-76895000D03*
%TD*%
D18*
%TO.C,U1*%
X142188300Y-100410000D03*
D13*
X142188300Y-102950000D03*
X142188300Y-105490000D03*
X142188300Y-108030000D03*
X142188300Y-110570000D03*
X142188300Y-113110000D03*
X142188300Y-115650000D03*
X142188300Y-118190000D03*
X142188300Y-120730000D03*
X142188300Y-123270000D03*
X142188300Y-125810000D03*
X142188300Y-128350000D03*
X142188300Y-130890000D03*
X142188300Y-133430000D03*
X142188300Y-135970000D03*
X165048300Y-100410000D03*
X165048300Y-102950000D03*
X165048300Y-105490000D03*
X165048300Y-108030000D03*
X165048300Y-110570000D03*
X165048300Y-113110000D03*
X165048300Y-115650000D03*
X165048300Y-118190000D03*
X165048300Y-120730000D03*
X165048300Y-123270000D03*
X165048300Y-125810000D03*
X165048300Y-128350000D03*
X165048300Y-130890000D03*
X165048300Y-133430000D03*
X165048300Y-135970000D03*
%TD*%
D16*
%TO.C,R3*%
X170278300Y-70495000D03*
X180438300Y-70495000D03*
%TD*%
D21*
%TO.C,J1*%
X133618300Y-133395000D03*
D22*
X133618300Y-139395000D03*
X138318300Y-136395000D03*
%TD*%
D16*
%TO.C,R1*%
X170278300Y-64095000D03*
X180438300Y-64095000D03*
%TD*%
D11*
%TO.C,TP4*%
X110778300Y-81095000D03*
%TD*%
%TO.C,TP1*%
X110778300Y-69095000D03*
%TD*%
D16*
%TO.C,R6*%
X170278300Y-80095000D03*
X180438300Y-80095000D03*
%TD*%
D23*
%TO.C,D1*%
X130778300Y-118095000D03*
D10*
X115538300Y-118095000D03*
%TD*%
D16*
%TO.C,R8*%
X170278300Y-86495000D03*
X180438300Y-86495000D03*
%TD*%
%TO.C,R7*%
X170278300Y-83295000D03*
X180438300Y-83295000D03*
%TD*%
M02*
