%TF.GenerationSoftware,KiCad,Pcbnew,10.0.6*%
%TF.CreationDate,2026-09-28T17:22:17-04:00*%
%TF.ProjectId,DepthSensor,44657074-6853-4656-9e73-6f722e6b6963,rev?*%
%TF.SameCoordinates,Original*%
%TF.FileFunction,Copper,L2,Bot*%
%TF.FilePolarity,Positive*%
%FSLAX46Y46*%
G04 Gerber Fmt 4.6, Leading zero omitted, Abs format (unit mm)*
G04 Created by KiCad (PCBNEW 10.0.6) date 2026-09-28 17:22:17*
%MOMM*%
%LPD*%
G01*
G04 APERTURE LIST*
G04 Aperture macros list*
%AMRoundRect*
0 Rectangle with rounded corners*
0 $1 Rounding radius*
0 $2 $3 $4 $5 $6 $7 $8 $9 X,Y pos of 4 corners*
0 Add a 4 corners polygon primitive as box body*
4,1,4,$2,$3,$4,$5,$6,$7,$8,$9,$2,$3,0*
0 Add four circle primitives for the rounded corners*
1,1,$1+$1,$2,$3*
1,1,$1+$1,$4,$5*
1,1,$1+$1,$6,$7*
1,1,$1+$1,$8,$9*
0 Add four rect primitives between the rounded corners*
20,1,$1+$1,$2,$3,$4,$5,0*
20,1,$1+$1,$4,$5,$6,$7,0*
20,1,$1+$1,$6,$7,$8,$9,0*
20,1,$1+$1,$8,$9,$2,$3,0*%
G04 Aperture macros list end*
%TA.AperFunction,ComponentPad*%
%ADD10R,1.500000X1.500000*%
%TD*%
%TA.AperFunction,ComponentPad*%
%ADD11RoundRect,0.250000X0.600000X-0.600000X0.600000X0.600000X-0.600000X0.600000X-0.600000X-0.600000X0*%
%TD*%
%TA.AperFunction,ComponentPad*%
%ADD12C,1.700000*%
%TD*%
%TA.AperFunction,ComponentPad*%
%ADD13C,1.710000*%
%TD*%
%TA.AperFunction,ComponentPad*%
%ADD14RoundRect,0.250000X-0.550000X-0.550000X0.550000X-0.550000X0.550000X0.550000X-0.550000X0.550000X0*%
%TD*%
%TA.AperFunction,ComponentPad*%
%ADD15C,1.600000*%
%TD*%
%TA.AperFunction,ComponentPad*%
%ADD16R,1.600000X1.600000*%
%TD*%
%TA.AperFunction,ComponentPad*%
%ADD17R,1.700000X1.700000*%
%TD*%
%TA.AperFunction,ComponentPad*%
%ADD18RoundRect,0.250001X-0.949999X-0.949999X0.949999X-0.949999X0.949999X0.949999X-0.949999X0.949999X0*%
%TD*%
%TA.AperFunction,ComponentPad*%
%ADD19C,2.400000*%
%TD*%
%TA.AperFunction,ComponentPad*%
%ADD20R,2.600000X2.600000*%
%TD*%
%TA.AperFunction,ComponentPad*%
%ADD21C,2.600000*%
%TD*%
%TA.AperFunction,ComponentPad*%
%ADD22RoundRect,0.250000X1.350000X1.350000X-1.350000X1.350000X-1.350000X-1.350000X1.350000X-1.350000X0*%
%TD*%
%TA.AperFunction,ComponentPad*%
%ADD23C,3.200000*%
%TD*%
%TA.AperFunction,ViaPad*%
%ADD24C,0.800000*%
%TD*%
%TA.AperFunction,Conductor*%
%ADD25C,0.400000*%
%TD*%
%TA.AperFunction,Conductor*%
%ADD26C,0.300000*%
%TD*%
%TA.AperFunction,Conductor*%
%ADD27C,0.600000*%
%TD*%
%TA.AperFunction,Conductor*%
%ADD28C,0.800000*%
%TD*%
G04 APERTURE END LIST*
D10*
%TO.P,TP2,1*%
%TO.N,/+3V3*%
X110778300Y-73095000D03*
%TD*%
D11*
%TO.P,J3,1*%
%TO.N,/LED_A1*%
X129778300Y-63595000D03*
D12*
%TO.P,J3,2*%
%TO.N,/LED_A2*%
X129778300Y-61055000D03*
%TO.P,J3,3*%
%TO.N,/LED_A3*%
X132318300Y-63595000D03*
%TO.P,J3,4*%
%TO.N,/LED_A4*%
X132318300Y-61055000D03*
%TO.P,J3,5*%
%TO.N,/LED_A5*%
X134858300Y-63595000D03*
%TO.P,J3,6*%
%TO.N,/LED_A6*%
X134858300Y-61055000D03*
%TO.P,J3,7*%
%TO.N,/LED_A7*%
X137398300Y-63595000D03*
%TO.P,J3,8*%
%TO.N,/LED_A8*%
X137398300Y-61055000D03*
%TO.P,J3,9*%
%TO.N,/LED_PWR*%
X139938300Y-63595000D03*
%TO.P,J3,10*%
%TO.N,/BTN_N*%
X139938300Y-61055000D03*
%TO.P,J3,11*%
%TO.N,/SW_A*%
X142478300Y-63595000D03*
%TO.P,J3,12*%
X142478300Y-61055000D03*
%TO.P,J3,13*%
%TO.N,/SW_B*%
X145018300Y-63595000D03*
%TO.P,J3,14*%
X145018300Y-61055000D03*
%TO.P,J3,15*%
%TO.N,/GND*%
X147558300Y-63595000D03*
%TO.P,J3,16*%
X147558300Y-61055000D03*
%TD*%
D13*
%TO.P,F1,1*%
%TO.N,/VIN_RAW*%
X119778300Y-127095000D03*
%TO.P,F1,2*%
%TO.N,/SW_A*%
X124878300Y-128295000D03*
%TD*%
D14*
%TO.P,U2,1*%
%TO.N,/LED_CH1*%
X159778300Y-57595000D03*
D15*
%TO.P,U2,2*%
%TO.N,/LED_CH2*%
X159778300Y-60135000D03*
%TO.P,U2,3*%
%TO.N,/LED_CH3*%
X159778300Y-62675000D03*
%TO.P,U2,4*%
%TO.N,/LED_CH4*%
X159778300Y-65215000D03*
%TO.P,U2,5*%
%TO.N,/LED_CH5*%
X159778300Y-67755000D03*
%TO.P,U2,6*%
%TO.N,/LED_CH6*%
X159778300Y-70295000D03*
%TO.P,U2,7*%
%TO.N,/LED_CH7*%
X159778300Y-72835000D03*
%TO.P,U2,8*%
%TO.N,/LED_CH8*%
X159778300Y-75375000D03*
%TO.P,U2,9*%
%TO.N,/V_SYS*%
X159778300Y-77915000D03*
%TO.P,U2,10*%
%TO.N,/GND*%
X167398300Y-77915000D03*
%TO.P,U2,11*%
%TO.N,/DRV_O8*%
X167398300Y-75375000D03*
%TO.P,U2,12*%
%TO.N,/DRV_O7*%
X167398300Y-72835000D03*
%TO.P,U2,13*%
%TO.N,/DRV_O6*%
X167398300Y-70295000D03*
%TO.P,U2,14*%
%TO.N,/DRV_O5*%
X167398300Y-67755000D03*
%TO.P,U2,15*%
%TO.N,/DRV_O4*%
X167398300Y-65215000D03*
%TO.P,U2,16*%
%TO.N,/DRV_O3*%
X167398300Y-62675000D03*
%TO.P,U2,17*%
%TO.N,/DRV_O2*%
X167398300Y-60135000D03*
%TO.P,U2,18*%
%TO.N,/DRV_O1*%
X167398300Y-57595000D03*
%TD*%
%TO.P,C4,1*%
%TO.N,/+3V3*%
X168278300Y-110595000D03*
%TO.P,C4,2*%
%TO.N,/GND*%
X173278300Y-110595000D03*
%TD*%
D16*
%TO.P,RN1,1*%
%TO.N,/GND*%
X127778300Y-71595000D03*
D15*
%TO.P,RN1,2*%
%TO.N,/LED_CH1*%
X130318300Y-71595000D03*
%TO.P,RN1,3*%
%TO.N,/LED_CH2*%
X132858300Y-71595000D03*
%TO.P,RN1,4*%
%TO.N,/LED_CH3*%
X135398300Y-71595000D03*
%TO.P,RN1,5*%
%TO.N,/LED_CH4*%
X137938300Y-71595000D03*
%TO.P,RN1,6*%
%TO.N,/LED_CH5*%
X140478300Y-71595000D03*
%TO.P,RN1,7*%
%TO.N,/LED_CH6*%
X143018300Y-71595000D03*
%TO.P,RN1,8*%
%TO.N,/LED_CH7*%
X145558300Y-71595000D03*
%TO.P,RN1,9*%
%TO.N,/LED_CH8*%
X148098300Y-71595000D03*
%TD*%
D10*
%TO.P,TP5,1*%
%TO.N,/SNS_RX_C*%
X110778300Y-85095000D03*
%TD*%
D15*
%TO.P,R11,1*%
%TO.N,/SNS_TX*%
X168278300Y-103095000D03*
%TO.P,R11,2*%
%TO.N,/SNS_TX_C*%
X178438300Y-103095000D03*
%TD*%
%TO.P,R2,1*%
%TO.N,/DRV_O2*%
X170278300Y-67295000D03*
%TO.P,R2,2*%
%TO.N,/LED_A2*%
X180438300Y-67295000D03*
%TD*%
%TO.P,C8,1*%
%TO.N,/SNS_RX_C*%
X180978300Y-106595000D03*
%TO.P,C8,2*%
%TO.N,/GND*%
X185978300Y-106595000D03*
%TD*%
D17*
%TO.P,J4,1*%
%TO.N,/+3V3*%
X185778300Y-85095000D03*
D12*
%TO.P,J4,2*%
%TO.N,/GND*%
X185778300Y-87635000D03*
%TO.P,J4,3*%
%TO.N,/SPARE_A*%
X185778300Y-90175000D03*
%TO.P,J4,4*%
%TO.N,/SPARE_B*%
X185778300Y-92715000D03*
%TD*%
D11*
%TO.P,J2,1*%
%TO.N,/+3V3*%
X172778300Y-121595000D03*
D12*
%TO.P,J2,2*%
%TO.N,/SNS_TX_C*%
X172778300Y-119055000D03*
%TO.P,J2,3*%
%TO.N,/SNS_RX_C*%
X175318300Y-121595000D03*
%TO.P,J2,4*%
%TO.N,/GND*%
X175318300Y-119055000D03*
%TO.P,J2,5*%
X177858300Y-121595000D03*
%TO.P,J2,6*%
%TO.N,unconnected-(J2-Pin_6-Pad6)*%
X177858300Y-119055000D03*
%TD*%
D10*
%TO.P,TP3,1*%
%TO.N,/GND*%
X110778300Y-77095000D03*
%TD*%
D14*
%TO.P,C1,1*%
%TO.N,/V_SYS*%
X120778300Y-107095000D03*
D15*
%TO.P,C1,2*%
%TO.N,/GND*%
X124278300Y-107095000D03*
%TD*%
%TO.P,R9,1*%
%TO.N,/V_SYS*%
X117778300Y-79095000D03*
%TO.P,R9,2*%
%TO.N,/LED_PWR*%
X127938300Y-79095000D03*
%TD*%
D14*
%TO.P,C6,1*%
%TO.N,/+3V3*%
X179778300Y-111095000D03*
D15*
%TO.P,C6,2*%
%TO.N,/GND*%
X181778300Y-111095000D03*
%TD*%
%TO.P,C2,1*%
%TO.N,/V_SYS*%
X151278300Y-78095000D03*
%TO.P,C2,2*%
%TO.N,/GND*%
X156278300Y-78095000D03*
%TD*%
D10*
%TO.P,TP6,1*%
%TO.N,/SW_A*%
X110778300Y-89095000D03*
%TD*%
D15*
%TO.P,R4,1*%
%TO.N,/DRV_O4*%
X170278300Y-73695000D03*
%TO.P,R4,2*%
%TO.N,/LED_A4*%
X180438300Y-73695000D03*
%TD*%
D18*
%TO.P,D2,1*%
%TO.N,/V_SYS*%
X111778300Y-99095000D03*
D19*
%TO.P,D2,2*%
%TO.N,/GND*%
X121938300Y-99095000D03*
%TD*%
D15*
%TO.P,C3,1*%
%TO.N,/V_SYS*%
X129778300Y-109095000D03*
%TO.P,C3,2*%
%TO.N,/GND*%
X134778300Y-109095000D03*
%TD*%
%TO.P,C7,1*%
%TO.N,/SNS_TX_C*%
X180978300Y-103095000D03*
%TO.P,C7,2*%
%TO.N,/GND*%
X185978300Y-103095000D03*
%TD*%
%TO.P,C5,1*%
%TO.N,/BTN_N*%
X180978300Y-99595000D03*
%TO.P,C5,2*%
%TO.N,/GND*%
X185978300Y-99595000D03*
%TD*%
%TO.P,R10,1*%
%TO.N,/+3V3*%
X168278300Y-99595000D03*
%TO.P,R10,2*%
%TO.N,/BTN_N*%
X178438300Y-99595000D03*
%TD*%
%TO.P,R12,1*%
%TO.N,/SNS_RX*%
X168278300Y-106595000D03*
%TO.P,R12,2*%
%TO.N,/SNS_RX_C*%
X178438300Y-106595000D03*
%TD*%
%TO.P,R5,1*%
%TO.N,/DRV_O5*%
X170278300Y-76895000D03*
%TO.P,R5,2*%
%TO.N,/LED_A5*%
X180438300Y-76895000D03*
%TD*%
D17*
%TO.P,U1,1*%
%TO.N,/+3V3*%
X142188300Y-100410000D03*
D12*
%TO.P,U1,2*%
%TO.N,unconnected-(U1-CHIP_PU-Pad2)*%
X142188300Y-102950000D03*
%TO.P,U1,3*%
%TO.N,/LED_CH1*%
X142188300Y-105490000D03*
%TO.P,U1,4*%
%TO.N,/LED_CH2*%
X142188300Y-108030000D03*
%TO.P,U1,5*%
%TO.N,unconnected-(U1-GPIO4{slash}MTMS-Pad5)*%
X142188300Y-110570000D03*
%TO.P,U1,6*%
%TO.N,unconnected-(U1-GPIO5{slash}MTDI-Pad6)*%
X142188300Y-113110000D03*
%TO.P,U1,7*%
%TO.N,/LED_CH3*%
X142188300Y-115650000D03*
%TO.P,U1,8*%
%TO.N,/LED_CH4*%
X142188300Y-118190000D03*
%TO.P,U1,9*%
%TO.N,unconnected-(U1-GPIO8{slash}RGB_LED-Pad9)*%
X142188300Y-120730000D03*
%TO.P,U1,10*%
%TO.N,/LED_CH5*%
X142188300Y-123270000D03*
%TO.P,U1,11*%
%TO.N,/LED_CH6*%
X142188300Y-125810000D03*
%TO.P,U1,12*%
%TO.N,/LED_CH7*%
X142188300Y-128350000D03*
%TO.P,U1,13*%
%TO.N,/GND*%
X142188300Y-130890000D03*
%TO.P,U1,14*%
%TO.N,/V_SYS*%
X142188300Y-133430000D03*
%TO.P,U1,15*%
%TO.N,/GND*%
X142188300Y-135970000D03*
%TO.P,U1,16*%
X165048300Y-100410000D03*
%TO.P,U1,17*%
%TO.N,unconnected-(U1-GPIO16{slash}U0TXD-Pad17)*%
X165048300Y-102950000D03*
%TO.P,U1,18*%
%TO.N,unconnected-(U1-GPIO17{slash}U0RXD-Pad18)*%
X165048300Y-105490000D03*
%TO.P,U1,19*%
%TO.N,/SNS_RX*%
X165048300Y-108030000D03*
%TO.P,U1,20*%
%TO.N,/SNS_TX*%
X165048300Y-110570000D03*
%TO.P,U1,21*%
%TO.N,/SPARE_B*%
X165048300Y-113110000D03*
%TO.P,U1,22*%
%TO.N,/SPARE_A*%
X165048300Y-115650000D03*
%TO.P,U1,23*%
%TO.N,/BTN_N*%
X165048300Y-118190000D03*
%TO.P,U1,24*%
%TO.N,/LED_CH8*%
X165048300Y-120730000D03*
%TO.P,U1,25*%
%TO.N,unconnected-(U1-GPIO15-Pad25)*%
X165048300Y-123270000D03*
%TO.P,U1,26*%
%TO.N,unconnected-(U1-GPIO9{slash}BOOT-Pad26)*%
X165048300Y-125810000D03*
%TO.P,U1,27*%
%TO.N,/GND*%
X165048300Y-128350000D03*
%TO.P,U1,28*%
%TO.N,unconnected-(U1-GPIO13{slash}USB_D+-Pad28)*%
X165048300Y-130890000D03*
%TO.P,U1,29*%
%TO.N,unconnected-(U1-GPIO12{slash}USB_D--Pad29)*%
X165048300Y-133430000D03*
%TO.P,U1,30*%
%TO.N,/GND*%
X165048300Y-135970000D03*
%TD*%
D15*
%TO.P,R3,1*%
%TO.N,/DRV_O3*%
X170278300Y-70495000D03*
%TO.P,R3,2*%
%TO.N,/LED_A3*%
X180438300Y-70495000D03*
%TD*%
D20*
%TO.P,J1,1*%
%TO.N,/VIN_RAW*%
X133618300Y-133395000D03*
D21*
%TO.P,J1,2*%
%TO.N,/GND*%
X133618300Y-139395000D03*
%TO.P,J1,3*%
%TO.N,unconnected-(J1-Pad3)*%
X138318300Y-136395000D03*
%TD*%
D15*
%TO.P,R1,1*%
%TO.N,/DRV_O1*%
X170278300Y-64095000D03*
%TO.P,R1,2*%
%TO.N,/LED_A1*%
X180438300Y-64095000D03*
%TD*%
D10*
%TO.P,TP4,1*%
%TO.N,/SNS_TX_C*%
X110778300Y-81095000D03*
%TD*%
%TO.P,TP1,1*%
%TO.N,/V_SYS*%
X110778300Y-69095000D03*
%TD*%
D15*
%TO.P,R6,1*%
%TO.N,/DRV_O6*%
X170278300Y-80095000D03*
%TO.P,R6,2*%
%TO.N,/LED_A6*%
X180438300Y-80095000D03*
%TD*%
D22*
%TO.P,D1,1*%
%TO.N,/V_SYS*%
X130778300Y-118095000D03*
D23*
%TO.P,D1,2*%
%TO.N,/SW_B*%
X115538300Y-118095000D03*
%TD*%
D15*
%TO.P,R8,1*%
%TO.N,/DRV_O8*%
X170278300Y-86495000D03*
%TO.P,R8,2*%
%TO.N,/LED_A8*%
X180438300Y-86495000D03*
%TD*%
%TO.P,R7,1*%
%TO.N,/DRV_O7*%
X170278300Y-83295000D03*
%TO.P,R7,2*%
%TO.N,/LED_A7*%
X180438300Y-83295000D03*
%TD*%
D24*
%TO.N,/LED_A5*%
X157563100Y-58848200D03*
%TO.N,/LED_A6*%
X134858300Y-56933700D03*
%TO.N,/LED_A7*%
X148028800Y-79448600D03*
X142718000Y-73505400D03*
%TO.N,/LED_A8*%
X178181900Y-75489600D03*
%TO.N,/LED_CH1*%
X139754000Y-76486200D03*
%TO.N,/LED_CH3*%
X138332800Y-73058900D03*
%TO.N,/LED_CH6*%
X136865900Y-74704100D03*
%TO.N,/LED_CH7*%
X136144100Y-77278000D03*
%TO.N,/LED_PWR*%
X140652400Y-68468700D03*
X141688400Y-79269100D03*
%TD*%
%TO.N,/+3V3*%
D25*
X185778300Y-85095000D02*
X185102500Y-85095000D01*
X140393100Y-99966500D02*
X140393100Y-81982400D01*
X169628200Y-109245100D02*
X168278300Y-110595000D01*
X110778300Y-73095000D02*
X118111600Y-73095000D01*
X185102500Y-85095000D02*
X174826500Y-85095000D01*
X171713900Y-81982400D02*
X174826500Y-85095000D01*
X174826500Y-85095000D02*
X174826500Y-93046800D01*
X140836600Y-100410000D02*
X140393100Y-99966500D01*
X118111600Y-73095000D02*
X126999000Y-81982400D01*
X179778300Y-111095000D02*
X177928400Y-109245100D01*
X126999000Y-81982400D02*
X140393100Y-81982400D01*
X140393100Y-81982400D02*
X171713900Y-81982400D01*
X177928400Y-109245100D02*
X169628200Y-109245100D01*
X142188300Y-100410000D02*
X140836600Y-100410000D01*
X174826500Y-93046800D02*
X168278300Y-99595000D01*
%TO.N,/BTN_N*%
D26*
X180978300Y-99595000D02*
X178438300Y-99595000D01*
%TO.N,/DRV_O3*%
X168926000Y-69142700D02*
X168926000Y-64202700D01*
X168926000Y-64202700D02*
X167398300Y-62675000D01*
X170278300Y-70495000D02*
X168926000Y-69142700D01*
%TO.N,/DRV_O4*%
X167901300Y-69093300D02*
X168799300Y-69991300D01*
X168799300Y-69991300D02*
X168799300Y-72216000D01*
X166982600Y-69093300D02*
X167901300Y-69093300D01*
X166161400Y-66451900D02*
X166161400Y-68272100D01*
X166161400Y-68272100D02*
X166982600Y-69093300D01*
X167398300Y-65215000D02*
X166161400Y-66451900D01*
X168799300Y-72216000D02*
X170278300Y-73695000D01*
%TO.N,/GND*%
D27*
X169515400Y-101047900D02*
X182928300Y-87635000D01*
X174366500Y-125086800D02*
X177858300Y-121595000D01*
X185978300Y-106895000D02*
X181778300Y-111095000D01*
X132778300Y-107095000D02*
X124278300Y-107095000D01*
X138763300Y-139395000D02*
X142188300Y-135970000D01*
X143640900Y-135243700D02*
X143640900Y-132342600D01*
X133618300Y-139395000D02*
X138763300Y-139395000D01*
X165944800Y-79368500D02*
X167398300Y-77915000D01*
X143640900Y-132342600D02*
X142188300Y-130890000D01*
X168311500Y-125086800D02*
X174366500Y-125086800D01*
X165048300Y-128350000D02*
X168311500Y-125086800D01*
X157551800Y-79368500D02*
X165944800Y-79368500D01*
X182928300Y-87635000D02*
X185778300Y-87635000D01*
X164322000Y-135243700D02*
X165048300Y-135970000D01*
X142914600Y-135243700D02*
X143640900Y-135243700D01*
X185978300Y-106595000D02*
X185978300Y-106895000D01*
X180750200Y-112502700D02*
X175186000Y-112502700D01*
X165048300Y-100410000D02*
X165686200Y-101047900D01*
X181778300Y-111474600D02*
X180750200Y-112502700D01*
X156278300Y-78095000D02*
X157551800Y-79368500D01*
X143640900Y-135243700D02*
X164322000Y-135243700D01*
X165686200Y-101047900D02*
X169515400Y-101047900D01*
X181778300Y-111095000D02*
X181778300Y-111474600D01*
X134778300Y-109095000D02*
X132778300Y-107095000D01*
X175186000Y-112502700D02*
X173278300Y-110595000D01*
X177858300Y-121595000D02*
X175318300Y-119055000D01*
X142188300Y-135970000D02*
X142914600Y-135243700D01*
%TO.N,/LED_A1*%
D26*
X128488500Y-60546000D02*
X128488500Y-62305200D01*
X161711700Y-55837100D02*
X161161500Y-55286900D01*
X128488500Y-62305200D02*
X129778300Y-63595000D01*
X180438300Y-64095000D02*
X172180400Y-55837100D01*
X133747600Y-55286900D02*
X128488500Y-60546000D01*
X161161500Y-55286900D02*
X133747600Y-55286900D01*
X172180400Y-55837100D02*
X161711700Y-55837100D01*
%TO.N,/LED_A2*%
X180438300Y-67295000D02*
X169532100Y-56388800D01*
X160933000Y-55838600D02*
X134819700Y-55838600D01*
X129778300Y-60880000D02*
X129778300Y-61055000D01*
X134819700Y-55838600D02*
X129778300Y-60880000D01*
X161483200Y-56388800D02*
X160933000Y-55838600D01*
X169532100Y-56388800D02*
X161483200Y-56388800D01*
%TO.N,/LED_A4*%
X132318300Y-60957500D02*
X132318300Y-61055000D01*
X157850900Y-58002300D02*
X136677100Y-58002300D01*
X169361100Y-61405000D02*
X165123200Y-61405000D01*
X158773500Y-58924900D02*
X157850900Y-58002300D01*
X162643100Y-58924900D02*
X158773500Y-58924900D01*
X136115600Y-58563800D02*
X134712000Y-58563800D01*
X165123200Y-61405000D02*
X162643100Y-58924900D01*
X180438300Y-73695000D02*
X180438300Y-72482200D01*
X136677100Y-58002300D02*
X136115600Y-58563800D01*
X180438300Y-72482200D02*
X169361100Y-61405000D01*
X134712000Y-58563800D02*
X132318300Y-60957500D01*
%TO.N,/LED_A5*%
X134327600Y-59785000D02*
X133588300Y-60524300D01*
X157563100Y-58848200D02*
X157322400Y-58607500D01*
X133588300Y-60524300D02*
X133588300Y-62325000D01*
X135674500Y-59785000D02*
X134327600Y-59785000D01*
X157322400Y-58607500D02*
X136852000Y-58607500D01*
X133588300Y-62325000D02*
X134858300Y-63595000D01*
X136852000Y-58607500D02*
X135674500Y-59785000D01*
%TO.N,/LED_A6*%
X180438300Y-80095000D02*
X181645900Y-78887400D01*
X181645900Y-78887400D02*
X181645900Y-69917400D01*
X161713800Y-56940500D02*
X161254600Y-56940500D01*
X160704400Y-56390300D02*
X135401700Y-56390300D01*
X181645900Y-69917400D02*
X180623500Y-68895000D01*
X161254600Y-56940500D02*
X160704400Y-56390300D01*
X135401700Y-56390300D02*
X134858300Y-56933700D01*
X163638200Y-58864900D02*
X161713800Y-56940500D01*
X168824900Y-58864900D02*
X163638200Y-58864900D01*
X178855000Y-68895000D02*
X168824900Y-58864900D01*
X180623500Y-68895000D02*
X178855000Y-68895000D01*
%TO.N,/LED_A7*%
X148028800Y-79448600D02*
X149893800Y-81313600D01*
X134128300Y-73120600D02*
X136519600Y-75511900D01*
X134128300Y-71135300D02*
X134128300Y-73120600D01*
X137398300Y-67865300D02*
X134128300Y-71135300D01*
X140711500Y-75511900D02*
X142718000Y-73505400D01*
X136519600Y-75511900D02*
X140711500Y-75511900D01*
X178456900Y-81313600D02*
X180438300Y-83295000D01*
X137398300Y-63595000D02*
X137398300Y-67865300D01*
X149893800Y-81313600D02*
X178456900Y-81313600D01*
%TO.N,/LED_A8*%
X168544100Y-74105000D02*
X169928700Y-75489600D01*
X169928700Y-75489600D02*
X178181900Y-75489600D01*
X152289000Y-61439600D02*
X160256600Y-61439600D01*
X137398300Y-61055000D02*
X138703100Y-59750200D01*
X138703100Y-59750200D02*
X150599600Y-59750200D01*
X160256600Y-61439600D02*
X164490300Y-65673300D01*
X164490300Y-65673300D02*
X164490300Y-71664100D01*
X164490300Y-71664100D02*
X166931200Y-74105000D01*
X150599600Y-59750200D02*
X152289000Y-61439600D01*
X166931200Y-74105000D02*
X168544100Y-74105000D01*
%TO.N,/LED_CH1*%
X159778300Y-57595000D02*
X159612500Y-57429200D01*
X131048900Y-70864400D02*
X130318300Y-71595000D01*
X139744000Y-76476200D02*
X139754000Y-76486200D01*
X133766600Y-57825000D02*
X131048900Y-60542700D01*
X135199500Y-76476200D02*
X139744000Y-76476200D01*
X130318300Y-71595000D02*
X135199500Y-76476200D01*
X131048900Y-60542700D02*
X131048900Y-70864400D01*
X159612500Y-57429200D02*
X136470000Y-57429200D01*
X136074200Y-57825000D02*
X133766600Y-57825000D01*
X136470000Y-57429200D02*
X136074200Y-57825000D01*
%TO.N,/LED_CH2*%
X136126700Y-68326600D02*
X132858300Y-71595000D01*
X153778300Y-59193700D02*
X137423800Y-59193700D01*
X137423800Y-59193700D02*
X136126700Y-60490800D01*
X159778300Y-60135000D02*
X154719600Y-60135000D01*
X136126700Y-60490800D02*
X136126700Y-68326600D01*
X154719600Y-60135000D02*
X153778300Y-59193700D01*
%TO.N,/LED_CH3*%
X160243500Y-69024800D02*
X143853800Y-69024800D01*
X140958900Y-72813900D02*
X138332800Y-72813900D01*
X141680000Y-72092800D02*
X140958900Y-72813900D01*
X161034000Y-63930700D02*
X161034000Y-68234300D01*
X138332800Y-72813900D02*
X138332800Y-73058900D01*
X161034000Y-68234300D02*
X160243500Y-69024800D01*
X136617200Y-72813900D02*
X135398300Y-71595000D01*
X143853800Y-69024800D02*
X141680000Y-71198600D01*
X141680000Y-71198600D02*
X141680000Y-72092800D01*
X159778300Y-62675000D02*
X161034000Y-63930700D01*
X138332800Y-72813900D02*
X136617200Y-72813900D01*
%TO.N,/LED_CH4*%
X145039900Y-65215000D02*
X159778300Y-65215000D01*
X137938300Y-71595000D02*
X138659900Y-71595000D01*
X138659900Y-71595000D02*
X145039900Y-65215000D01*
%TO.N,/LED_CH5*%
X144318300Y-67755000D02*
X140478300Y-71595000D01*
X159778300Y-67755000D02*
X144318300Y-67755000D01*
%TO.N,/LED_CH6*%
X139909200Y-74704100D02*
X136865900Y-74704100D01*
X159257800Y-69774500D02*
X144838800Y-69774500D01*
X159778300Y-70295000D02*
X159257800Y-69774500D01*
X143018300Y-71595000D02*
X139909200Y-74704100D01*
X144838800Y-69774500D02*
X143018300Y-71595000D01*
%TO.N,/LED_CH7*%
X145558300Y-71595000D02*
X145558300Y-71815700D01*
X159778300Y-72835000D02*
X157292400Y-70349100D01*
X146804200Y-70349100D02*
X145558300Y-71595000D01*
X136154000Y-77287900D02*
X136144100Y-77278000D01*
X145558300Y-71815700D02*
X140086100Y-77287900D01*
X140086100Y-77287900D02*
X136154000Y-77287900D01*
X157292400Y-70349100D02*
X146804200Y-70349100D01*
%TO.N,/LED_CH8*%
X148098300Y-71595000D02*
X155998300Y-71595000D01*
X155998300Y-71595000D02*
X159778300Y-75375000D01*
%TO.N,/LED_PWR*%
X139938300Y-67754600D02*
X140652400Y-68468700D01*
X128112400Y-79269100D02*
X141688400Y-79269100D01*
X127938300Y-79095000D02*
X128112400Y-79269100D01*
X139938300Y-63595000D02*
X139938300Y-67754600D01*
%TO.N,/SNS_RX*%
X168278300Y-106595000D02*
X166843300Y-108030000D01*
X166843300Y-108030000D02*
X165048300Y-108030000D01*
%TO.N,/SNS_RX_C*%
X136180300Y-104943900D02*
X140536400Y-109300000D01*
X110778300Y-85095000D02*
X111930000Y-85095000D01*
X180978300Y-106595000D02*
X178438300Y-106595000D01*
X149300000Y-109300000D02*
X162000000Y-122000000D01*
X162000000Y-122000000D02*
X170792200Y-122000000D01*
X171749400Y-122957200D02*
X173956100Y-122957200D01*
X140536400Y-109300000D02*
X149300000Y-109300000D01*
X111930000Y-85095000D02*
X131778900Y-104943900D01*
X131778900Y-104943900D02*
X136180300Y-104943900D01*
X170792200Y-122000000D02*
X171749400Y-122957200D01*
X173956100Y-122957200D02*
X175318300Y-121595000D01*
%TO.N,/SNS_TX_C*%
X149667800Y-104219900D02*
X162367900Y-116920000D01*
X135054900Y-104219900D02*
X149667800Y-104219900D01*
X180978300Y-103095000D02*
X178438300Y-103095000D01*
X110778300Y-81095000D02*
X111930000Y-81095000D01*
X170643300Y-116920000D02*
X172778300Y-119055000D01*
X162367900Y-116920000D02*
X170643300Y-116920000D01*
X111930000Y-81095000D02*
X135054900Y-104219900D01*
%TO.N,/SPARE_A*%
X187050800Y-93269100D02*
X187050800Y-91447500D01*
X183802700Y-96517200D02*
X187050800Y-93269100D01*
X166957400Y-113740900D02*
X166957400Y-109668100D01*
X187050800Y-91447500D02*
X185778300Y-90175000D01*
X171443900Y-105181600D02*
X171443900Y-104873600D01*
X179800300Y-96517200D02*
X183802700Y-96517200D01*
X171443900Y-104873600D02*
X179800300Y-96517200D01*
X165048300Y-115650000D02*
X166957400Y-113740900D01*
X166957400Y-109668100D02*
X171443900Y-105181600D01*
%TO.N,/SPARE_B*%
X163744500Y-111806200D02*
X163744500Y-107557000D01*
X180437000Y-92715000D02*
X185778300Y-92715000D01*
X164541500Y-106760000D02*
X166392000Y-106760000D01*
X165048300Y-113110000D02*
X163744500Y-111806200D01*
X166392000Y-106760000D02*
X180437000Y-92715000D01*
X163744500Y-107557000D02*
X164541500Y-106760000D01*
%TO.N,/VIN_RAW*%
D28*
X124076600Y-131393300D02*
X129614900Y-131393300D01*
X133618300Y-133395000D02*
X131616600Y-133395000D01*
X129614900Y-131393300D02*
X131616600Y-133395000D01*
X119778300Y-127095000D02*
X124076600Y-131393300D01*
%TO.N,/V_SYS*%
D27*
X128355900Y-77532400D02*
X134981900Y-77532400D01*
X135729200Y-78279700D02*
X136559100Y-78279700D01*
X110778300Y-69095000D02*
X119918500Y-69095000D01*
X151278300Y-78095000D02*
X152692100Y-76681200D01*
X120778300Y-107095000D02*
X122778300Y-109095000D01*
X119778300Y-107095000D02*
X111778300Y-99095000D01*
X152692100Y-76681200D02*
X158544500Y-76681200D01*
X136559100Y-78279700D02*
X136743800Y-78095000D01*
X158544500Y-76681200D02*
X159778300Y-77915000D01*
X119918500Y-69095000D02*
X128355900Y-77532400D01*
X136743800Y-78095000D02*
X151278300Y-78095000D01*
X130778300Y-122020000D02*
X142188300Y-133430000D01*
X122778300Y-109095000D02*
X129778300Y-109095000D01*
X130778300Y-118095000D02*
X130778300Y-122020000D01*
X134981900Y-77532400D02*
X135729200Y-78279700D01*
X120778300Y-107095000D02*
X119778300Y-107095000D01*
%TD*%
%TA.AperFunction,Conductor*%
%TO.N,/GND*%
G36*
X167220839Y-41615185D02*
G01*
X167266594Y-41667989D01*
X167277800Y-41719500D01*
X167277800Y-55162600D01*
X167258115Y-55229639D01*
X167205311Y-55275394D01*
X167153800Y-55286600D01*
X161991087Y-55286600D01*
X161924048Y-55266915D01*
X161903406Y-55250281D01*
X161499516Y-54846391D01*
X161499515Y-54846390D01*
X161373985Y-54773916D01*
X161373986Y-54773916D01*
X161338982Y-54764537D01*
X161233975Y-54736400D01*
X133675125Y-54736400D01*
X133591119Y-54758909D01*
X133535113Y-54773916D01*
X133535112Y-54773917D01*
X133409589Y-54846387D01*
X133409584Y-54846391D01*
X128047991Y-60207983D01*
X128047985Y-60207991D01*
X127984625Y-60317736D01*
X127984625Y-60317738D01*
X127975516Y-60333515D01*
X127938000Y-60473525D01*
X127938000Y-62377675D01*
X127955103Y-62441503D01*
X127975516Y-62517685D01*
X128046810Y-62641172D01*
X128047989Y-62643213D01*
X128047991Y-62643216D01*
X128491481Y-63086705D01*
X128524966Y-63148028D01*
X128527800Y-63174386D01*
X128527800Y-64260701D01*
X128530701Y-64297567D01*
X128530702Y-64297573D01*
X128576554Y-64455393D01*
X128576555Y-64455396D01*
X128576556Y-64455398D01*
X128613334Y-64517587D01*
X128660217Y-64596862D01*
X128660223Y-64596870D01*
X128776429Y-64713076D01*
X128776433Y-64713079D01*
X128776435Y-64713081D01*
X128917902Y-64796744D01*
X128959524Y-64808836D01*
X129075726Y-64842597D01*
X129075729Y-64842597D01*
X129075731Y-64842598D01*
X129112606Y-64845500D01*
X129112614Y-64845500D01*
X130374400Y-64845500D01*
X130441439Y-64865185D01*
X130487194Y-64917989D01*
X130498400Y-64969500D01*
X130498400Y-70270500D01*
X130478715Y-70337539D01*
X130425911Y-70383294D01*
X130374400Y-70394500D01*
X130223814Y-70394500D01*
X130037181Y-70424059D01*
X129857463Y-70482454D01*
X129689100Y-70568240D01*
X129601879Y-70631610D01*
X129536227Y-70679310D01*
X129536225Y-70679312D01*
X129536224Y-70679312D01*
X129402611Y-70812925D01*
X129302618Y-70950553D01*
X129247287Y-70993218D01*
X129177674Y-70999197D01*
X129115879Y-70966591D01*
X129081522Y-70905752D01*
X129078300Y-70877667D01*
X129078300Y-70747172D01*
X129078299Y-70747155D01*
X129071898Y-70687627D01*
X129071896Y-70687620D01*
X129021654Y-70552913D01*
X129021650Y-70552906D01*
X128935490Y-70437812D01*
X128935487Y-70437809D01*
X128820393Y-70351649D01*
X128820386Y-70351645D01*
X128685679Y-70301403D01*
X128685672Y-70301401D01*
X128626144Y-70295000D01*
X128028300Y-70295000D01*
X128028300Y-71279314D01*
X128023906Y-71274920D01*
X127932694Y-71222259D01*
X127830961Y-71195000D01*
X127725639Y-71195000D01*
X127623906Y-71222259D01*
X127532694Y-71274920D01*
X127528300Y-71279314D01*
X127528300Y-70295000D01*
X126930455Y-70295000D01*
X126870927Y-70301401D01*
X126870920Y-70301403D01*
X126736213Y-70351645D01*
X126736206Y-70351649D01*
X126621112Y-70437809D01*
X126621109Y-70437812D01*
X126534949Y-70552906D01*
X126534945Y-70552913D01*
X126484703Y-70687620D01*
X126484701Y-70687627D01*
X126478300Y-70747155D01*
X126478300Y-71345000D01*
X127462614Y-71345000D01*
X127458220Y-71349394D01*
X127405559Y-71440606D01*
X127378300Y-71542339D01*
X127378300Y-71647661D01*
X127405559Y-71749394D01*
X127458220Y-71840606D01*
X127462614Y-71845000D01*
X126478300Y-71845000D01*
X126478300Y-72442844D01*
X126484701Y-72502372D01*
X126484703Y-72502379D01*
X126534945Y-72637086D01*
X126534949Y-72637093D01*
X126621109Y-72752187D01*
X126621112Y-72752190D01*
X126736206Y-72838350D01*
X126736213Y-72838354D01*
X126870920Y-72888596D01*
X126870927Y-72888598D01*
X126930455Y-72894999D01*
X126930472Y-72895000D01*
X127528300Y-72895000D01*
X127528300Y-71910686D01*
X127532694Y-71915080D01*
X127623906Y-71967741D01*
X127725639Y-71995000D01*
X127830961Y-71995000D01*
X127932694Y-71967741D01*
X128023906Y-71915080D01*
X128028300Y-71910686D01*
X128028300Y-72895000D01*
X128626128Y-72895000D01*
X128626144Y-72894999D01*
X128685672Y-72888598D01*
X128685679Y-72888596D01*
X128820386Y-72838354D01*
X128820393Y-72838350D01*
X128935487Y-72752190D01*
X128935490Y-72752187D01*
X129021650Y-72637093D01*
X129021654Y-72637086D01*
X129071896Y-72502379D01*
X129071898Y-72502372D01*
X129078299Y-72442844D01*
X129078300Y-72442827D01*
X129078300Y-72312332D01*
X129097985Y-72245293D01*
X129150789Y-72199538D01*
X129219947Y-72189594D01*
X129283503Y-72218619D01*
X129302616Y-72239444D01*
X129402610Y-72377073D01*
X129536227Y-72510690D01*
X129689101Y-72621760D01*
X129753785Y-72654718D01*
X129857463Y-72707545D01*
X129857465Y-72707545D01*
X129857468Y-72707547D01*
X129948351Y-72737077D01*
X130037181Y-72765940D01*
X130223814Y-72795500D01*
X130223819Y-72795500D01*
X130412786Y-72795500D01*
X130497616Y-72782063D01*
X130599418Y-72765940D01*
X130611146Y-72762128D01*
X130680984Y-72760128D01*
X130737151Y-72792376D01*
X134564994Y-76620219D01*
X134598479Y-76681542D01*
X134593495Y-76751234D01*
X134551623Y-76807167D01*
X134486159Y-76831584D01*
X134477313Y-76831900D01*
X128697419Y-76831900D01*
X128630380Y-76812215D01*
X128609738Y-76795581D01*
X123695477Y-71881319D01*
X120365045Y-68550887D01*
X120250307Y-68474222D01*
X120122832Y-68421421D01*
X120122822Y-68421418D01*
X119987496Y-68394500D01*
X119987494Y-68394500D01*
X119987493Y-68394500D01*
X112047538Y-68394500D01*
X111980499Y-68374815D01*
X111934744Y-68322011D01*
X111925065Y-68289897D01*
X111913947Y-68219700D01*
X111913947Y-68219699D01*
X111913946Y-68219697D01*
X111913946Y-68219696D01*
X111856350Y-68106658D01*
X111856346Y-68106654D01*
X111856345Y-68106652D01*
X111766647Y-68016954D01*
X111766644Y-68016952D01*
X111766642Y-68016950D01*
X111668777Y-67967085D01*
X111653601Y-67959352D01*
X111559824Y-67944500D01*
X109996782Y-67944500D01*
X109915819Y-67957323D01*
X109902996Y-67959354D01*
X109789958Y-68016950D01*
X109789957Y-68016951D01*
X109789952Y-68016954D01*
X109700254Y-68106652D01*
X109700251Y-68106657D01*
X109700250Y-68106658D01*
X109681051Y-68144337D01*
X109642652Y-68219698D01*
X109627800Y-68313475D01*
X109627800Y-69876517D01*
X109638592Y-69944657D01*
X109642654Y-69970304D01*
X109700250Y-70083342D01*
X109700252Y-70083344D01*
X109700254Y-70083347D01*
X109789952Y-70173045D01*
X109789954Y-70173046D01*
X109789958Y-70173050D01*
X109902994Y-70230645D01*
X109902998Y-70230647D01*
X109996775Y-70245499D01*
X109996781Y-70245500D01*
X111559818Y-70245499D01*
X111653604Y-70230646D01*
X111766642Y-70173050D01*
X111856350Y-70083342D01*
X111913946Y-69970304D01*
X111917526Y-69947698D01*
X111925066Y-69900101D01*
X111954996Y-69836967D01*
X112014307Y-69800036D01*
X112047539Y-69795500D01*
X119576981Y-69795500D01*
X119644020Y-69815185D01*
X119664662Y-69831819D01*
X127589365Y-77756522D01*
X127622850Y-77817845D01*
X127617866Y-77887537D01*
X127575994Y-77943470D01*
X127540003Y-77962134D01*
X127477463Y-77982454D01*
X127309100Y-78068240D01*
X127221879Y-78131610D01*
X127156227Y-78179310D01*
X127156225Y-78179312D01*
X127156224Y-78179312D01*
X127022612Y-78312924D01*
X127022612Y-78312925D01*
X127022610Y-78312927D01*
X126985518Y-78363980D01*
X126911540Y-78465800D01*
X126825754Y-78634163D01*
X126767359Y-78813881D01*
X126737800Y-79000513D01*
X126737800Y-79189486D01*
X126767359Y-79376118D01*
X126825754Y-79555836D01*
X126872860Y-79648285D01*
X126911540Y-79724199D01*
X127022610Y-79877073D01*
X127156227Y-80010690D01*
X127309101Y-80121760D01*
X127380220Y-80157997D01*
X127477463Y-80207545D01*
X127477465Y-80207545D01*
X127477468Y-80207547D01*
X127514859Y-80219696D01*
X127657181Y-80265940D01*
X127843814Y-80295500D01*
X127843819Y-80295500D01*
X128032786Y-80295500D01*
X128219418Y-80265940D01*
X128399132Y-80207547D01*
X128567499Y-80121760D01*
X128720373Y-80010690D01*
X128853990Y-79877073D01*
X128856818Y-79873179D01*
X128858613Y-79870711D01*
X128913944Y-79828047D01*
X128958928Y-79819600D01*
X141055460Y-79819600D01*
X141122499Y-79839285D01*
X141143142Y-79855920D01*
X141178107Y-79890886D01*
X141178111Y-79890889D01*
X141309214Y-79978490D01*
X141309227Y-79978497D01*
X141402065Y-80016951D01*
X141454903Y-80038837D01*
X141609553Y-80069599D01*
X141609556Y-80069600D01*
X141609558Y-80069600D01*
X141767244Y-80069600D01*
X141767245Y-80069599D01*
X141921897Y-80038837D01*
X142067579Y-79978494D01*
X142198689Y-79890889D01*
X142310189Y-79779389D01*
X142397794Y-79648279D01*
X142458137Y-79502597D01*
X142488900Y-79347942D01*
X142488900Y-79190258D01*
X142488900Y-79190255D01*
X142488899Y-79190253D01*
X142475275Y-79121760D01*
X142458137Y-79035603D01*
X142429700Y-78966951D01*
X142422232Y-78897483D01*
X142453507Y-78835004D01*
X142513596Y-78799352D01*
X142544262Y-78795500D01*
X147270446Y-78795500D01*
X147337485Y-78815185D01*
X147383240Y-78867989D01*
X147393184Y-78937147D01*
X147373548Y-78988391D01*
X147319409Y-79069414D01*
X147319402Y-79069427D01*
X147259064Y-79215098D01*
X147259061Y-79215110D01*
X147228300Y-79369753D01*
X147228300Y-79527446D01*
X147259061Y-79682089D01*
X147259064Y-79682101D01*
X147319402Y-79827772D01*
X147319409Y-79827785D01*
X147407010Y-79958888D01*
X147407013Y-79958892D01*
X147518507Y-80070386D01*
X147518511Y-80070389D01*
X147649614Y-80157990D01*
X147649627Y-80157997D01*
X147769253Y-80207547D01*
X147795303Y-80218337D01*
X147949953Y-80249099D01*
X147949956Y-80249100D01*
X147949958Y-80249100D01*
X147999413Y-80249100D01*
X148066452Y-80268785D01*
X148087094Y-80285419D01*
X148971894Y-81170219D01*
X149005379Y-81231542D01*
X149000395Y-81301234D01*
X148958523Y-81357167D01*
X148893059Y-81381584D01*
X148884213Y-81381900D01*
X127299098Y-81381900D01*
X127232059Y-81362215D01*
X127211417Y-81345581D01*
X118599190Y-72733355D01*
X118599188Y-72733352D01*
X118480317Y-72614481D01*
X118480309Y-72614475D01*
X118375588Y-72554015D01*
X118375585Y-72554014D01*
X118375356Y-72553882D01*
X118343385Y-72535423D01*
X118190657Y-72494499D01*
X118032543Y-72494499D01*
X118024947Y-72494499D01*
X118024931Y-72494500D01*
X112052799Y-72494500D01*
X111985760Y-72474815D01*
X111940005Y-72422011D01*
X111928799Y-72370500D01*
X111928799Y-72313482D01*
X111928617Y-72312332D01*
X111913946Y-72219696D01*
X111856350Y-72106658D01*
X111856346Y-72106654D01*
X111856345Y-72106652D01*
X111766647Y-72016954D01*
X111766644Y-72016952D01*
X111766642Y-72016950D01*
X111689817Y-71977805D01*
X111653601Y-71959352D01*
X111559824Y-71944500D01*
X109996782Y-71944500D01*
X109915819Y-71957323D01*
X109902996Y-71959354D01*
X109789958Y-72016950D01*
X109789957Y-72016951D01*
X109789952Y-72016954D01*
X109700254Y-72106652D01*
X109700251Y-72106657D01*
X109700250Y-72106658D01*
X109681129Y-72144185D01*
X109642652Y-72219698D01*
X109627800Y-72313475D01*
X109627800Y-73876517D01*
X109632090Y-73903600D01*
X109642654Y-73970304D01*
X109700250Y-74083342D01*
X109700252Y-74083344D01*
X109700254Y-74083347D01*
X109789952Y-74173045D01*
X109789954Y-74173046D01*
X109789958Y-74173050D01*
X109887855Y-74222931D01*
X109902998Y-74230647D01*
X109990416Y-74244491D01*
X109995341Y-74245272D01*
X109996775Y-74245499D01*
X109996781Y-74245500D01*
X111559818Y-74245499D01*
X111653604Y-74230646D01*
X111766642Y-74173050D01*
X111856350Y-74083342D01*
X111913946Y-73970304D01*
X111913946Y-73970302D01*
X111913947Y-73970301D01*
X111928800Y-73876524D01*
X111928800Y-73819500D01*
X111948485Y-73752461D01*
X112001289Y-73706706D01*
X112052800Y-73695500D01*
X117811503Y-73695500D01*
X117878542Y-73715185D01*
X117899183Y-73731818D01*
X126630284Y-82462920D01*
X126630286Y-82462921D01*
X126630290Y-82462924D01*
X126716894Y-82512924D01*
X126767216Y-82541977D01*
X126919943Y-82582901D01*
X126919945Y-82582901D01*
X127085654Y-82582901D01*
X127085670Y-82582900D01*
X139668600Y-82582900D01*
X139735639Y-82602585D01*
X139781394Y-82655389D01*
X139792600Y-82706900D01*
X139792600Y-99879830D01*
X139792599Y-99879848D01*
X139792599Y-100045554D01*
X139792598Y-100045554D01*
X139792599Y-100045557D01*
X139833523Y-100198285D01*
X139833524Y-100198287D01*
X139833523Y-100198287D01*
X139848482Y-100224195D01*
X139848484Y-100224197D01*
X139848485Y-100224199D01*
X139912580Y-100335216D01*
X140024384Y-100447020D01*
X140024385Y-100447021D01*
X140467884Y-100890520D01*
X140467886Y-100890521D01*
X140467890Y-100890524D01*
X140604809Y-100969573D01*
X140604816Y-100969577D01*
X140757543Y-101010501D01*
X140757545Y-101010501D01*
X140813801Y-101010501D01*
X140880840Y-101030186D01*
X140926595Y-101082990D01*
X140937801Y-101134501D01*
X140937801Y-101291518D01*
X140952654Y-101385304D01*
X141010250Y-101498342D01*
X141010252Y-101498344D01*
X141010254Y-101498347D01*
X141099952Y-101588045D01*
X141099954Y-101588046D01*
X141099958Y-101588050D01*
X141212994Y-101645645D01*
X141212998Y-101645647D01*
X141306775Y-101660499D01*
X141306781Y-101660500D01*
X141454035Y-101660499D01*
X141521072Y-101680183D01*
X141566827Y-101732987D01*
X141576771Y-101802145D01*
X141547746Y-101865701D01*
X141526919Y-101884816D01*
X141373660Y-101996167D01*
X141373651Y-101996174D01*
X141234474Y-102135351D01*
X141234474Y-102135352D01*
X141234472Y-102135354D01*
X141184785Y-102203741D01*
X141118776Y-102294594D01*
X141029417Y-102469970D01*
X140968590Y-102657173D01*
X140937800Y-102851577D01*
X140937800Y-103048422D01*
X140968590Y-103242826D01*
X141029417Y-103430029D01*
X141059519Y-103489105D01*
X141072415Y-103557774D01*
X141046139Y-103622514D01*
X140989033Y-103662772D01*
X140949034Y-103669400D01*
X135334287Y-103669400D01*
X135267248Y-103649715D01*
X135246606Y-103633081D01*
X112268016Y-80654491D01*
X112268015Y-80654490D01*
X112142485Y-80582016D01*
X112142486Y-80582016D01*
X112044766Y-80555832D01*
X112020704Y-80549384D01*
X111961045Y-80513019D01*
X111930516Y-80450172D01*
X111928799Y-80429610D01*
X111928799Y-80313482D01*
X111925951Y-80295500D01*
X111913946Y-80219696D01*
X111856350Y-80106658D01*
X111856346Y-80106654D01*
X111856345Y-80106652D01*
X111766647Y-80016954D01*
X111766644Y-80016952D01*
X111766642Y-80016950D01*
X111689817Y-79977805D01*
X111653601Y-79959352D01*
X111559824Y-79944500D01*
X109996782Y-79944500D01*
X109915819Y-79957323D01*
X109902996Y-79959354D01*
X109789958Y-80016950D01*
X109789957Y-80016951D01*
X109789952Y-80016954D01*
X109700254Y-80106652D01*
X109700251Y-80106657D01*
X109642652Y-80219698D01*
X109627800Y-80313475D01*
X109627800Y-81876517D01*
X109629751Y-81888833D01*
X109642654Y-81970304D01*
X109700250Y-82083342D01*
X109700252Y-82083344D01*
X109700254Y-82083347D01*
X109789952Y-82173045D01*
X109789954Y-82173046D01*
X109789958Y-82173050D01*
X109902994Y-82230645D01*
X109902998Y-82230647D01*
X109996775Y-82245499D01*
X109996781Y-82245500D01*
X111559818Y-82245499D01*
X111653604Y-82230646D01*
X111766642Y-82173050D01*
X111856350Y-82083342D01*
X111874549Y-82047623D01*
X111922522Y-81996829D01*
X111990343Y-81980034D01*
X112056478Y-82002571D01*
X112072714Y-82016239D01*
X134238194Y-104181719D01*
X134271679Y-104243042D01*
X134266695Y-104312734D01*
X134224823Y-104368667D01*
X134159359Y-104393084D01*
X134150513Y-104393400D01*
X132058286Y-104393400D01*
X131991247Y-104373715D01*
X131970605Y-104357081D01*
X112268016Y-84654491D01*
X112268015Y-84654490D01*
X112142485Y-84582016D01*
X112065516Y-84561392D01*
X112065515Y-84561391D01*
X112020706Y-84549385D01*
X111961045Y-84513020D01*
X111930516Y-84450173D01*
X111928799Y-84429610D01*
X111928799Y-84313482D01*
X111928798Y-84313475D01*
X111913946Y-84219696D01*
X111856350Y-84106658D01*
X111856346Y-84106654D01*
X111856345Y-84106652D01*
X111766647Y-84016954D01*
X111766644Y-84016952D01*
X111766642Y-84016950D01*
X111689817Y-83977805D01*
X111653601Y-83959352D01*
X111559824Y-83944500D01*
X109996782Y-83944500D01*
X109915819Y-83957323D01*
X109902996Y-83959354D01*
X109789958Y-84016950D01*
X109789957Y-84016951D01*
X109789952Y-84016954D01*
X109700254Y-84106652D01*
X109700251Y-84106657D01*
X109700250Y-84106658D01*
X109693606Y-84119698D01*
X109642652Y-84219698D01*
X109627800Y-84313475D01*
X109627800Y-85876517D01*
X109638592Y-85944657D01*
X109642654Y-85970304D01*
X109700250Y-86083342D01*
X109700252Y-86083344D01*
X109700254Y-86083347D01*
X109789952Y-86173045D01*
X109789954Y-86173046D01*
X109789958Y-86173050D01*
X109902994Y-86230645D01*
X109902998Y-86230647D01*
X109996775Y-86245499D01*
X109996781Y-86245500D01*
X111559818Y-86245499D01*
X111653604Y-86230646D01*
X111766642Y-86173050D01*
X111856350Y-86083342D01*
X111874549Y-86047623D01*
X111922522Y-85996829D01*
X111990343Y-85980034D01*
X112056478Y-86002571D01*
X112072714Y-86016239D01*
X131440886Y-105384410D01*
X131440887Y-105384411D01*
X131440889Y-105384412D01*
X131458362Y-105394500D01*
X131566415Y-105456884D01*
X131706425Y-105494400D01*
X131706426Y-105494400D01*
X131851375Y-105494400D01*
X135900913Y-105494400D01*
X135967952Y-105514085D01*
X135988594Y-105530719D01*
X140198385Y-109740510D01*
X140309037Y-109804394D01*
X140323915Y-109812984D01*
X140463925Y-109850500D01*
X140463926Y-109850500D01*
X140608874Y-109850500D01*
X140949084Y-109850500D01*
X141016123Y-109870185D01*
X141061878Y-109922989D01*
X141071822Y-109992147D01*
X141059569Y-110030794D01*
X141029418Y-110089967D01*
X140968590Y-110277173D01*
X140937800Y-110471577D01*
X140937800Y-110668422D01*
X140968590Y-110862826D01*
X141029417Y-111050029D01*
X141118162Y-111224199D01*
X141118776Y-111225405D01*
X141234472Y-111384646D01*
X141373654Y-111523828D01*
X141532895Y-111639524D01*
X141601489Y-111674474D01*
X141709513Y-111729515D01*
X141760309Y-111777489D01*
X141777104Y-111845310D01*
X141754567Y-111911445D01*
X141709513Y-111950485D01*
X141532894Y-112040476D01*
X141477840Y-112080476D01*
X141373654Y-112156172D01*
X141373652Y-112156174D01*
X141373651Y-112156174D01*
X141234474Y-112295351D01*
X141234474Y-112295352D01*
X141234472Y-112295354D01*
X141185331Y-112362990D01*
X141118776Y-112454594D01*
X141029417Y-112629970D01*
X140968590Y-112817173D01*
X140937800Y-113011577D01*
X140937800Y-113208422D01*
X140968590Y-113402826D01*
X141029417Y-113590029D01*
X141118776Y-113765405D01*
X141234472Y-113924646D01*
X141373654Y-114063828D01*
X141532895Y-114179524D01*
X141656292Y-114242397D01*
X141709513Y-114269515D01*
X141760309Y-114317489D01*
X141777104Y-114385310D01*
X141754567Y-114451445D01*
X141709513Y-114490485D01*
X141532894Y-114580476D01*
X141442041Y-114646485D01*
X141373654Y-114696172D01*
X141373652Y-114696174D01*
X141373651Y-114696174D01*
X141234474Y-114835351D01*
X141234474Y-114835352D01*
X141234472Y-114835354D01*
X141184785Y-114903741D01*
X141118776Y-114994594D01*
X141029417Y-115169970D01*
X140968590Y-115357173D01*
X140937800Y-115551577D01*
X140937800Y-115748422D01*
X140968590Y-115942826D01*
X141029417Y-116130029D01*
X141114472Y-116296957D01*
X141118776Y-116305405D01*
X141234472Y-116464646D01*
X141373654Y-116603828D01*
X141532895Y-116719524D01*
X141638123Y-116773140D01*
X141709513Y-116809515D01*
X141760309Y-116857489D01*
X141777104Y-116925310D01*
X141754567Y-116991445D01*
X141709513Y-117030485D01*
X141532894Y-117120476D01*
X141442041Y-117186485D01*
X141373654Y-117236172D01*
X141373652Y-117236174D01*
X141373651Y-117236174D01*
X141234474Y-117375351D01*
X141234474Y-117375352D01*
X141234472Y-117375354D01*
X141192603Y-117432982D01*
X141118776Y-117534594D01*
X141029417Y-117709970D01*
X140968590Y-117897173D01*
X140937800Y-118091577D01*
X140937800Y-118288422D01*
X140968590Y-118482826D01*
X141029417Y-118670029D01*
X141118776Y-118845405D01*
X141234472Y-119004646D01*
X141373654Y-119143828D01*
X141532895Y-119259524D01*
X141656292Y-119322397D01*
X141709513Y-119349515D01*
X141760309Y-119397489D01*
X141777104Y-119465310D01*
X141754567Y-119531445D01*
X141709513Y-119570485D01*
X141532894Y-119660476D01*
X141464177Y-119710403D01*
X141373654Y-119776172D01*
X141373652Y-119776174D01*
X141373651Y-119776174D01*
X141234474Y-119915351D01*
X141234474Y-119915352D01*
X141234472Y-119915354D01*
X141184785Y-119983741D01*
X141118776Y-120074594D01*
X141029417Y-120249970D01*
X140968590Y-120437173D01*
X140937800Y-120631577D01*
X140937800Y-120828422D01*
X140968590Y-121022826D01*
X141029417Y-121210029D01*
X141094558Y-121337875D01*
X141118776Y-121385405D01*
X141234472Y-121544646D01*
X141373654Y-121683828D01*
X141532895Y-121799524D01*
X141656292Y-121862397D01*
X141709513Y-121889515D01*
X141760309Y-121937489D01*
X141777104Y-122005310D01*
X141754567Y-122071445D01*
X141709513Y-122110485D01*
X141532894Y-122200476D01*
X141500060Y-122224332D01*
X141373654Y-122316172D01*
X141373652Y-122316174D01*
X141373651Y-122316174D01*
X141234474Y-122455351D01*
X141234474Y-122455352D01*
X141234472Y-122455354D01*
X141192602Y-122512983D01*
X141118776Y-122614594D01*
X141029417Y-122789970D01*
X140968590Y-122977173D01*
X140937800Y-123171577D01*
X140937800Y-123368422D01*
X140968590Y-123562826D01*
X141029417Y-123750029D01*
X141118776Y-123925405D01*
X141234472Y-124084646D01*
X141373654Y-124223828D01*
X141532895Y-124339524D01*
X141656292Y-124402397D01*
X141709513Y-124429515D01*
X141760309Y-124477489D01*
X141777104Y-124545310D01*
X141754567Y-124611445D01*
X141709513Y-124650485D01*
X141532894Y-124740476D01*
X141442041Y-124806485D01*
X141373654Y-124856172D01*
X141373652Y-124856174D01*
X141373651Y-124856174D01*
X141234474Y-124995351D01*
X141234474Y-124995352D01*
X141234472Y-124995354D01*
X141184785Y-125063741D01*
X141118776Y-125154594D01*
X141029417Y-125329970D01*
X140968590Y-125517173D01*
X140937800Y-125711577D01*
X140937800Y-125908422D01*
X140968590Y-126102826D01*
X141029417Y-126290029D01*
X141104290Y-126436974D01*
X141118776Y-126465405D01*
X141234472Y-126624646D01*
X141373654Y-126763828D01*
X141532895Y-126879524D01*
X141628184Y-126928076D01*
X141709513Y-126969515D01*
X141760309Y-127017489D01*
X141777104Y-127085310D01*
X141754567Y-127151445D01*
X141709513Y-127190485D01*
X141532894Y-127280476D01*
X141454604Y-127337358D01*
X141373654Y-127396172D01*
X141373652Y-127396174D01*
X141373651Y-127396174D01*
X141234474Y-127535351D01*
X141234474Y-127535352D01*
X141234472Y-127535354D01*
X141196017Y-127588282D01*
X141118776Y-127694594D01*
X141029417Y-127869970D01*
X140968590Y-128057173D01*
X140937800Y-128251577D01*
X140937800Y-128448422D01*
X140968590Y-128642826D01*
X141029417Y-128830029D01*
X141057498Y-128885140D01*
X141118776Y-129005405D01*
X141234472Y-129164646D01*
X141373654Y-129303828D01*
X141463080Y-129368800D01*
X141532896Y-129419525D01*
X141599928Y-129453679D01*
X141650725Y-129501653D01*
X141667520Y-129569474D01*
X141644983Y-129635609D01*
X141599930Y-129674648D01*
X141480743Y-129735378D01*
X141480740Y-129735380D01*
X141426582Y-129774727D01*
X141426582Y-129774728D01*
X142058891Y-130407037D01*
X141995307Y-130424075D01*
X141881293Y-130489901D01*
X141788201Y-130582993D01*
X141722375Y-130697007D01*
X141705337Y-130760591D01*
X141073028Y-130128282D01*
X141073027Y-130128282D01*
X141033680Y-130182439D01*
X140937204Y-130371782D01*
X140871542Y-130573869D01*
X140871542Y-130573872D01*
X140838300Y-130783753D01*
X140838300Y-130789981D01*
X140818615Y-130857020D01*
X140765811Y-130902775D01*
X140696653Y-130912719D01*
X140633097Y-130883694D01*
X140626619Y-130877662D01*
X131515119Y-121766162D01*
X131481634Y-121704839D01*
X131478800Y-121678481D01*
X131478800Y-120219500D01*
X131498485Y-120152461D01*
X131551289Y-120106706D01*
X131602800Y-120095500D01*
X132193986Y-120095500D01*
X132193994Y-120095500D01*
X132230869Y-120092598D01*
X132230871Y-120092597D01*
X132230873Y-120092597D01*
X132292835Y-120074595D01*
X132388698Y-120046744D01*
X132530165Y-119963081D01*
X132646381Y-119846865D01*
X132730044Y-119705398D01*
X132775898Y-119547569D01*
X132778800Y-119510694D01*
X132778800Y-116679306D01*
X132775898Y-116642431D01*
X132730044Y-116484602D01*
X132646381Y-116343135D01*
X132646379Y-116343133D01*
X132646376Y-116343129D01*
X132530170Y-116226923D01*
X132530162Y-116226917D01*
X132388696Y-116143255D01*
X132388693Y-116143254D01*
X132230873Y-116097402D01*
X132230867Y-116097401D01*
X132194001Y-116094500D01*
X132193994Y-116094500D01*
X129362606Y-116094500D01*
X129362598Y-116094500D01*
X129325732Y-116097401D01*
X129325726Y-116097402D01*
X129167906Y-116143254D01*
X129167903Y-116143255D01*
X129026437Y-116226917D01*
X129026429Y-116226923D01*
X128910223Y-116343129D01*
X128910217Y-116343137D01*
X128826555Y-116484603D01*
X128826554Y-116484606D01*
X128780702Y-116642426D01*
X128780701Y-116642432D01*
X128777800Y-116679298D01*
X128777800Y-119510701D01*
X128780701Y-119547567D01*
X128780702Y-119547573D01*
X128826554Y-119705393D01*
X128826555Y-119705396D01*
X128910217Y-119846862D01*
X128910223Y-119846870D01*
X129026429Y-119963076D01*
X129026433Y-119963079D01*
X129026435Y-119963081D01*
X129167902Y-120046744D01*
X129209524Y-120058836D01*
X129325726Y-120092597D01*
X129325729Y-120092597D01*
X129325731Y-120092598D01*
X129362606Y-120095500D01*
X129953800Y-120095500D01*
X130020839Y-120115185D01*
X130066594Y-120167989D01*
X130077800Y-120219500D01*
X130077800Y-121951006D01*
X130077800Y-122088994D01*
X130077800Y-122088996D01*
X130077799Y-122088996D01*
X130104718Y-122224322D01*
X130104721Y-122224332D01*
X130157522Y-122351807D01*
X130234187Y-122466545D01*
X130234188Y-122466546D01*
X140915195Y-133147552D01*
X140948680Y-133208875D01*
X140949987Y-133254630D01*
X140937800Y-133331577D01*
X140937800Y-133528422D01*
X140968590Y-133722826D01*
X141029417Y-133910029D01*
X141118776Y-134085405D01*
X141234472Y-134244646D01*
X141373654Y-134383828D01*
X141493084Y-134470600D01*
X141532896Y-134499525D01*
X141599928Y-134533679D01*
X141650725Y-134581653D01*
X141667520Y-134649474D01*
X141644983Y-134715609D01*
X141599930Y-134754648D01*
X141480743Y-134815378D01*
X141480740Y-134815380D01*
X141426582Y-134854727D01*
X141426582Y-134854728D01*
X142058891Y-135487037D01*
X141995307Y-135504075D01*
X141881293Y-135569901D01*
X141788201Y-135662993D01*
X141722375Y-135777007D01*
X141705337Y-135840591D01*
X141073028Y-135208282D01*
X141073027Y-135208282D01*
X141033680Y-135262439D01*
X140937204Y-135451782D01*
X140871542Y-135653869D01*
X140871542Y-135653872D01*
X140838300Y-135863753D01*
X140838300Y-136076246D01*
X140871542Y-136286127D01*
X140871542Y-136286130D01*
X140937204Y-136488217D01*
X141033675Y-136677550D01*
X141073028Y-136731716D01*
X141705337Y-136099408D01*
X141722375Y-136162993D01*
X141788201Y-136277007D01*
X141881293Y-136370099D01*
X141995307Y-136435925D01*
X142058890Y-136452962D01*
X141426582Y-137085269D01*
X141426582Y-137085270D01*
X141480749Y-137124624D01*
X141670082Y-137221095D01*
X141872170Y-137286757D01*
X142082054Y-137320000D01*
X142294546Y-137320000D01*
X142504427Y-137286757D01*
X142504430Y-137286757D01*
X142706517Y-137221095D01*
X142895854Y-137124622D01*
X142950016Y-137085270D01*
X142950017Y-137085270D01*
X142317708Y-136452962D01*
X142381293Y-136435925D01*
X142495307Y-136370099D01*
X142588399Y-136277007D01*
X142654225Y-136162993D01*
X142671262Y-136099408D01*
X143303570Y-136731717D01*
X143303570Y-136731716D01*
X143342922Y-136677554D01*
X143439395Y-136488217D01*
X143505057Y-136286130D01*
X143505057Y-136286127D01*
X143538300Y-136076246D01*
X143538300Y-135863753D01*
X143505057Y-135653872D01*
X143505057Y-135653869D01*
X143439395Y-135451782D01*
X143342924Y-135262449D01*
X143303570Y-135208282D01*
X143303569Y-135208282D01*
X142671262Y-135840590D01*
X142654225Y-135777007D01*
X142588399Y-135662993D01*
X142495307Y-135569901D01*
X142381293Y-135504075D01*
X142317709Y-135487037D01*
X142950016Y-134854728D01*
X142895847Y-134815373D01*
X142895842Y-134815370D01*
X142776670Y-134754648D01*
X142725874Y-134706674D01*
X142709079Y-134638853D01*
X142731617Y-134572718D01*
X142776670Y-134533679D01*
X142843705Y-134499524D01*
X143002946Y-134383828D01*
X143142128Y-134244646D01*
X143257824Y-134085405D01*
X143347184Y-133910025D01*
X143408009Y-133722826D01*
X143438800Y-133528422D01*
X143438800Y-133331577D01*
X143408009Y-133137173D01*
X143347182Y-132949970D01*
X143264494Y-132787686D01*
X143257824Y-132774595D01*
X143142128Y-132615354D01*
X143002946Y-132476172D01*
X142843705Y-132360476D01*
X142776670Y-132326320D01*
X142725874Y-132278345D01*
X142709079Y-132210524D01*
X142731616Y-132144389D01*
X142776670Y-132105350D01*
X142895854Y-132044622D01*
X142950016Y-132005270D01*
X142950017Y-132005270D01*
X142317708Y-131372962D01*
X142381293Y-131355925D01*
X142495307Y-131290099D01*
X142588399Y-131197007D01*
X142654225Y-131082993D01*
X142671262Y-131019408D01*
X143303570Y-131651717D01*
X143303570Y-131651716D01*
X143342922Y-131597554D01*
X143439395Y-131408217D01*
X143505057Y-131206130D01*
X143505057Y-131206127D01*
X143538300Y-130996246D01*
X143538300Y-130783753D01*
X143505057Y-130573872D01*
X143505057Y-130573869D01*
X143439395Y-130371782D01*
X143342924Y-130182449D01*
X143303570Y-130128282D01*
X143303569Y-130128282D01*
X142671262Y-130760590D01*
X142654225Y-130697007D01*
X142588399Y-130582993D01*
X142495307Y-130489901D01*
X142381293Y-130424075D01*
X142317709Y-130407037D01*
X142950016Y-129774728D01*
X142895847Y-129735373D01*
X142895842Y-129735370D01*
X142776670Y-129674648D01*
X142725874Y-129626674D01*
X142709079Y-129558853D01*
X142731617Y-129492718D01*
X142776670Y-129453679D01*
X142843705Y-129419524D01*
X143002946Y-129303828D01*
X143142128Y-129164646D01*
X143257824Y-129005405D01*
X143347184Y-128830025D01*
X143408009Y-128642826D01*
X143423821Y-128542993D01*
X143438800Y-128448422D01*
X143438800Y-128251580D01*
X143438799Y-128251574D01*
X143408009Y-128057173D01*
X143347182Y-127869970D01*
X143287595Y-127753025D01*
X143257824Y-127694595D01*
X143142128Y-127535354D01*
X143002946Y-127396172D01*
X142921996Y-127337358D01*
X142843703Y-127280474D01*
X142667087Y-127190485D01*
X142616290Y-127142511D01*
X142599495Y-127074690D01*
X142622032Y-127008555D01*
X142667087Y-126969515D01*
X142843703Y-126879525D01*
X142843702Y-126879525D01*
X142843705Y-126879524D01*
X143002946Y-126763828D01*
X143142128Y-126624646D01*
X143257824Y-126465405D01*
X143347184Y-126290025D01*
X143408009Y-126102826D01*
X143435147Y-125931483D01*
X143438800Y-125908422D01*
X143438800Y-125711577D01*
X143408009Y-125517173D01*
X143347182Y-125329970D01*
X143257823Y-125154594D01*
X143142128Y-124995354D01*
X143002946Y-124856172D01*
X142923325Y-124798324D01*
X142843703Y-124740474D01*
X142667087Y-124650485D01*
X142616290Y-124602511D01*
X142599495Y-124534690D01*
X142622032Y-124468555D01*
X142667087Y-124429515D01*
X142843703Y-124339525D01*
X142843702Y-124339525D01*
X142843705Y-124339524D01*
X143002946Y-124223828D01*
X143142128Y-124084646D01*
X143257824Y-123925405D01*
X143347184Y-123750025D01*
X143408009Y-123562826D01*
X143422682Y-123470183D01*
X143438800Y-123368422D01*
X143438800Y-123171577D01*
X143408009Y-122977173D01*
X143379787Y-122890317D01*
X143347184Y-122789975D01*
X143347182Y-122789972D01*
X143347182Y-122789970D01*
X143283263Y-122664523D01*
X143257824Y-122614595D01*
X143142128Y-122455354D01*
X143002946Y-122316172D01*
X142876540Y-122224332D01*
X142843703Y-122200474D01*
X142667087Y-122110485D01*
X142616290Y-122062511D01*
X142599495Y-121994690D01*
X142622032Y-121928555D01*
X142667087Y-121889515D01*
X142843703Y-121799525D01*
X142843702Y-121799525D01*
X142843705Y-121799524D01*
X143002946Y-121683828D01*
X143142128Y-121544646D01*
X143257824Y-121385405D01*
X143347184Y-121210025D01*
X143408009Y-121022826D01*
X143410574Y-121006630D01*
X143438800Y-120828422D01*
X143438800Y-120631577D01*
X143408009Y-120437173D01*
X143365225Y-120305500D01*
X143347184Y-120249975D01*
X143347182Y-120249972D01*
X143347182Y-120249970D01*
X143283264Y-120124524D01*
X143257824Y-120074595D01*
X143142128Y-119915354D01*
X143002946Y-119776172D01*
X142912423Y-119710403D01*
X142843703Y-119660474D01*
X142667087Y-119570485D01*
X142616290Y-119522511D01*
X142599495Y-119454690D01*
X142622032Y-119388555D01*
X142667087Y-119349515D01*
X142843703Y-119259525D01*
X142843702Y-119259525D01*
X142843705Y-119259524D01*
X143002946Y-119143828D01*
X143142128Y-119004646D01*
X143257824Y-118845405D01*
X143347184Y-118670025D01*
X143408009Y-118482826D01*
X143410574Y-118466629D01*
X143438800Y-118288422D01*
X143438800Y-118091577D01*
X143408009Y-117897173D01*
X143377704Y-117803904D01*
X143347184Y-117709975D01*
X143347182Y-117709972D01*
X143347182Y-117709970D01*
X143297338Y-117612147D01*
X143257824Y-117534595D01*
X143142128Y-117375354D01*
X143002946Y-117236172D01*
X142923325Y-117178324D01*
X142843703Y-117120474D01*
X142667087Y-117030485D01*
X142616290Y-116982511D01*
X142599495Y-116914690D01*
X142622032Y-116848555D01*
X142667087Y-116809515D01*
X142843703Y-116719525D01*
X142843702Y-116719525D01*
X142843705Y-116719524D01*
X143002946Y-116603828D01*
X143142128Y-116464646D01*
X143257824Y-116305405D01*
X143347184Y-116130025D01*
X143408009Y-115942826D01*
X143438800Y-115748422D01*
X143438800Y-115551577D01*
X143408009Y-115357173D01*
X143347182Y-115169970D01*
X143257823Y-114994594D01*
X143142128Y-114835354D01*
X143002946Y-114696172D01*
X142923325Y-114638324D01*
X142843703Y-114580474D01*
X142667087Y-114490485D01*
X142616290Y-114442511D01*
X142599495Y-114374690D01*
X142622032Y-114308555D01*
X142667087Y-114269515D01*
X142843703Y-114179525D01*
X142843702Y-114179525D01*
X142843705Y-114179524D01*
X143002946Y-114063828D01*
X143142128Y-113924646D01*
X143257824Y-113765405D01*
X143347184Y-113590025D01*
X143408009Y-113402826D01*
X143438800Y-113208422D01*
X143438800Y-113011577D01*
X143408009Y-112817173D01*
X143374092Y-112712789D01*
X143347184Y-112629975D01*
X143347182Y-112629972D01*
X143347182Y-112629970D01*
X143257823Y-112454594D01*
X143214525Y-112395000D01*
X143142128Y-112295354D01*
X143002946Y-112156172D01*
X142852495Y-112046862D01*
X142843703Y-112040474D01*
X142667087Y-111950485D01*
X142616290Y-111902511D01*
X142599495Y-111834690D01*
X142622032Y-111768555D01*
X142667087Y-111729515D01*
X142843703Y-111639525D01*
X142843702Y-111639525D01*
X142843705Y-111639524D01*
X143002946Y-111523828D01*
X143142128Y-111384646D01*
X143257824Y-111225405D01*
X143347184Y-111050025D01*
X143408009Y-110862826D01*
X143426871Y-110743735D01*
X143438800Y-110668422D01*
X143438800Y-110471577D01*
X143408009Y-110277173D01*
X143380768Y-110193336D01*
X143347184Y-110089975D01*
X143347182Y-110089972D01*
X143347181Y-110089967D01*
X143317031Y-110030794D01*
X143304135Y-109962125D01*
X143330412Y-109897385D01*
X143387519Y-109857128D01*
X143427516Y-109850500D01*
X149020613Y-109850500D01*
X149087652Y-109870185D01*
X149108294Y-109886819D01*
X161661985Y-122440510D01*
X161787515Y-122512984D01*
X161927525Y-122550500D01*
X163809084Y-122550500D01*
X163876123Y-122570185D01*
X163921878Y-122622989D01*
X163931822Y-122692147D01*
X163919569Y-122730794D01*
X163889418Y-122789967D01*
X163828590Y-122977173D01*
X163797800Y-123171577D01*
X163797800Y-123368422D01*
X163828590Y-123562826D01*
X163889417Y-123750029D01*
X163978776Y-123925405D01*
X164094472Y-124084646D01*
X164233654Y-124223828D01*
X164392895Y-124339524D01*
X164516292Y-124402397D01*
X164569513Y-124429515D01*
X164620309Y-124477489D01*
X164637104Y-124545310D01*
X164614567Y-124611445D01*
X164569513Y-124650485D01*
X164392894Y-124740476D01*
X164302041Y-124806485D01*
X164233654Y-124856172D01*
X164233652Y-124856174D01*
X164233651Y-124856174D01*
X164094474Y-124995351D01*
X164094474Y-124995352D01*
X164094472Y-124995354D01*
X164044785Y-125063741D01*
X163978776Y-125154594D01*
X163889417Y-125329970D01*
X163828590Y-125517173D01*
X163797800Y-125711577D01*
X163797800Y-125908422D01*
X163828590Y-126102826D01*
X163889417Y-126290029D01*
X163964290Y-126436974D01*
X163978776Y-126465405D01*
X164094472Y-126624646D01*
X164233654Y-126763828D01*
X164284821Y-126801003D01*
X164392896Y-126879525D01*
X164459928Y-126913679D01*
X164510725Y-126961653D01*
X164527520Y-127029474D01*
X164504983Y-127095609D01*
X164459930Y-127134648D01*
X164340743Y-127195378D01*
X164340740Y-127195380D01*
X164286582Y-127234727D01*
X164286582Y-127234728D01*
X164918891Y-127867037D01*
X164855307Y-127884075D01*
X164741293Y-127949901D01*
X164648201Y-128042993D01*
X164582375Y-128157007D01*
X164565337Y-128220591D01*
X163933028Y-127588282D01*
X163933027Y-127588282D01*
X163893680Y-127642439D01*
X163797204Y-127831782D01*
X163731542Y-128033869D01*
X163731542Y-128033872D01*
X163698300Y-128243753D01*
X163698300Y-128456246D01*
X163731542Y-128666127D01*
X163731542Y-128666130D01*
X163797204Y-128868217D01*
X163893675Y-129057550D01*
X163933028Y-129111716D01*
X164565337Y-128479408D01*
X164582375Y-128542993D01*
X164648201Y-128657007D01*
X164741293Y-128750099D01*
X164855307Y-128815925D01*
X164918890Y-128832962D01*
X164286582Y-129465269D01*
X164286582Y-129465270D01*
X164340749Y-129504624D01*
X164459929Y-129565350D01*
X164510725Y-129613325D01*
X164527520Y-129681146D01*
X164504982Y-129747281D01*
X164459930Y-129786319D01*
X164392897Y-129820474D01*
X164313274Y-129878324D01*
X164233654Y-129936172D01*
X164233652Y-129936174D01*
X164233651Y-129936174D01*
X164094474Y-130075351D01*
X164094474Y-130075352D01*
X164094472Y-130075354D01*
X164074908Y-130102282D01*
X163978776Y-130234594D01*
X163889417Y-130409970D01*
X163828590Y-130597173D01*
X163797800Y-130791577D01*
X163797800Y-130988422D01*
X163828590Y-131182826D01*
X163889417Y-131370029D01*
X163978776Y-131545405D01*
X164094472Y-131704646D01*
X164233654Y-131843828D01*
X164392895Y-131959524D01*
X164482677Y-132005270D01*
X164569513Y-132049515D01*
X164620309Y-132097489D01*
X164637104Y-132165310D01*
X164614567Y-132231445D01*
X164569513Y-132270485D01*
X164392894Y-132360476D01*
X164302041Y-132426485D01*
X164233654Y-132476172D01*
X164233652Y-132476174D01*
X164233651Y-132476174D01*
X164094474Y-132615351D01*
X164094474Y-132615352D01*
X164094472Y-132615354D01*
X164044785Y-132683741D01*
X163978776Y-132774594D01*
X163889417Y-132949970D01*
X163828590Y-133137173D01*
X163797800Y-133331577D01*
X163797800Y-133528422D01*
X163828590Y-133722826D01*
X163889417Y-133910029D01*
X163978776Y-134085405D01*
X164094472Y-134244646D01*
X164233654Y-134383828D01*
X164353084Y-134470600D01*
X164392896Y-134499525D01*
X164459928Y-134533679D01*
X164510725Y-134581653D01*
X164527520Y-134649474D01*
X164504983Y-134715609D01*
X164459930Y-134754648D01*
X164340743Y-134815378D01*
X164340740Y-134815380D01*
X164286582Y-134854727D01*
X164286582Y-134854728D01*
X164918891Y-135487037D01*
X164855307Y-135504075D01*
X164741293Y-135569901D01*
X164648201Y-135662993D01*
X164582375Y-135777007D01*
X164565337Y-135840591D01*
X163933028Y-135208282D01*
X163933027Y-135208282D01*
X163893680Y-135262439D01*
X163797204Y-135451782D01*
X163731542Y-135653869D01*
X163731542Y-135653872D01*
X163698300Y-135863753D01*
X163698300Y-136076246D01*
X163731542Y-136286127D01*
X163731542Y-136286130D01*
X163797204Y-136488217D01*
X163893675Y-136677550D01*
X163933028Y-136731716D01*
X164565337Y-136099408D01*
X164582375Y-136162993D01*
X164648201Y-136277007D01*
X164741293Y-136370099D01*
X164855307Y-136435925D01*
X164918890Y-136452962D01*
X164286582Y-137085269D01*
X164286582Y-137085270D01*
X164340749Y-137124624D01*
X164530082Y-137221095D01*
X164732170Y-137286757D01*
X164942054Y-137320000D01*
X165154546Y-137320000D01*
X165364427Y-137286757D01*
X165364430Y-137286757D01*
X165566517Y-137221095D01*
X165755854Y-137124622D01*
X165810016Y-137085270D01*
X165810017Y-137085270D01*
X165177708Y-136452962D01*
X165241293Y-136435925D01*
X165355307Y-136370099D01*
X165448399Y-136277007D01*
X165514225Y-136162993D01*
X165531262Y-136099408D01*
X166163570Y-136731717D01*
X166163570Y-136731716D01*
X166202922Y-136677554D01*
X166299395Y-136488217D01*
X166365057Y-136286130D01*
X166365057Y-136286127D01*
X166398300Y-136076246D01*
X166398300Y-135863753D01*
X166365057Y-135653872D01*
X166365057Y-135653869D01*
X166299395Y-135451782D01*
X166202924Y-135262449D01*
X166163570Y-135208282D01*
X166163569Y-135208282D01*
X165531262Y-135840590D01*
X165514225Y-135777007D01*
X165448399Y-135662993D01*
X165355307Y-135569901D01*
X165241293Y-135504075D01*
X165177709Y-135487037D01*
X165810016Y-134854728D01*
X165755847Y-134815373D01*
X165755842Y-134815370D01*
X165636670Y-134754648D01*
X165585874Y-134706674D01*
X165569079Y-134638853D01*
X165591617Y-134572718D01*
X165636670Y-134533679D01*
X165703705Y-134499524D01*
X165862946Y-134383828D01*
X166002128Y-134244646D01*
X166117824Y-134085405D01*
X166207184Y-133910025D01*
X166268009Y-133722826D01*
X166298800Y-133528422D01*
X166298800Y-133331577D01*
X166268009Y-133137173D01*
X166207182Y-132949970D01*
X166124494Y-132787686D01*
X166117824Y-132774595D01*
X166002128Y-132615354D01*
X165862946Y-132476172D01*
X165783325Y-132418324D01*
X165703703Y-132360474D01*
X165527087Y-132270485D01*
X165476290Y-132222511D01*
X165459495Y-132154690D01*
X165482032Y-132088555D01*
X165527087Y-132049515D01*
X165703703Y-131959525D01*
X165703702Y-131959525D01*
X165703705Y-131959524D01*
X165862946Y-131843828D01*
X166002128Y-131704646D01*
X166117824Y-131545405D01*
X166207184Y-131370025D01*
X166268009Y-131182826D01*
X166283821Y-131082993D01*
X166298800Y-130988422D01*
X166298800Y-130791577D01*
X166268009Y-130597173D01*
X166207182Y-130409970D01*
X166160043Y-130317455D01*
X166117824Y-130234595D01*
X166002128Y-130075354D01*
X165862946Y-129936172D01*
X165703705Y-129820476D01*
X165636670Y-129786320D01*
X165585874Y-129738345D01*
X165569079Y-129670524D01*
X165591616Y-129604389D01*
X165636670Y-129565350D01*
X165755854Y-129504622D01*
X165810016Y-129465270D01*
X165810017Y-129465270D01*
X165177708Y-128832962D01*
X165241293Y-128815925D01*
X165355307Y-128750099D01*
X165448399Y-128657007D01*
X165514225Y-128542993D01*
X165531262Y-128479408D01*
X166163570Y-129111717D01*
X166163570Y-129111716D01*
X166202922Y-129057554D01*
X166299395Y-128868217D01*
X166365057Y-128666130D01*
X166365057Y-128666127D01*
X166397092Y-128463872D01*
X168777800Y-128463872D01*
X168777800Y-128726127D01*
X168796508Y-128868217D01*
X168812030Y-128986116D01*
X168873704Y-129216288D01*
X168879902Y-129239418D01*
X168879905Y-129239428D01*
X168980253Y-129481690D01*
X168980258Y-129481700D01*
X169111375Y-129708803D01*
X169271018Y-129916851D01*
X169271026Y-129916860D01*
X169456440Y-130102274D01*
X169456448Y-130102281D01*
X169664496Y-130261924D01*
X169891599Y-130393041D01*
X169891609Y-130393046D01*
X170133871Y-130493394D01*
X170133881Y-130493398D01*
X170387184Y-130561270D01*
X170647180Y-130595500D01*
X170647187Y-130595500D01*
X170909413Y-130595500D01*
X170909420Y-130595500D01*
X171169416Y-130561270D01*
X171422719Y-130493398D01*
X171664997Y-130393043D01*
X171892103Y-130261924D01*
X172100151Y-130102282D01*
X172100155Y-130102277D01*
X172100160Y-130102274D01*
X172285574Y-129916860D01*
X172285577Y-129916855D01*
X172285582Y-129916851D01*
X172445224Y-129708803D01*
X172576343Y-129481697D01*
X172585945Y-129458517D01*
X172603414Y-129416340D01*
X172676698Y-129239419D01*
X172744570Y-128986116D01*
X172778800Y-128726120D01*
X172778800Y-128463880D01*
X172778799Y-128463872D01*
X174777800Y-128463872D01*
X174777800Y-128726127D01*
X174796508Y-128868217D01*
X174812030Y-128986116D01*
X174873704Y-129216288D01*
X174879902Y-129239418D01*
X174879905Y-129239428D01*
X174980253Y-129481690D01*
X174980258Y-129481700D01*
X175111375Y-129708803D01*
X175271018Y-129916851D01*
X175271026Y-129916860D01*
X175456440Y-130102274D01*
X175456448Y-130102281D01*
X175664496Y-130261924D01*
X175891599Y-130393041D01*
X175891609Y-130393046D01*
X176133871Y-130493394D01*
X176133881Y-130493398D01*
X176387184Y-130561270D01*
X176647180Y-130595500D01*
X176647187Y-130595500D01*
X176909413Y-130595500D01*
X176909420Y-130595500D01*
X177169416Y-130561270D01*
X177422719Y-130493398D01*
X177664997Y-130393043D01*
X177892103Y-130261924D01*
X178100151Y-130102282D01*
X178100155Y-130102277D01*
X178100160Y-130102274D01*
X178285574Y-129916860D01*
X178285577Y-129916855D01*
X178285582Y-129916851D01*
X178445224Y-129708803D01*
X178576343Y-129481697D01*
X178585945Y-129458517D01*
X178603414Y-129416340D01*
X178676698Y-129239419D01*
X178744570Y-128986116D01*
X178746203Y-128973711D01*
X182427800Y-128973711D01*
X182427800Y-129216288D01*
X182459052Y-129453679D01*
X182459462Y-129456789D01*
X182473421Y-129508884D01*
X182522247Y-129691104D01*
X182561687Y-129786320D01*
X182615076Y-129915212D01*
X182736364Y-130125289D01*
X182736366Y-130125292D01*
X182736367Y-130125293D01*
X182884033Y-130317736D01*
X182884039Y-130317743D01*
X183055556Y-130489260D01*
X183055563Y-130489266D01*
X183143160Y-130556481D01*
X183248011Y-130636936D01*
X183458088Y-130758224D01*
X183682200Y-130851054D01*
X183916511Y-130913838D01*
X184096886Y-130937584D01*
X184157011Y-130945500D01*
X184157012Y-130945500D01*
X184399589Y-130945500D01*
X184447688Y-130939167D01*
X184640089Y-130913838D01*
X184874400Y-130851054D01*
X185098512Y-130758224D01*
X185308589Y-130636936D01*
X185501038Y-130489265D01*
X185672565Y-130317738D01*
X185820236Y-130125289D01*
X185941524Y-129915212D01*
X186034354Y-129691100D01*
X186097138Y-129456789D01*
X186128800Y-129216288D01*
X186128800Y-128973712D01*
X186097138Y-128733211D01*
X186034354Y-128498900D01*
X185941524Y-128274788D01*
X185820236Y-128064711D01*
X185732661Y-127950581D01*
X185672566Y-127872263D01*
X185672560Y-127872256D01*
X185501043Y-127700739D01*
X185501036Y-127700733D01*
X185308593Y-127553067D01*
X185308592Y-127553066D01*
X185308589Y-127553064D01*
X185098512Y-127431776D01*
X185098505Y-127431773D01*
X184874404Y-127338947D01*
X184640085Y-127276161D01*
X184399589Y-127244500D01*
X184399588Y-127244500D01*
X184157012Y-127244500D01*
X184157011Y-127244500D01*
X183916514Y-127276161D01*
X183682195Y-127338947D01*
X183458094Y-127431773D01*
X183458085Y-127431777D01*
X183248006Y-127553067D01*
X183055563Y-127700733D01*
X183055556Y-127700739D01*
X182884039Y-127872256D01*
X182884033Y-127872263D01*
X182736367Y-128064706D01*
X182615077Y-128274785D01*
X182615073Y-128274794D01*
X182522247Y-128498895D01*
X182459461Y-128733214D01*
X182427800Y-128973711D01*
X178746203Y-128973711D01*
X178778800Y-128726120D01*
X178778800Y-128463880D01*
X178744570Y-128203884D01*
X178676698Y-127950581D01*
X178661091Y-127912903D01*
X178576346Y-127708309D01*
X178576341Y-127708299D01*
X178445224Y-127481196D01*
X178285581Y-127273148D01*
X178285574Y-127273140D01*
X178100160Y-127087726D01*
X178100151Y-127087718D01*
X177892103Y-126928075D01*
X177665000Y-126796958D01*
X177664990Y-126796953D01*
X177422728Y-126696605D01*
X177422721Y-126696603D01*
X177422719Y-126696602D01*
X177169416Y-126628730D01*
X177111639Y-126621123D01*
X176909427Y-126594500D01*
X176909420Y-126594500D01*
X176647180Y-126594500D01*
X176647172Y-126594500D01*
X176418204Y-126624646D01*
X176387184Y-126628730D01*
X176133881Y-126696602D01*
X176133871Y-126696605D01*
X175891609Y-126796953D01*
X175891599Y-126796958D01*
X175664496Y-126928075D01*
X175456448Y-127087718D01*
X175271018Y-127273148D01*
X175111375Y-127481196D01*
X174980258Y-127708299D01*
X174980253Y-127708309D01*
X174879905Y-127950571D01*
X174879902Y-127950581D01*
X174849323Y-128064706D01*
X174812030Y-128203885D01*
X174777800Y-128463872D01*
X172778799Y-128463872D01*
X172744570Y-128203884D01*
X172676698Y-127950581D01*
X172661091Y-127912903D01*
X172576346Y-127708309D01*
X172576341Y-127708299D01*
X172445224Y-127481196D01*
X172285581Y-127273148D01*
X172285574Y-127273140D01*
X172100160Y-127087726D01*
X172100151Y-127087718D01*
X171892103Y-126928075D01*
X171665000Y-126796958D01*
X171664990Y-126796953D01*
X171422728Y-126696605D01*
X171422721Y-126696603D01*
X171422719Y-126696602D01*
X171169416Y-126628730D01*
X171111639Y-126621123D01*
X170909427Y-126594500D01*
X170909420Y-126594500D01*
X170647180Y-126594500D01*
X170647172Y-126594500D01*
X170418204Y-126624646D01*
X170387184Y-126628730D01*
X170133881Y-126696602D01*
X170133871Y-126696605D01*
X169891609Y-126796953D01*
X169891599Y-126796958D01*
X169664496Y-126928075D01*
X169456448Y-127087718D01*
X169271018Y-127273148D01*
X169111375Y-127481196D01*
X168980258Y-127708299D01*
X168980253Y-127708309D01*
X168879905Y-127950571D01*
X168879902Y-127950581D01*
X168849323Y-128064706D01*
X168812030Y-128203885D01*
X168777800Y-128463872D01*
X166397092Y-128463872D01*
X166398300Y-128456246D01*
X166398300Y-128243753D01*
X166365057Y-128033872D01*
X166365057Y-128033869D01*
X166299395Y-127831782D01*
X166202924Y-127642449D01*
X166163570Y-127588282D01*
X166163569Y-127588282D01*
X165531262Y-128220590D01*
X165514225Y-128157007D01*
X165448399Y-128042993D01*
X165355307Y-127949901D01*
X165241293Y-127884075D01*
X165177709Y-127867037D01*
X165810016Y-127234728D01*
X165755847Y-127195373D01*
X165755842Y-127195370D01*
X165636670Y-127134648D01*
X165585874Y-127086674D01*
X165569079Y-127018853D01*
X165591617Y-126952718D01*
X165636670Y-126913679D01*
X165703705Y-126879524D01*
X165862946Y-126763828D01*
X166002128Y-126624646D01*
X166117824Y-126465405D01*
X166207184Y-126290025D01*
X166268009Y-126102826D01*
X166295147Y-125931483D01*
X166298800Y-125908422D01*
X166298800Y-125711577D01*
X166268009Y-125517173D01*
X166207182Y-125329970D01*
X166117823Y-125154594D01*
X166002128Y-124995354D01*
X165862946Y-124856172D01*
X165783325Y-124798324D01*
X165703703Y-124740474D01*
X165527087Y-124650485D01*
X165476290Y-124602511D01*
X165459495Y-124534690D01*
X165482032Y-124468555D01*
X165527087Y-124429515D01*
X165703703Y-124339525D01*
X165703702Y-124339525D01*
X165703705Y-124339524D01*
X165862946Y-124223828D01*
X166002128Y-124084646D01*
X166117824Y-123925405D01*
X166207184Y-123750025D01*
X166268009Y-123562826D01*
X166282682Y-123470183D01*
X166298800Y-123368422D01*
X166298800Y-123171577D01*
X166268009Y-122977173D01*
X166240768Y-122893336D01*
X166207184Y-122789975D01*
X166207182Y-122789972D01*
X166207181Y-122789967D01*
X166177031Y-122730794D01*
X166164135Y-122662125D01*
X166190412Y-122597385D01*
X166247519Y-122557128D01*
X166287516Y-122550500D01*
X170512813Y-122550500D01*
X170579852Y-122570185D01*
X170600494Y-122586819D01*
X171411385Y-123397710D01*
X171536915Y-123470184D01*
X171676925Y-123507700D01*
X171676928Y-123507700D01*
X174028572Y-123507700D01*
X174028574Y-123507700D01*
X174028575Y-123507700D01*
X174168585Y-123470184D01*
X174294115Y-123397710D01*
X174859769Y-122832054D01*
X174921090Y-122798571D01*
X174985766Y-122801806D01*
X175025474Y-122814709D01*
X175098377Y-122826255D01*
X175219878Y-122845500D01*
X175219883Y-122845500D01*
X175416722Y-122845500D01*
X175611126Y-122814709D01*
X175660793Y-122798571D01*
X175798325Y-122753884D01*
X175973705Y-122664524D01*
X176132946Y-122548828D01*
X176272128Y-122409646D01*
X176387824Y-122250405D01*
X176421979Y-122183370D01*
X176469952Y-122132575D01*
X176537773Y-122115779D01*
X176603908Y-122138316D01*
X176642948Y-122183370D01*
X176703670Y-122302542D01*
X176703673Y-122302547D01*
X176743028Y-122356716D01*
X177375336Y-121724407D01*
X177392375Y-121787993D01*
X177458201Y-121902007D01*
X177551293Y-121995099D01*
X177665307Y-122060925D01*
X177728890Y-122077962D01*
X177096582Y-122710269D01*
X177096582Y-122710270D01*
X177150749Y-122749624D01*
X177340082Y-122846095D01*
X177542170Y-122911757D01*
X177752054Y-122945000D01*
X177964546Y-122945000D01*
X178174427Y-122911757D01*
X178174430Y-122911757D01*
X178376517Y-122846095D01*
X178565854Y-122749622D01*
X178620016Y-122710270D01*
X178620017Y-122710270D01*
X177987708Y-122077962D01*
X178051293Y-122060925D01*
X178165307Y-121995099D01*
X178258399Y-121902007D01*
X178324225Y-121787993D01*
X178341262Y-121724408D01*
X178973570Y-122356717D01*
X178973570Y-122356716D01*
X179012922Y-122302554D01*
X179109395Y-122113217D01*
X179175057Y-121911130D01*
X179175057Y-121911127D01*
X179208300Y-121701246D01*
X179208300Y-121488753D01*
X179175057Y-121278872D01*
X179175057Y-121278869D01*
X179109395Y-121076782D01*
X179012924Y-120887449D01*
X178973570Y-120833282D01*
X178973569Y-120833282D01*
X178341262Y-121465590D01*
X178324225Y-121402007D01*
X178258399Y-121287993D01*
X178165307Y-121194901D01*
X178051293Y-121129075D01*
X177987709Y-121112037D01*
X178620016Y-120479728D01*
X178565847Y-120440373D01*
X178565842Y-120440370D01*
X178446670Y-120379648D01*
X178395874Y-120331674D01*
X178379079Y-120263853D01*
X178401617Y-120197718D01*
X178446670Y-120158679D01*
X178513705Y-120124524D01*
X178672946Y-120008828D01*
X178812128Y-119869646D01*
X178927824Y-119710405D01*
X179017184Y-119535025D01*
X179078009Y-119347826D01*
X179108800Y-119153422D01*
X179108800Y-118956577D01*
X179078009Y-118762173D01*
X179017182Y-118574970D01*
X178927825Y-118399597D01*
X178927824Y-118399595D01*
X178812128Y-118240354D01*
X178672946Y-118101172D01*
X178513705Y-117985476D01*
X178471332Y-117963886D01*
X178338329Y-117896117D01*
X178151126Y-117835290D01*
X177956722Y-117804500D01*
X177956717Y-117804500D01*
X177759883Y-117804500D01*
X177759878Y-117804500D01*
X177565473Y-117835290D01*
X177378270Y-117896117D01*
X177202894Y-117985476D01*
X177112041Y-118051485D01*
X177043654Y-118101172D01*
X177043652Y-118101174D01*
X177043651Y-118101174D01*
X176904474Y-118240351D01*
X176904474Y-118240352D01*
X176904472Y-118240354D01*
X176846624Y-118319974D01*
X176788774Y-118399597D01*
X176754619Y-118466630D01*
X176706645Y-118517425D01*
X176638824Y-118534220D01*
X176572689Y-118511682D01*
X176533650Y-118466629D01*
X176472924Y-118347449D01*
X176433570Y-118293282D01*
X176433569Y-118293282D01*
X175801262Y-118925590D01*
X175784225Y-118862007D01*
X175718399Y-118747993D01*
X175625307Y-118654901D01*
X175511293Y-118589075D01*
X175447709Y-118572037D01*
X176080016Y-117939728D01*
X176025850Y-117900375D01*
X175836517Y-117803904D01*
X175634429Y-117738242D01*
X175424546Y-117705000D01*
X175212054Y-117705000D01*
X175002172Y-117738242D01*
X175002169Y-117738242D01*
X174800082Y-117803904D01*
X174610739Y-117900380D01*
X174556582Y-117939727D01*
X174556582Y-117939728D01*
X175188891Y-118572037D01*
X175125307Y-118589075D01*
X175011293Y-118654901D01*
X174918201Y-118747993D01*
X174852375Y-118862007D01*
X174835337Y-118925591D01*
X174203028Y-118293282D01*
X174203027Y-118293282D01*
X174163680Y-118347440D01*
X174163678Y-118347443D01*
X174102948Y-118466630D01*
X174054973Y-118517426D01*
X173987152Y-118534220D01*
X173921017Y-118511682D01*
X173881979Y-118466628D01*
X173847825Y-118399596D01*
X173830444Y-118375674D01*
X173732128Y-118240354D01*
X173592946Y-118101172D01*
X173433705Y-117985476D01*
X173391332Y-117963886D01*
X173258329Y-117896117D01*
X173071126Y-117835290D01*
X172876722Y-117804500D01*
X172876717Y-117804500D01*
X172679883Y-117804500D01*
X172679878Y-117804500D01*
X172485472Y-117835291D01*
X172485465Y-117835292D01*
X172445765Y-117848192D01*
X172375924Y-117850187D01*
X172319767Y-117817942D01*
X170981316Y-116479491D01*
X170981315Y-116479490D01*
X170855785Y-116407016D01*
X170855786Y-116407016D01*
X170820782Y-116397637D01*
X170715775Y-116369500D01*
X170715772Y-116369500D01*
X166287516Y-116369500D01*
X166220477Y-116349815D01*
X166174722Y-116297011D01*
X166164778Y-116227853D01*
X166177031Y-116189206D01*
X166207181Y-116130032D01*
X166207181Y-116130028D01*
X166207184Y-116130025D01*
X166268009Y-115942826D01*
X166298800Y-115748422D01*
X166298800Y-115551577D01*
X166268009Y-115357177D01*
X166268009Y-115357174D01*
X166255106Y-115317466D01*
X166253110Y-115247627D01*
X166285354Y-115191469D01*
X167397910Y-114078915D01*
X167470384Y-113953385D01*
X167478085Y-113924646D01*
X167507900Y-113813375D01*
X167507900Y-111752164D01*
X167527585Y-111685125D01*
X167580389Y-111639370D01*
X167649547Y-111629426D01*
X167688193Y-111641678D01*
X167736331Y-111666206D01*
X167817463Y-111707545D01*
X167817465Y-111707545D01*
X167817468Y-111707547D01*
X167883136Y-111728884D01*
X167997181Y-111765940D01*
X168183814Y-111795500D01*
X168183819Y-111795500D01*
X168372786Y-111795500D01*
X168559418Y-111765940D01*
X168739132Y-111707547D01*
X168907499Y-111621760D01*
X169060373Y-111510690D01*
X169193990Y-111377073D01*
X169305060Y-111224199D01*
X169390847Y-111055832D01*
X169449240Y-110876118D01*
X169453473Y-110849394D01*
X169478800Y-110689486D01*
X169478800Y-110500513D01*
X169453574Y-110341246D01*
X169462528Y-110271953D01*
X169488363Y-110234170D01*
X169840616Y-109881919D01*
X169901939Y-109848434D01*
X169928297Y-109845600D01*
X171998764Y-109845600D01*
X172065803Y-109865285D01*
X172111558Y-109918089D01*
X172121502Y-109987247D01*
X172109249Y-110025894D01*
X172073545Y-110095965D01*
X172010309Y-110290582D01*
X171978300Y-110492682D01*
X171978300Y-110697317D01*
X172010309Y-110899417D01*
X172073544Y-111094031D01*
X172166441Y-111276350D01*
X172166447Y-111276359D01*
X172198823Y-111320921D01*
X172198824Y-111320922D01*
X172878300Y-110641446D01*
X172878300Y-110647661D01*
X172905559Y-110749394D01*
X172958220Y-110840606D01*
X173032694Y-110915080D01*
X173123906Y-110967741D01*
X173225639Y-110995000D01*
X173231853Y-110995000D01*
X172552376Y-111674474D01*
X172596950Y-111706859D01*
X172779268Y-111799755D01*
X172973882Y-111862990D01*
X173175983Y-111895000D01*
X173380617Y-111895000D01*
X173582717Y-111862990D01*
X173777331Y-111799755D01*
X173959649Y-111706859D01*
X174004221Y-111674474D01*
X173324747Y-110995000D01*
X173330961Y-110995000D01*
X173432694Y-110967741D01*
X173523906Y-110915080D01*
X173598380Y-110840606D01*
X173651041Y-110749394D01*
X173678300Y-110647661D01*
X173678300Y-110641447D01*
X174357774Y-111320921D01*
X174390159Y-111276349D01*
X174483055Y-111094031D01*
X174546290Y-110899417D01*
X174578300Y-110697317D01*
X174578300Y-110492682D01*
X174546290Y-110290582D01*
X174483054Y-110095965D01*
X174447351Y-110025894D01*
X174434455Y-109957225D01*
X174460732Y-109892485D01*
X174517838Y-109852228D01*
X174557836Y-109845600D01*
X177628303Y-109845600D01*
X177695342Y-109865285D01*
X177715984Y-109881919D01*
X178541481Y-110707416D01*
X178574966Y-110768739D01*
X178577800Y-110795097D01*
X178577800Y-111710701D01*
X178580701Y-111747567D01*
X178580702Y-111747573D01*
X178626554Y-111905393D01*
X178626555Y-111905396D01*
X178710217Y-112046862D01*
X178710223Y-112046870D01*
X178826429Y-112163076D01*
X178826433Y-112163079D01*
X178826435Y-112163081D01*
X178967902Y-112246744D01*
X179009524Y-112258836D01*
X179125726Y-112292597D01*
X179125729Y-112292597D01*
X179125731Y-112292598D01*
X179162606Y-112295500D01*
X179162614Y-112295500D01*
X180393986Y-112295500D01*
X180393994Y-112295500D01*
X180430869Y-112292598D01*
X180430871Y-112292597D01*
X180430873Y-112292597D01*
X180472491Y-112280505D01*
X180588698Y-112246744D01*
X180730165Y-112163081D01*
X180784270Y-112108975D01*
X180845589Y-112075492D01*
X180915281Y-112080476D01*
X180944835Y-112096340D01*
X181096950Y-112206859D01*
X181279268Y-112299755D01*
X181473882Y-112362990D01*
X181675983Y-112395000D01*
X181880617Y-112395000D01*
X182082717Y-112362990D01*
X182277331Y-112299755D01*
X182459649Y-112206859D01*
X182504221Y-112174474D01*
X181824747Y-111495000D01*
X181830961Y-111495000D01*
X181932694Y-111467741D01*
X182023906Y-111415080D01*
X182098380Y-111340606D01*
X182151041Y-111249394D01*
X182178300Y-111147661D01*
X182178300Y-111141447D01*
X182857774Y-111820921D01*
X182890159Y-111776349D01*
X182983055Y-111594031D01*
X183046290Y-111399417D01*
X183078300Y-111197317D01*
X183078300Y-110992682D01*
X183046290Y-110790582D01*
X182983055Y-110595968D01*
X182890159Y-110413650D01*
X182857774Y-110369077D01*
X182857774Y-110369076D01*
X182178300Y-111048551D01*
X182178300Y-111042339D01*
X182151041Y-110940606D01*
X182098380Y-110849394D01*
X182023906Y-110774920D01*
X181932694Y-110722259D01*
X181830961Y-110695000D01*
X181824746Y-110695000D01*
X182504222Y-110015524D01*
X182504221Y-110015523D01*
X182459659Y-109983147D01*
X182459650Y-109983141D01*
X182277331Y-109890244D01*
X182082717Y-109827009D01*
X181880617Y-109795000D01*
X181675983Y-109795000D01*
X181473882Y-109827009D01*
X181279268Y-109890244D01*
X181096946Y-109983142D01*
X180944834Y-110093658D01*
X180879028Y-110117138D01*
X180810974Y-110101312D01*
X180784268Y-110081021D01*
X180730170Y-110026923D01*
X180730162Y-110026917D01*
X180588696Y-109943255D01*
X180588693Y-109943254D01*
X180430873Y-109897402D01*
X180430867Y-109897401D01*
X180394001Y-109894500D01*
X180393994Y-109894500D01*
X179478398Y-109894500D01*
X179411359Y-109874815D01*
X179390717Y-109858181D01*
X178415990Y-108883455D01*
X178415988Y-108883452D01*
X178297117Y-108764581D01*
X178297116Y-108764580D01*
X178210304Y-108714460D01*
X178210304Y-108714459D01*
X178210300Y-108714458D01*
X178160185Y-108685523D01*
X178007457Y-108644599D01*
X177849343Y-108644599D01*
X177841747Y-108644599D01*
X177841731Y-108644600D01*
X169714869Y-108644600D01*
X169714853Y-108644599D01*
X169707257Y-108644599D01*
X169549143Y-108644599D01*
X169441787Y-108673365D01*
X169396410Y-108685524D01*
X169396409Y-108685525D01*
X169346296Y-108714459D01*
X169346295Y-108714460D01*
X169332787Y-108722259D01*
X169259485Y-108764579D01*
X169259482Y-108764581D01*
X169147678Y-108876386D01*
X168639130Y-109384933D01*
X168577807Y-109418418D01*
X168532051Y-109419725D01*
X168372786Y-109394500D01*
X168372781Y-109394500D01*
X168308886Y-109394500D01*
X168241847Y-109374815D01*
X168196092Y-109322011D01*
X168186148Y-109252853D01*
X168215173Y-109189297D01*
X168221205Y-109182819D01*
X170903512Y-106500513D01*
X177237800Y-106500513D01*
X177237800Y-106689486D01*
X177267359Y-106876118D01*
X177325754Y-107055836D01*
X177372542Y-107147661D01*
X177411540Y-107224199D01*
X177522610Y-107377073D01*
X177656227Y-107510690D01*
X177809101Y-107621760D01*
X177888647Y-107662290D01*
X177977463Y-107707545D01*
X177977465Y-107707545D01*
X177977468Y-107707547D01*
X178068647Y-107737173D01*
X178157181Y-107765940D01*
X178343814Y-107795500D01*
X178343819Y-107795500D01*
X178532786Y-107795500D01*
X178719418Y-107765940D01*
X178762822Y-107751837D01*
X178899132Y-107707547D01*
X179067499Y-107621760D01*
X179220373Y-107510690D01*
X179353990Y-107377073D01*
X179465060Y-107224199D01*
X179470663Y-107213203D01*
X179518639Y-107162408D01*
X179581147Y-107145500D01*
X179835453Y-107145500D01*
X179902492Y-107165185D01*
X179945937Y-107213203D01*
X179951540Y-107224199D01*
X180062610Y-107377073D01*
X180196227Y-107510690D01*
X180349101Y-107621760D01*
X180428647Y-107662290D01*
X180517463Y-107707545D01*
X180517465Y-107707545D01*
X180517468Y-107707547D01*
X180608647Y-107737173D01*
X180697181Y-107765940D01*
X180883814Y-107795500D01*
X180883819Y-107795500D01*
X181072786Y-107795500D01*
X181259418Y-107765940D01*
X181302822Y-107751837D01*
X181439132Y-107707547D01*
X181607499Y-107621760D01*
X181760373Y-107510690D01*
X181893990Y-107377073D01*
X182005060Y-107224199D01*
X182090847Y-107055832D01*
X182149240Y-106876118D01*
X182153473Y-106849394D01*
X182178800Y-106689486D01*
X182178800Y-106500514D01*
X182178799Y-106500512D01*
X182177559Y-106492682D01*
X184678300Y-106492682D01*
X184678300Y-106697317D01*
X184710309Y-106899417D01*
X184773544Y-107094031D01*
X184866441Y-107276350D01*
X184866447Y-107276359D01*
X184898823Y-107320921D01*
X184898824Y-107320922D01*
X185578300Y-106641446D01*
X185578300Y-106647661D01*
X185605559Y-106749394D01*
X185658220Y-106840606D01*
X185732694Y-106915080D01*
X185823906Y-106967741D01*
X185925639Y-106995000D01*
X185931853Y-106995000D01*
X185252376Y-107674474D01*
X185296950Y-107706859D01*
X185479268Y-107799755D01*
X185673882Y-107862990D01*
X185875983Y-107895000D01*
X186080617Y-107895000D01*
X186282717Y-107862990D01*
X186477331Y-107799755D01*
X186659649Y-107706859D01*
X186704221Y-107674474D01*
X186024747Y-106995000D01*
X186030961Y-106995000D01*
X186132694Y-106967741D01*
X186223906Y-106915080D01*
X186298380Y-106840606D01*
X186351041Y-106749394D01*
X186378300Y-106647661D01*
X186378300Y-106641447D01*
X187057774Y-107320921D01*
X187090159Y-107276349D01*
X187183055Y-107094031D01*
X187246290Y-106899417D01*
X187278300Y-106697317D01*
X187278300Y-106492682D01*
X187246290Y-106290582D01*
X187183055Y-106095968D01*
X187090159Y-105913650D01*
X187057774Y-105869077D01*
X187057774Y-105869076D01*
X186378300Y-106548551D01*
X186378300Y-106542339D01*
X186351041Y-106440606D01*
X186298380Y-106349394D01*
X186223906Y-106274920D01*
X186132694Y-106222259D01*
X186030961Y-106195000D01*
X186024746Y-106195000D01*
X186704222Y-105515524D01*
X186704221Y-105515523D01*
X186659659Y-105483147D01*
X186659650Y-105483141D01*
X186477331Y-105390244D01*
X186282717Y-105327009D01*
X186080617Y-105295000D01*
X185875983Y-105295000D01*
X185673882Y-105327009D01*
X185479268Y-105390244D01*
X185296944Y-105483143D01*
X185252377Y-105515523D01*
X185252377Y-105515524D01*
X185931854Y-106195000D01*
X185925639Y-106195000D01*
X185823906Y-106222259D01*
X185732694Y-106274920D01*
X185658220Y-106349394D01*
X185605559Y-106440606D01*
X185578300Y-106542339D01*
X185578300Y-106548553D01*
X184898824Y-105869077D01*
X184898823Y-105869077D01*
X184866443Y-105913644D01*
X184773544Y-106095968D01*
X184710309Y-106290582D01*
X184678300Y-106492682D01*
X182177559Y-106492682D01*
X182149240Y-106313881D01*
X182094498Y-106145405D01*
X182090847Y-106134168D01*
X182090845Y-106134165D01*
X182090845Y-106134163D01*
X182030395Y-106015524D01*
X182005060Y-105965801D01*
X181893990Y-105812927D01*
X181760373Y-105679310D01*
X181607499Y-105568240D01*
X181439136Y-105482454D01*
X181259418Y-105424059D01*
X181072786Y-105394500D01*
X181072781Y-105394500D01*
X180883819Y-105394500D01*
X180883814Y-105394500D01*
X180697181Y-105424059D01*
X180517463Y-105482454D01*
X180349100Y-105568240D01*
X180261879Y-105631610D01*
X180196227Y-105679310D01*
X180196225Y-105679312D01*
X180196224Y-105679312D01*
X180062612Y-105812924D01*
X180062612Y-105812925D01*
X180062610Y-105812927D01*
X179967921Y-105943255D01*
X179951540Y-105965801D01*
X179945937Y-105976797D01*
X179897961Y-106027592D01*
X179835453Y-106044500D01*
X179581147Y-106044500D01*
X179514108Y-106024815D01*
X179470663Y-105976797D01*
X179467212Y-105970025D01*
X179465060Y-105965801D01*
X179353990Y-105812927D01*
X179220373Y-105679310D01*
X179067499Y-105568240D01*
X178899136Y-105482454D01*
X178719418Y-105424059D01*
X178532786Y-105394500D01*
X178532781Y-105394500D01*
X178343819Y-105394500D01*
X178343814Y-105394500D01*
X178157181Y-105424059D01*
X177977463Y-105482454D01*
X177809100Y-105568240D01*
X177721879Y-105631610D01*
X177656227Y-105679310D01*
X177656225Y-105679312D01*
X177656224Y-105679312D01*
X177522612Y-105812924D01*
X177522612Y-105812925D01*
X177522610Y-105812927D01*
X177474910Y-105878579D01*
X177411540Y-105965800D01*
X177325754Y-106134163D01*
X177267359Y-106313881D01*
X177237800Y-106500513D01*
X170903512Y-106500513D01*
X170996059Y-106407966D01*
X171438225Y-105965800D01*
X171884410Y-105519615D01*
X171956884Y-105394085D01*
X171978313Y-105314110D01*
X171994400Y-105254075D01*
X171994400Y-105152986D01*
X172014085Y-105085947D01*
X172030714Y-105065310D01*
X174095511Y-103000513D01*
X177237800Y-103000513D01*
X177237800Y-103189486D01*
X177267359Y-103376118D01*
X177325754Y-103555836D01*
X177402734Y-103706916D01*
X177411540Y-103724199D01*
X177522610Y-103877073D01*
X177656227Y-104010690D01*
X177809101Y-104121760D01*
X177879223Y-104157489D01*
X177977463Y-104207545D01*
X177977465Y-104207545D01*
X177977468Y-104207547D01*
X178073797Y-104238846D01*
X178157181Y-104265940D01*
X178343814Y-104295500D01*
X178343819Y-104295500D01*
X178532786Y-104295500D01*
X178719418Y-104265940D01*
X178899132Y-104207547D01*
X179067499Y-104121760D01*
X179220373Y-104010690D01*
X179353990Y-103877073D01*
X179465060Y-103724199D01*
X179470663Y-103713203D01*
X179518639Y-103662408D01*
X179581147Y-103645500D01*
X179835453Y-103645500D01*
X179902492Y-103665185D01*
X179945937Y-103713203D01*
X179951540Y-103724199D01*
X180062610Y-103877073D01*
X180196227Y-104010690D01*
X180349101Y-104121760D01*
X180419223Y-104157489D01*
X180517463Y-104207545D01*
X180517465Y-104207545D01*
X180517468Y-104207547D01*
X180613797Y-104238846D01*
X180697181Y-104265940D01*
X180883814Y-104295500D01*
X180883819Y-104295500D01*
X181072786Y-104295500D01*
X181259418Y-104265940D01*
X181439132Y-104207547D01*
X181607499Y-104121760D01*
X181760373Y-104010690D01*
X181893990Y-103877073D01*
X182005060Y-103724199D01*
X182090847Y-103555832D01*
X182149240Y-103376118D01*
X182178800Y-103189486D01*
X182178800Y-103000514D01*
X182178799Y-103000512D01*
X182177559Y-102992682D01*
X184678300Y-102992682D01*
X184678300Y-103197317D01*
X184710309Y-103399417D01*
X184773544Y-103594031D01*
X184866441Y-103776350D01*
X184866447Y-103776359D01*
X184898823Y-103820921D01*
X184898824Y-103820922D01*
X185578300Y-103141446D01*
X185578300Y-103147661D01*
X185605559Y-103249394D01*
X185658220Y-103340606D01*
X185732694Y-103415080D01*
X185823906Y-103467741D01*
X185925639Y-103495000D01*
X185931853Y-103495000D01*
X185252376Y-104174474D01*
X185296950Y-104206859D01*
X185479268Y-104299755D01*
X185673882Y-104362990D01*
X185875983Y-104395000D01*
X186080617Y-104395000D01*
X186282717Y-104362990D01*
X186477331Y-104299755D01*
X186659649Y-104206859D01*
X186704221Y-104174474D01*
X186024747Y-103495000D01*
X186030961Y-103495000D01*
X186132694Y-103467741D01*
X186223906Y-103415080D01*
X186298380Y-103340606D01*
X186351041Y-103249394D01*
X186378300Y-103147661D01*
X186378300Y-103141447D01*
X187057774Y-103820921D01*
X187090159Y-103776349D01*
X187183055Y-103594031D01*
X187246290Y-103399417D01*
X187278300Y-103197317D01*
X187278300Y-102992682D01*
X187246290Y-102790582D01*
X187183055Y-102595968D01*
X187090159Y-102413650D01*
X187057774Y-102369077D01*
X187057774Y-102369076D01*
X186378300Y-103048551D01*
X186378300Y-103042339D01*
X186351041Y-102940606D01*
X186298380Y-102849394D01*
X186223906Y-102774920D01*
X186132694Y-102722259D01*
X186030961Y-102695000D01*
X186024746Y-102695000D01*
X186704222Y-102015524D01*
X186704221Y-102015523D01*
X186659659Y-101983147D01*
X186659650Y-101983141D01*
X186477331Y-101890244D01*
X186282717Y-101827009D01*
X186080617Y-101795000D01*
X185875983Y-101795000D01*
X185673882Y-101827009D01*
X185479268Y-101890244D01*
X185296944Y-101983143D01*
X185252377Y-102015523D01*
X185252377Y-102015524D01*
X185931854Y-102695000D01*
X185925639Y-102695000D01*
X185823906Y-102722259D01*
X185732694Y-102774920D01*
X185658220Y-102849394D01*
X185605559Y-102940606D01*
X185578300Y-103042339D01*
X185578300Y-103048553D01*
X184898824Y-102369077D01*
X184898823Y-102369077D01*
X184866443Y-102413644D01*
X184773544Y-102595968D01*
X184710309Y-102790582D01*
X184678300Y-102992682D01*
X182177559Y-102992682D01*
X182149240Y-102813881D01*
X182090845Y-102634163D01*
X182035129Y-102524815D01*
X182005060Y-102465801D01*
X181893990Y-102312927D01*
X181760373Y-102179310D01*
X181607499Y-102068240D01*
X181439136Y-101982454D01*
X181259418Y-101924059D01*
X181072786Y-101894500D01*
X181072781Y-101894500D01*
X180883819Y-101894500D01*
X180883814Y-101894500D01*
X180697181Y-101924059D01*
X180517463Y-101982454D01*
X180349100Y-102068240D01*
X180261879Y-102131610D01*
X180196227Y-102179310D01*
X180196225Y-102179312D01*
X180196224Y-102179312D01*
X180062612Y-102312924D01*
X180062612Y-102312925D01*
X180062610Y-102312927D01*
X179989430Y-102413650D01*
X179951540Y-102465801D01*
X179945937Y-102476797D01*
X179897961Y-102527592D01*
X179835453Y-102544500D01*
X179581147Y-102544500D01*
X179514108Y-102524815D01*
X179470663Y-102476797D01*
X179469443Y-102474403D01*
X179465060Y-102465801D01*
X179353990Y-102312927D01*
X179220373Y-102179310D01*
X179067499Y-102068240D01*
X178899136Y-101982454D01*
X178719418Y-101924059D01*
X178532786Y-101894500D01*
X178532781Y-101894500D01*
X178343819Y-101894500D01*
X178343814Y-101894500D01*
X178157181Y-101924059D01*
X177977463Y-101982454D01*
X177809100Y-102068240D01*
X177721879Y-102131610D01*
X177656227Y-102179310D01*
X177656225Y-102179312D01*
X177656224Y-102179312D01*
X177522612Y-102312924D01*
X177522612Y-102312925D01*
X177522610Y-102312927D01*
X177474910Y-102378579D01*
X177411540Y-102465800D01*
X177325754Y-102634163D01*
X177267359Y-102813881D01*
X177237800Y-103000513D01*
X174095511Y-103000513D01*
X177112642Y-99983381D01*
X177173963Y-99949898D01*
X177243655Y-99954882D01*
X177299588Y-99996754D01*
X177318252Y-100032745D01*
X177325754Y-100055836D01*
X177411538Y-100224195D01*
X177411540Y-100224199D01*
X177522610Y-100377073D01*
X177656227Y-100510690D01*
X177809101Y-100621760D01*
X177858135Y-100646744D01*
X177977463Y-100707545D01*
X177977465Y-100707545D01*
X177977468Y-100707547D01*
X178052169Y-100731819D01*
X178157181Y-100765940D01*
X178343814Y-100795500D01*
X178343819Y-100795500D01*
X178532786Y-100795500D01*
X178719418Y-100765940D01*
X178726761Y-100763554D01*
X178899132Y-100707547D01*
X179067499Y-100621760D01*
X179220373Y-100510690D01*
X179353990Y-100377073D01*
X179465060Y-100224199D01*
X179470663Y-100213203D01*
X179518639Y-100162408D01*
X179581147Y-100145500D01*
X179835453Y-100145500D01*
X179902492Y-100165185D01*
X179945937Y-100213203D01*
X179951540Y-100224199D01*
X180062610Y-100377073D01*
X180196227Y-100510690D01*
X180349101Y-100621760D01*
X180398135Y-100646744D01*
X180517463Y-100707545D01*
X180517465Y-100707545D01*
X180517468Y-100707547D01*
X180592169Y-100731819D01*
X180697181Y-100765940D01*
X180883814Y-100795500D01*
X180883819Y-100795500D01*
X181072786Y-100795500D01*
X181259418Y-100765940D01*
X181266761Y-100763554D01*
X181439132Y-100707547D01*
X181607499Y-100621760D01*
X181760373Y-100510690D01*
X181893990Y-100377073D01*
X182005060Y-100224199D01*
X182090847Y-100055832D01*
X182149240Y-99876118D01*
X182153614Y-99848502D01*
X182178800Y-99689486D01*
X182178800Y-99500514D01*
X182178799Y-99500512D01*
X182177559Y-99492682D01*
X184678300Y-99492682D01*
X184678300Y-99697317D01*
X184710309Y-99899417D01*
X184773544Y-100094031D01*
X184866441Y-100276350D01*
X184866447Y-100276359D01*
X184898823Y-100320921D01*
X184898824Y-100320922D01*
X185578300Y-99641446D01*
X185578300Y-99647661D01*
X185605559Y-99749394D01*
X185658220Y-99840606D01*
X185732694Y-99915080D01*
X185823906Y-99967741D01*
X185925639Y-99995000D01*
X185931853Y-99995000D01*
X185252376Y-100674474D01*
X185296950Y-100706859D01*
X185479268Y-100799755D01*
X185673882Y-100862990D01*
X185875983Y-100895000D01*
X186080617Y-100895000D01*
X186282717Y-100862990D01*
X186477331Y-100799755D01*
X186659649Y-100706859D01*
X186704221Y-100674474D01*
X186024747Y-99995000D01*
X186030961Y-99995000D01*
X186132694Y-99967741D01*
X186223906Y-99915080D01*
X186298380Y-99840606D01*
X186351041Y-99749394D01*
X186378300Y-99647661D01*
X186378300Y-99641447D01*
X187057774Y-100320921D01*
X187090159Y-100276349D01*
X187183055Y-100094031D01*
X187246290Y-99899417D01*
X187278300Y-99697317D01*
X187278300Y-99492682D01*
X187246290Y-99290582D01*
X187183055Y-99095968D01*
X187090159Y-98913650D01*
X187057774Y-98869077D01*
X187057774Y-98869076D01*
X186378300Y-99548551D01*
X186378300Y-99542339D01*
X186351041Y-99440606D01*
X186298380Y-99349394D01*
X186223906Y-99274920D01*
X186132694Y-99222259D01*
X186030961Y-99195000D01*
X186024746Y-99195000D01*
X186704222Y-98515524D01*
X186704221Y-98515523D01*
X186659659Y-98483147D01*
X186659650Y-98483141D01*
X186477331Y-98390244D01*
X186282717Y-98327009D01*
X186080617Y-98295000D01*
X185875983Y-98295000D01*
X185673882Y-98327009D01*
X185479268Y-98390244D01*
X185296944Y-98483143D01*
X185252377Y-98515523D01*
X185252377Y-98515524D01*
X185931854Y-99195000D01*
X185925639Y-99195000D01*
X185823906Y-99222259D01*
X185732694Y-99274920D01*
X185658220Y-99349394D01*
X185605559Y-99440606D01*
X185578300Y-99542339D01*
X185578300Y-99548553D01*
X184898824Y-98869077D01*
X184898823Y-98869077D01*
X184866443Y-98913644D01*
X184773544Y-99095968D01*
X184710309Y-99290582D01*
X184678300Y-99492682D01*
X182177559Y-99492682D01*
X182149240Y-99313881D01*
X182114568Y-99207173D01*
X182090847Y-99134168D01*
X182090845Y-99134165D01*
X182090845Y-99134163D01*
X182014116Y-98983575D01*
X182005060Y-98965801D01*
X181893990Y-98812927D01*
X181760373Y-98679310D01*
X181607499Y-98568240D01*
X181566561Y-98547381D01*
X181439136Y-98482454D01*
X181259418Y-98424059D01*
X181072786Y-98394500D01*
X181072781Y-98394500D01*
X180883819Y-98394500D01*
X180883814Y-98394500D01*
X180697181Y-98424059D01*
X180517463Y-98482454D01*
X180349100Y-98568240D01*
X180284905Y-98614881D01*
X180196227Y-98679310D01*
X180196225Y-98679312D01*
X180196224Y-98679312D01*
X180062612Y-98812924D01*
X180062612Y-98812925D01*
X180062610Y-98812927D01*
X179989430Y-98913650D01*
X179951540Y-98965801D01*
X179945937Y-98976797D01*
X179897961Y-99027592D01*
X179835453Y-99044500D01*
X179581147Y-99044500D01*
X179514108Y-99024815D01*
X179470663Y-98976797D01*
X179469443Y-98974403D01*
X179465060Y-98965801D01*
X179353990Y-98812927D01*
X179220373Y-98679310D01*
X179067499Y-98568240D01*
X179026561Y-98547381D01*
X178899136Y-98482454D01*
X178890145Y-98479533D01*
X178876043Y-98474951D01*
X178818370Y-98435514D01*
X178791172Y-98371155D01*
X178803087Y-98302309D01*
X178826680Y-98269343D01*
X179992006Y-97104019D01*
X180053329Y-97070534D01*
X180079687Y-97067700D01*
X183875172Y-97067700D01*
X183875174Y-97067700D01*
X183875175Y-97067700D01*
X184015185Y-97030184D01*
X184140715Y-96957710D01*
X187491310Y-93607115D01*
X187546412Y-93511673D01*
X187596979Y-93463458D01*
X187665586Y-93450234D01*
X187730451Y-93476202D01*
X187770980Y-93533116D01*
X187777800Y-93573673D01*
X187777800Y-132470500D01*
X187758115Y-132537539D01*
X187705311Y-132583294D01*
X187653800Y-132594500D01*
X167712408Y-132594500D01*
X167585112Y-132628608D01*
X167470986Y-132694500D01*
X167470983Y-132694502D01*
X167377802Y-132787683D01*
X167377800Y-132787686D01*
X167311908Y-132901812D01*
X167277800Y-133029108D01*
X167277800Y-146470500D01*
X167258115Y-146537539D01*
X167205311Y-146583294D01*
X167153800Y-146594500D01*
X128902800Y-146594500D01*
X128835761Y-146574815D01*
X128790006Y-146522011D01*
X128778800Y-146470500D01*
X128778800Y-139277014D01*
X131818300Y-139277014D01*
X131818300Y-139512985D01*
X131849099Y-139746914D01*
X131910170Y-139974837D01*
X132000460Y-140192819D01*
X132000465Y-140192828D01*
X132118444Y-140397171D01*
X132118445Y-140397172D01*
X132181021Y-140478723D01*
X132902452Y-139757292D01*
X132909349Y-139773942D01*
X132996899Y-139904970D01*
X133108330Y-140016401D01*
X133239358Y-140103951D01*
X133256006Y-140110846D01*
X132534575Y-140832277D01*
X132616127Y-140894854D01*
X132616128Y-140894855D01*
X132820471Y-141012834D01*
X132820480Y-141012839D01*
X133038463Y-141103129D01*
X133038461Y-141103129D01*
X133266385Y-141164200D01*
X133500314Y-141194999D01*
X133500329Y-141195000D01*
X133736271Y-141195000D01*
X133736285Y-141194999D01*
X133970214Y-141164200D01*
X134198137Y-141103129D01*
X134416119Y-141012839D01*
X134416128Y-141012834D01*
X134620481Y-140894850D01*
X134702023Y-140832279D01*
X134702023Y-140832276D01*
X133980593Y-140110847D01*
X133997242Y-140103951D01*
X134128270Y-140016401D01*
X134239701Y-139904970D01*
X134327251Y-139773942D01*
X134334146Y-139757293D01*
X135055576Y-140478723D01*
X135055579Y-140478723D01*
X135118150Y-140397181D01*
X135236134Y-140192828D01*
X135236139Y-140192819D01*
X135326429Y-139974837D01*
X135387500Y-139746914D01*
X135418299Y-139512985D01*
X135418300Y-139512971D01*
X135418300Y-139277028D01*
X135418299Y-139277014D01*
X135387500Y-139043085D01*
X135326429Y-138815162D01*
X135236139Y-138597180D01*
X135236134Y-138597171D01*
X135118155Y-138392828D01*
X135118154Y-138392827D01*
X135055577Y-138311275D01*
X134334146Y-139032705D01*
X134327251Y-139016058D01*
X134239701Y-138885030D01*
X134128270Y-138773599D01*
X133997242Y-138686049D01*
X133980593Y-138679152D01*
X134702023Y-137957721D01*
X134620472Y-137895145D01*
X134620471Y-137895144D01*
X134416128Y-137777165D01*
X134416119Y-137777160D01*
X134198136Y-137686870D01*
X134198138Y-137686870D01*
X133970214Y-137625799D01*
X133736285Y-137595000D01*
X133500314Y-137595000D01*
X133266385Y-137625799D01*
X133038462Y-137686870D01*
X132820480Y-137777160D01*
X132820471Y-137777165D01*
X132616128Y-137895144D01*
X132616118Y-137895150D01*
X132534575Y-137957720D01*
X132534575Y-137957721D01*
X133256006Y-138679152D01*
X133239358Y-138686049D01*
X133108330Y-138773599D01*
X132996899Y-138885030D01*
X132909349Y-139016058D01*
X132902452Y-139032706D01*
X132181021Y-138311275D01*
X132181020Y-138311275D01*
X132118450Y-138392818D01*
X132118444Y-138392828D01*
X132000465Y-138597171D01*
X132000460Y-138597180D01*
X131910170Y-138815162D01*
X131849099Y-139043085D01*
X131818300Y-139277014D01*
X128778800Y-139277014D01*
X128778800Y-136283549D01*
X136617800Y-136283549D01*
X136617800Y-136506450D01*
X136617801Y-136506466D01*
X136646894Y-136727452D01*
X136646895Y-136727457D01*
X136646896Y-136727463D01*
X136646897Y-136727465D01*
X136704590Y-136942780D01*
X136704593Y-136942790D01*
X136789891Y-137148717D01*
X136789895Y-137148726D01*
X136901352Y-137341774D01*
X136901357Y-137341780D01*
X136901358Y-137341782D01*
X137037051Y-137518622D01*
X137037057Y-137518629D01*
X137194670Y-137676242D01*
X137194676Y-137676247D01*
X137371526Y-137811948D01*
X137564574Y-137923405D01*
X137770519Y-138008710D01*
X137985837Y-138066404D01*
X138206843Y-138095500D01*
X138206850Y-138095500D01*
X138429750Y-138095500D01*
X138429757Y-138095500D01*
X138650763Y-138066404D01*
X138866081Y-138008710D01*
X139072026Y-137923405D01*
X139265074Y-137811948D01*
X139441924Y-137676247D01*
X139599547Y-137518624D01*
X139735248Y-137341774D01*
X139846705Y-137148726D01*
X139856689Y-137124624D01*
X139872990Y-137085269D01*
X139932010Y-136942781D01*
X139989704Y-136727463D01*
X140018800Y-136506457D01*
X140018800Y-136283543D01*
X139989704Y-136062537D01*
X139932010Y-135847219D01*
X139846705Y-135641274D01*
X139735248Y-135448226D01*
X139599547Y-135271376D01*
X139599542Y-135271370D01*
X139441929Y-135113757D01*
X139441922Y-135113751D01*
X139265082Y-134978058D01*
X139265080Y-134978057D01*
X139265074Y-134978052D01*
X139072026Y-134866595D01*
X139072022Y-134866593D01*
X138866090Y-134781293D01*
X138866083Y-134781291D01*
X138866081Y-134781290D01*
X138650763Y-134723596D01*
X138650757Y-134723595D01*
X138650752Y-134723594D01*
X138429766Y-134694501D01*
X138429763Y-134694500D01*
X138429757Y-134694500D01*
X138206843Y-134694500D01*
X138206837Y-134694500D01*
X138206833Y-134694501D01*
X137985847Y-134723594D01*
X137985840Y-134723595D01*
X137985837Y-134723596D01*
X137974910Y-134726524D01*
X137770519Y-134781290D01*
X137770509Y-134781293D01*
X137564577Y-134866593D01*
X137564573Y-134866595D01*
X137371526Y-134978052D01*
X137371517Y-134978058D01*
X137194677Y-135113751D01*
X137194670Y-135113757D01*
X137037057Y-135271370D01*
X137037051Y-135271377D01*
X136901358Y-135448217D01*
X136901352Y-135448226D01*
X136789895Y-135641273D01*
X136789893Y-135641277D01*
X136704593Y-135847209D01*
X136704590Y-135847219D01*
X136646897Y-136062534D01*
X136646894Y-136062547D01*
X136617801Y-136283533D01*
X136617800Y-136283549D01*
X128778800Y-136283549D01*
X128778800Y-133029110D01*
X128778800Y-133029108D01*
X128744692Y-132901814D01*
X128678800Y-132787686D01*
X128585614Y-132694500D01*
X128528550Y-132661554D01*
X128471487Y-132628608D01*
X128407839Y-132611554D01*
X128344192Y-132594500D01*
X128344191Y-132594500D01*
X108402800Y-132594500D01*
X108335761Y-132574815D01*
X108290006Y-132522011D01*
X108278800Y-132470500D01*
X108278800Y-128973711D01*
X109927800Y-128973711D01*
X109927800Y-129216288D01*
X109959052Y-129453679D01*
X109959462Y-129456789D01*
X109973421Y-129508884D01*
X110022247Y-129691104D01*
X110061687Y-129786320D01*
X110115076Y-129915212D01*
X110236364Y-130125289D01*
X110236366Y-130125292D01*
X110236367Y-130125293D01*
X110384033Y-130317736D01*
X110384039Y-130317743D01*
X110555556Y-130489260D01*
X110555563Y-130489266D01*
X110643160Y-130556481D01*
X110748011Y-130636936D01*
X110958088Y-130758224D01*
X111182200Y-130851054D01*
X111416511Y-130913838D01*
X111596886Y-130937584D01*
X111657011Y-130945500D01*
X111657012Y-130945500D01*
X111899589Y-130945500D01*
X111947688Y-130939167D01*
X112140089Y-130913838D01*
X112374400Y-130851054D01*
X112598512Y-130758224D01*
X112808589Y-130636936D01*
X113001038Y-130489265D01*
X113172565Y-130317738D01*
X113320236Y-130125289D01*
X113441524Y-129915212D01*
X113534354Y-129691100D01*
X113597138Y-129456789D01*
X113628800Y-129216288D01*
X113628800Y-128973712D01*
X113597138Y-128733211D01*
X113534354Y-128498900D01*
X113441524Y-128274788D01*
X113320236Y-128064711D01*
X113232661Y-127950581D01*
X113172566Y-127872263D01*
X113172560Y-127872256D01*
X113001043Y-127700739D01*
X113001036Y-127700733D01*
X112808593Y-127553067D01*
X112808592Y-127553066D01*
X112808589Y-127553064D01*
X112598512Y-127431776D01*
X112598505Y-127431773D01*
X112374404Y-127338947D01*
X112140085Y-127276161D01*
X111899589Y-127244500D01*
X111899588Y-127244500D01*
X111657012Y-127244500D01*
X111657011Y-127244500D01*
X111416514Y-127276161D01*
X111182195Y-127338947D01*
X110958094Y-127431773D01*
X110958085Y-127431777D01*
X110748006Y-127553067D01*
X110555563Y-127700733D01*
X110555556Y-127700739D01*
X110384039Y-127872256D01*
X110384033Y-127872263D01*
X110236367Y-128064706D01*
X110115077Y-128274785D01*
X110115073Y-128274794D01*
X110022247Y-128498895D01*
X109959461Y-128733214D01*
X109927800Y-128973711D01*
X108278800Y-128973711D01*
X108278800Y-126996190D01*
X118522800Y-126996190D01*
X118522800Y-127193809D01*
X118553714Y-127388997D01*
X118614784Y-127576949D01*
X118677856Y-127700733D01*
X118704500Y-127753025D01*
X118820658Y-127912903D01*
X118960397Y-128052642D01*
X119120275Y-128168800D01*
X119203465Y-128211187D01*
X119296350Y-128258515D01*
X119296352Y-128258515D01*
X119296355Y-128258517D01*
X119375319Y-128284174D01*
X119484302Y-128319585D01*
X119581896Y-128335042D01*
X119679490Y-128350500D01*
X119679491Y-128350500D01*
X119850360Y-128350500D01*
X119917399Y-128370185D01*
X119938041Y-128386819D01*
X123454811Y-131903589D01*
X123510745Y-131959523D01*
X123566312Y-132015090D01*
X123697414Y-132102690D01*
X123697427Y-132102697D01*
X123788693Y-132140500D01*
X123843103Y-132163037D01*
X123843107Y-132163037D01*
X123843108Y-132163038D01*
X123997754Y-132193800D01*
X123997757Y-132193800D01*
X123997758Y-132193800D01*
X129231960Y-132193800D01*
X129298999Y-132213485D01*
X129319641Y-132230119D01*
X130990470Y-133900947D01*
X130990491Y-133900970D01*
X131106307Y-134016786D01*
X131106311Y-134016789D01*
X131237414Y-134104390D01*
X131237427Y-134104397D01*
X131383098Y-134164735D01*
X131383103Y-134164737D01*
X131383107Y-134164737D01*
X131383108Y-134164738D01*
X131537754Y-134195500D01*
X131537757Y-134195500D01*
X131537758Y-134195500D01*
X131793801Y-134195500D01*
X131860840Y-134215185D01*
X131906595Y-134267989D01*
X131917801Y-134319500D01*
X131917801Y-134726518D01*
X131932654Y-134820304D01*
X131990250Y-134933342D01*
X131990252Y-134933344D01*
X131990254Y-134933347D01*
X132079952Y-135023045D01*
X132079954Y-135023046D01*
X132079958Y-135023050D01*
X132192994Y-135080645D01*
X132192998Y-135080647D01*
X132286775Y-135095499D01*
X132286781Y-135095500D01*
X134949818Y-135095499D01*
X135043604Y-135080646D01*
X135156642Y-135023050D01*
X135246350Y-134933342D01*
X135303946Y-134820304D01*
X135303946Y-134820302D01*
X135303947Y-134820301D01*
X135318799Y-134726524D01*
X135318800Y-134726519D01*
X135318799Y-132063482D01*
X135303946Y-131969696D01*
X135246350Y-131856658D01*
X135246346Y-131856654D01*
X135246345Y-131856652D01*
X135156647Y-131766954D01*
X135156644Y-131766952D01*
X135156642Y-131766950D01*
X135079817Y-131727805D01*
X135043601Y-131709352D01*
X134949824Y-131694500D01*
X132286782Y-131694500D01*
X132205819Y-131707323D01*
X132192996Y-131709354D01*
X132079958Y-131766950D01*
X132079957Y-131766951D01*
X132079952Y-131766954D01*
X131990254Y-131856652D01*
X131990251Y-131856657D01*
X131932652Y-131969698D01*
X131917800Y-132063475D01*
X131917800Y-132264760D01*
X131898115Y-132331799D01*
X131845311Y-132377554D01*
X131776153Y-132387498D01*
X131712597Y-132358473D01*
X131706119Y-132352441D01*
X130125192Y-130771513D01*
X130125188Y-130771510D01*
X129994085Y-130683909D01*
X129994072Y-130683902D01*
X129848401Y-130623564D01*
X129848389Y-130623561D01*
X129693745Y-130592800D01*
X129693742Y-130592800D01*
X124459540Y-130592800D01*
X124392501Y-130573115D01*
X124371859Y-130556481D01*
X122011568Y-128196190D01*
X123622800Y-128196190D01*
X123622800Y-128393809D01*
X123653714Y-128588997D01*
X123714784Y-128776949D01*
X123752006Y-128850000D01*
X123804500Y-128953025D01*
X123920658Y-129112903D01*
X124060397Y-129252642D01*
X124220275Y-129368800D01*
X124303465Y-129411187D01*
X124396350Y-129458515D01*
X124396352Y-129458515D01*
X124396355Y-129458517D01*
X124467696Y-129481697D01*
X124584302Y-129519585D01*
X124681896Y-129535042D01*
X124779490Y-129550500D01*
X124779491Y-129550500D01*
X124977109Y-129550500D01*
X124977110Y-129550500D01*
X125172297Y-129519585D01*
X125360245Y-129458517D01*
X125536325Y-129368800D01*
X125696203Y-129252642D01*
X125835942Y-129112903D01*
X125952100Y-128953025D01*
X126041817Y-128776945D01*
X126102885Y-128588997D01*
X126133800Y-128393810D01*
X126133800Y-128196190D01*
X126122341Y-128123839D01*
X126102885Y-128001002D01*
X126061055Y-127872263D01*
X126041817Y-127813055D01*
X126041815Y-127813052D01*
X126041815Y-127813050D01*
X125994487Y-127720165D01*
X125952100Y-127636975D01*
X125835942Y-127477097D01*
X125696203Y-127337358D01*
X125536325Y-127221200D01*
X125524267Y-127215056D01*
X125360249Y-127131484D01*
X125172297Y-127070414D01*
X125003797Y-127043726D01*
X124977110Y-127039500D01*
X124779490Y-127039500D01*
X124756012Y-127043218D01*
X124584302Y-127070414D01*
X124396350Y-127131484D01*
X124220274Y-127221200D01*
X124060394Y-127337360D01*
X123920660Y-127477094D01*
X123804500Y-127636974D01*
X123714784Y-127813050D01*
X123653714Y-128001002D01*
X123622800Y-128196190D01*
X122011568Y-128196190D01*
X121070119Y-127254741D01*
X121036634Y-127193418D01*
X121033800Y-127167060D01*
X121033800Y-126996190D01*
X121002885Y-126801002D01*
X120946910Y-126628730D01*
X120941817Y-126613055D01*
X120941815Y-126613052D01*
X120941815Y-126613050D01*
X120894487Y-126520165D01*
X120852100Y-126436975D01*
X120735942Y-126277097D01*
X120596203Y-126137358D01*
X120436325Y-126021200D01*
X120260249Y-125931484D01*
X120072297Y-125870414D01*
X119903797Y-125843726D01*
X119877110Y-125839500D01*
X119679490Y-125839500D01*
X119656012Y-125843218D01*
X119484302Y-125870414D01*
X119296350Y-125931484D01*
X119120274Y-126021200D01*
X118960394Y-126137360D01*
X118820660Y-126277094D01*
X118704500Y-126436974D01*
X118614784Y-126613050D01*
X118553714Y-126801002D01*
X118522800Y-126996190D01*
X108278800Y-126996190D01*
X108278800Y-117963872D01*
X113537800Y-117963872D01*
X113537800Y-118226127D01*
X113560639Y-118399594D01*
X113572030Y-118486116D01*
X113635359Y-118722465D01*
X113639902Y-118739418D01*
X113639905Y-118739428D01*
X113740253Y-118981690D01*
X113740258Y-118981700D01*
X113871375Y-119208803D01*
X114031018Y-119416851D01*
X114031026Y-119416860D01*
X114216440Y-119602274D01*
X114216448Y-119602281D01*
X114424496Y-119761924D01*
X114651599Y-119893041D01*
X114651609Y-119893046D01*
X114893871Y-119993394D01*
X114893881Y-119993398D01*
X115147184Y-120061270D01*
X115407180Y-120095500D01*
X115407187Y-120095500D01*
X115669413Y-120095500D01*
X115669420Y-120095500D01*
X115929416Y-120061270D01*
X116182719Y-119993398D01*
X116424997Y-119893043D01*
X116652103Y-119761924D01*
X116860151Y-119602282D01*
X116860155Y-119602277D01*
X116860160Y-119602274D01*
X117045574Y-119416860D01*
X117045577Y-119416855D01*
X117045582Y-119416851D01*
X117205224Y-119208803D01*
X117336343Y-118981697D01*
X117436698Y-118739419D01*
X117504570Y-118486116D01*
X117538800Y-118226120D01*
X117538800Y-117963880D01*
X117504570Y-117703884D01*
X117436698Y-117450581D01*
X117405537Y-117375351D01*
X117336346Y-117208309D01*
X117336341Y-117208299D01*
X117205224Y-116981196D01*
X117045581Y-116773148D01*
X117045574Y-116773140D01*
X116860160Y-116587726D01*
X116860151Y-116587718D01*
X116652103Y-116428075D01*
X116425000Y-116296958D01*
X116424990Y-116296953D01*
X116182728Y-116196605D01*
X116182721Y-116196603D01*
X116182719Y-116196602D01*
X115929416Y-116128730D01*
X115871639Y-116121123D01*
X115669427Y-116094500D01*
X115669420Y-116094500D01*
X115407180Y-116094500D01*
X115407172Y-116094500D01*
X115176072Y-116124926D01*
X115147184Y-116128730D01*
X114921483Y-116189206D01*
X114893881Y-116196602D01*
X114893871Y-116196605D01*
X114651609Y-116296953D01*
X114651599Y-116296958D01*
X114424496Y-116428075D01*
X114216448Y-116587718D01*
X114031018Y-116773148D01*
X113871375Y-116981196D01*
X113740258Y-117208299D01*
X113740253Y-117208309D01*
X113639905Y-117450571D01*
X113639902Y-117450581D01*
X113586256Y-117650794D01*
X113572030Y-117703885D01*
X113537800Y-117963872D01*
X108278800Y-117963872D01*
X108278800Y-98079298D01*
X110177800Y-98079298D01*
X110177800Y-100110701D01*
X110180701Y-100147567D01*
X110180702Y-100147573D01*
X110226553Y-100305392D01*
X110226555Y-100305395D01*
X110226556Y-100305397D01*
X110244190Y-100335215D01*
X110310217Y-100446861D01*
X110310223Y-100446869D01*
X110426430Y-100563076D01*
X110426434Y-100563079D01*
X110426436Y-100563081D01*
X110567903Y-100646744D01*
X110567904Y-100646744D01*
X110567907Y-100646746D01*
X110725726Y-100692597D01*
X110725729Y-100692597D01*
X110725731Y-100692598D01*
X110762606Y-100695500D01*
X112336781Y-100695500D01*
X112403820Y-100715185D01*
X112424462Y-100731819D01*
X115841199Y-104148555D01*
X119234186Y-107541542D01*
X119286675Y-107594031D01*
X119331759Y-107639115D01*
X119446482Y-107715771D01*
X119446495Y-107715778D01*
X119498150Y-107737174D01*
X119533550Y-107751837D01*
X119587954Y-107795678D01*
X119605174Y-107831803D01*
X119626554Y-107905393D01*
X119626555Y-107905396D01*
X119710217Y-108046862D01*
X119710223Y-108046870D01*
X119826429Y-108163076D01*
X119826433Y-108163079D01*
X119826435Y-108163081D01*
X119967902Y-108246744D01*
X119988929Y-108252853D01*
X120125726Y-108292597D01*
X120125729Y-108292597D01*
X120125731Y-108292598D01*
X120162606Y-108295500D01*
X120936781Y-108295500D01*
X121003820Y-108315185D01*
X121024462Y-108331819D01*
X122331753Y-109639111D01*
X122331757Y-109639114D01*
X122391915Y-109679310D01*
X122446489Y-109715775D01*
X122446490Y-109715775D01*
X122446491Y-109715776D01*
X122542041Y-109755354D01*
X122573972Y-109768580D01*
X122573976Y-109768580D01*
X122573977Y-109768581D01*
X122709304Y-109795500D01*
X122709307Y-109795500D01*
X128740162Y-109795500D01*
X128807201Y-109815185D01*
X128840479Y-109846613D01*
X128857605Y-109870185D01*
X128862610Y-109877073D01*
X128996227Y-110010690D01*
X129149101Y-110121760D01*
X129191052Y-110143135D01*
X129317463Y-110207545D01*
X129317465Y-110207545D01*
X129317468Y-110207547D01*
X129413797Y-110238846D01*
X129497181Y-110265940D01*
X129683814Y-110295500D01*
X129683819Y-110295500D01*
X129872786Y-110295500D01*
X130059418Y-110265940D01*
X130239132Y-110207547D01*
X130407499Y-110121760D01*
X130560373Y-110010690D01*
X130693990Y-109877073D01*
X130805060Y-109724199D01*
X130890847Y-109555832D01*
X130949240Y-109376118D01*
X130953331Y-109350291D01*
X130978800Y-109189486D01*
X130978800Y-109000514D01*
X130978799Y-109000512D01*
X130977559Y-108992682D01*
X133478300Y-108992682D01*
X133478300Y-109197317D01*
X133510309Y-109399417D01*
X133573544Y-109594031D01*
X133666441Y-109776350D01*
X133666447Y-109776359D01*
X133698823Y-109820921D01*
X133698824Y-109820922D01*
X134378300Y-109141446D01*
X134378300Y-109147661D01*
X134405559Y-109249394D01*
X134458220Y-109340606D01*
X134532694Y-109415080D01*
X134623906Y-109467741D01*
X134725639Y-109495000D01*
X134731853Y-109495000D01*
X134052376Y-110174474D01*
X134096950Y-110206859D01*
X134279268Y-110299755D01*
X134473882Y-110362990D01*
X134675983Y-110395000D01*
X134880617Y-110395000D01*
X135082717Y-110362990D01*
X135277331Y-110299755D01*
X135459649Y-110206859D01*
X135504221Y-110174474D01*
X134824747Y-109495000D01*
X134830961Y-109495000D01*
X134932694Y-109467741D01*
X135023906Y-109415080D01*
X135098380Y-109340606D01*
X135151041Y-109249394D01*
X135178300Y-109147661D01*
X135178300Y-109141447D01*
X135857774Y-109820921D01*
X135890159Y-109776349D01*
X135983055Y-109594031D01*
X136046290Y-109399417D01*
X136078300Y-109197317D01*
X136078300Y-108992682D01*
X136046290Y-108790582D01*
X135983055Y-108595968D01*
X135890159Y-108413650D01*
X135857774Y-108369077D01*
X135857774Y-108369076D01*
X135178300Y-109048551D01*
X135178300Y-109042339D01*
X135151041Y-108940606D01*
X135098380Y-108849394D01*
X135023906Y-108774920D01*
X134932694Y-108722259D01*
X134830961Y-108695000D01*
X134824746Y-108695000D01*
X135504222Y-108015524D01*
X135504221Y-108015523D01*
X135459659Y-107983147D01*
X135459650Y-107983141D01*
X135277331Y-107890244D01*
X135082717Y-107827009D01*
X134880617Y-107795000D01*
X134675983Y-107795000D01*
X134473882Y-107827009D01*
X134279268Y-107890244D01*
X134096944Y-107983143D01*
X134052377Y-108015523D01*
X134052377Y-108015524D01*
X134731854Y-108695000D01*
X134725639Y-108695000D01*
X134623906Y-108722259D01*
X134532694Y-108774920D01*
X134458220Y-108849394D01*
X134405559Y-108940606D01*
X134378300Y-109042339D01*
X134378300Y-109048553D01*
X133698824Y-108369077D01*
X133698823Y-108369077D01*
X133666443Y-108413644D01*
X133573544Y-108595968D01*
X133510309Y-108790582D01*
X133478300Y-108992682D01*
X130977559Y-108992682D01*
X130949240Y-108813881D01*
X130907495Y-108685405D01*
X130890847Y-108634168D01*
X130890845Y-108634165D01*
X130890845Y-108634163D01*
X130805059Y-108465800D01*
X130693990Y-108312927D01*
X130560373Y-108179310D01*
X130558882Y-108178227D01*
X130538062Y-108163100D01*
X130407499Y-108068240D01*
X130239136Y-107982454D01*
X130059418Y-107924059D01*
X129872786Y-107894500D01*
X129872781Y-107894500D01*
X129683819Y-107894500D01*
X129683814Y-107894500D01*
X129497181Y-107924059D01*
X129317463Y-107982454D01*
X129149100Y-108068240D01*
X129066275Y-108128417D01*
X128996227Y-108179310D01*
X128996225Y-108179312D01*
X128996224Y-108179312D01*
X128862609Y-108312927D01*
X128840479Y-108343387D01*
X128785148Y-108386052D01*
X128740162Y-108394500D01*
X125083016Y-108394500D01*
X125015977Y-108374815D01*
X124970222Y-108322011D01*
X124960278Y-108252853D01*
X124989303Y-108189297D01*
X125004126Y-108175692D01*
X125004221Y-108174474D01*
X124324747Y-107495000D01*
X124330961Y-107495000D01*
X124432694Y-107467741D01*
X124523906Y-107415080D01*
X124598380Y-107340606D01*
X124651041Y-107249394D01*
X124678300Y-107147661D01*
X124678300Y-107141448D01*
X125357774Y-107820922D01*
X125357774Y-107820921D01*
X125390159Y-107776349D01*
X125483055Y-107594031D01*
X125546290Y-107399417D01*
X125578300Y-107197317D01*
X125578300Y-106992682D01*
X125546290Y-106790582D01*
X125483055Y-106595968D01*
X125390159Y-106413650D01*
X125357774Y-106369077D01*
X125357774Y-106369076D01*
X124678300Y-107048551D01*
X124678300Y-107042339D01*
X124651041Y-106940606D01*
X124598380Y-106849394D01*
X124523906Y-106774920D01*
X124432694Y-106722259D01*
X124330961Y-106695000D01*
X124324746Y-106695000D01*
X125004222Y-106015524D01*
X125004221Y-106015523D01*
X124959659Y-105983147D01*
X124959650Y-105983141D01*
X124777331Y-105890244D01*
X124582717Y-105827009D01*
X124380617Y-105795000D01*
X124175983Y-105795000D01*
X123973882Y-105827009D01*
X123779268Y-105890244D01*
X123596944Y-105983143D01*
X123552377Y-106015523D01*
X123552377Y-106015524D01*
X124231854Y-106695000D01*
X124225639Y-106695000D01*
X124123906Y-106722259D01*
X124032694Y-106774920D01*
X123958220Y-106849394D01*
X123905559Y-106940606D01*
X123878300Y-107042339D01*
X123878300Y-107048553D01*
X123198824Y-106369077D01*
X123198823Y-106369077D01*
X123166443Y-106413644D01*
X123073544Y-106595968D01*
X123010309Y-106790582D01*
X122978300Y-106992682D01*
X122978300Y-107197317D01*
X123010309Y-107399417D01*
X123073544Y-107594031D01*
X123166441Y-107776350D01*
X123166447Y-107776359D01*
X123198823Y-107820921D01*
X123198824Y-107820922D01*
X123878300Y-107141446D01*
X123878300Y-107147661D01*
X123905559Y-107249394D01*
X123958220Y-107340606D01*
X124032694Y-107415080D01*
X124123906Y-107467741D01*
X124225639Y-107495000D01*
X124231853Y-107495000D01*
X123552376Y-108174474D01*
X123552672Y-108178227D01*
X123589134Y-108225512D01*
X123595113Y-108295125D01*
X123562507Y-108356920D01*
X123501669Y-108391277D01*
X123473583Y-108394500D01*
X123119819Y-108394500D01*
X123052780Y-108374815D01*
X123032138Y-108358181D01*
X122015119Y-107341162D01*
X121981634Y-107279839D01*
X121978800Y-107253481D01*
X121978800Y-106479313D01*
X121978799Y-106479298D01*
X121976593Y-106451269D01*
X121975898Y-106442431D01*
X121967536Y-106413650D01*
X121930045Y-106284606D01*
X121930044Y-106284603D01*
X121930044Y-106284602D01*
X121866133Y-106176535D01*
X121846380Y-106143133D01*
X121730170Y-106026923D01*
X121730162Y-106026917D01*
X121588696Y-105943255D01*
X121588693Y-105943254D01*
X121430873Y-105897402D01*
X121430867Y-105897401D01*
X121394001Y-105894500D01*
X121393994Y-105894500D01*
X120162606Y-105894500D01*
X120162598Y-105894500D01*
X120125732Y-105897401D01*
X120125726Y-105897402D01*
X119967906Y-105943254D01*
X119967905Y-105943254D01*
X119830324Y-106024618D01*
X119762600Y-106041799D01*
X119696338Y-106019639D01*
X119679523Y-106005566D01*
X113415119Y-99741162D01*
X113381634Y-99679839D01*
X113378800Y-99653481D01*
X113378800Y-98983575D01*
X120238300Y-98983575D01*
X120238300Y-99206424D01*
X120267385Y-99427354D01*
X120267388Y-99427367D01*
X120325063Y-99642618D01*
X120410345Y-99848502D01*
X120410354Y-99848520D01*
X120521764Y-100041491D01*
X120521773Y-100041504D01*
X120572340Y-100107403D01*
X120572343Y-100107403D01*
X121373687Y-99306059D01*
X121379189Y-99326591D01*
X121458181Y-99463408D01*
X121569892Y-99575119D01*
X121706709Y-99654111D01*
X121727240Y-99659612D01*
X120925895Y-100460955D01*
X120925895Y-100460956D01*
X120991807Y-100511533D01*
X121184785Y-100622949D01*
X121184797Y-100622954D01*
X121390681Y-100708236D01*
X121605932Y-100765911D01*
X121605945Y-100765914D01*
X121826875Y-100795000D01*
X122049725Y-100795000D01*
X122270654Y-100765914D01*
X122270667Y-100765911D01*
X122485918Y-100708236D01*
X122691802Y-100622954D01*
X122691814Y-100622949D01*
X122884798Y-100511530D01*
X122950703Y-100460957D01*
X122950704Y-100460956D01*
X122149359Y-99659612D01*
X122169891Y-99654111D01*
X122306708Y-99575119D01*
X122418419Y-99463408D01*
X122497411Y-99326591D01*
X122502912Y-99306059D01*
X123304256Y-100107404D01*
X123304257Y-100107403D01*
X123354830Y-100041498D01*
X123466249Y-99848514D01*
X123466254Y-99848502D01*
X123551536Y-99642618D01*
X123609211Y-99427367D01*
X123609214Y-99427354D01*
X123638300Y-99206424D01*
X123638300Y-98983575D01*
X123609214Y-98762645D01*
X123609211Y-98762632D01*
X123551536Y-98547381D01*
X123466254Y-98341497D01*
X123466249Y-98341485D01*
X123354833Y-98148507D01*
X123304256Y-98082595D01*
X123304255Y-98082595D01*
X122502912Y-98883939D01*
X122497411Y-98863409D01*
X122418419Y-98726592D01*
X122306708Y-98614881D01*
X122169891Y-98535889D01*
X122149358Y-98530387D01*
X122950703Y-97729043D01*
X122950703Y-97729040D01*
X122884804Y-97678473D01*
X122884791Y-97678464D01*
X122691820Y-97567054D01*
X122691802Y-97567045D01*
X122485918Y-97481763D01*
X122270667Y-97424088D01*
X122270654Y-97424085D01*
X122049725Y-97395000D01*
X121826875Y-97395000D01*
X121605945Y-97424085D01*
X121605932Y-97424088D01*
X121390681Y-97481763D01*
X121184797Y-97567045D01*
X121184779Y-97567054D01*
X120991811Y-97678462D01*
X120925895Y-97729042D01*
X121727241Y-98530387D01*
X121706709Y-98535889D01*
X121569892Y-98614881D01*
X121458181Y-98726592D01*
X121379189Y-98863409D01*
X121373687Y-98883940D01*
X120572342Y-98082595D01*
X120521762Y-98148511D01*
X120410354Y-98341479D01*
X120410345Y-98341497D01*
X120325063Y-98547381D01*
X120267388Y-98762632D01*
X120267385Y-98762645D01*
X120238300Y-98983575D01*
X113378800Y-98983575D01*
X113378800Y-98079313D01*
X113378799Y-98079298D01*
X113375898Y-98042432D01*
X113375897Y-98042426D01*
X113330046Y-97884607D01*
X113330044Y-97884604D01*
X113330044Y-97884603D01*
X113288154Y-97813772D01*
X113246385Y-97743141D01*
X113246376Y-97743130D01*
X113130169Y-97626923D01*
X113130161Y-97626917D01*
X112988695Y-97543255D01*
X112988692Y-97543253D01*
X112830873Y-97497402D01*
X112830867Y-97497401D01*
X112794001Y-97494500D01*
X112793994Y-97494500D01*
X110762606Y-97494500D01*
X110762598Y-97494500D01*
X110725732Y-97497401D01*
X110725726Y-97497402D01*
X110567907Y-97543253D01*
X110567904Y-97543255D01*
X110426438Y-97626917D01*
X110426430Y-97626923D01*
X110310223Y-97743130D01*
X110310217Y-97743138D01*
X110226555Y-97884604D01*
X110226553Y-97884607D01*
X110180702Y-98042426D01*
X110180701Y-98042432D01*
X110177800Y-98079298D01*
X108278800Y-98079298D01*
X108278800Y-88313475D01*
X109627800Y-88313475D01*
X109627800Y-89876517D01*
X109638592Y-89944657D01*
X109642654Y-89970304D01*
X109700250Y-90083342D01*
X109700252Y-90083344D01*
X109700254Y-90083347D01*
X109789952Y-90173045D01*
X109789954Y-90173046D01*
X109789958Y-90173050D01*
X109902994Y-90230645D01*
X109902998Y-90230647D01*
X109996775Y-90245499D01*
X109996781Y-90245500D01*
X111559818Y-90245499D01*
X111653604Y-90230646D01*
X111766642Y-90173050D01*
X111856350Y-90083342D01*
X111913946Y-89970304D01*
X111913946Y-89970302D01*
X111913947Y-89970301D01*
X111928799Y-89876524D01*
X111928800Y-89876519D01*
X111928799Y-88313482D01*
X111913946Y-88219696D01*
X111856350Y-88106658D01*
X111856346Y-88106654D01*
X111856345Y-88106652D01*
X111766647Y-88016954D01*
X111766644Y-88016952D01*
X111766642Y-88016950D01*
X111689817Y-87977805D01*
X111653601Y-87959352D01*
X111559824Y-87944500D01*
X109996782Y-87944500D01*
X109915819Y-87957323D01*
X109902996Y-87959354D01*
X109789958Y-88016950D01*
X109789957Y-88016951D01*
X109789952Y-88016954D01*
X109700254Y-88106652D01*
X109700251Y-88106657D01*
X109642652Y-88219698D01*
X109627800Y-88313475D01*
X108278800Y-88313475D01*
X108278800Y-79000513D01*
X116577800Y-79000513D01*
X116577800Y-79189486D01*
X116607359Y-79376118D01*
X116665754Y-79555836D01*
X116712860Y-79648285D01*
X116751540Y-79724199D01*
X116862610Y-79877073D01*
X116996227Y-80010690D01*
X117149101Y-80121760D01*
X117220220Y-80157997D01*
X117317463Y-80207545D01*
X117317465Y-80207545D01*
X117317468Y-80207547D01*
X117354859Y-80219696D01*
X117497181Y-80265940D01*
X117683814Y-80295500D01*
X117683819Y-80295500D01*
X117872786Y-80295500D01*
X118059418Y-80265940D01*
X118239132Y-80207547D01*
X118407499Y-80121760D01*
X118560373Y-80010690D01*
X118693990Y-79877073D01*
X118805060Y-79724199D01*
X118890847Y-79555832D01*
X118949240Y-79376118D01*
X118953703Y-79347942D01*
X118978800Y-79189486D01*
X118978800Y-79000513D01*
X118949240Y-78813881D01*
X118911287Y-78697075D01*
X118890847Y-78634168D01*
X118890845Y-78634165D01*
X118890845Y-78634163D01*
X118845006Y-78544199D01*
X118805060Y-78465801D01*
X118693990Y-78312927D01*
X118560373Y-78179310D01*
X118407499Y-78068240D01*
X118402985Y-78065940D01*
X118239136Y-77982454D01*
X118059418Y-77924059D01*
X117872786Y-77894500D01*
X117872781Y-77894500D01*
X117683819Y-77894500D01*
X117683814Y-77894500D01*
X117497181Y-77924059D01*
X117317463Y-77982454D01*
X117149100Y-78068240D01*
X117061879Y-78131610D01*
X116996227Y-78179310D01*
X116996225Y-78179312D01*
X116996224Y-78179312D01*
X116862612Y-78312924D01*
X116862612Y-78312925D01*
X116862610Y-78312927D01*
X116825518Y-78363980D01*
X116751540Y-78465800D01*
X116665754Y-78634163D01*
X116607359Y-78813881D01*
X116577800Y-79000513D01*
X108278800Y-79000513D01*
X108278800Y-77892844D01*
X109528300Y-77892844D01*
X109534701Y-77952372D01*
X109534703Y-77952379D01*
X109584945Y-78087086D01*
X109584949Y-78087093D01*
X109671109Y-78202187D01*
X109671112Y-78202190D01*
X109786206Y-78288350D01*
X109786213Y-78288354D01*
X109920920Y-78338596D01*
X109920927Y-78338598D01*
X109980455Y-78344999D01*
X109980472Y-78345000D01*
X110528300Y-78345000D01*
X111028300Y-78345000D01*
X111576128Y-78345000D01*
X111576144Y-78344999D01*
X111635672Y-78338598D01*
X111635679Y-78338596D01*
X111770386Y-78288354D01*
X111770393Y-78288350D01*
X111885487Y-78202190D01*
X111885490Y-78202187D01*
X111971650Y-78087093D01*
X111971654Y-78087086D01*
X112021896Y-77952379D01*
X112021898Y-77952372D01*
X112028299Y-77892844D01*
X112028300Y-77892827D01*
X112028300Y-77345000D01*
X111028300Y-77345000D01*
X111028300Y-78345000D01*
X110528300Y-78345000D01*
X110528300Y-77345000D01*
X109528300Y-77345000D01*
X109528300Y-77892844D01*
X108278800Y-77892844D01*
X108278800Y-77048922D01*
X110428300Y-77048922D01*
X110428300Y-77141078D01*
X110452152Y-77230095D01*
X110498230Y-77309905D01*
X110563395Y-77375070D01*
X110643205Y-77421148D01*
X110732222Y-77445000D01*
X110824378Y-77445000D01*
X110913395Y-77421148D01*
X110993205Y-77375070D01*
X111058370Y-77309905D01*
X111104448Y-77230095D01*
X111128300Y-77141078D01*
X111128300Y-77048922D01*
X111104448Y-76959905D01*
X111058370Y-76880095D01*
X111023275Y-76845000D01*
X111028300Y-76845000D01*
X112028300Y-76845000D01*
X112028300Y-76297172D01*
X112028299Y-76297155D01*
X112021898Y-76237627D01*
X112021896Y-76237620D01*
X111971654Y-76102913D01*
X111971650Y-76102906D01*
X111885490Y-75987812D01*
X111885487Y-75987809D01*
X111770393Y-75901649D01*
X111770386Y-75901645D01*
X111635679Y-75851403D01*
X111635672Y-75851401D01*
X111576144Y-75845000D01*
X111028300Y-75845000D01*
X111028300Y-76845000D01*
X111023275Y-76845000D01*
X110993205Y-76814930D01*
X110913395Y-76768852D01*
X110824378Y-76745000D01*
X110732222Y-76745000D01*
X110643205Y-76768852D01*
X110563395Y-76814930D01*
X110498230Y-76880095D01*
X110452152Y-76959905D01*
X110428300Y-77048922D01*
X108278800Y-77048922D01*
X108278800Y-76297155D01*
X109528300Y-76297155D01*
X109528300Y-76845000D01*
X110528300Y-76845000D01*
X110528300Y-75845000D01*
X109980455Y-75845000D01*
X109920927Y-75851401D01*
X109920920Y-75851403D01*
X109786213Y-75901645D01*
X109786206Y-75901649D01*
X109671112Y-75987809D01*
X109671109Y-75987812D01*
X109584949Y-76102906D01*
X109584945Y-76102913D01*
X109534703Y-76237620D01*
X109534701Y-76237627D01*
X109528300Y-76297155D01*
X108278800Y-76297155D01*
X108278800Y-58973711D01*
X109927800Y-58973711D01*
X109927800Y-59216288D01*
X109956604Y-59435085D01*
X109959462Y-59456789D01*
X109977681Y-59524781D01*
X110022247Y-59691104D01*
X110087138Y-59847763D01*
X110115076Y-59915212D01*
X110236364Y-60125289D01*
X110236366Y-60125292D01*
X110236367Y-60125293D01*
X110384033Y-60317736D01*
X110384039Y-60317743D01*
X110555556Y-60489260D01*
X110555562Y-60489265D01*
X110748011Y-60636936D01*
X110958088Y-60758224D01*
X111182200Y-60851054D01*
X111416511Y-60913838D01*
X111595501Y-60937402D01*
X111657011Y-60945500D01*
X111657012Y-60945500D01*
X111899589Y-60945500D01*
X111961099Y-60937402D01*
X112140089Y-60913838D01*
X112374400Y-60851054D01*
X112598512Y-60758224D01*
X112808589Y-60636936D01*
X113001038Y-60489265D01*
X113172565Y-60317738D01*
X113320236Y-60125289D01*
X113441524Y-59915212D01*
X113534354Y-59691100D01*
X113597138Y-59456789D01*
X113628800Y-59216288D01*
X113628800Y-58973712D01*
X113597138Y-58733211D01*
X113534354Y-58498900D01*
X113441524Y-58274788D01*
X113320236Y-58064711D01*
X113172565Y-57872262D01*
X113172560Y-57872256D01*
X113001043Y-57700739D01*
X113001036Y-57700733D01*
X112808593Y-57553067D01*
X112808592Y-57553066D01*
X112808589Y-57553064D01*
X112598512Y-57431776D01*
X112598505Y-57431773D01*
X112374404Y-57338947D01*
X112140085Y-57276161D01*
X111899589Y-57244500D01*
X111899588Y-57244500D01*
X111657012Y-57244500D01*
X111657011Y-57244500D01*
X111416514Y-57276161D01*
X111182195Y-57338947D01*
X110958094Y-57431773D01*
X110958085Y-57431777D01*
X110748006Y-57553067D01*
X110555563Y-57700733D01*
X110555556Y-57700739D01*
X110384039Y-57872256D01*
X110384033Y-57872263D01*
X110236367Y-58064706D01*
X110115077Y-58274785D01*
X110115073Y-58274794D01*
X110022247Y-58498895D01*
X109959461Y-58733214D01*
X109927800Y-58973711D01*
X108278800Y-58973711D01*
X108278800Y-55719500D01*
X108298485Y-55652461D01*
X108351289Y-55606706D01*
X108402800Y-55595500D01*
X128344190Y-55595500D01*
X128344192Y-55595500D01*
X128471486Y-55561392D01*
X128585614Y-55495500D01*
X128678800Y-55402314D01*
X128744692Y-55288186D01*
X128778800Y-55160892D01*
X128778800Y-41719500D01*
X128798485Y-41652461D01*
X128851289Y-41606706D01*
X128902800Y-41595500D01*
X167153800Y-41595500D01*
X167220839Y-41615185D01*
G37*
%TD.AperFunction*%
%TA.AperFunction,Conductor*%
G36*
X176433570Y-119816717D02*
G01*
X176433570Y-119816716D01*
X176472922Y-119762554D01*
X176533650Y-119643370D01*
X176581624Y-119592574D01*
X176649445Y-119575779D01*
X176715580Y-119598316D01*
X176754620Y-119643370D01*
X176788776Y-119710405D01*
X176904472Y-119869646D01*
X177043654Y-120008828D01*
X177158953Y-120092598D01*
X177202896Y-120124525D01*
X177269928Y-120158679D01*
X177320725Y-120206653D01*
X177337520Y-120274474D01*
X177314983Y-120340609D01*
X177269930Y-120379648D01*
X177150743Y-120440378D01*
X177150740Y-120440380D01*
X177096582Y-120479727D01*
X177096582Y-120479728D01*
X177728891Y-121112037D01*
X177665307Y-121129075D01*
X177551293Y-121194901D01*
X177458201Y-121287993D01*
X177392375Y-121402007D01*
X177375337Y-121465591D01*
X176743028Y-120833282D01*
X176743027Y-120833282D01*
X176703680Y-120887440D01*
X176703678Y-120887443D01*
X176642948Y-121006630D01*
X176594973Y-121057426D01*
X176527152Y-121074220D01*
X176461017Y-121051682D01*
X176421979Y-121006628D01*
X176387825Y-120939596D01*
X176357904Y-120898414D01*
X176272128Y-120780354D01*
X176132946Y-120641172D01*
X175973705Y-120525476D01*
X175906670Y-120491320D01*
X175855874Y-120443345D01*
X175839079Y-120375524D01*
X175861616Y-120309389D01*
X175906670Y-120270350D01*
X176025854Y-120209622D01*
X176080016Y-120170270D01*
X176080017Y-120170270D01*
X175447708Y-119537962D01*
X175511293Y-119520925D01*
X175625307Y-119455099D01*
X175718399Y-119362007D01*
X175784225Y-119247993D01*
X175801262Y-119184408D01*
X176433570Y-119816717D01*
G37*
%TD.AperFunction*%
%TA.AperFunction,Conductor*%
G36*
X174852375Y-119247993D02*
G01*
X174918201Y-119362007D01*
X175011293Y-119455099D01*
X175125307Y-119520925D01*
X175188890Y-119537962D01*
X174556582Y-120170269D01*
X174556582Y-120170270D01*
X174610749Y-120209624D01*
X174729929Y-120270350D01*
X174780725Y-120318325D01*
X174797520Y-120386146D01*
X174774982Y-120452281D01*
X174729930Y-120491319D01*
X174662897Y-120525474D01*
X174583274Y-120583324D01*
X174503654Y-120641172D01*
X174503652Y-120641174D01*
X174503651Y-120641174D01*
X174364474Y-120780351D01*
X174364467Y-120780360D01*
X174247810Y-120940922D01*
X174192480Y-120983588D01*
X174122867Y-120989566D01*
X174061072Y-120956960D01*
X174028010Y-120898414D01*
X174027666Y-120898515D01*
X174027241Y-120897052D01*
X174026715Y-120896121D01*
X174026078Y-120893052D01*
X174025896Y-120892426D01*
X173980044Y-120734602D01*
X173896381Y-120593135D01*
X173896379Y-120593133D01*
X173896376Y-120593129D01*
X173780170Y-120476923D01*
X173780162Y-120476917D01*
X173638696Y-120393255D01*
X173638693Y-120393254D01*
X173474785Y-120345634D01*
X173475284Y-120343914D01*
X173420571Y-120316378D01*
X173385049Y-120256212D01*
X173387694Y-120186392D01*
X173427666Y-120129086D01*
X173432377Y-120125488D01*
X173433701Y-120124526D01*
X173433705Y-120124524D01*
X173592946Y-120008828D01*
X173732128Y-119869646D01*
X173847824Y-119710405D01*
X173881979Y-119643370D01*
X173929952Y-119592575D01*
X173997773Y-119575779D01*
X174063908Y-119598316D01*
X174102948Y-119643370D01*
X174163670Y-119762542D01*
X174163673Y-119762547D01*
X174203028Y-119816716D01*
X174835337Y-119184408D01*
X174852375Y-119247993D01*
G37*
%TD.AperFunction*%
%TA.AperFunction,Conductor*%
G36*
X164854120Y-98854685D02*
G01*
X164899875Y-98907489D01*
X164909819Y-98976647D01*
X164880794Y-99040203D01*
X164822016Y-99077977D01*
X164806479Y-99081473D01*
X164732172Y-99093242D01*
X164732169Y-99093242D01*
X164530082Y-99158904D01*
X164340739Y-99255380D01*
X164286582Y-99294727D01*
X164286582Y-99294728D01*
X164918891Y-99927037D01*
X164855307Y-99944075D01*
X164741293Y-100009901D01*
X164648201Y-100102993D01*
X164582375Y-100217007D01*
X164565337Y-100280591D01*
X163933028Y-99648282D01*
X163933027Y-99648282D01*
X163893680Y-99702439D01*
X163797204Y-99891782D01*
X163731542Y-100093869D01*
X163731542Y-100093872D01*
X163698300Y-100303753D01*
X163698300Y-100516246D01*
X163731542Y-100726127D01*
X163731542Y-100726130D01*
X163797204Y-100928217D01*
X163893675Y-101117550D01*
X163933028Y-101171716D01*
X164565337Y-100539408D01*
X164582375Y-100602993D01*
X164648201Y-100717007D01*
X164741293Y-100810099D01*
X164855307Y-100875925D01*
X164918890Y-100892962D01*
X164286582Y-101525269D01*
X164286582Y-101525270D01*
X164340749Y-101564624D01*
X164459929Y-101625350D01*
X164510725Y-101673325D01*
X164527520Y-101741146D01*
X164504982Y-101807281D01*
X164459930Y-101846319D01*
X164392897Y-101880474D01*
X164332908Y-101924059D01*
X164233654Y-101996172D01*
X164233652Y-101996174D01*
X164233651Y-101996174D01*
X164094474Y-102135351D01*
X164094474Y-102135352D01*
X164094472Y-102135354D01*
X164044785Y-102203741D01*
X163978776Y-102294594D01*
X163889417Y-102469970D01*
X163828590Y-102657173D01*
X163797800Y-102851577D01*
X163797800Y-103048422D01*
X163828590Y-103242826D01*
X163889417Y-103430029D01*
X163953517Y-103555832D01*
X163978776Y-103605405D01*
X164094472Y-103764646D01*
X164233654Y-103903828D01*
X164392895Y-104019524D01*
X164516292Y-104082397D01*
X164569513Y-104109515D01*
X164620309Y-104157489D01*
X164637104Y-104225310D01*
X164614567Y-104291445D01*
X164569513Y-104330485D01*
X164392894Y-104420476D01*
X164302041Y-104486485D01*
X164233654Y-104536172D01*
X164233652Y-104536174D01*
X164233651Y-104536174D01*
X164094474Y-104675351D01*
X164094474Y-104675352D01*
X164094472Y-104675354D01*
X164044785Y-104743741D01*
X163978776Y-104834594D01*
X163889417Y-105009970D01*
X163828590Y-105197173D01*
X163797800Y-105391577D01*
X163797800Y-105588422D01*
X163828590Y-105782826D01*
X163889417Y-105970029D01*
X163978776Y-106145405D01*
X164084341Y-106290702D01*
X164107821Y-106356509D01*
X164091996Y-106424563D01*
X164071704Y-106451269D01*
X163303991Y-107218983D01*
X163303989Y-107218986D01*
X163284074Y-107253481D01*
X163245138Y-107320922D01*
X163240765Y-107328496D01*
X163240763Y-107328499D01*
X163231517Y-107344512D01*
X163231516Y-107344514D01*
X163231516Y-107344515D01*
X163194000Y-107484525D01*
X163194000Y-111878675D01*
X163201160Y-111905396D01*
X163213411Y-111951116D01*
X163231516Y-112018685D01*
X163303989Y-112144213D01*
X163303991Y-112144216D01*
X163811242Y-112651466D01*
X163844727Y-112712789D01*
X163841493Y-112777463D01*
X163828590Y-112817174D01*
X163797800Y-113011577D01*
X163797800Y-113208422D01*
X163828590Y-113402826D01*
X163889417Y-113590029D01*
X163978776Y-113765405D01*
X164094472Y-113924646D01*
X164233654Y-114063828D01*
X164392895Y-114179524D01*
X164516292Y-114242397D01*
X164569513Y-114269515D01*
X164620309Y-114317489D01*
X164637104Y-114385310D01*
X164614567Y-114451445D01*
X164569513Y-114490485D01*
X164392894Y-114580476D01*
X164302041Y-114646485D01*
X164233654Y-114696172D01*
X164233652Y-114696174D01*
X164233651Y-114696174D01*
X164094474Y-114835351D01*
X164094474Y-114835352D01*
X164094472Y-114835354D01*
X164044785Y-114903741D01*
X163978776Y-114994594D01*
X163889417Y-115169970D01*
X163828590Y-115357173D01*
X163797800Y-115551577D01*
X163797800Y-115748422D01*
X163828590Y-115942826D01*
X163889418Y-116130032D01*
X163919569Y-116189206D01*
X163932465Y-116257875D01*
X163906188Y-116322615D01*
X163849081Y-116362872D01*
X163809084Y-116369500D01*
X162647286Y-116369500D01*
X162580247Y-116349815D01*
X162559605Y-116333181D01*
X156285578Y-110059154D01*
X150005815Y-103779390D01*
X149880285Y-103706916D01*
X149880286Y-103706916D01*
X149845282Y-103697537D01*
X149740275Y-103669400D01*
X149740272Y-103669400D01*
X143427566Y-103669400D01*
X143360527Y-103649715D01*
X143314772Y-103596911D01*
X143304828Y-103527753D01*
X143317081Y-103489105D01*
X143337744Y-103448553D01*
X143347184Y-103430025D01*
X143408009Y-103242826D01*
X143416458Y-103189481D01*
X143438800Y-103048422D01*
X143438800Y-102851577D01*
X143408009Y-102657173D01*
X143365003Y-102524815D01*
X143347184Y-102469975D01*
X143347182Y-102469972D01*
X143347182Y-102469970D01*
X143295774Y-102369076D01*
X143257824Y-102294595D01*
X143142128Y-102135354D01*
X143002946Y-101996172D01*
X142849677Y-101884815D01*
X142807014Y-101829487D01*
X142801035Y-101759873D01*
X142833641Y-101698078D01*
X142894480Y-101663721D01*
X142922564Y-101660499D01*
X143069818Y-101660499D01*
X143163604Y-101645646D01*
X143276642Y-101588050D01*
X143366350Y-101498342D01*
X143423946Y-101385304D01*
X143423946Y-101385302D01*
X143423947Y-101385301D01*
X143438799Y-101291524D01*
X143438800Y-101291519D01*
X143438799Y-99528482D01*
X143423946Y-99434696D01*
X143366350Y-99321658D01*
X143366346Y-99321654D01*
X143366345Y-99321652D01*
X143276647Y-99231954D01*
X143276644Y-99231952D01*
X143276642Y-99231950D01*
X143199817Y-99192805D01*
X143163601Y-99174352D01*
X143069824Y-99159500D01*
X141306782Y-99159500D01*
X141212996Y-99174354D01*
X141173893Y-99194278D01*
X141105224Y-99207173D01*
X141040484Y-99180896D01*
X141000228Y-99123789D01*
X140993600Y-99083792D01*
X140993600Y-98959000D01*
X141013285Y-98891961D01*
X141066089Y-98846206D01*
X141117600Y-98835000D01*
X164787081Y-98835000D01*
X164854120Y-98854685D01*
G37*
%TD.AperFunction*%
%TA.AperFunction,Conductor*%
G36*
X169158469Y-82602585D02*
G01*
X169204224Y-82655389D01*
X169214168Y-82724547D01*
X169201915Y-82763194D01*
X169165755Y-82834160D01*
X169107359Y-83013881D01*
X169077800Y-83200513D01*
X169077800Y-83389486D01*
X169107359Y-83576118D01*
X169165754Y-83755836D01*
X169218499Y-83859352D01*
X169251540Y-83924199D01*
X169362610Y-84077073D01*
X169496227Y-84210690D01*
X169649101Y-84321760D01*
X169710125Y-84352853D01*
X169817463Y-84407545D01*
X169817465Y-84407545D01*
X169817468Y-84407547D01*
X169909773Y-84437539D01*
X169997181Y-84465940D01*
X170183814Y-84495500D01*
X170183819Y-84495500D01*
X170372786Y-84495500D01*
X170559418Y-84465940D01*
X170739132Y-84407547D01*
X170907499Y-84321760D01*
X171060373Y-84210690D01*
X171193990Y-84077073D01*
X171305060Y-83924199D01*
X171390847Y-83755832D01*
X171449240Y-83576118D01*
X171478800Y-83389486D01*
X171478800Y-83200513D01*
X171449240Y-83013881D01*
X171424412Y-82937470D01*
X171393745Y-82843089D01*
X171391751Y-82773252D01*
X171427831Y-82713419D01*
X171490531Y-82682590D01*
X171559946Y-82690554D01*
X171599358Y-82717093D01*
X174189681Y-85307416D01*
X174223166Y-85368739D01*
X174226000Y-85395097D01*
X174226000Y-92746702D01*
X174206315Y-92813741D01*
X174189681Y-92834383D01*
X168639130Y-98384933D01*
X168577807Y-98418418D01*
X168532051Y-98419725D01*
X168372786Y-98394500D01*
X168372781Y-98394500D01*
X168183819Y-98394500D01*
X168183814Y-98394500D01*
X167997181Y-98424059D01*
X167817463Y-98482454D01*
X167649100Y-98568240D01*
X167584905Y-98614881D01*
X167496227Y-98679310D01*
X167496225Y-98679312D01*
X167496224Y-98679312D01*
X167362612Y-98812924D01*
X167362612Y-98812925D01*
X167362610Y-98812927D01*
X167314910Y-98878579D01*
X167251540Y-98965800D01*
X167165754Y-99134163D01*
X167107359Y-99313881D01*
X167077800Y-99500513D01*
X167077800Y-99689486D01*
X167107359Y-99876118D01*
X167165754Y-100055836D01*
X167251538Y-100224195D01*
X167251540Y-100224199D01*
X167362610Y-100377073D01*
X167496227Y-100510690D01*
X167649101Y-100621760D01*
X167698135Y-100646744D01*
X167817463Y-100707545D01*
X167817465Y-100707545D01*
X167817468Y-100707547D01*
X167892169Y-100731819D01*
X167997181Y-100765940D01*
X168183814Y-100795500D01*
X168183819Y-100795500D01*
X168372786Y-100795500D01*
X168559418Y-100765940D01*
X168566761Y-100763554D01*
X168739132Y-100707547D01*
X168907499Y-100621760D01*
X169060373Y-100510690D01*
X169193990Y-100377073D01*
X169305060Y-100224199D01*
X169390847Y-100055832D01*
X169449240Y-99876118D01*
X169453614Y-99848502D01*
X169478800Y-99689486D01*
X169478800Y-99500513D01*
X169453574Y-99341246D01*
X169462528Y-99271953D01*
X169488363Y-99234170D01*
X175195213Y-93527321D01*
X175195216Y-93527320D01*
X175307020Y-93415516D01*
X175357139Y-93328704D01*
X175386077Y-93278585D01*
X175427000Y-93125858D01*
X175427000Y-92967743D01*
X175427000Y-85819500D01*
X175446685Y-85752461D01*
X175499489Y-85706706D01*
X175551000Y-85695500D01*
X179295963Y-85695500D01*
X179363002Y-85715185D01*
X179408757Y-85767989D01*
X179418701Y-85837147D01*
X179406448Y-85875794D01*
X179406079Y-85876519D01*
X179325754Y-86034163D01*
X179267359Y-86213881D01*
X179237800Y-86400513D01*
X179237800Y-86589486D01*
X179267359Y-86776118D01*
X179325754Y-86955836D01*
X179407761Y-87116782D01*
X179411540Y-87124199D01*
X179522610Y-87277073D01*
X179656227Y-87410690D01*
X179809101Y-87521760D01*
X179822826Y-87528753D01*
X179977463Y-87607545D01*
X179977465Y-87607545D01*
X179977468Y-87607547D01*
X180061956Y-87634999D01*
X180157181Y-87665940D01*
X180343814Y-87695500D01*
X180343819Y-87695500D01*
X180532786Y-87695500D01*
X180719418Y-87665940D01*
X180899132Y-87607547D01*
X181067499Y-87521760D01*
X181220373Y-87410690D01*
X181353990Y-87277073D01*
X181465060Y-87124199D01*
X181550847Y-86955832D01*
X181609240Y-86776118D01*
X181638800Y-86589486D01*
X181638800Y-86400513D01*
X181609240Y-86213881D01*
X181562588Y-86070304D01*
X181550847Y-86034168D01*
X181550845Y-86034165D01*
X181550845Y-86034163D01*
X181470521Y-85876519D01*
X181470151Y-85875794D01*
X181457256Y-85807126D01*
X181483532Y-85742385D01*
X181540639Y-85702128D01*
X181580637Y-85695500D01*
X184403801Y-85695500D01*
X184470840Y-85715185D01*
X184516595Y-85767989D01*
X184527801Y-85819500D01*
X184527801Y-85976518D01*
X184542654Y-86070304D01*
X184600250Y-86183342D01*
X184600252Y-86183344D01*
X184600254Y-86183347D01*
X184689952Y-86273045D01*
X184689954Y-86273046D01*
X184689958Y-86273050D01*
X184802994Y-86330645D01*
X184802998Y-86330647D01*
X184896777Y-86345500D01*
X184901631Y-86345882D01*
X184901536Y-86347087D01*
X184963167Y-86365168D01*
X185008934Y-86417961D01*
X185019770Y-86479229D01*
X185016582Y-86519728D01*
X185648891Y-87152037D01*
X185585307Y-87169075D01*
X185471293Y-87234901D01*
X185378201Y-87327993D01*
X185312375Y-87442007D01*
X185295337Y-87505591D01*
X184663028Y-86873282D01*
X184663027Y-86873282D01*
X184623680Y-86927439D01*
X184527204Y-87116782D01*
X184461542Y-87318869D01*
X184461542Y-87318872D01*
X184428300Y-87528753D01*
X184428300Y-87741246D01*
X184461542Y-87951127D01*
X184461542Y-87951130D01*
X184527204Y-88153217D01*
X184623675Y-88342550D01*
X184663028Y-88396716D01*
X185295336Y-87764407D01*
X185312375Y-87827993D01*
X185378201Y-87942007D01*
X185471293Y-88035099D01*
X185585307Y-88100925D01*
X185648890Y-88117962D01*
X185016582Y-88750269D01*
X185016582Y-88750270D01*
X185070749Y-88789624D01*
X185189929Y-88850350D01*
X185240725Y-88898325D01*
X185257520Y-88966146D01*
X185234982Y-89032281D01*
X185189930Y-89071319D01*
X185122897Y-89105474D01*
X185043274Y-89163324D01*
X184963654Y-89221172D01*
X184963652Y-89221174D01*
X184963651Y-89221174D01*
X184824474Y-89360351D01*
X184824474Y-89360352D01*
X184824472Y-89360354D01*
X184774785Y-89428741D01*
X184708776Y-89519594D01*
X184619417Y-89694970D01*
X184558590Y-89882173D01*
X184527800Y-90076577D01*
X184527800Y-90273422D01*
X184558590Y-90467826D01*
X184619417Y-90655029D01*
X184708776Y-90830405D01*
X184824472Y-90989646D01*
X184963654Y-91128828D01*
X185122895Y-91244524D01*
X185144869Y-91255720D01*
X185299513Y-91334515D01*
X185350309Y-91382489D01*
X185367104Y-91450310D01*
X185344567Y-91516445D01*
X185299513Y-91555485D01*
X185122894Y-91645476D01*
X185032041Y-91711485D01*
X184963654Y-91761172D01*
X184963652Y-91761174D01*
X184963651Y-91761174D01*
X184824474Y-91900351D01*
X184824474Y-91900352D01*
X184824472Y-91900354D01*
X184795444Y-91940307D01*
X184708778Y-92059590D01*
X184708777Y-92059593D01*
X184708776Y-92059595D01*
X184689821Y-92096795D01*
X184641850Y-92147590D01*
X184579338Y-92164500D01*
X180364525Y-92164500D01*
X180259517Y-92192637D01*
X180224514Y-92202016D01*
X180098986Y-92274489D01*
X180098983Y-92274491D01*
X169619384Y-102754089D01*
X169558061Y-102787574D01*
X169488369Y-102782590D01*
X169432436Y-102740718D01*
X169413774Y-102704730D01*
X169390847Y-102634168D01*
X169305060Y-102465801D01*
X169193990Y-102312927D01*
X169060373Y-102179310D01*
X168907499Y-102068240D01*
X168739136Y-101982454D01*
X168559418Y-101924059D01*
X168372786Y-101894500D01*
X168372781Y-101894500D01*
X168183819Y-101894500D01*
X168183814Y-101894500D01*
X167997181Y-101924059D01*
X167817463Y-101982454D01*
X167649100Y-102068240D01*
X167561879Y-102131610D01*
X167496227Y-102179310D01*
X167496225Y-102179312D01*
X167496224Y-102179312D01*
X167362612Y-102312924D01*
X167362612Y-102312925D01*
X167362610Y-102312927D01*
X167314910Y-102378579D01*
X167251540Y-102465800D01*
X167165754Y-102634163D01*
X167107359Y-102813881D01*
X167077800Y-103000513D01*
X167077800Y-103189486D01*
X167107359Y-103376118D01*
X167165754Y-103555836D01*
X167242734Y-103706916D01*
X167251540Y-103724199D01*
X167362610Y-103877073D01*
X167496227Y-104010690D01*
X167649101Y-104121760D01*
X167817468Y-104207547D01*
X167888028Y-104230473D01*
X167945701Y-104269909D01*
X167972900Y-104334268D01*
X167960986Y-104403114D01*
X167937389Y-104436084D01*
X166476972Y-105896502D01*
X166415649Y-105929987D01*
X166345957Y-105925003D01*
X166290024Y-105883131D01*
X166265607Y-105817667D01*
X166268070Y-105787768D01*
X166267247Y-105787638D01*
X166298800Y-105588422D01*
X166298800Y-105391577D01*
X166268009Y-105197173D01*
X166207182Y-105009970D01*
X166160043Y-104917455D01*
X166117824Y-104834595D01*
X166002128Y-104675354D01*
X165862946Y-104536172D01*
X165783325Y-104478324D01*
X165703703Y-104420474D01*
X165527087Y-104330485D01*
X165476290Y-104282511D01*
X165459495Y-104214690D01*
X165482032Y-104148555D01*
X165527087Y-104109515D01*
X165703703Y-104019525D01*
X165703702Y-104019525D01*
X165703705Y-104019524D01*
X165862946Y-103903828D01*
X166002128Y-103764646D01*
X166117824Y-103605405D01*
X166207184Y-103430025D01*
X166268009Y-103242826D01*
X166276458Y-103189481D01*
X166298800Y-103048422D01*
X166298800Y-102851577D01*
X166268009Y-102657173D01*
X166225003Y-102524815D01*
X166207184Y-102469975D01*
X166207182Y-102469972D01*
X166207182Y-102469970D01*
X166155774Y-102369076D01*
X166117824Y-102294595D01*
X166002128Y-102135354D01*
X165862946Y-101996172D01*
X165703705Y-101880476D01*
X165636670Y-101846320D01*
X165585874Y-101798345D01*
X165569079Y-101730524D01*
X165591616Y-101664389D01*
X165636670Y-101625350D01*
X165755854Y-101564622D01*
X165810016Y-101525270D01*
X165810017Y-101525270D01*
X165177708Y-100892962D01*
X165241293Y-100875925D01*
X165355307Y-100810099D01*
X165448399Y-100717007D01*
X165514225Y-100602993D01*
X165531262Y-100539408D01*
X166163570Y-101171717D01*
X166163570Y-101171716D01*
X166202922Y-101117554D01*
X166299395Y-100928217D01*
X166365057Y-100726130D01*
X166365057Y-100726127D01*
X166398300Y-100516246D01*
X166398300Y-100303753D01*
X166365057Y-100093872D01*
X166365057Y-100093869D01*
X166299395Y-99891782D01*
X166202924Y-99702449D01*
X166163570Y-99648282D01*
X166163569Y-99648282D01*
X165531262Y-100280590D01*
X165514225Y-100217007D01*
X165448399Y-100102993D01*
X165355307Y-100009901D01*
X165241293Y-99944075D01*
X165177709Y-99927037D01*
X165810016Y-99294728D01*
X165755850Y-99255375D01*
X165566517Y-99158904D01*
X165364429Y-99093242D01*
X165290121Y-99081473D01*
X165226986Y-99051544D01*
X165190055Y-98992232D01*
X165191053Y-98922370D01*
X165229663Y-98864137D01*
X165293627Y-98836023D01*
X165309519Y-98835000D01*
X166318300Y-98835000D01*
X166318300Y-98714176D01*
X166337985Y-98647137D01*
X166354619Y-98626495D01*
X166366233Y-98614881D01*
X166378800Y-98602314D01*
X166444692Y-98488186D01*
X166478800Y-98360892D01*
X166478800Y-86400513D01*
X169077800Y-86400513D01*
X169077800Y-86589486D01*
X169107359Y-86776118D01*
X169165754Y-86955836D01*
X169247761Y-87116782D01*
X169251540Y-87124199D01*
X169362610Y-87277073D01*
X169496227Y-87410690D01*
X169649101Y-87521760D01*
X169662826Y-87528753D01*
X169817463Y-87607545D01*
X169817465Y-87607545D01*
X169817468Y-87607547D01*
X169901956Y-87634999D01*
X169997181Y-87665940D01*
X170183814Y-87695500D01*
X170183819Y-87695500D01*
X170372786Y-87695500D01*
X170559418Y-87665940D01*
X170739132Y-87607547D01*
X170907499Y-87521760D01*
X171060373Y-87410690D01*
X171193990Y-87277073D01*
X171305060Y-87124199D01*
X171390847Y-86955832D01*
X171449240Y-86776118D01*
X171478800Y-86589486D01*
X171478800Y-86400513D01*
X171449240Y-86213881D01*
X171402588Y-86070304D01*
X171390847Y-86034168D01*
X171390845Y-86034165D01*
X171390845Y-86034163D01*
X171310521Y-85876519D01*
X171305060Y-85865801D01*
X171193990Y-85712927D01*
X171060373Y-85579310D01*
X170907499Y-85468240D01*
X170739136Y-85382454D01*
X170559418Y-85324059D01*
X170372786Y-85294500D01*
X170372781Y-85294500D01*
X170183819Y-85294500D01*
X170183814Y-85294500D01*
X169997181Y-85324059D01*
X169817463Y-85382454D01*
X169649100Y-85468240D01*
X169561879Y-85531610D01*
X169496227Y-85579310D01*
X169496225Y-85579312D01*
X169496224Y-85579312D01*
X169362612Y-85712924D01*
X169362612Y-85712925D01*
X169362610Y-85712927D01*
X169333887Y-85752461D01*
X169251540Y-85865800D01*
X169165754Y-86034163D01*
X169107359Y-86213881D01*
X169077800Y-86400513D01*
X166478800Y-86400513D01*
X166478800Y-84029108D01*
X166444692Y-83901814D01*
X166378800Y-83787686D01*
X166354619Y-83763505D01*
X166321134Y-83702182D01*
X166318300Y-83675824D01*
X166318300Y-83465000D01*
X141117600Y-83465000D01*
X141050561Y-83445315D01*
X141004806Y-83392511D01*
X140993600Y-83341000D01*
X140993600Y-82706900D01*
X141013285Y-82639861D01*
X141066089Y-82594106D01*
X141117600Y-82582900D01*
X169091430Y-82582900D01*
X169158469Y-82602585D01*
G37*
%TD.AperFunction*%
%TA.AperFunction,Conductor*%
G36*
X187720839Y-55615185D02*
G01*
X187766594Y-55667989D01*
X187777800Y-55719500D01*
X187777800Y-91142926D01*
X187758115Y-91209965D01*
X187705311Y-91255720D01*
X187636153Y-91265664D01*
X187572597Y-91236639D01*
X187546413Y-91204926D01*
X187491312Y-91109488D01*
X187491308Y-91109483D01*
X187015356Y-90633531D01*
X186981871Y-90572208D01*
X186985106Y-90507533D01*
X186998009Y-90467826D01*
X187014804Y-90361784D01*
X187028800Y-90273422D01*
X187028800Y-90076577D01*
X186998009Y-89882173D01*
X186937182Y-89694970D01*
X186847823Y-89519594D01*
X186732128Y-89360354D01*
X186592946Y-89221172D01*
X186433705Y-89105476D01*
X186366670Y-89071320D01*
X186315874Y-89023345D01*
X186299079Y-88955524D01*
X186321616Y-88889389D01*
X186366670Y-88850350D01*
X186485854Y-88789622D01*
X186540016Y-88750270D01*
X186540017Y-88750270D01*
X185907708Y-88117962D01*
X185971293Y-88100925D01*
X186085307Y-88035099D01*
X186178399Y-87942007D01*
X186244225Y-87827993D01*
X186261262Y-87764409D01*
X186893570Y-88396717D01*
X186893570Y-88396716D01*
X186932922Y-88342554D01*
X187029395Y-88153217D01*
X187095057Y-87951130D01*
X187095057Y-87951127D01*
X187128300Y-87741246D01*
X187128300Y-87528753D01*
X187095057Y-87318872D01*
X187095057Y-87318869D01*
X187029395Y-87116782D01*
X186932924Y-86927449D01*
X186893570Y-86873282D01*
X186893569Y-86873282D01*
X186261262Y-87505590D01*
X186244225Y-87442007D01*
X186178399Y-87327993D01*
X186085307Y-87234901D01*
X185971293Y-87169075D01*
X185907709Y-87152037D01*
X186540016Y-86519728D01*
X186536829Y-86479229D01*
X186551193Y-86410851D01*
X186600244Y-86361094D01*
X186655046Y-86346897D01*
X186654967Y-86345881D01*
X186659810Y-86345499D01*
X186659818Y-86345499D01*
X186753604Y-86330646D01*
X186866642Y-86273050D01*
X186956350Y-86183342D01*
X187013946Y-86070304D01*
X187013946Y-86070302D01*
X187013947Y-86070301D01*
X187028799Y-85976524D01*
X187028800Y-85976519D01*
X187028799Y-84213482D01*
X187013946Y-84119696D01*
X186956350Y-84006658D01*
X186956346Y-84006654D01*
X186956345Y-84006652D01*
X186866647Y-83916954D01*
X186866644Y-83916952D01*
X186866642Y-83916950D01*
X186789817Y-83877805D01*
X186753601Y-83859352D01*
X186659824Y-83844500D01*
X184896782Y-83844500D01*
X184815819Y-83857323D01*
X184802996Y-83859354D01*
X184689958Y-83916950D01*
X184689957Y-83916951D01*
X184689952Y-83916954D01*
X184600254Y-84006652D01*
X184600251Y-84006657D01*
X184600250Y-84006658D01*
X184595004Y-84016954D01*
X184542652Y-84119698D01*
X184527800Y-84213475D01*
X184527800Y-84370500D01*
X184508115Y-84437539D01*
X184455311Y-84483294D01*
X184403800Y-84494500D01*
X181211375Y-84494500D01*
X181144336Y-84474815D01*
X181098581Y-84422011D01*
X181088637Y-84352853D01*
X181117662Y-84289297D01*
X181138486Y-84270184D01*
X181220373Y-84210690D01*
X181353990Y-84077073D01*
X181465060Y-83924199D01*
X181550847Y-83755832D01*
X181609240Y-83576118D01*
X181638800Y-83389486D01*
X181638800Y-83200513D01*
X181609240Y-83013881D01*
X181550845Y-82834163D01*
X181491194Y-82717093D01*
X181465060Y-82665801D01*
X181353990Y-82512927D01*
X181220373Y-82379310D01*
X181067499Y-82268240D01*
X180899136Y-82182454D01*
X180719418Y-82124059D01*
X180532786Y-82094500D01*
X180532781Y-82094500D01*
X180343819Y-82094500D01*
X180343814Y-82094500D01*
X180157179Y-82124060D01*
X180145440Y-82127874D01*
X180075599Y-82129866D01*
X180019447Y-82097622D01*
X178794916Y-80873091D01*
X178794915Y-80873090D01*
X178669385Y-80800616D01*
X178669386Y-80800616D01*
X178634382Y-80791237D01*
X178529375Y-80763100D01*
X178529372Y-80763100D01*
X171487589Y-80763100D01*
X171420550Y-80743415D01*
X171374795Y-80690611D01*
X171364851Y-80621453D01*
X171377104Y-80582806D01*
X171390844Y-80555839D01*
X171390844Y-80555835D01*
X171390847Y-80555832D01*
X171449240Y-80376118D01*
X171478800Y-80189486D01*
X171478800Y-80000513D01*
X171449240Y-79813881D01*
X171406420Y-79682097D01*
X171390847Y-79634168D01*
X171390845Y-79634165D01*
X171390845Y-79634163D01*
X171345590Y-79545347D01*
X171305060Y-79465801D01*
X171193990Y-79312927D01*
X171060373Y-79179310D01*
X170907499Y-79068240D01*
X170739136Y-78982454D01*
X170559418Y-78924059D01*
X170372786Y-78894500D01*
X170372781Y-78894500D01*
X170183819Y-78894500D01*
X170183814Y-78894500D01*
X169997181Y-78924059D01*
X169817463Y-78982454D01*
X169649100Y-79068240D01*
X169575439Y-79121759D01*
X169496227Y-79179310D01*
X169496225Y-79179312D01*
X169496224Y-79179312D01*
X169362612Y-79312924D01*
X169362612Y-79312925D01*
X169362610Y-79312927D01*
X169337170Y-79347942D01*
X169251540Y-79465800D01*
X169165754Y-79634163D01*
X169107359Y-79813881D01*
X169077800Y-80000513D01*
X169077800Y-80189486D01*
X169107359Y-80376118D01*
X169165755Y-80555839D01*
X169179496Y-80582806D01*
X169192392Y-80651475D01*
X169166115Y-80716215D01*
X169109008Y-80756472D01*
X169069011Y-80763100D01*
X150173187Y-80763100D01*
X150106148Y-80743415D01*
X150085506Y-80726781D01*
X148865619Y-79506894D01*
X148832134Y-79445571D01*
X148829300Y-79419213D01*
X148829300Y-79369755D01*
X148829299Y-79369753D01*
X148824960Y-79347942D01*
X148798537Y-79215103D01*
X148781708Y-79174474D01*
X148738197Y-79069427D01*
X148738190Y-79069414D01*
X148684052Y-78988391D01*
X148663174Y-78921713D01*
X148681659Y-78854333D01*
X148733637Y-78807643D01*
X148787154Y-78795500D01*
X150240162Y-78795500D01*
X150307201Y-78815185D01*
X150340479Y-78846613D01*
X150362610Y-78877073D01*
X150496227Y-79010690D01*
X150649101Y-79121760D01*
X150728647Y-79162290D01*
X150817463Y-79207545D01*
X150817465Y-79207545D01*
X150817468Y-79207547D01*
X150872454Y-79225413D01*
X150997181Y-79265940D01*
X151183814Y-79295500D01*
X151183819Y-79295500D01*
X151372786Y-79295500D01*
X151559418Y-79265940D01*
X151739132Y-79207547D01*
X151907499Y-79121760D01*
X152060373Y-79010690D01*
X152193990Y-78877073D01*
X152305060Y-78724199D01*
X152390847Y-78555832D01*
X152449240Y-78376118D01*
X152454169Y-78344999D01*
X152478800Y-78189486D01*
X152478800Y-78000520D01*
X152475938Y-77982453D01*
X152472910Y-77963332D01*
X152481864Y-77894040D01*
X152507702Y-77856254D01*
X152945938Y-77418019D01*
X153007261Y-77384534D01*
X153033619Y-77381700D01*
X154980370Y-77381700D01*
X155047409Y-77401385D01*
X155093164Y-77454189D01*
X155103108Y-77523347D01*
X155090855Y-77561994D01*
X155073545Y-77595965D01*
X155010309Y-77790582D01*
X154978300Y-77992682D01*
X154978300Y-78197317D01*
X155010309Y-78399417D01*
X155073544Y-78594031D01*
X155166441Y-78776350D01*
X155166447Y-78776359D01*
X155198823Y-78820921D01*
X155198824Y-78820922D01*
X155878300Y-78141446D01*
X155878300Y-78147661D01*
X155905559Y-78249394D01*
X155958220Y-78340606D01*
X156032694Y-78415080D01*
X156123906Y-78467741D01*
X156225639Y-78495000D01*
X156231853Y-78495000D01*
X155552376Y-79174474D01*
X155596950Y-79206859D01*
X155779268Y-79299755D01*
X155973882Y-79362990D01*
X156175983Y-79395000D01*
X156380617Y-79395000D01*
X156582717Y-79362990D01*
X156777331Y-79299755D01*
X156959649Y-79206859D01*
X157004221Y-79174474D01*
X156324747Y-78495000D01*
X156330961Y-78495000D01*
X156432694Y-78467741D01*
X156523906Y-78415080D01*
X156598380Y-78340606D01*
X156651041Y-78249394D01*
X156678300Y-78147661D01*
X156678300Y-78141447D01*
X157357774Y-78820921D01*
X157390159Y-78776349D01*
X157483055Y-78594031D01*
X157546290Y-78399417D01*
X157578300Y-78197317D01*
X157578300Y-77992682D01*
X157546290Y-77790582D01*
X157483054Y-77595965D01*
X157465745Y-77561994D01*
X157452849Y-77493324D01*
X157479126Y-77428584D01*
X157536233Y-77388328D01*
X157576230Y-77381700D01*
X158202981Y-77381700D01*
X158270020Y-77401385D01*
X158290662Y-77418019D01*
X158548897Y-77676254D01*
X158582382Y-77737577D01*
X158583689Y-77783333D01*
X158577800Y-77820513D01*
X158577800Y-78009486D01*
X158607359Y-78196118D01*
X158665754Y-78375836D01*
X158726472Y-78495000D01*
X158751540Y-78544199D01*
X158862610Y-78697073D01*
X158996227Y-78830690D01*
X159149101Y-78941760D01*
X159228647Y-78982290D01*
X159317463Y-79027545D01*
X159317465Y-79027545D01*
X159317468Y-79027547D01*
X159413797Y-79058846D01*
X159497181Y-79085940D01*
X159683814Y-79115500D01*
X159683819Y-79115500D01*
X159872786Y-79115500D01*
X160059418Y-79085940D01*
X160110239Y-79069427D01*
X160239132Y-79027547D01*
X160407499Y-78941760D01*
X160560373Y-78830690D01*
X160693990Y-78697073D01*
X160805060Y-78544199D01*
X160890847Y-78375832D01*
X160949240Y-78196118D01*
X160962897Y-78109893D01*
X160978800Y-78009486D01*
X160978800Y-77820513D01*
X160949240Y-77633881D01*
X160922146Y-77550497D01*
X160890847Y-77454168D01*
X160890845Y-77454165D01*
X160890845Y-77454163D01*
X160845590Y-77365347D01*
X160805060Y-77285801D01*
X160693990Y-77132927D01*
X160560373Y-76999310D01*
X160407499Y-76888240D01*
X160239136Y-76802454D01*
X160135719Y-76768852D01*
X160117495Y-76762930D01*
X160059821Y-76723493D01*
X160032623Y-76659134D01*
X160044538Y-76590288D01*
X160091782Y-76538812D01*
X160117494Y-76527069D01*
X160239132Y-76487547D01*
X160407499Y-76401760D01*
X160560373Y-76290690D01*
X160693990Y-76157073D01*
X160805060Y-76004199D01*
X160890847Y-75835832D01*
X160949240Y-75656118D01*
X160963126Y-75568444D01*
X160978800Y-75469486D01*
X160978800Y-75280513D01*
X160949240Y-75093881D01*
X160890845Y-74914163D01*
X160836520Y-74807545D01*
X160805060Y-74745801D01*
X160693990Y-74592927D01*
X160560373Y-74459310D01*
X160407499Y-74348240D01*
X160360316Y-74324199D01*
X160239136Y-74262454D01*
X160164772Y-74238291D01*
X160117495Y-74222930D01*
X160059821Y-74183493D01*
X160032623Y-74119134D01*
X160044538Y-74050288D01*
X160091782Y-73998812D01*
X160117494Y-73987069D01*
X160239132Y-73947547D01*
X160407499Y-73861760D01*
X160560373Y-73750690D01*
X160693990Y-73617073D01*
X160805060Y-73464199D01*
X160890847Y-73295832D01*
X160949240Y-73116118D01*
X160956073Y-73072974D01*
X160978800Y-72929486D01*
X160978800Y-72740513D01*
X160949240Y-72553881D01*
X160906392Y-72422011D01*
X160890847Y-72374168D01*
X160890845Y-72374165D01*
X160890845Y-72374163D01*
X160814434Y-72224199D01*
X160805060Y-72205801D01*
X160693990Y-72052927D01*
X160560373Y-71919310D01*
X160407499Y-71808240D01*
X160376998Y-71792699D01*
X160239136Y-71722454D01*
X160153631Y-71694672D01*
X160117495Y-71682930D01*
X160059821Y-71643493D01*
X160032623Y-71579134D01*
X160044538Y-71510288D01*
X160091782Y-71458812D01*
X160117494Y-71447069D01*
X160239132Y-71407547D01*
X160407499Y-71321760D01*
X160560373Y-71210690D01*
X160693990Y-71077073D01*
X160805060Y-70924199D01*
X160890847Y-70755832D01*
X160949240Y-70576118D01*
X160965803Y-70471543D01*
X160978800Y-70389486D01*
X160978800Y-70200513D01*
X160949240Y-70013881D01*
X160890845Y-69834163D01*
X160829070Y-69712924D01*
X160805060Y-69665801D01*
X160693990Y-69512927D01*
X160693987Y-69512924D01*
X160691126Y-69508986D01*
X160692202Y-69508203D01*
X160666114Y-69449973D01*
X160676555Y-69380888D01*
X160701292Y-69345532D01*
X161474510Y-68572315D01*
X161546984Y-68446785D01*
X161553781Y-68421420D01*
X161555288Y-68415799D01*
X161567793Y-68369126D01*
X161584500Y-68306775D01*
X161584500Y-63858225D01*
X161584500Y-63850098D01*
X161586527Y-63850098D01*
X161595605Y-63791835D01*
X161641979Y-63739574D01*
X161709246Y-63720681D01*
X161776049Y-63741154D01*
X161795466Y-63756991D01*
X163903481Y-65865006D01*
X163936966Y-65926329D01*
X163939800Y-65952687D01*
X163939800Y-71736575D01*
X163959003Y-71808240D01*
X163977316Y-71876585D01*
X164027190Y-71962971D01*
X164049789Y-72002113D01*
X164049791Y-72002116D01*
X166474337Y-74426662D01*
X166507822Y-74487985D01*
X166502838Y-74557677D01*
X166484733Y-74588447D01*
X166485474Y-74588986D01*
X166482612Y-74592924D01*
X166482610Y-74592927D01*
X166430306Y-74664915D01*
X166371540Y-74745800D01*
X166285754Y-74914163D01*
X166227359Y-75093881D01*
X166197800Y-75280513D01*
X166197800Y-75469486D01*
X166227359Y-75656118D01*
X166285754Y-75835836D01*
X166358641Y-75978884D01*
X166371540Y-76004199D01*
X166482610Y-76157073D01*
X166616227Y-76290690D01*
X166769101Y-76401760D01*
X166848647Y-76442290D01*
X166937463Y-76487545D01*
X166937465Y-76487545D01*
X166937468Y-76487547D01*
X167033797Y-76518846D01*
X167117181Y-76545940D01*
X167303814Y-76575500D01*
X167303819Y-76575500D01*
X167492786Y-76575500D01*
X167679418Y-76545940D01*
X167859132Y-76487547D01*
X168027499Y-76401760D01*
X168180373Y-76290690D01*
X168313990Y-76157073D01*
X168425060Y-76004199D01*
X168510847Y-75835832D01*
X168569240Y-75656118D01*
X168583126Y-75568444D01*
X168598800Y-75469486D01*
X168598800Y-75280516D01*
X168594084Y-75250744D01*
X168603038Y-75181450D01*
X168648033Y-75127998D01*
X168714784Y-75107357D01*
X168782098Y-75126081D01*
X168804238Y-75143663D01*
X169480375Y-75819800D01*
X169513860Y-75881123D01*
X169508876Y-75950815D01*
X169480375Y-75995162D01*
X169362612Y-76112924D01*
X169362612Y-76112925D01*
X169362610Y-76112927D01*
X169320286Y-76171181D01*
X169251540Y-76265800D01*
X169165754Y-76434163D01*
X169107359Y-76613881D01*
X169077800Y-76800513D01*
X169077800Y-76989486D01*
X169107359Y-77176118D01*
X169165754Y-77355836D01*
X169215868Y-77454189D01*
X169251540Y-77524199D01*
X169362610Y-77677073D01*
X169496227Y-77810690D01*
X169649101Y-77921760D01*
X169728340Y-77962134D01*
X169817463Y-78007545D01*
X169817465Y-78007545D01*
X169817468Y-78007547D01*
X169913797Y-78038846D01*
X169997181Y-78065940D01*
X170183814Y-78095500D01*
X170183819Y-78095500D01*
X170372786Y-78095500D01*
X170559418Y-78065940D01*
X170739132Y-78007547D01*
X170907499Y-77921760D01*
X171060373Y-77810690D01*
X171193990Y-77677073D01*
X171305060Y-77524199D01*
X171390847Y-77355832D01*
X171449240Y-77176118D01*
X171469386Y-77048922D01*
X171478800Y-76989486D01*
X171478800Y-76800513D01*
X171449240Y-76613881D01*
X171390845Y-76434163D01*
X171305059Y-76265799D01*
X171284125Y-76236987D01*
X171260644Y-76171181D01*
X171276469Y-76103127D01*
X171326574Y-76054431D01*
X171384442Y-76040100D01*
X177548960Y-76040100D01*
X177615999Y-76059785D01*
X177636642Y-76076420D01*
X177671607Y-76111386D01*
X177671611Y-76111389D01*
X177802714Y-76198990D01*
X177802727Y-76198997D01*
X177948398Y-76259335D01*
X177948403Y-76259337D01*
X178103053Y-76290099D01*
X178103056Y-76290100D01*
X178103058Y-76290100D01*
X178260744Y-76290100D01*
X178260745Y-76290099D01*
X178415397Y-76259337D01*
X178561079Y-76198994D01*
X178692189Y-76111389D01*
X178803689Y-75999889D01*
X178891294Y-75868779D01*
X178951637Y-75723097D01*
X178982400Y-75568442D01*
X178982400Y-75410758D01*
X178982400Y-75410755D01*
X178982399Y-75410753D01*
X178951637Y-75256103D01*
X178920715Y-75181450D01*
X178891297Y-75110427D01*
X178891290Y-75110414D01*
X178803689Y-74979311D01*
X178803686Y-74979307D01*
X178692192Y-74867813D01*
X178692188Y-74867810D01*
X178561085Y-74780209D01*
X178561072Y-74780202D01*
X178415401Y-74719864D01*
X178415389Y-74719861D01*
X178260745Y-74689100D01*
X178260742Y-74689100D01*
X178103058Y-74689100D01*
X178103055Y-74689100D01*
X177948410Y-74719861D01*
X177948398Y-74719864D01*
X177802727Y-74780202D01*
X177802714Y-74780209D01*
X177671611Y-74867810D01*
X177671607Y-74867813D01*
X177636642Y-74902780D01*
X177575320Y-74936266D01*
X177548960Y-74939100D01*
X170989989Y-74939100D01*
X170922950Y-74919415D01*
X170877195Y-74866611D01*
X170867251Y-74797453D01*
X170896276Y-74733897D01*
X170917103Y-74714782D01*
X171060373Y-74610690D01*
X171193990Y-74477073D01*
X171305060Y-74324199D01*
X171390847Y-74155832D01*
X171449240Y-73976118D01*
X171453765Y-73947547D01*
X171478800Y-73789486D01*
X171478800Y-73600513D01*
X171449240Y-73413881D01*
X171404487Y-73276147D01*
X171390847Y-73234168D01*
X171390845Y-73234165D01*
X171390845Y-73234163D01*
X171311254Y-73077958D01*
X171305060Y-73065801D01*
X171193990Y-72912927D01*
X171060373Y-72779310D01*
X170907499Y-72668240D01*
X170901739Y-72665305D01*
X170739136Y-72582454D01*
X170559418Y-72524059D01*
X170372786Y-72494500D01*
X170372781Y-72494500D01*
X170183819Y-72494500D01*
X170183814Y-72494500D01*
X169997179Y-72524060D01*
X169985440Y-72527874D01*
X169915599Y-72529866D01*
X169859447Y-72497622D01*
X169386119Y-72024294D01*
X169352634Y-71962971D01*
X169349800Y-71936613D01*
X169349800Y-71547668D01*
X169369485Y-71480629D01*
X169422289Y-71434874D01*
X169491447Y-71424930D01*
X169546683Y-71447349D01*
X169649101Y-71521760D01*
X169706225Y-71550866D01*
X169817463Y-71607545D01*
X169817465Y-71607545D01*
X169817468Y-71607547D01*
X169854908Y-71619712D01*
X169997181Y-71665940D01*
X170183814Y-71695500D01*
X170183819Y-71695500D01*
X170372786Y-71695500D01*
X170559418Y-71665940D01*
X170565204Y-71664060D01*
X170739132Y-71607547D01*
X170907499Y-71521760D01*
X171060373Y-71410690D01*
X171193990Y-71277073D01*
X171305060Y-71124199D01*
X171390847Y-70955832D01*
X171449240Y-70776118D01*
X171453827Y-70747155D01*
X171478800Y-70589486D01*
X171478800Y-70400513D01*
X171449240Y-70213881D01*
X171390845Y-70034163D01*
X171345590Y-69945347D01*
X171305060Y-69865801D01*
X171193990Y-69712927D01*
X171060373Y-69579310D01*
X170907499Y-69468240D01*
X170871648Y-69449973D01*
X170739136Y-69382454D01*
X170559418Y-69324059D01*
X170372786Y-69294500D01*
X170372781Y-69294500D01*
X170183819Y-69294500D01*
X170183814Y-69294500D01*
X169997179Y-69324060D01*
X169985440Y-69327874D01*
X169915599Y-69329866D01*
X169859447Y-69297622D01*
X169512819Y-68950994D01*
X169479334Y-68889671D01*
X169476500Y-68863313D01*
X169476500Y-68436165D01*
X169496185Y-68369126D01*
X169548989Y-68323371D01*
X169618147Y-68313427D01*
X169656793Y-68325679D01*
X169677186Y-68336070D01*
X169817463Y-68407545D01*
X169817465Y-68407545D01*
X169817468Y-68407547D01*
X169860168Y-68421421D01*
X169997181Y-68465940D01*
X170183814Y-68495500D01*
X170183819Y-68495500D01*
X170372786Y-68495500D01*
X170559418Y-68465940D01*
X170594657Y-68454490D01*
X170739132Y-68407547D01*
X170907499Y-68321760D01*
X171060373Y-68210690D01*
X171193990Y-68077073D01*
X171305060Y-67924199D01*
X171390847Y-67755832D01*
X171449240Y-67576118D01*
X171478800Y-67389486D01*
X171478800Y-67200513D01*
X171449240Y-67013881D01*
X171392518Y-66839312D01*
X171390847Y-66834168D01*
X171390845Y-66834165D01*
X171390845Y-66834163D01*
X171336874Y-66728240D01*
X171305060Y-66665801D01*
X171193990Y-66512927D01*
X171060373Y-66379310D01*
X170907499Y-66268240D01*
X170873542Y-66250938D01*
X170739136Y-66182454D01*
X170559418Y-66124059D01*
X170372786Y-66094500D01*
X170372781Y-66094500D01*
X170183819Y-66094500D01*
X170183814Y-66094500D01*
X169997181Y-66124059D01*
X169817460Y-66182455D01*
X169656794Y-66264319D01*
X169588125Y-66277215D01*
X169523385Y-66250938D01*
X169483128Y-66193832D01*
X169476500Y-66153834D01*
X169476500Y-65236165D01*
X169496185Y-65169126D01*
X169548989Y-65123371D01*
X169618147Y-65113427D01*
X169656793Y-65125679D01*
X169710688Y-65153140D01*
X169817463Y-65207545D01*
X169817465Y-65207545D01*
X169817468Y-65207547D01*
X169905545Y-65236165D01*
X169997181Y-65265940D01*
X170183814Y-65295500D01*
X170183819Y-65295500D01*
X170372786Y-65295500D01*
X170559418Y-65265940D01*
X170739132Y-65207547D01*
X170907499Y-65121760D01*
X171060373Y-65010690D01*
X171193990Y-64877073D01*
X171305060Y-64724199D01*
X171390847Y-64555832D01*
X171412326Y-64489725D01*
X171451764Y-64432050D01*
X171516122Y-64404852D01*
X171584969Y-64416767D01*
X171617938Y-64440363D01*
X179727704Y-72550129D01*
X179761189Y-72611452D01*
X179756205Y-72681144D01*
X179714333Y-72737077D01*
X179712909Y-72738127D01*
X179656233Y-72779305D01*
X179656224Y-72779312D01*
X179522612Y-72912924D01*
X179522612Y-72912925D01*
X179522610Y-72912927D01*
X179475648Y-72977565D01*
X179411540Y-73065800D01*
X179325754Y-73234163D01*
X179267359Y-73413881D01*
X179237800Y-73600513D01*
X179237800Y-73789486D01*
X179267359Y-73976118D01*
X179325754Y-74155836D01*
X179380079Y-74262453D01*
X179411540Y-74324199D01*
X179522610Y-74477073D01*
X179656227Y-74610690D01*
X179809101Y-74721760D01*
X179888647Y-74762290D01*
X179977463Y-74807545D01*
X179977465Y-74807545D01*
X179977468Y-74807547D01*
X180073797Y-74838846D01*
X180157181Y-74865940D01*
X180343814Y-74895500D01*
X180343819Y-74895500D01*
X180532786Y-74895500D01*
X180719418Y-74865940D01*
X180899132Y-74807547D01*
X180915104Y-74799408D01*
X180983772Y-74786512D01*
X181048513Y-74812787D01*
X181088771Y-74869893D01*
X181095400Y-74909893D01*
X181095400Y-75680106D01*
X181075715Y-75747145D01*
X181022911Y-75792900D01*
X180953753Y-75802844D01*
X180915107Y-75790592D01*
X180899136Y-75782455D01*
X180899135Y-75782454D01*
X180899132Y-75782453D01*
X180825115Y-75758403D01*
X180719418Y-75724059D01*
X180532786Y-75694500D01*
X180532781Y-75694500D01*
X180343819Y-75694500D01*
X180343814Y-75694500D01*
X180157181Y-75724059D01*
X179977463Y-75782454D01*
X179809100Y-75868240D01*
X179757108Y-75906015D01*
X179656227Y-75979310D01*
X179656225Y-75979312D01*
X179656224Y-75979312D01*
X179522612Y-76112924D01*
X179522612Y-76112925D01*
X179522610Y-76112927D01*
X179480286Y-76171181D01*
X179411540Y-76265800D01*
X179325754Y-76434163D01*
X179267359Y-76613881D01*
X179237800Y-76800513D01*
X179237800Y-76989486D01*
X179267359Y-77176118D01*
X179325754Y-77355836D01*
X179375868Y-77454189D01*
X179411540Y-77524199D01*
X179522610Y-77677073D01*
X179656227Y-77810690D01*
X179809101Y-77921760D01*
X179888340Y-77962134D01*
X179977463Y-78007545D01*
X179977465Y-78007545D01*
X179977468Y-78007547D01*
X180073797Y-78038846D01*
X180157181Y-78065940D01*
X180343814Y-78095500D01*
X180343819Y-78095500D01*
X180532786Y-78095500D01*
X180719418Y-78065940D01*
X180899132Y-78007547D01*
X180915104Y-77999408D01*
X180983772Y-77986512D01*
X181048513Y-78012787D01*
X181088771Y-78069893D01*
X181095400Y-78109893D01*
X181095400Y-78608012D01*
X181075715Y-78675051D01*
X181059081Y-78695693D01*
X180857151Y-78897622D01*
X180795828Y-78931107D01*
X180731152Y-78927872D01*
X180719420Y-78924060D01*
X180532786Y-78894500D01*
X180532781Y-78894500D01*
X180343819Y-78894500D01*
X180343814Y-78894500D01*
X180157181Y-78924059D01*
X179977463Y-78982454D01*
X179809100Y-79068240D01*
X179735439Y-79121759D01*
X179656227Y-79179310D01*
X179656225Y-79179312D01*
X179656224Y-79179312D01*
X179522612Y-79312924D01*
X179522612Y-79312925D01*
X179522610Y-79312927D01*
X179497170Y-79347942D01*
X179411540Y-79465800D01*
X179325754Y-79634163D01*
X179267359Y-79813881D01*
X179237800Y-80000513D01*
X179237800Y-80189486D01*
X179267359Y-80376118D01*
X179325754Y-80555836D01*
X179376022Y-80654491D01*
X179411540Y-80724199D01*
X179522610Y-80877073D01*
X179656227Y-81010690D01*
X179809101Y-81121760D01*
X179888647Y-81162290D01*
X179977463Y-81207545D01*
X179977465Y-81207545D01*
X179977468Y-81207547D01*
X180051317Y-81231542D01*
X180157181Y-81265940D01*
X180343814Y-81295500D01*
X180343819Y-81295500D01*
X180532786Y-81295500D01*
X180719418Y-81265940D01*
X180899132Y-81207547D01*
X181067499Y-81121760D01*
X181220373Y-81010690D01*
X181353990Y-80877073D01*
X181465060Y-80724199D01*
X181550847Y-80555832D01*
X181609240Y-80376118D01*
X181638800Y-80189486D01*
X181638800Y-80000513D01*
X181611440Y-79827772D01*
X181609240Y-79813882D01*
X181605426Y-79802146D01*
X181603430Y-79732308D01*
X181635674Y-79676149D01*
X182086410Y-79225415D01*
X182158884Y-79099885D01*
X182196400Y-78959875D01*
X182196400Y-69844925D01*
X182158884Y-69704915D01*
X182140580Y-69673211D01*
X182086410Y-69579385D01*
X181030043Y-68523018D01*
X180996558Y-68461695D01*
X181001542Y-68392003D01*
X181043414Y-68336070D01*
X181061428Y-68324853D01*
X181067499Y-68321760D01*
X181220373Y-68210690D01*
X181353990Y-68077073D01*
X181465060Y-67924199D01*
X181550847Y-67755832D01*
X181609240Y-67576118D01*
X181638800Y-67389486D01*
X181638800Y-67200513D01*
X181609240Y-67013881D01*
X181552518Y-66839312D01*
X181550847Y-66834168D01*
X181550845Y-66834165D01*
X181550845Y-66834163D01*
X181496874Y-66728240D01*
X181465060Y-66665801D01*
X181353990Y-66512927D01*
X181220373Y-66379310D01*
X181067499Y-66268240D01*
X181033542Y-66250938D01*
X180899136Y-66182454D01*
X180719418Y-66124059D01*
X180532786Y-66094500D01*
X180532781Y-66094500D01*
X180343819Y-66094500D01*
X180343814Y-66094500D01*
X180157179Y-66124060D01*
X180145440Y-66127874D01*
X180075599Y-66129866D01*
X180019447Y-66097622D01*
X170521106Y-56599281D01*
X170487621Y-56537958D01*
X170492605Y-56468266D01*
X170534477Y-56412333D01*
X170599941Y-56387916D01*
X170608787Y-56387600D01*
X171901013Y-56387600D01*
X171968052Y-56407285D01*
X171988694Y-56423919D01*
X179240922Y-63676147D01*
X179274407Y-63737470D01*
X179271174Y-63802140D01*
X179267360Y-63813879D01*
X179237800Y-64000513D01*
X179237800Y-64189486D01*
X179267359Y-64376118D01*
X179325754Y-64555836D01*
X179405875Y-64713081D01*
X179411540Y-64724199D01*
X179522610Y-64877073D01*
X179656227Y-65010690D01*
X179809101Y-65121760D01*
X179888647Y-65162290D01*
X179977463Y-65207545D01*
X179977465Y-65207545D01*
X179977468Y-65207547D01*
X180065545Y-65236165D01*
X180157181Y-65265940D01*
X180343814Y-65295500D01*
X180343819Y-65295500D01*
X180532786Y-65295500D01*
X180719418Y-65265940D01*
X180899132Y-65207547D01*
X181067499Y-65121760D01*
X181220373Y-65010690D01*
X181353990Y-64877073D01*
X181465060Y-64724199D01*
X181550847Y-64555832D01*
X181609240Y-64376118D01*
X181620891Y-64302557D01*
X181638800Y-64189486D01*
X181638800Y-64000513D01*
X181609240Y-63813881D01*
X181564487Y-63676147D01*
X181550847Y-63634168D01*
X181550845Y-63634165D01*
X181550845Y-63634163D01*
X181480744Y-63496583D01*
X181465060Y-63465801D01*
X181353990Y-63312927D01*
X181220373Y-63179310D01*
X181067499Y-63068240D01*
X180899136Y-62982454D01*
X180719418Y-62924059D01*
X180532786Y-62894500D01*
X180532781Y-62894500D01*
X180343819Y-62894500D01*
X180343814Y-62894500D01*
X180157179Y-62924060D01*
X180145440Y-62927874D01*
X180075599Y-62929866D01*
X180019447Y-62897622D01*
X176095536Y-58973711D01*
X182927800Y-58973711D01*
X182927800Y-59216288D01*
X182956604Y-59435085D01*
X182959462Y-59456789D01*
X182977681Y-59524781D01*
X183022247Y-59691104D01*
X183087138Y-59847763D01*
X183115076Y-59915212D01*
X183236364Y-60125289D01*
X183236366Y-60125292D01*
X183236367Y-60125293D01*
X183384033Y-60317736D01*
X183384039Y-60317743D01*
X183555556Y-60489260D01*
X183555562Y-60489265D01*
X183748011Y-60636936D01*
X183958088Y-60758224D01*
X184182200Y-60851054D01*
X184416511Y-60913838D01*
X184595501Y-60937402D01*
X184657011Y-60945500D01*
X184657012Y-60945500D01*
X184899589Y-60945500D01*
X184961099Y-60937402D01*
X185140089Y-60913838D01*
X185374400Y-60851054D01*
X185598512Y-60758224D01*
X185808589Y-60636936D01*
X186001038Y-60489265D01*
X186172565Y-60317738D01*
X186320236Y-60125289D01*
X186441524Y-59915212D01*
X186534354Y-59691100D01*
X186597138Y-59456789D01*
X186628800Y-59216288D01*
X186628800Y-58973712D01*
X186597138Y-58733211D01*
X186534354Y-58498900D01*
X186441524Y-58274788D01*
X186320236Y-58064711D01*
X186172565Y-57872262D01*
X186172560Y-57872256D01*
X186001043Y-57700739D01*
X186001036Y-57700733D01*
X185808593Y-57553067D01*
X185808592Y-57553066D01*
X185808589Y-57553064D01*
X185598512Y-57431776D01*
X185598505Y-57431773D01*
X185374404Y-57338947D01*
X185140085Y-57276161D01*
X184899589Y-57244500D01*
X184899588Y-57244500D01*
X184657012Y-57244500D01*
X184657011Y-57244500D01*
X184416514Y-57276161D01*
X184182195Y-57338947D01*
X183958094Y-57431773D01*
X183958085Y-57431777D01*
X183748006Y-57553067D01*
X183555563Y-57700733D01*
X183555556Y-57700739D01*
X183384039Y-57872256D01*
X183384033Y-57872263D01*
X183236367Y-58064706D01*
X183115077Y-58274785D01*
X183115073Y-58274794D01*
X183022247Y-58498895D01*
X182959461Y-58733214D01*
X182927800Y-58973711D01*
X176095536Y-58973711D01*
X172929006Y-55807181D01*
X172895521Y-55745858D01*
X172900505Y-55676166D01*
X172942377Y-55620233D01*
X173007841Y-55595816D01*
X173016687Y-55595500D01*
X187653800Y-55595500D01*
X187720839Y-55615185D01*
G37*
%TD.AperFunction*%
%TA.AperFunction,Conductor*%
G36*
X150387252Y-60320385D02*
G01*
X150407894Y-60337019D01*
X151950985Y-61880110D01*
X151950987Y-61880111D01*
X151950991Y-61880114D01*
X152021618Y-61920890D01*
X152021621Y-61920891D01*
X152021626Y-61920894D01*
X152076515Y-61952584D01*
X152216525Y-61990100D01*
X158577571Y-61990100D01*
X158644610Y-62009785D01*
X158690365Y-62062589D01*
X158700309Y-62131747D01*
X158688056Y-62170394D01*
X158665755Y-62214160D01*
X158607359Y-62393881D01*
X158577800Y-62580513D01*
X158577800Y-62769486D01*
X158607359Y-62956118D01*
X158665754Y-63135836D01*
X158738634Y-63278869D01*
X158751540Y-63304199D01*
X158862610Y-63457073D01*
X158996227Y-63590690D01*
X159149101Y-63701760D01*
X159180150Y-63717580D01*
X159317463Y-63787545D01*
X159317465Y-63787545D01*
X159317468Y-63787547D01*
X159398509Y-63813879D01*
X159439103Y-63827069D01*
X159496778Y-63866507D01*
X159523976Y-63930866D01*
X159512061Y-63999712D01*
X159464816Y-64051188D01*
X159439103Y-64062931D01*
X159317463Y-64102454D01*
X159149100Y-64188240D01*
X159073100Y-64243458D01*
X158996227Y-64299310D01*
X158996225Y-64299312D01*
X158996224Y-64299312D01*
X158862612Y-64432924D01*
X158862612Y-64432925D01*
X158862610Y-64432927D01*
X158773311Y-64555836D01*
X158751540Y-64585801D01*
X158745937Y-64596797D01*
X158697961Y-64647592D01*
X158635453Y-64664500D01*
X148693319Y-64664500D01*
X148626280Y-64644815D01*
X148580525Y-64592011D01*
X148570581Y-64522853D01*
X148593001Y-64467615D01*
X148712920Y-64302557D01*
X148809395Y-64113217D01*
X148875057Y-63911130D01*
X148875057Y-63911127D01*
X148908300Y-63701246D01*
X148908300Y-63488753D01*
X148875057Y-63278872D01*
X148875057Y-63278869D01*
X148809395Y-63076782D01*
X148712924Y-62887449D01*
X148673570Y-62833282D01*
X148673569Y-62833282D01*
X148041262Y-63465589D01*
X148024225Y-63402007D01*
X147958399Y-63287993D01*
X147865307Y-63194901D01*
X147751293Y-63129075D01*
X147687709Y-63112037D01*
X148320016Y-62479728D01*
X148265850Y-62440375D01*
X148256254Y-62435486D01*
X148205457Y-62387512D01*
X148188661Y-62319692D01*
X148211197Y-62253556D01*
X148256254Y-62214514D01*
X148265854Y-62209622D01*
X148320016Y-62170270D01*
X148320017Y-62170270D01*
X147687708Y-61537962D01*
X147751293Y-61520925D01*
X147865307Y-61455099D01*
X147958399Y-61362007D01*
X148024225Y-61247993D01*
X148041262Y-61184409D01*
X148673570Y-61816717D01*
X148673570Y-61816716D01*
X148712922Y-61762554D01*
X148809395Y-61573217D01*
X148875057Y-61371130D01*
X148875057Y-61371127D01*
X148908300Y-61161246D01*
X148908300Y-60948753D01*
X148875057Y-60738872D01*
X148875057Y-60738869D01*
X148809395Y-60536782D01*
X148780970Y-60480995D01*
X148768074Y-60412326D01*
X148794350Y-60347586D01*
X148851456Y-60307328D01*
X148891455Y-60300700D01*
X150320213Y-60300700D01*
X150387252Y-60320385D01*
G37*
%TD.AperFunction*%
%TA.AperFunction,Conductor*%
G36*
X147092375Y-61247993D02*
G01*
X147158201Y-61362007D01*
X147251293Y-61455099D01*
X147365307Y-61520925D01*
X147428891Y-61537962D01*
X146828271Y-62138581D01*
X146907011Y-62255895D01*
X146908220Y-62259729D01*
X146911144Y-62262491D01*
X146918643Y-62292778D01*
X146928027Y-62322529D01*
X146926971Y-62326408D01*
X146927938Y-62330312D01*
X146917873Y-62359844D01*
X146909683Y-62389947D01*
X146906697Y-62392640D01*
X146905400Y-62396447D01*
X146860351Y-62435483D01*
X146850740Y-62440380D01*
X146796582Y-62479727D01*
X146796582Y-62479728D01*
X147428891Y-63112037D01*
X147365307Y-63129075D01*
X147251293Y-63194901D01*
X147158201Y-63287993D01*
X147092375Y-63402007D01*
X147075337Y-63465591D01*
X146443028Y-62833282D01*
X146443027Y-62833282D01*
X146403680Y-62887440D01*
X146403678Y-62887443D01*
X146342948Y-63006630D01*
X146294973Y-63057426D01*
X146227152Y-63074220D01*
X146161017Y-63051682D01*
X146121979Y-63006628D01*
X146087825Y-62939596D01*
X146070444Y-62915674D01*
X145972128Y-62780354D01*
X145832946Y-62641172D01*
X145690234Y-62537485D01*
X145673703Y-62525474D01*
X145497087Y-62435485D01*
X145446290Y-62387511D01*
X145429495Y-62319690D01*
X145452032Y-62253555D01*
X145497087Y-62214515D01*
X145673703Y-62124525D01*
X145673702Y-62124525D01*
X145673705Y-62124524D01*
X145832946Y-62008828D01*
X145972128Y-61869646D01*
X146087824Y-61710405D01*
X146121979Y-61643370D01*
X146169952Y-61592575D01*
X146237773Y-61575779D01*
X146303908Y-61598316D01*
X146342948Y-61643370D01*
X146403670Y-61762542D01*
X146403673Y-61762547D01*
X146443028Y-61816716D01*
X147075336Y-61184407D01*
X147092375Y-61247993D01*
G37*
%TD.AperFunction*%
%TD*%
M02*
