%TF.GenerationSoftware,KiCad,Pcbnew,10.0.6*%
%TF.CreationDate,2026-09-28T17:22:17-04:00*%
%TF.ProjectId,DepthSensor,44657074-6853-4656-9e73-6f722e6b6963,rev?*%
%TF.SameCoordinates,Original*%
%TF.FileFunction,Copper,L1,Top*%
%TF.FilePolarity,Positive*%
%FSLAX46Y46*%
G04 Gerber Fmt 4.6, Leading zero omitted, Abs format (unit mm)*
G04 Created by KiCad (PCBNEW 10.0.6) date 2026-09-28 17:22:17*
%MOMM*%
%LPD*%
G01*
G04 APERTURE LIST*
G04 Aperture macros list*
%AMRoundRect*
0 Rectangle with rounded corners*
0 $1 Rounding radius*
0 $2 $3 $4 $5 $6 $7 $8 $9 X,Y pos of 4 corners*
0 Add a 4 corners polygon primitive as box body*
4,1,4,$2,$3,$4,$5,$6,$7,$8,$9,$2,$3,0*
0 Add four circle primitives for the rounded corners*
1,1,$1+$1,$2,$3*
1,1,$1+$1,$4,$5*
1,1,$1+$1,$6,$7*
1,1,$1+$1,$8,$9*
0 Add four rect primitives between the rounded corners*
20,1,$1+$1,$2,$3,$4,$5,0*
20,1,$1+$1,$4,$5,$6,$7,0*
20,1,$1+$1,$6,$7,$8,$9,0*
20,1,$1+$1,$8,$9,$2,$3,0*%
G04 Aperture macros list end*
%TA.AperFunction,ComponentPad*%
%ADD10R,1.500000X1.500000*%
%TD*%
%TA.AperFunction,ComponentPad*%
%ADD11RoundRect,0.250000X0.600000X-0.600000X0.600000X0.600000X-0.600000X0.600000X-0.600000X-0.600000X0*%
%TD*%
%TA.AperFunction,ComponentPad*%
%ADD12C,1.700000*%
%TD*%
%TA.AperFunction,ComponentPad*%
%ADD13C,1.710000*%
%TD*%
%TA.AperFunction,ComponentPad*%
%ADD14RoundRect,0.250000X-0.550000X-0.550000X0.550000X-0.550000X0.550000X0.550000X-0.550000X0.550000X0*%
%TD*%
%TA.AperFunction,ComponentPad*%
%ADD15C,1.600000*%
%TD*%
%TA.AperFunction,ComponentPad*%
%ADD16R,1.600000X1.600000*%
%TD*%
%TA.AperFunction,ComponentPad*%
%ADD17R,1.700000X1.700000*%
%TD*%
%TA.AperFunction,ComponentPad*%
%ADD18RoundRect,0.250001X-0.949999X-0.949999X0.949999X-0.949999X0.949999X0.949999X-0.949999X0.949999X0*%
%TD*%
%TA.AperFunction,ComponentPad*%
%ADD19C,2.400000*%
%TD*%
%TA.AperFunction,ComponentPad*%
%ADD20R,2.600000X2.600000*%
%TD*%
%TA.AperFunction,ComponentPad*%
%ADD21C,2.600000*%
%TD*%
%TA.AperFunction,ComponentPad*%
%ADD22RoundRect,0.250000X1.350000X1.350000X-1.350000X1.350000X-1.350000X-1.350000X1.350000X-1.350000X0*%
%TD*%
%TA.AperFunction,ComponentPad*%
%ADD23C,3.200000*%
%TD*%
%TA.AperFunction,ViaPad*%
%ADD24C,0.800000*%
%TD*%
%TA.AperFunction,Conductor*%
%ADD25C,0.400000*%
%TD*%
%TA.AperFunction,Conductor*%
%ADD26C,0.300000*%
%TD*%
%TA.AperFunction,Conductor*%
%ADD27C,0.600000*%
%TD*%
%TA.AperFunction,Conductor*%
%ADD28C,0.800000*%
%TD*%
G04 APERTURE END LIST*
D10*
%TO.P,TP2,1*%
%TO.N,/+3V3*%
X110778300Y-73095000D03*
%TD*%
D11*
%TO.P,J3,1*%
%TO.N,/LED_A1*%
X129778300Y-63595000D03*
D12*
%TO.P,J3,2*%
%TO.N,/LED_A2*%
X129778300Y-61055000D03*
%TO.P,J3,3*%
%TO.N,/LED_A3*%
X132318300Y-63595000D03*
%TO.P,J3,4*%
%TO.N,/LED_A4*%
X132318300Y-61055000D03*
%TO.P,J3,5*%
%TO.N,/LED_A5*%
X134858300Y-63595000D03*
%TO.P,J3,6*%
%TO.N,/LED_A6*%
X134858300Y-61055000D03*
%TO.P,J3,7*%
%TO.N,/LED_A7*%
X137398300Y-63595000D03*
%TO.P,J3,8*%
%TO.N,/LED_A8*%
X137398300Y-61055000D03*
%TO.P,J3,9*%
%TO.N,/LED_PWR*%
X139938300Y-63595000D03*
%TO.P,J3,10*%
%TO.N,/BTN_N*%
X139938300Y-61055000D03*
%TO.P,J3,11*%
%TO.N,/SW_A*%
X142478300Y-63595000D03*
%TO.P,J3,12*%
X142478300Y-61055000D03*
%TO.P,J3,13*%
%TO.N,/SW_B*%
X145018300Y-63595000D03*
%TO.P,J3,14*%
X145018300Y-61055000D03*
%TO.P,J3,15*%
%TO.N,/GND*%
X147558300Y-63595000D03*
%TO.P,J3,16*%
X147558300Y-61055000D03*
%TD*%
D13*
%TO.P,F1,1*%
%TO.N,/VIN_RAW*%
X119778300Y-127095000D03*
%TO.P,F1,2*%
%TO.N,/SW_A*%
X124878300Y-128295000D03*
%TD*%
D14*
%TO.P,U2,1*%
%TO.N,/LED_CH1*%
X159778300Y-57595000D03*
D15*
%TO.P,U2,2*%
%TO.N,/LED_CH2*%
X159778300Y-60135000D03*
%TO.P,U2,3*%
%TO.N,/LED_CH3*%
X159778300Y-62675000D03*
%TO.P,U2,4*%
%TO.N,/LED_CH4*%
X159778300Y-65215000D03*
%TO.P,U2,5*%
%TO.N,/LED_CH5*%
X159778300Y-67755000D03*
%TO.P,U2,6*%
%TO.N,/LED_CH6*%
X159778300Y-70295000D03*
%TO.P,U2,7*%
%TO.N,/LED_CH7*%
X159778300Y-72835000D03*
%TO.P,U2,8*%
%TO.N,/LED_CH8*%
X159778300Y-75375000D03*
%TO.P,U2,9*%
%TO.N,/V_SYS*%
X159778300Y-77915000D03*
%TO.P,U2,10*%
%TO.N,/GND*%
X167398300Y-77915000D03*
%TO.P,U2,11*%
%TO.N,/DRV_O8*%
X167398300Y-75375000D03*
%TO.P,U2,12*%
%TO.N,/DRV_O7*%
X167398300Y-72835000D03*
%TO.P,U2,13*%
%TO.N,/DRV_O6*%
X167398300Y-70295000D03*
%TO.P,U2,14*%
%TO.N,/DRV_O5*%
X167398300Y-67755000D03*
%TO.P,U2,15*%
%TO.N,/DRV_O4*%
X167398300Y-65215000D03*
%TO.P,U2,16*%
%TO.N,/DRV_O3*%
X167398300Y-62675000D03*
%TO.P,U2,17*%
%TO.N,/DRV_O2*%
X167398300Y-60135000D03*
%TO.P,U2,18*%
%TO.N,/DRV_O1*%
X167398300Y-57595000D03*
%TD*%
%TO.P,C4,1*%
%TO.N,/+3V3*%
X168278300Y-110595000D03*
%TO.P,C4,2*%
%TO.N,/GND*%
X173278300Y-110595000D03*
%TD*%
D16*
%TO.P,RN1,1*%
%TO.N,/GND*%
X127778300Y-71595000D03*
D15*
%TO.P,RN1,2*%
%TO.N,/LED_CH1*%
X130318300Y-71595000D03*
%TO.P,RN1,3*%
%TO.N,/LED_CH2*%
X132858300Y-71595000D03*
%TO.P,RN1,4*%
%TO.N,/LED_CH3*%
X135398300Y-71595000D03*
%TO.P,RN1,5*%
%TO.N,/LED_CH4*%
X137938300Y-71595000D03*
%TO.P,RN1,6*%
%TO.N,/LED_CH5*%
X140478300Y-71595000D03*
%TO.P,RN1,7*%
%TO.N,/LED_CH6*%
X143018300Y-71595000D03*
%TO.P,RN1,8*%
%TO.N,/LED_CH7*%
X145558300Y-71595000D03*
%TO.P,RN1,9*%
%TO.N,/LED_CH8*%
X148098300Y-71595000D03*
%TD*%
D10*
%TO.P,TP5,1*%
%TO.N,/SNS_RX_C*%
X110778300Y-85095000D03*
%TD*%
D15*
%TO.P,R11,1*%
%TO.N,/SNS_TX*%
X168278300Y-103095000D03*
%TO.P,R11,2*%
%TO.N,/SNS_TX_C*%
X178438300Y-103095000D03*
%TD*%
%TO.P,R2,1*%
%TO.N,/DRV_O2*%
X170278300Y-67295000D03*
%TO.P,R2,2*%
%TO.N,/LED_A2*%
X180438300Y-67295000D03*
%TD*%
%TO.P,C8,1*%
%TO.N,/SNS_RX_C*%
X180978300Y-106595000D03*
%TO.P,C8,2*%
%TO.N,/GND*%
X185978300Y-106595000D03*
%TD*%
D17*
%TO.P,J4,1*%
%TO.N,/+3V3*%
X185778300Y-85095000D03*
D12*
%TO.P,J4,2*%
%TO.N,/GND*%
X185778300Y-87635000D03*
%TO.P,J4,3*%
%TO.N,/SPARE_A*%
X185778300Y-90175000D03*
%TO.P,J4,4*%
%TO.N,/SPARE_B*%
X185778300Y-92715000D03*
%TD*%
D11*
%TO.P,J2,1*%
%TO.N,/+3V3*%
X172778300Y-121595000D03*
D12*
%TO.P,J2,2*%
%TO.N,/SNS_TX_C*%
X172778300Y-119055000D03*
%TO.P,J2,3*%
%TO.N,/SNS_RX_C*%
X175318300Y-121595000D03*
%TO.P,J2,4*%
%TO.N,/GND*%
X175318300Y-119055000D03*
%TO.P,J2,5*%
X177858300Y-121595000D03*
%TO.P,J2,6*%
%TO.N,unconnected-(J2-Pin_6-Pad6)*%
X177858300Y-119055000D03*
%TD*%
D10*
%TO.P,TP3,1*%
%TO.N,/GND*%
X110778300Y-77095000D03*
%TD*%
D14*
%TO.P,C1,1*%
%TO.N,/V_SYS*%
X120778300Y-107095000D03*
D15*
%TO.P,C1,2*%
%TO.N,/GND*%
X124278300Y-107095000D03*
%TD*%
%TO.P,R9,1*%
%TO.N,/V_SYS*%
X117778300Y-79095000D03*
%TO.P,R9,2*%
%TO.N,/LED_PWR*%
X127938300Y-79095000D03*
%TD*%
D14*
%TO.P,C6,1*%
%TO.N,/+3V3*%
X179778300Y-111095000D03*
D15*
%TO.P,C6,2*%
%TO.N,/GND*%
X181778300Y-111095000D03*
%TD*%
%TO.P,C2,1*%
%TO.N,/V_SYS*%
X151278300Y-78095000D03*
%TO.P,C2,2*%
%TO.N,/GND*%
X156278300Y-78095000D03*
%TD*%
D10*
%TO.P,TP6,1*%
%TO.N,/SW_A*%
X110778300Y-89095000D03*
%TD*%
D15*
%TO.P,R4,1*%
%TO.N,/DRV_O4*%
X170278300Y-73695000D03*
%TO.P,R4,2*%
%TO.N,/LED_A4*%
X180438300Y-73695000D03*
%TD*%
D18*
%TO.P,D2,1*%
%TO.N,/V_SYS*%
X111778300Y-99095000D03*
D19*
%TO.P,D2,2*%
%TO.N,/GND*%
X121938300Y-99095000D03*
%TD*%
D15*
%TO.P,C3,1*%
%TO.N,/V_SYS*%
X129778300Y-109095000D03*
%TO.P,C3,2*%
%TO.N,/GND*%
X134778300Y-109095000D03*
%TD*%
%TO.P,C7,1*%
%TO.N,/SNS_TX_C*%
X180978300Y-103095000D03*
%TO.P,C7,2*%
%TO.N,/GND*%
X185978300Y-103095000D03*
%TD*%
%TO.P,C5,1*%
%TO.N,/BTN_N*%
X180978300Y-99595000D03*
%TO.P,C5,2*%
%TO.N,/GND*%
X185978300Y-99595000D03*
%TD*%
%TO.P,R10,1*%
%TO.N,/+3V3*%
X168278300Y-99595000D03*
%TO.P,R10,2*%
%TO.N,/BTN_N*%
X178438300Y-99595000D03*
%TD*%
%TO.P,R12,1*%
%TO.N,/SNS_RX*%
X168278300Y-106595000D03*
%TO.P,R12,2*%
%TO.N,/SNS_RX_C*%
X178438300Y-106595000D03*
%TD*%
%TO.P,R5,1*%
%TO.N,/DRV_O5*%
X170278300Y-76895000D03*
%TO.P,R5,2*%
%TO.N,/LED_A5*%
X180438300Y-76895000D03*
%TD*%
D17*
%TO.P,U1,1*%
%TO.N,/+3V3*%
X142188300Y-100410000D03*
D12*
%TO.P,U1,2*%
%TO.N,unconnected-(U1-CHIP_PU-Pad2)*%
X142188300Y-102950000D03*
%TO.P,U1,3*%
%TO.N,/LED_CH1*%
X142188300Y-105490000D03*
%TO.P,U1,4*%
%TO.N,/LED_CH2*%
X142188300Y-108030000D03*
%TO.P,U1,5*%
%TO.N,unconnected-(U1-GPIO4{slash}MTMS-Pad5)*%
X142188300Y-110570000D03*
%TO.P,U1,6*%
%TO.N,unconnected-(U1-GPIO5{slash}MTDI-Pad6)*%
X142188300Y-113110000D03*
%TO.P,U1,7*%
%TO.N,/LED_CH3*%
X142188300Y-115650000D03*
%TO.P,U1,8*%
%TO.N,/LED_CH4*%
X142188300Y-118190000D03*
%TO.P,U1,9*%
%TO.N,unconnected-(U1-GPIO8{slash}RGB_LED-Pad9)*%
X142188300Y-120730000D03*
%TO.P,U1,10*%
%TO.N,/LED_CH5*%
X142188300Y-123270000D03*
%TO.P,U1,11*%
%TO.N,/LED_CH6*%
X142188300Y-125810000D03*
%TO.P,U1,12*%
%TO.N,/LED_CH7*%
X142188300Y-128350000D03*
%TO.P,U1,13*%
%TO.N,/GND*%
X142188300Y-130890000D03*
%TO.P,U1,14*%
%TO.N,/V_SYS*%
X142188300Y-133430000D03*
%TO.P,U1,15*%
%TO.N,/GND*%
X142188300Y-135970000D03*
%TO.P,U1,16*%
X165048300Y-100410000D03*
%TO.P,U1,17*%
%TO.N,unconnected-(U1-GPIO16{slash}U0TXD-Pad17)*%
X165048300Y-102950000D03*
%TO.P,U1,18*%
%TO.N,unconnected-(U1-GPIO17{slash}U0RXD-Pad18)*%
X165048300Y-105490000D03*
%TO.P,U1,19*%
%TO.N,/SNS_RX*%
X165048300Y-108030000D03*
%TO.P,U1,20*%
%TO.N,/SNS_TX*%
X165048300Y-110570000D03*
%TO.P,U1,21*%
%TO.N,/SPARE_B*%
X165048300Y-113110000D03*
%TO.P,U1,22*%
%TO.N,/SPARE_A*%
X165048300Y-115650000D03*
%TO.P,U1,23*%
%TO.N,/BTN_N*%
X165048300Y-118190000D03*
%TO.P,U1,24*%
%TO.N,/LED_CH8*%
X165048300Y-120730000D03*
%TO.P,U1,25*%
%TO.N,unconnected-(U1-GPIO15-Pad25)*%
X165048300Y-123270000D03*
%TO.P,U1,26*%
%TO.N,unconnected-(U1-GPIO9{slash}BOOT-Pad26)*%
X165048300Y-125810000D03*
%TO.P,U1,27*%
%TO.N,/GND*%
X165048300Y-128350000D03*
%TO.P,U1,28*%
%TO.N,unconnected-(U1-GPIO13{slash}USB_D+-Pad28)*%
X165048300Y-130890000D03*
%TO.P,U1,29*%
%TO.N,unconnected-(U1-GPIO12{slash}USB_D--Pad29)*%
X165048300Y-133430000D03*
%TO.P,U1,30*%
%TO.N,/GND*%
X165048300Y-135970000D03*
%TD*%
D15*
%TO.P,R3,1*%
%TO.N,/DRV_O3*%
X170278300Y-70495000D03*
%TO.P,R3,2*%
%TO.N,/LED_A3*%
X180438300Y-70495000D03*
%TD*%
D20*
%TO.P,J1,1*%
%TO.N,/VIN_RAW*%
X133618300Y-133395000D03*
D21*
%TO.P,J1,2*%
%TO.N,/GND*%
X133618300Y-139395000D03*
%TO.P,J1,3*%
%TO.N,unconnected-(J1-Pad3)*%
X138318300Y-136395000D03*
%TD*%
D15*
%TO.P,R1,1*%
%TO.N,/DRV_O1*%
X170278300Y-64095000D03*
%TO.P,R1,2*%
%TO.N,/LED_A1*%
X180438300Y-64095000D03*
%TD*%
D10*
%TO.P,TP4,1*%
%TO.N,/SNS_TX_C*%
X110778300Y-81095000D03*
%TD*%
%TO.P,TP1,1*%
%TO.N,/V_SYS*%
X110778300Y-69095000D03*
%TD*%
D15*
%TO.P,R6,1*%
%TO.N,/DRV_O6*%
X170278300Y-80095000D03*
%TO.P,R6,2*%
%TO.N,/LED_A6*%
X180438300Y-80095000D03*
%TD*%
D22*
%TO.P,D1,1*%
%TO.N,/V_SYS*%
X130778300Y-118095000D03*
D23*
%TO.P,D1,2*%
%TO.N,/SW_B*%
X115538300Y-118095000D03*
%TD*%
D15*
%TO.P,R8,1*%
%TO.N,/DRV_O8*%
X170278300Y-86495000D03*
%TO.P,R8,2*%
%TO.N,/LED_A8*%
X180438300Y-86495000D03*
%TD*%
%TO.P,R7,1*%
%TO.N,/DRV_O7*%
X170278300Y-83295000D03*
%TO.P,R7,2*%
%TO.N,/LED_A7*%
X180438300Y-83295000D03*
%TD*%
D24*
%TO.N,/LED_A5*%
X157563100Y-58848200D03*
%TO.N,/LED_A6*%
X134858300Y-56933700D03*
%TO.N,/LED_A7*%
X148028800Y-79448600D03*
X142718000Y-73505400D03*
%TO.N,/LED_A8*%
X178181900Y-75489600D03*
%TO.N,/LED_CH1*%
X139754000Y-76486200D03*
%TO.N,/LED_CH3*%
X138332800Y-73058900D03*
%TO.N,/LED_CH6*%
X136865900Y-74704100D03*
%TO.N,/LED_CH7*%
X136144100Y-77278000D03*
%TO.N,/LED_PWR*%
X140652400Y-68468700D03*
X141688400Y-79269100D03*
%TD*%
%TO.N,/+3V3*%
D25*
X182805100Y-88068200D02*
X185778300Y-85095000D01*
X172778300Y-121595000D02*
X168278300Y-117095000D01*
X182805100Y-108068200D02*
X182805100Y-88068200D01*
X168278300Y-117095000D02*
X168278300Y-110595000D01*
X179778300Y-111095000D02*
X182805100Y-108068200D01*
%TO.N,/BTN_N*%
D26*
X168470500Y-90631100D02*
X177434400Y-99595000D01*
X141243100Y-59750200D02*
X148094400Y-59750200D01*
X159317800Y-74105000D02*
X160211000Y-74105000D01*
X164337100Y-79016600D02*
X168470500Y-83150000D01*
X168470500Y-83150000D02*
X168470500Y-90631100D01*
X148094400Y-59750200D02*
X155596200Y-67252000D01*
X155596200Y-70383400D02*
X159317800Y-74105000D01*
X177434400Y-99595000D02*
X178438300Y-99595000D01*
X139938300Y-61055000D02*
X141243100Y-59750200D01*
X166663300Y-110366100D02*
X177434400Y-99595000D01*
X160211000Y-74105000D02*
X164337100Y-78231100D01*
X164337100Y-78231100D02*
X164337100Y-79016600D01*
X165048300Y-118190000D02*
X166663300Y-116575000D01*
X166663300Y-116575000D02*
X166663300Y-110366100D01*
X155596200Y-67252000D02*
X155596200Y-70383400D01*
%TO.N,/DRV_O1*%
X170278300Y-60475000D02*
X167398300Y-57595000D01*
X170278300Y-64095000D02*
X170278300Y-60475000D01*
%TO.N,/DRV_O2*%
X169023800Y-61760500D02*
X169023800Y-66040500D01*
X169023800Y-66040500D02*
X170278300Y-67295000D01*
X167398300Y-60135000D02*
X169023800Y-61760500D01*
%TO.N,/DRV_O5*%
X170278300Y-76895000D02*
X168748800Y-75365500D01*
X168748800Y-75365500D02*
X168748800Y-69105500D01*
X168748800Y-69105500D02*
X167398300Y-67755000D01*
%TO.N,/DRV_O6*%
X171507100Y-81323800D02*
X171507100Y-83778100D01*
X169022200Y-83783600D02*
X169022200Y-82921500D01*
X165570900Y-72122400D02*
X167398300Y-70295000D01*
X169786300Y-84547700D02*
X169022200Y-83783600D01*
X170278300Y-80095000D02*
X171507100Y-81323800D01*
X171507100Y-83778100D02*
X170737500Y-84547700D01*
X165570900Y-79470200D02*
X165570900Y-72122400D01*
X170737500Y-84547700D02*
X169786300Y-84547700D01*
X169022200Y-82921500D02*
X165570900Y-79470200D01*
%TO.N,/DRV_O7*%
X166136900Y-79153600D02*
X170278300Y-83295000D01*
X167398300Y-72835000D02*
X166136900Y-74096400D01*
X166136900Y-74096400D02*
X166136900Y-79153600D01*
%TO.N,/DRV_O8*%
X170126700Y-78495000D02*
X167398300Y-75766600D01*
X167398300Y-75766600D02*
X167398300Y-75375000D01*
X172058800Y-84714500D02*
X172058800Y-80173600D01*
X170278300Y-86495000D02*
X172058800Y-84714500D01*
X172058800Y-80173600D02*
X170380200Y-78495000D01*
X170380200Y-78495000D02*
X170126700Y-78495000D01*
%TO.N,/GND*%
D27*
X166542300Y-134476000D02*
X166542300Y-129844000D01*
X147558300Y-67467000D02*
X132447500Y-67467000D01*
X134778300Y-78071500D02*
X134778300Y-109095000D01*
X147558300Y-63595000D02*
X147558300Y-67467000D01*
X134778300Y-109095000D02*
X134778300Y-123480000D01*
X128499900Y-71414600D02*
X128499900Y-71595000D01*
X134778300Y-123480000D02*
X142188300Y-130890000D01*
X185978300Y-99595000D02*
X185978300Y-103095000D01*
X175318300Y-112635000D02*
X175318300Y-119055000D01*
X124278300Y-101435000D02*
X121938300Y-99095000D01*
X173278300Y-110595000D02*
X175318300Y-112635000D01*
X128499900Y-71595000D02*
X127778300Y-71595000D01*
X128499900Y-71595000D02*
X128499900Y-71793100D01*
X147558300Y-67467000D02*
X156278300Y-76187000D01*
X166542300Y-129844000D02*
X165048300Y-128350000D01*
X147558300Y-61055000D02*
X147558300Y-63595000D01*
X128499900Y-71793100D02*
X134778300Y-78071500D01*
X156278300Y-76187000D02*
X156278300Y-78095000D01*
X132447500Y-67467000D02*
X128499900Y-71414600D01*
X185978300Y-103095000D02*
X185978300Y-106595000D01*
X165048300Y-135970000D02*
X166542300Y-134476000D01*
X124278300Y-107095000D02*
X124278300Y-101435000D01*
%TO.N,/LED_A3*%
D26*
X166883600Y-66550300D02*
X167961700Y-66550300D01*
X164278300Y-63945000D02*
X166883600Y-66550300D01*
X133588300Y-62325000D02*
X137957100Y-62325000D01*
X169032900Y-67621500D02*
X169032900Y-67762700D01*
X169949600Y-68679400D02*
X178622700Y-68679400D01*
X140053400Y-59162200D02*
X152496500Y-59162200D01*
X138668300Y-61613800D02*
X138668300Y-60547300D01*
X178622700Y-68679400D02*
X180438300Y-70495000D01*
X157279300Y-63945000D02*
X164278300Y-63945000D01*
X138668300Y-60547300D02*
X140053400Y-59162200D01*
X152496500Y-59162200D02*
X157279300Y-63945000D01*
X137957100Y-62325000D02*
X138668300Y-61613800D01*
X169032900Y-67762700D02*
X169949600Y-68679400D01*
X167961700Y-66550300D02*
X169032900Y-67621500D01*
X132318300Y-63595000D02*
X133588300Y-62325000D01*
%TO.N,/LED_A5*%
X181645000Y-75688300D02*
X181645000Y-69955700D01*
X180778900Y-69089600D02*
X180477500Y-69089600D01*
X180477500Y-69089600D02*
X169067900Y-57680000D01*
X181645000Y-69955700D02*
X180778900Y-69089600D01*
X167948700Y-56380000D02*
X158930500Y-56380000D01*
X180438300Y-76895000D02*
X181645000Y-75688300D01*
X158930500Y-56380000D02*
X157563200Y-57747300D01*
X169067900Y-57680000D02*
X169067900Y-57499200D01*
X157563200Y-58848200D02*
X157563100Y-58848200D01*
X157563200Y-57747300D02*
X157563200Y-58848200D01*
X169067900Y-57499200D02*
X167948700Y-56380000D01*
%TO.N,/LED_A6*%
X134858300Y-61055000D02*
X134858300Y-56933700D01*
%TO.N,/LED_A7*%
X148028800Y-78816200D02*
X148028800Y-79448600D01*
X142718000Y-73505400D02*
X148028800Y-78816200D01*
%TO.N,/LED_A8*%
X178181900Y-84238600D02*
X178181900Y-75489600D01*
X180438300Y-86495000D02*
X178181900Y-84238600D01*
%TO.N,/LED_CH1*%
X139754000Y-103152000D02*
X142092000Y-105490000D01*
X139754000Y-76486200D02*
X139754000Y-103152000D01*
X142092000Y-105490000D02*
X142188300Y-105490000D01*
%TO.N,/LED_CH2*%
X138952300Y-104794000D02*
X142188300Y-108030000D01*
X138424700Y-70348800D02*
X139144300Y-71068400D01*
X132858300Y-71595000D02*
X134104500Y-70348800D01*
X134104500Y-70348800D02*
X138424700Y-70348800D01*
X138952300Y-76154200D02*
X138952300Y-104794000D01*
X139144300Y-75962200D02*
X138952300Y-76154200D01*
X139144300Y-71068400D02*
X139144300Y-75962200D01*
%TO.N,/LED_CH3*%
X138332800Y-111794500D02*
X138332800Y-73058900D01*
X142188300Y-115650000D02*
X138332800Y-111794500D01*
%TO.N,/LED_CH4*%
X137531100Y-72002200D02*
X137531100Y-74003100D01*
X137695200Y-113696900D02*
X142188300Y-118190000D01*
X137938300Y-71595000D02*
X137531100Y-72002200D01*
X137531100Y-74003100D02*
X137695200Y-74167200D01*
X137695200Y-74167200D02*
X137695200Y-113696900D01*
%TO.N,/LED_CH5*%
X143478100Y-104924100D02*
X142772500Y-104218500D01*
X140478300Y-103032000D02*
X140478300Y-76895700D01*
X142772500Y-104218500D02*
X141664800Y-104218500D01*
X140555700Y-76818300D02*
X140555700Y-71672400D01*
X141664800Y-104218500D02*
X140478300Y-103032000D01*
X142188300Y-123270000D02*
X143478100Y-121980200D01*
X140478300Y-76895700D02*
X140555700Y-76818300D01*
X143478100Y-121980200D02*
X143478100Y-104924100D01*
X140555700Y-71672400D02*
X140478300Y-71595000D01*
%TO.N,/LED_CH6*%
X136945800Y-120567500D02*
X136945800Y-74784000D01*
X142188300Y-125810000D02*
X136945800Y-120567500D01*
X136945800Y-74784000D02*
X136865900Y-74704100D01*
%TO.N,/LED_CH7*%
X142188300Y-128350000D02*
X136144100Y-122305800D01*
X136144100Y-122305800D02*
X136144100Y-77278000D01*
%TO.N,/LED_CH8*%
X166728900Y-82325600D02*
X166728900Y-103054100D01*
X163186800Y-105554200D02*
X163186800Y-118868500D01*
X166728900Y-103054100D02*
X165563000Y-104220000D01*
X163186800Y-118868500D02*
X165048300Y-120730000D01*
X165563000Y-104220000D02*
X164521000Y-104220000D01*
X164521000Y-104220000D02*
X163186800Y-105554200D01*
X159778300Y-75375000D02*
X166728900Y-82325600D01*
%TO.N,/LED_PWR*%
X140652400Y-68468700D02*
X141688400Y-69504700D01*
X141688400Y-69504700D02*
X141688400Y-79269100D01*
%TO.N,/SNS_RX_C*%
X176642100Y-122918800D02*
X178423200Y-122918800D01*
X175318300Y-121595000D02*
X176642100Y-122918800D01*
X178423200Y-122918800D02*
X179168500Y-122173500D01*
X179168500Y-122173500D02*
X179168500Y-112670900D01*
X178438300Y-111940700D02*
X178438300Y-106595000D01*
X179168500Y-112670900D02*
X178438300Y-111940700D01*
%TO.N,/SNS_TX*%
X165615900Y-106760000D02*
X168278300Y-104097600D01*
X163748000Y-109269700D02*
X163748000Y-107526200D01*
X165048300Y-110570000D02*
X163748000Y-109269700D01*
X164514200Y-106760000D02*
X165615900Y-106760000D01*
X163748000Y-107526200D02*
X164514200Y-106760000D01*
X168278300Y-104097600D02*
X168278300Y-103095000D01*
%TO.N,/SNS_TX_C*%
X172016600Y-109516700D02*
X172016600Y-118293300D01*
X178438300Y-103095000D02*
X172016600Y-109516700D01*
X172016600Y-118293300D02*
X172778300Y-119055000D01*
%TO.N,/SW_A*%
D28*
X109815700Y-91509300D02*
X110778300Y-90546700D01*
X110436700Y-101010500D02*
X109815700Y-100389500D01*
X129975200Y-65208300D02*
X121574000Y-73609500D01*
X140865000Y-65208300D02*
X129975200Y-65208300D01*
X121574000Y-73609500D02*
X121574000Y-92652700D01*
X120034600Y-123451300D02*
X117588200Y-123451300D01*
X113216200Y-119079300D02*
X113216200Y-101010500D01*
X117588200Y-123451300D02*
X113216200Y-119079300D01*
X142478300Y-61055000D02*
X142478300Y-63595000D01*
X142478300Y-63595000D02*
X140865000Y-65208300D01*
X124878300Y-128295000D02*
X120034600Y-123451300D01*
X110778300Y-89095000D02*
X110778300Y-90546700D01*
X113216200Y-101010500D02*
X110436700Y-101010500D01*
X109815700Y-100389500D02*
X109815700Y-91509300D01*
X121574000Y-92652700D02*
X113216200Y-101010500D01*
%TO.N,/SW_B*%
X115538300Y-118095000D02*
X125823500Y-107809800D01*
X142242700Y-66370600D02*
X145018300Y-63595000D01*
X125823500Y-70956900D02*
X130409800Y-66370600D01*
X145018300Y-61055000D02*
X145018300Y-63595000D01*
X125823500Y-107809800D02*
X125823500Y-70956900D01*
X130409800Y-66370600D02*
X142242700Y-66370600D01*
%TO.N,/V_SYS*%
D27*
X111778300Y-99095000D02*
X117778300Y-93095000D01*
X117778300Y-93095000D02*
X117778300Y-79095000D01*
X129778300Y-109095000D02*
X129778300Y-117095000D01*
X117778300Y-77446700D02*
X110778300Y-70446700D01*
X117778300Y-79095000D02*
X117778300Y-77446700D01*
X129778300Y-117095000D02*
X130778300Y-118095000D01*
X110778300Y-69095000D02*
X110778300Y-70446700D01*
%TD*%
%TA.AperFunction,Conductor*%
%TO.N,/GND*%
G36*
X167220839Y-41615185D02*
G01*
X167266594Y-41667989D01*
X167277800Y-41719500D01*
X167277800Y-55160891D01*
X167311908Y-55288187D01*
X167344854Y-55345250D01*
X167377800Y-55402314D01*
X167470986Y-55495500D01*
X167585114Y-55561392D01*
X167675928Y-55585725D01*
X167735589Y-55622090D01*
X167766118Y-55684937D01*
X167757823Y-55754312D01*
X167713338Y-55808190D01*
X167646786Y-55829465D01*
X167643835Y-55829500D01*
X158858025Y-55829500D01*
X158753017Y-55857637D01*
X158718014Y-55867016D01*
X158592486Y-55939489D01*
X158592483Y-55939491D01*
X157122689Y-57409285D01*
X157102654Y-57443989D01*
X157074198Y-57493277D01*
X157050216Y-57534815D01*
X157012700Y-57674825D01*
X157012700Y-57674827D01*
X157012700Y-58215159D01*
X156993015Y-58282198D01*
X156976381Y-58302840D01*
X156941313Y-58337907D01*
X156941310Y-58337911D01*
X156853709Y-58469014D01*
X156853702Y-58469027D01*
X156793364Y-58614698D01*
X156793361Y-58614710D01*
X156762600Y-58769353D01*
X156762600Y-58927046D01*
X156793361Y-59081689D01*
X156793364Y-59081701D01*
X156853702Y-59227372D01*
X156853709Y-59227385D01*
X156941310Y-59358488D01*
X156941313Y-59358492D01*
X157052807Y-59469986D01*
X157052811Y-59469989D01*
X157183914Y-59557590D01*
X157183927Y-59557597D01*
X157329598Y-59617935D01*
X157329603Y-59617937D01*
X157484253Y-59648699D01*
X157484256Y-59648700D01*
X157484258Y-59648700D01*
X157641944Y-59648700D01*
X157641945Y-59648699D01*
X157796597Y-59617937D01*
X157942279Y-59557594D01*
X158073389Y-59469989D01*
X158184889Y-59358489D01*
X158272494Y-59227379D01*
X158275836Y-59219312D01*
X158286167Y-59194366D01*
X158332837Y-59081697D01*
X158363600Y-58927042D01*
X158363600Y-58769358D01*
X158363600Y-58769355D01*
X158363599Y-58769353D01*
X158351305Y-58707547D01*
X158332837Y-58614703D01*
X158289754Y-58510690D01*
X158272497Y-58469027D01*
X158272490Y-58469014D01*
X158184889Y-58337911D01*
X158184886Y-58337907D01*
X158150019Y-58303040D01*
X158116534Y-58241717D01*
X158113700Y-58215359D01*
X158113700Y-58026687D01*
X158133385Y-57959648D01*
X158150019Y-57939006D01*
X158366119Y-57722906D01*
X158427442Y-57689421D01*
X158497134Y-57694405D01*
X158553067Y-57736277D01*
X158577484Y-57801741D01*
X158577800Y-57810587D01*
X158577800Y-58210701D01*
X158580701Y-58247567D01*
X158580702Y-58247573D01*
X158626554Y-58405393D01*
X158626555Y-58405396D01*
X158710217Y-58546862D01*
X158710223Y-58546870D01*
X158826429Y-58663076D01*
X158826433Y-58663079D01*
X158826435Y-58663081D01*
X158967902Y-58746744D01*
X158969021Y-58747069D01*
X159125726Y-58792597D01*
X159125729Y-58792597D01*
X159125731Y-58792598D01*
X159162606Y-58795500D01*
X159162614Y-58795500D01*
X159246390Y-58795500D01*
X159313429Y-58815185D01*
X159359184Y-58867989D01*
X159369128Y-58937147D01*
X159340103Y-59000703D01*
X159302685Y-59029985D01*
X159149100Y-59108240D01*
X159061879Y-59171610D01*
X158996227Y-59219310D01*
X158996225Y-59219312D01*
X158996224Y-59219312D01*
X158862612Y-59352924D01*
X158862612Y-59352925D01*
X158862610Y-59352927D01*
X158858570Y-59358488D01*
X158751540Y-59505800D01*
X158665754Y-59674163D01*
X158607359Y-59853881D01*
X158577800Y-60040513D01*
X158577800Y-60229486D01*
X158607359Y-60416118D01*
X158665754Y-60595836D01*
X158748495Y-60758222D01*
X158751540Y-60764199D01*
X158862610Y-60917073D01*
X158996227Y-61050690D01*
X159149101Y-61161760D01*
X159228647Y-61202290D01*
X159317463Y-61247545D01*
X159317465Y-61247545D01*
X159317468Y-61247547D01*
X159407034Y-61276649D01*
X159439103Y-61287069D01*
X159496778Y-61326507D01*
X159523976Y-61390866D01*
X159512061Y-61459712D01*
X159464816Y-61511188D01*
X159439103Y-61522931D01*
X159317463Y-61562454D01*
X159149100Y-61648240D01*
X159094342Y-61688025D01*
X158996227Y-61759310D01*
X158996225Y-61759312D01*
X158996224Y-61759312D01*
X158862612Y-61892924D01*
X158862612Y-61892925D01*
X158862610Y-61892927D01*
X158814910Y-61958579D01*
X158751540Y-62045800D01*
X158665754Y-62214163D01*
X158607359Y-62393881D01*
X158577800Y-62580513D01*
X158577800Y-62769486D01*
X158607359Y-62956118D01*
X158665754Y-63135836D01*
X158705686Y-63214205D01*
X158718582Y-63282874D01*
X158692306Y-63347615D01*
X158635199Y-63387872D01*
X158595201Y-63394500D01*
X157558686Y-63394500D01*
X157491647Y-63374815D01*
X157471005Y-63358181D01*
X155167823Y-61054999D01*
X152834515Y-58721690D01*
X152708985Y-58649216D01*
X152708980Y-58649214D01*
X152658600Y-58635714D01*
X152658600Y-58635715D01*
X152580208Y-58614710D01*
X152568975Y-58611700D01*
X139980925Y-58611700D01*
X139891305Y-58635714D01*
X139840914Y-58649216D01*
X139715386Y-58721689D01*
X139715383Y-58721691D01*
X138359047Y-60078026D01*
X138297724Y-60111511D01*
X138228032Y-60106527D01*
X138198486Y-60090666D01*
X138053705Y-59985476D01*
X138016502Y-59966520D01*
X137878329Y-59896117D01*
X137691126Y-59835290D01*
X137496722Y-59804500D01*
X137496717Y-59804500D01*
X137299883Y-59804500D01*
X137299878Y-59804500D01*
X137105473Y-59835290D01*
X136918270Y-59896117D01*
X136742894Y-59985476D01*
X136667143Y-60040513D01*
X136583654Y-60101172D01*
X136583652Y-60101174D01*
X136583651Y-60101174D01*
X136444474Y-60240351D01*
X136444474Y-60240352D01*
X136444472Y-60240354D01*
X136428371Y-60262515D01*
X136328776Y-60399594D01*
X136238785Y-60576213D01*
X136190811Y-60627009D01*
X136122990Y-60643804D01*
X136056855Y-60621267D01*
X136017815Y-60576213D01*
X135954397Y-60451748D01*
X135927824Y-60399595D01*
X135812128Y-60240354D01*
X135672946Y-60101172D01*
X135513705Y-59985476D01*
X135476503Y-59966520D01*
X135425708Y-59918545D01*
X135408800Y-59856036D01*
X135408800Y-57566640D01*
X135428485Y-57499601D01*
X135445120Y-57478958D01*
X135480086Y-57443992D01*
X135480089Y-57443989D01*
X135567694Y-57312879D01*
X135628037Y-57167197D01*
X135658800Y-57012542D01*
X135658800Y-56854858D01*
X135658800Y-56854855D01*
X135658799Y-56854853D01*
X135628038Y-56700210D01*
X135628037Y-56700203D01*
X135628035Y-56700198D01*
X135567697Y-56554527D01*
X135567690Y-56554514D01*
X135480089Y-56423411D01*
X135480086Y-56423407D01*
X135368592Y-56311913D01*
X135368588Y-56311910D01*
X135237485Y-56224309D01*
X135237472Y-56224302D01*
X135091801Y-56163964D01*
X135091789Y-56163961D01*
X134937145Y-56133200D01*
X134937142Y-56133200D01*
X134779458Y-56133200D01*
X134779455Y-56133200D01*
X134624810Y-56163961D01*
X134624798Y-56163964D01*
X134479127Y-56224302D01*
X134479114Y-56224309D01*
X134348011Y-56311910D01*
X134348007Y-56311913D01*
X134236513Y-56423407D01*
X134236510Y-56423411D01*
X134148909Y-56554514D01*
X134148902Y-56554527D01*
X134088564Y-56700198D01*
X134088561Y-56700210D01*
X134057800Y-56854853D01*
X134057800Y-57012546D01*
X134088561Y-57167189D01*
X134088564Y-57167201D01*
X134148902Y-57312872D01*
X134148909Y-57312885D01*
X134236510Y-57443988D01*
X134236513Y-57443992D01*
X134271480Y-57478958D01*
X134304966Y-57540280D01*
X134307800Y-57566640D01*
X134307800Y-59856036D01*
X134288115Y-59923075D01*
X134240097Y-59966520D01*
X134202894Y-59985476D01*
X134127143Y-60040513D01*
X134043654Y-60101172D01*
X134043652Y-60101174D01*
X134043651Y-60101174D01*
X133904474Y-60240351D01*
X133904474Y-60240352D01*
X133904472Y-60240354D01*
X133888371Y-60262515D01*
X133788776Y-60399594D01*
X133698785Y-60576213D01*
X133650811Y-60627009D01*
X133582990Y-60643804D01*
X133516855Y-60621267D01*
X133477815Y-60576213D01*
X133414397Y-60451748D01*
X133387824Y-60399595D01*
X133272128Y-60240354D01*
X133132946Y-60101172D01*
X132973705Y-59985476D01*
X132936502Y-59966520D01*
X132798329Y-59896117D01*
X132611126Y-59835290D01*
X132416722Y-59804500D01*
X132416717Y-59804500D01*
X132219883Y-59804500D01*
X132219878Y-59804500D01*
X132025473Y-59835290D01*
X131838270Y-59896117D01*
X131662894Y-59985476D01*
X131587143Y-60040513D01*
X131503654Y-60101172D01*
X131503652Y-60101174D01*
X131503651Y-60101174D01*
X131364474Y-60240351D01*
X131364474Y-60240352D01*
X131364472Y-60240354D01*
X131348371Y-60262515D01*
X131248776Y-60399594D01*
X131158785Y-60576213D01*
X131110811Y-60627009D01*
X131042990Y-60643804D01*
X130976855Y-60621267D01*
X130937815Y-60576213D01*
X130874397Y-60451748D01*
X130847824Y-60399595D01*
X130732128Y-60240354D01*
X130592946Y-60101172D01*
X130433705Y-59985476D01*
X130396502Y-59966520D01*
X130258329Y-59896117D01*
X130071126Y-59835290D01*
X129876722Y-59804500D01*
X129876717Y-59804500D01*
X129679883Y-59804500D01*
X129679878Y-59804500D01*
X129485473Y-59835290D01*
X129298270Y-59896117D01*
X129122894Y-59985476D01*
X129047143Y-60040513D01*
X128963654Y-60101172D01*
X128963652Y-60101174D01*
X128963651Y-60101174D01*
X128824474Y-60240351D01*
X128824474Y-60240352D01*
X128824472Y-60240354D01*
X128808371Y-60262515D01*
X128708776Y-60399594D01*
X128619417Y-60574970D01*
X128558590Y-60762173D01*
X128527800Y-60956577D01*
X128527800Y-61153422D01*
X128558590Y-61347826D01*
X128619417Y-61535029D01*
X128697373Y-61688025D01*
X128708776Y-61710405D01*
X128824472Y-61869646D01*
X128963654Y-62008828D01*
X129053818Y-62074336D01*
X129124222Y-62125488D01*
X129166887Y-62180818D01*
X129172866Y-62250432D01*
X129140260Y-62312227D01*
X129081714Y-62345288D01*
X129081815Y-62345634D01*
X129080349Y-62346059D01*
X129079421Y-62346584D01*
X129076357Y-62347219D01*
X128917906Y-62393254D01*
X128917903Y-62393255D01*
X128776437Y-62476917D01*
X128776429Y-62476923D01*
X128660223Y-62593129D01*
X128660217Y-62593137D01*
X128576555Y-62734603D01*
X128576554Y-62734606D01*
X128530702Y-62892426D01*
X128530701Y-62892432D01*
X128527800Y-62929298D01*
X128527800Y-64260701D01*
X128530701Y-64297567D01*
X128530702Y-64297573D01*
X128576554Y-64455393D01*
X128576555Y-64455396D01*
X128576556Y-64455398D01*
X128600272Y-64495500D01*
X128660217Y-64596862D01*
X128660223Y-64596870D01*
X128776429Y-64713076D01*
X128776433Y-64713079D01*
X128776435Y-64713081D01*
X128917902Y-64796744D01*
X128977517Y-64814063D01*
X129036400Y-64851668D01*
X129065607Y-64915140D01*
X129055862Y-64984327D01*
X129030601Y-65020820D01*
X125040556Y-69010866D01*
X121063711Y-72987711D01*
X121007960Y-73043462D01*
X120952209Y-73099212D01*
X120864609Y-73230314D01*
X120864602Y-73230327D01*
X120804264Y-73375998D01*
X120804261Y-73376010D01*
X120773500Y-73530653D01*
X120773500Y-92269760D01*
X120753815Y-92336799D01*
X120737181Y-92357441D01*
X113590481Y-99504141D01*
X113529158Y-99537626D01*
X113459466Y-99532642D01*
X113403533Y-99490770D01*
X113379116Y-99425306D01*
X113378800Y-99416460D01*
X113378800Y-98536518D01*
X113398485Y-98469479D01*
X113415119Y-98448837D01*
X118322409Y-93541547D01*
X118322413Y-93541543D01*
X118330363Y-93529646D01*
X118399075Y-93426811D01*
X118451880Y-93299328D01*
X118453928Y-93289035D01*
X118472627Y-93195025D01*
X118472627Y-93195024D01*
X118472628Y-93195024D01*
X118472628Y-93195018D01*
X118478800Y-93163996D01*
X118478800Y-80133137D01*
X118498485Y-80066098D01*
X118529915Y-80032818D01*
X118560373Y-80010690D01*
X118693990Y-79877073D01*
X118805060Y-79724199D01*
X118890847Y-79555832D01*
X118949240Y-79376118D01*
X118953703Y-79347942D01*
X118978800Y-79189486D01*
X118978800Y-79000513D01*
X118949240Y-78813881D01*
X118911287Y-78697075D01*
X118890847Y-78634168D01*
X118890845Y-78634165D01*
X118890845Y-78634163D01*
X118829431Y-78513632D01*
X118805060Y-78465801D01*
X118693990Y-78312927D01*
X118560373Y-78179310D01*
X118529913Y-78157179D01*
X118487248Y-78101848D01*
X118478800Y-78056862D01*
X118478800Y-77377707D01*
X118474692Y-77357058D01*
X118474692Y-77357057D01*
X118451880Y-77242372D01*
X118446795Y-77230095D01*
X118399077Y-77114892D01*
X118322412Y-77000154D01*
X118322411Y-77000153D01*
X111707576Y-70385319D01*
X111674091Y-70323996D01*
X111679075Y-70254304D01*
X111720947Y-70198371D01*
X111738955Y-70187157D01*
X111766642Y-70173050D01*
X111856350Y-70083342D01*
X111913946Y-69970304D01*
X111913946Y-69970302D01*
X111913947Y-69970301D01*
X111924582Y-69903147D01*
X111928800Y-69876519D01*
X111928799Y-68313482D01*
X111913946Y-68219696D01*
X111856350Y-68106658D01*
X111856346Y-68106654D01*
X111856345Y-68106652D01*
X111766647Y-68016954D01*
X111766644Y-68016952D01*
X111766642Y-68016950D01*
X111689817Y-67977805D01*
X111653601Y-67959352D01*
X111559824Y-67944500D01*
X109996782Y-67944500D01*
X109915819Y-67957323D01*
X109902996Y-67959354D01*
X109789958Y-68016950D01*
X109789957Y-68016951D01*
X109789952Y-68016954D01*
X109700254Y-68106652D01*
X109700251Y-68106657D01*
X109700250Y-68106658D01*
X109693391Y-68120120D01*
X109642652Y-68219698D01*
X109627800Y-68313475D01*
X109627800Y-69876517D01*
X109638592Y-69944657D01*
X109642654Y-69970304D01*
X109700250Y-70083342D01*
X109700252Y-70083344D01*
X109700254Y-70083347D01*
X109789952Y-70173045D01*
X109789954Y-70173046D01*
X109789958Y-70173050D01*
X109902996Y-70230646D01*
X109902997Y-70230646D01*
X109902999Y-70230647D01*
X109973197Y-70241765D01*
X110036332Y-70271694D01*
X110073264Y-70331005D01*
X110077800Y-70364238D01*
X110077800Y-70377706D01*
X110077800Y-70515694D01*
X110077800Y-70515696D01*
X110077799Y-70515696D01*
X110104718Y-70651022D01*
X110104721Y-70651032D01*
X110157522Y-70778507D01*
X110234187Y-70893245D01*
X110234188Y-70893246D01*
X111073762Y-71732819D01*
X111107247Y-71794142D01*
X111102263Y-71863833D01*
X111060391Y-71919767D01*
X110994927Y-71944184D01*
X110986081Y-71944500D01*
X109996782Y-71944500D01*
X109915819Y-71957323D01*
X109902996Y-71959354D01*
X109789958Y-72016950D01*
X109789957Y-72016951D01*
X109789952Y-72016954D01*
X109700254Y-72106652D01*
X109700251Y-72106657D01*
X109642652Y-72219698D01*
X109627800Y-72313475D01*
X109627800Y-73876517D01*
X109636962Y-73934361D01*
X109642654Y-73970304D01*
X109700250Y-74083342D01*
X109700252Y-74083344D01*
X109700254Y-74083347D01*
X109789952Y-74173045D01*
X109789954Y-74173046D01*
X109789958Y-74173050D01*
X109887855Y-74222931D01*
X109902998Y-74230647D01*
X109996775Y-74245499D01*
X109996781Y-74245500D01*
X111559818Y-74245499D01*
X111653604Y-74230646D01*
X111766642Y-74173050D01*
X111856350Y-74083342D01*
X111913946Y-73970304D01*
X111913946Y-73970302D01*
X111913947Y-73970301D01*
X111928799Y-73876524D01*
X111928800Y-73876519D01*
X111928799Y-72887217D01*
X111948483Y-72820179D01*
X112001287Y-72774424D01*
X112070446Y-72764480D01*
X112134002Y-72793505D01*
X112140480Y-72799537D01*
X117041481Y-77700538D01*
X117074966Y-77761861D01*
X117077800Y-77788219D01*
X117077800Y-78056862D01*
X117058115Y-78123901D01*
X117026687Y-78157179D01*
X116996227Y-78179309D01*
X116862612Y-78312924D01*
X116862612Y-78312925D01*
X116862610Y-78312927D01*
X116816907Y-78375832D01*
X116751540Y-78465800D01*
X116665754Y-78634163D01*
X116607359Y-78813881D01*
X116577800Y-79000513D01*
X116577800Y-79189486D01*
X116607359Y-79376118D01*
X116665754Y-79555836D01*
X116712860Y-79648285D01*
X116751540Y-79724199D01*
X116862610Y-79877073D01*
X116996227Y-80010690D01*
X116996228Y-80010691D01*
X116996227Y-80010691D01*
X117013322Y-80023110D01*
X117026683Y-80032818D01*
X117069350Y-80088147D01*
X117077800Y-80133137D01*
X117077800Y-92753481D01*
X117058115Y-92820520D01*
X117041481Y-92841162D01*
X112424462Y-97458181D01*
X112363139Y-97491666D01*
X112336781Y-97494500D01*
X110762606Y-97494500D01*
X110762599Y-97494500D01*
X110762585Y-97494501D01*
X110749923Y-97495497D01*
X110681546Y-97481130D01*
X110631792Y-97432076D01*
X110616200Y-97371879D01*
X110616200Y-91892240D01*
X110635885Y-91825201D01*
X110652519Y-91804559D01*
X111400086Y-91056992D01*
X111400089Y-91056989D01*
X111487694Y-90925879D01*
X111548037Y-90780197D01*
X111578800Y-90625542D01*
X111578800Y-90467858D01*
X111578800Y-90344748D01*
X111598485Y-90277709D01*
X111646505Y-90234263D01*
X111653604Y-90230646D01*
X111766642Y-90173050D01*
X111856350Y-90083342D01*
X111913946Y-89970304D01*
X111913946Y-89970302D01*
X111913947Y-89970301D01*
X111928799Y-89876524D01*
X111928800Y-89876519D01*
X111928799Y-88313482D01*
X111913946Y-88219696D01*
X111856350Y-88106658D01*
X111856346Y-88106654D01*
X111856345Y-88106652D01*
X111766647Y-88016954D01*
X111766644Y-88016952D01*
X111766642Y-88016950D01*
X111689817Y-87977805D01*
X111653601Y-87959352D01*
X111559824Y-87944500D01*
X109996782Y-87944500D01*
X109915819Y-87957323D01*
X109902996Y-87959354D01*
X109789958Y-88016950D01*
X109789957Y-88016951D01*
X109789952Y-88016954D01*
X109700254Y-88106652D01*
X109700251Y-88106657D01*
X109642652Y-88219698D01*
X109627800Y-88313475D01*
X109627800Y-89876517D01*
X109638592Y-89944657D01*
X109642654Y-89970304D01*
X109700250Y-90083342D01*
X109700252Y-90083344D01*
X109700254Y-90083347D01*
X109789952Y-90173045D01*
X109789956Y-90173048D01*
X109789958Y-90173050D01*
X109790196Y-90173171D01*
X109790432Y-90173393D01*
X109797850Y-90178783D01*
X109797153Y-90179741D01*
X109840992Y-90221145D01*
X109857788Y-90288965D01*
X109835251Y-90355101D01*
X109821583Y-90371337D01*
X109412733Y-90780189D01*
X109305411Y-90887511D01*
X109267050Y-90925872D01*
X109193909Y-90999012D01*
X109106309Y-91130114D01*
X109106302Y-91130127D01*
X109045964Y-91275798D01*
X109045961Y-91275810D01*
X109015200Y-91430453D01*
X109015200Y-100468346D01*
X109045961Y-100622989D01*
X109045964Y-100623001D01*
X109106302Y-100768672D01*
X109106309Y-100768685D01*
X109193910Y-100899788D01*
X109193913Y-100899792D01*
X109926407Y-101632286D01*
X109926411Y-101632289D01*
X110057514Y-101719890D01*
X110057518Y-101719892D01*
X110057521Y-101719894D01*
X110203203Y-101780238D01*
X110313340Y-101802145D01*
X110357853Y-101810999D01*
X110357857Y-101811000D01*
X110357858Y-101811000D01*
X112291700Y-101811000D01*
X112358739Y-101830685D01*
X112404494Y-101883489D01*
X112415700Y-101935000D01*
X112415700Y-119158146D01*
X112446461Y-119312789D01*
X112446464Y-119312801D01*
X112506802Y-119458472D01*
X112506809Y-119458485D01*
X112594410Y-119589588D01*
X112594413Y-119589592D01*
X117077907Y-124073086D01*
X117077911Y-124073089D01*
X117209014Y-124160690D01*
X117209018Y-124160692D01*
X117209021Y-124160694D01*
X117354703Y-124221038D01*
X117509353Y-124251799D01*
X117509357Y-124251800D01*
X117509358Y-124251800D01*
X117667043Y-124251800D01*
X119651660Y-124251800D01*
X119718699Y-124271485D01*
X119739341Y-124288119D01*
X123586481Y-128135259D01*
X123619966Y-128196582D01*
X123622800Y-128222940D01*
X123622800Y-128393809D01*
X123653714Y-128588997D01*
X123714784Y-128776949D01*
X123752006Y-128850000D01*
X123804500Y-128953025D01*
X123920658Y-129112903D01*
X124060397Y-129252642D01*
X124220275Y-129368800D01*
X124303465Y-129411187D01*
X124396350Y-129458515D01*
X124396352Y-129458515D01*
X124396355Y-129458517D01*
X124467696Y-129481697D01*
X124584302Y-129519585D01*
X124681896Y-129535042D01*
X124779490Y-129550500D01*
X124779491Y-129550500D01*
X124977109Y-129550500D01*
X124977110Y-129550500D01*
X125172297Y-129519585D01*
X125360245Y-129458517D01*
X125536325Y-129368800D01*
X125696203Y-129252642D01*
X125835942Y-129112903D01*
X125952100Y-128953025D01*
X126041817Y-128776945D01*
X126102885Y-128588997D01*
X126133800Y-128393810D01*
X126133800Y-128196190D01*
X126122341Y-128123839D01*
X126102885Y-128001002D01*
X126061055Y-127872263D01*
X126041817Y-127813055D01*
X126041815Y-127813052D01*
X126041815Y-127813050D01*
X125994487Y-127720165D01*
X125952100Y-127636975D01*
X125835942Y-127477097D01*
X125696203Y-127337358D01*
X125536325Y-127221200D01*
X125360249Y-127131484D01*
X125172297Y-127070414D01*
X124998355Y-127042865D01*
X124977110Y-127039500D01*
X124806240Y-127039500D01*
X124739201Y-127019815D01*
X124718559Y-127003181D01*
X120544892Y-122829513D01*
X120544888Y-122829510D01*
X120413785Y-122741909D01*
X120413772Y-122741902D01*
X120268101Y-122681564D01*
X120268089Y-122681561D01*
X120113445Y-122650800D01*
X120113442Y-122650800D01*
X117971140Y-122650800D01*
X117904101Y-122631115D01*
X117883459Y-122614481D01*
X115576159Y-120307181D01*
X115542674Y-120245858D01*
X115547658Y-120176166D01*
X115589530Y-120120233D01*
X115654994Y-120095816D01*
X115663840Y-120095500D01*
X115669413Y-120095500D01*
X115669420Y-120095500D01*
X115929416Y-120061270D01*
X116182719Y-119993398D01*
X116424997Y-119893043D01*
X116652103Y-119761924D01*
X116860151Y-119602282D01*
X116860155Y-119602277D01*
X116860160Y-119602274D01*
X117045574Y-119416860D01*
X117045577Y-119416855D01*
X117045582Y-119416851D01*
X117205224Y-119208803D01*
X117336343Y-118981697D01*
X117436698Y-118739419D01*
X117504570Y-118486116D01*
X117538800Y-118226120D01*
X117538800Y-117963880D01*
X117504570Y-117703884D01*
X117436698Y-117450581D01*
X117432699Y-117440928D01*
X117425231Y-117371461D01*
X117456505Y-117308982D01*
X117459552Y-117305824D01*
X125764865Y-109000513D01*
X128577800Y-109000513D01*
X128577800Y-109189486D01*
X128607359Y-109376118D01*
X128665754Y-109555836D01*
X128728668Y-109679310D01*
X128751540Y-109724199D01*
X128862610Y-109877073D01*
X128996227Y-110010690D01*
X128996228Y-110010691D01*
X128996227Y-110010691D01*
X129002880Y-110015524D01*
X129026683Y-110032818D01*
X129069350Y-110088147D01*
X129077800Y-110133137D01*
X129077800Y-116126329D01*
X129058115Y-116193368D01*
X129029805Y-116224304D01*
X129026442Y-116226912D01*
X128910220Y-116343133D01*
X128910217Y-116343137D01*
X128826555Y-116484603D01*
X128826554Y-116484606D01*
X128780702Y-116642426D01*
X128780701Y-116642432D01*
X128777800Y-116679298D01*
X128777800Y-119510701D01*
X128780701Y-119547567D01*
X128780702Y-119547573D01*
X128826554Y-119705393D01*
X128826555Y-119705396D01*
X128910217Y-119846862D01*
X128910223Y-119846870D01*
X129026429Y-119963076D01*
X129026433Y-119963079D01*
X129026435Y-119963081D01*
X129167902Y-120046744D01*
X129174800Y-120048748D01*
X129325726Y-120092597D01*
X129325729Y-120092597D01*
X129325731Y-120092598D01*
X129362606Y-120095500D01*
X129362614Y-120095500D01*
X132193986Y-120095500D01*
X132193994Y-120095500D01*
X132230869Y-120092598D01*
X132230871Y-120092597D01*
X132230873Y-120092597D01*
X132292835Y-120074595D01*
X132388698Y-120046744D01*
X132530165Y-119963081D01*
X132646381Y-119846865D01*
X132730044Y-119705398D01*
X132775898Y-119547569D01*
X132778800Y-119510694D01*
X132778800Y-116679306D01*
X132775898Y-116642431D01*
X132730044Y-116484602D01*
X132646381Y-116343135D01*
X132646379Y-116343133D01*
X132646376Y-116343129D01*
X132530170Y-116226923D01*
X132530162Y-116226917D01*
X132388696Y-116143255D01*
X132388693Y-116143254D01*
X132230873Y-116097402D01*
X132230867Y-116097401D01*
X132194001Y-116094500D01*
X132193994Y-116094500D01*
X130602800Y-116094500D01*
X130535761Y-116074815D01*
X130490006Y-116022011D01*
X130478800Y-115970500D01*
X130478800Y-110133137D01*
X130498485Y-110066098D01*
X130529915Y-110032818D01*
X130560373Y-110010690D01*
X130693990Y-109877073D01*
X130805060Y-109724199D01*
X130890847Y-109555832D01*
X130949240Y-109376118D01*
X130953331Y-109350291D01*
X130978800Y-109189486D01*
X130978800Y-109000514D01*
X130978799Y-109000512D01*
X130949240Y-108813881D01*
X130890845Y-108634163D01*
X130805059Y-108465800D01*
X130784074Y-108436917D01*
X130693990Y-108312927D01*
X130560373Y-108179310D01*
X130407499Y-108068240D01*
X130365558Y-108046870D01*
X130239136Y-107982454D01*
X130059418Y-107924059D01*
X129872786Y-107894500D01*
X129872781Y-107894500D01*
X129683819Y-107894500D01*
X129683814Y-107894500D01*
X129497181Y-107924059D01*
X129317463Y-107982454D01*
X129149100Y-108068240D01*
X129137455Y-108076701D01*
X128996227Y-108179310D01*
X128996225Y-108179312D01*
X128996224Y-108179312D01*
X128862612Y-108312924D01*
X128862612Y-108312925D01*
X128862610Y-108312927D01*
X128814910Y-108378579D01*
X128751540Y-108465800D01*
X128665754Y-108634163D01*
X128607359Y-108813881D01*
X128577800Y-109000513D01*
X125764865Y-109000513D01*
X126445288Y-108320090D01*
X126445289Y-108320089D01*
X126532894Y-108188979D01*
X126579401Y-108076700D01*
X126593237Y-108043298D01*
X126624000Y-107888643D01*
X126624000Y-107730958D01*
X126624000Y-79676367D01*
X126643685Y-79609328D01*
X126696489Y-79563573D01*
X126765647Y-79553629D01*
X126829203Y-79582654D01*
X126858484Y-79620071D01*
X126911540Y-79724199D01*
X127022610Y-79877073D01*
X127156227Y-80010690D01*
X127309101Y-80121760D01*
X127380220Y-80157997D01*
X127477463Y-80207545D01*
X127477465Y-80207545D01*
X127477468Y-80207547D01*
X127514859Y-80219696D01*
X127657181Y-80265940D01*
X127843814Y-80295500D01*
X127843819Y-80295500D01*
X128032786Y-80295500D01*
X128219418Y-80265940D01*
X128399132Y-80207547D01*
X128567499Y-80121760D01*
X128720373Y-80010690D01*
X128853990Y-79877073D01*
X128965060Y-79724199D01*
X129050847Y-79555832D01*
X129109240Y-79376118D01*
X129113703Y-79347942D01*
X129138800Y-79189486D01*
X129138800Y-79000513D01*
X129109240Y-78813881D01*
X129071287Y-78697075D01*
X129050847Y-78634168D01*
X129050845Y-78634165D01*
X129050845Y-78634163D01*
X128989431Y-78513632D01*
X128965060Y-78465801D01*
X128853990Y-78312927D01*
X128720373Y-78179310D01*
X128567499Y-78068240D01*
X128562985Y-78065940D01*
X128399136Y-77982454D01*
X128219418Y-77924059D01*
X128032786Y-77894500D01*
X128032781Y-77894500D01*
X127843819Y-77894500D01*
X127843814Y-77894500D01*
X127657181Y-77924059D01*
X127477463Y-77982454D01*
X127309100Y-78068240D01*
X127221879Y-78131610D01*
X127156227Y-78179310D01*
X127156225Y-78179312D01*
X127156224Y-78179312D01*
X127022612Y-78312924D01*
X127022612Y-78312925D01*
X127022610Y-78312927D01*
X126976907Y-78375832D01*
X126911540Y-78465800D01*
X126858485Y-78569927D01*
X126810510Y-78620723D01*
X126742689Y-78637518D01*
X126676554Y-78614980D01*
X126633103Y-78560265D01*
X126624000Y-78513632D01*
X126624000Y-72975094D01*
X126643685Y-72908055D01*
X126696489Y-72862300D01*
X126765647Y-72852356D01*
X126791334Y-72858912D01*
X126870923Y-72888597D01*
X126870927Y-72888598D01*
X126930455Y-72894999D01*
X126930472Y-72895000D01*
X127528300Y-72895000D01*
X127528300Y-71910686D01*
X127532694Y-71915080D01*
X127623906Y-71967741D01*
X127725639Y-71995000D01*
X127830961Y-71995000D01*
X127932694Y-71967741D01*
X128023906Y-71915080D01*
X128028300Y-71910686D01*
X128028300Y-72895000D01*
X128626128Y-72895000D01*
X128626144Y-72894999D01*
X128685672Y-72888598D01*
X128685679Y-72888596D01*
X128820386Y-72838354D01*
X128820393Y-72838350D01*
X128935487Y-72752190D01*
X128935490Y-72752187D01*
X129021650Y-72637093D01*
X129021654Y-72637086D01*
X129071896Y-72502379D01*
X129071898Y-72502372D01*
X129078299Y-72442844D01*
X129078300Y-72442827D01*
X129078300Y-72312332D01*
X129097985Y-72245293D01*
X129150789Y-72199538D01*
X129219947Y-72189594D01*
X129283503Y-72218619D01*
X129302616Y-72239444D01*
X129402610Y-72377073D01*
X129536227Y-72510690D01*
X129689101Y-72621760D01*
X129719194Y-72637093D01*
X129857463Y-72707545D01*
X129857465Y-72707545D01*
X129857468Y-72707547D01*
X129944000Y-72735663D01*
X130037181Y-72765940D01*
X130223814Y-72795500D01*
X130223819Y-72795500D01*
X130412786Y-72795500D01*
X130599418Y-72765940D01*
X130603911Y-72764480D01*
X130779132Y-72707547D01*
X130947499Y-72621760D01*
X131100373Y-72510690D01*
X131233990Y-72377073D01*
X131345060Y-72224199D01*
X131430847Y-72055832D01*
X131470369Y-71934195D01*
X131509807Y-71876521D01*
X131574166Y-71849323D01*
X131643012Y-71861238D01*
X131694488Y-71908482D01*
X131706231Y-71934196D01*
X131745754Y-72055836D01*
X131822165Y-72205800D01*
X131831540Y-72224199D01*
X131942610Y-72377073D01*
X132076227Y-72510690D01*
X132229101Y-72621760D01*
X132259194Y-72637093D01*
X132397463Y-72707545D01*
X132397465Y-72707545D01*
X132397468Y-72707547D01*
X132484000Y-72735663D01*
X132577181Y-72765940D01*
X132763814Y-72795500D01*
X132763819Y-72795500D01*
X132952786Y-72795500D01*
X133139418Y-72765940D01*
X133143911Y-72764480D01*
X133319132Y-72707547D01*
X133487499Y-72621760D01*
X133640373Y-72510690D01*
X133773990Y-72377073D01*
X133885060Y-72224199D01*
X133970847Y-72055832D01*
X134010369Y-71934195D01*
X134049807Y-71876521D01*
X134114166Y-71849323D01*
X134183012Y-71861238D01*
X134234488Y-71908482D01*
X134246231Y-71934196D01*
X134285754Y-72055836D01*
X134362165Y-72205800D01*
X134371540Y-72224199D01*
X134482610Y-72377073D01*
X134616227Y-72510690D01*
X134769101Y-72621760D01*
X134799194Y-72637093D01*
X134937463Y-72707545D01*
X134937465Y-72707545D01*
X134937468Y-72707547D01*
X135024000Y-72735663D01*
X135117181Y-72765940D01*
X135303814Y-72795500D01*
X135303819Y-72795500D01*
X135492786Y-72795500D01*
X135679418Y-72765940D01*
X135683911Y-72764480D01*
X135859132Y-72707547D01*
X136027499Y-72621760D01*
X136180373Y-72510690D01*
X136313990Y-72377073D01*
X136425060Y-72224199D01*
X136510847Y-72055832D01*
X136550369Y-71934195D01*
X136589807Y-71876521D01*
X136654166Y-71849323D01*
X136723012Y-71861238D01*
X136774488Y-71908482D01*
X136786231Y-71934196D01*
X136825754Y-72055836D01*
X136911542Y-72224203D01*
X136956917Y-72286655D01*
X136980398Y-72352461D01*
X136980600Y-72359541D01*
X136980600Y-73779600D01*
X136960915Y-73846639D01*
X136908111Y-73892394D01*
X136856600Y-73903600D01*
X136787055Y-73903600D01*
X136632410Y-73934361D01*
X136632398Y-73934364D01*
X136486727Y-73994702D01*
X136486714Y-73994709D01*
X136355611Y-74082310D01*
X136355607Y-74082313D01*
X136244113Y-74193807D01*
X136244110Y-74193811D01*
X136156509Y-74324914D01*
X136156502Y-74324927D01*
X136096164Y-74470598D01*
X136096161Y-74470610D01*
X136065400Y-74625253D01*
X136065400Y-74782946D01*
X136096161Y-74937589D01*
X136096164Y-74937601D01*
X136156502Y-75083272D01*
X136156509Y-75083285D01*
X136244110Y-75214388D01*
X136244113Y-75214392D01*
X136358981Y-75329260D01*
X136392466Y-75390583D01*
X136395300Y-75416941D01*
X136395300Y-76360689D01*
X136375615Y-76427728D01*
X136322811Y-76473483D01*
X136253653Y-76483427D01*
X136247110Y-76482307D01*
X136222942Y-76477500D01*
X136065258Y-76477500D01*
X136065255Y-76477500D01*
X135910610Y-76508261D01*
X135910598Y-76508264D01*
X135764927Y-76568602D01*
X135764914Y-76568609D01*
X135633811Y-76656210D01*
X135633807Y-76656213D01*
X135522313Y-76767707D01*
X135522310Y-76767711D01*
X135434709Y-76898814D01*
X135434702Y-76898827D01*
X135374364Y-77044498D01*
X135374361Y-77044510D01*
X135343600Y-77199153D01*
X135343600Y-77356846D01*
X135374361Y-77511489D01*
X135374364Y-77511501D01*
X135434702Y-77657172D01*
X135434709Y-77657185D01*
X135522310Y-77788288D01*
X135522313Y-77788292D01*
X135557280Y-77823258D01*
X135590766Y-77884580D01*
X135593600Y-77910940D01*
X135593600Y-107849041D01*
X135573915Y-107916080D01*
X135521111Y-107961835D01*
X135451953Y-107971779D01*
X135413306Y-107959526D01*
X135277334Y-107890245D01*
X135082717Y-107827009D01*
X134880617Y-107795000D01*
X134675983Y-107795000D01*
X134473882Y-107827009D01*
X134279268Y-107890244D01*
X134096944Y-107983143D01*
X134052377Y-108015523D01*
X134052377Y-108015524D01*
X134731853Y-108695000D01*
X134725639Y-108695000D01*
X134623906Y-108722259D01*
X134532694Y-108774920D01*
X134458220Y-108849394D01*
X134405559Y-108940606D01*
X134378300Y-109042339D01*
X134378300Y-109048553D01*
X133698824Y-108369077D01*
X133698823Y-108369077D01*
X133666443Y-108413644D01*
X133573544Y-108595968D01*
X133510309Y-108790582D01*
X133478300Y-108992682D01*
X133478300Y-109197317D01*
X133510309Y-109399417D01*
X133573544Y-109594031D01*
X133666441Y-109776350D01*
X133666447Y-109776359D01*
X133698823Y-109820921D01*
X133698824Y-109820922D01*
X134378300Y-109141446D01*
X134378300Y-109147661D01*
X134405559Y-109249394D01*
X134458220Y-109340606D01*
X134532694Y-109415080D01*
X134623906Y-109467741D01*
X134725639Y-109495000D01*
X134731852Y-109495000D01*
X134052376Y-110174474D01*
X134096950Y-110206859D01*
X134279268Y-110299755D01*
X134473882Y-110362990D01*
X134675983Y-110395000D01*
X134880617Y-110395000D01*
X135082717Y-110362990D01*
X135277331Y-110299755D01*
X135413305Y-110230473D01*
X135481974Y-110217577D01*
X135546715Y-110243853D01*
X135586972Y-110300960D01*
X135593600Y-110340958D01*
X135593600Y-122378274D01*
X135614264Y-122455397D01*
X135631114Y-122518280D01*
X135631116Y-122518285D01*
X135686719Y-122614594D01*
X135703589Y-122643813D01*
X135703591Y-122643816D01*
X140951242Y-127891466D01*
X140984727Y-127952789D01*
X140981493Y-128017463D01*
X140968590Y-128057174D01*
X140937800Y-128251577D01*
X140937800Y-128448422D01*
X140968590Y-128642826D01*
X141029417Y-128830029D01*
X141057498Y-128885140D01*
X141118776Y-129005405D01*
X141234472Y-129164646D01*
X141373654Y-129303828D01*
X141463080Y-129368800D01*
X141532896Y-129419525D01*
X141599928Y-129453679D01*
X141650725Y-129501653D01*
X141667520Y-129569474D01*
X141644983Y-129635609D01*
X141599930Y-129674648D01*
X141480743Y-129735378D01*
X141480740Y-129735380D01*
X141426582Y-129774727D01*
X141426582Y-129774728D01*
X142058891Y-130407037D01*
X141995307Y-130424075D01*
X141881293Y-130489901D01*
X141788201Y-130582993D01*
X141722375Y-130697007D01*
X141705337Y-130760591D01*
X141073028Y-130128282D01*
X141073027Y-130128282D01*
X141033680Y-130182439D01*
X140937204Y-130371782D01*
X140871542Y-130573869D01*
X140871542Y-130573872D01*
X140838300Y-130783753D01*
X140838300Y-130996246D01*
X140871542Y-131206127D01*
X140871542Y-131206130D01*
X140937204Y-131408217D01*
X141033675Y-131597550D01*
X141073028Y-131651716D01*
X141705337Y-131019408D01*
X141722375Y-131082993D01*
X141788201Y-131197007D01*
X141881293Y-131290099D01*
X141995307Y-131355925D01*
X142058890Y-131372962D01*
X141426582Y-132005269D01*
X141426582Y-132005270D01*
X141480749Y-132044624D01*
X141599929Y-132105350D01*
X141650725Y-132153325D01*
X141667520Y-132221146D01*
X141644982Y-132287281D01*
X141599930Y-132326319D01*
X141532897Y-132360474D01*
X141453274Y-132418324D01*
X141373654Y-132476172D01*
X141373652Y-132476174D01*
X141373651Y-132476174D01*
X141234474Y-132615351D01*
X141234474Y-132615352D01*
X141234472Y-132615354D01*
X141184785Y-132683741D01*
X141118776Y-132774594D01*
X141029417Y-132949970D01*
X140968590Y-133137173D01*
X140937800Y-133331577D01*
X140937800Y-133528422D01*
X140968590Y-133722826D01*
X141029417Y-133910029D01*
X141118776Y-134085405D01*
X141234472Y-134244646D01*
X141373654Y-134383828D01*
X141493084Y-134470600D01*
X141532896Y-134499525D01*
X141599928Y-134533679D01*
X141650725Y-134581653D01*
X141667520Y-134649474D01*
X141644983Y-134715609D01*
X141599930Y-134754648D01*
X141480743Y-134815378D01*
X141480740Y-134815380D01*
X141426582Y-134854727D01*
X141426582Y-134854728D01*
X142058891Y-135487037D01*
X141995307Y-135504075D01*
X141881293Y-135569901D01*
X141788201Y-135662993D01*
X141722375Y-135777007D01*
X141705337Y-135840591D01*
X141073028Y-135208282D01*
X141073027Y-135208282D01*
X141033680Y-135262439D01*
X140937204Y-135451782D01*
X140871542Y-135653869D01*
X140871542Y-135653872D01*
X140838300Y-135863753D01*
X140838300Y-136076246D01*
X140871542Y-136286127D01*
X140871542Y-136286130D01*
X140937204Y-136488217D01*
X141033675Y-136677550D01*
X141073028Y-136731716D01*
X141705337Y-136099408D01*
X141722375Y-136162993D01*
X141788201Y-136277007D01*
X141881293Y-136370099D01*
X141995307Y-136435925D01*
X142058890Y-136452962D01*
X141426582Y-137085269D01*
X141426582Y-137085270D01*
X141480749Y-137124624D01*
X141670082Y-137221095D01*
X141872170Y-137286757D01*
X142082054Y-137320000D01*
X142294546Y-137320000D01*
X142504427Y-137286757D01*
X142504430Y-137286757D01*
X142706517Y-137221095D01*
X142895854Y-137124622D01*
X142950016Y-137085270D01*
X142950017Y-137085270D01*
X142317708Y-136452962D01*
X142381293Y-136435925D01*
X142495307Y-136370099D01*
X142588399Y-136277007D01*
X142654225Y-136162993D01*
X142671262Y-136099408D01*
X143303570Y-136731717D01*
X143303570Y-136731716D01*
X143342922Y-136677554D01*
X143439395Y-136488217D01*
X143505057Y-136286130D01*
X143505057Y-136286127D01*
X143538300Y-136076246D01*
X143538300Y-135863753D01*
X143505057Y-135653872D01*
X143505057Y-135653869D01*
X143439395Y-135451782D01*
X143342924Y-135262449D01*
X143303570Y-135208282D01*
X143303569Y-135208282D01*
X142671262Y-135840590D01*
X142654225Y-135777007D01*
X142588399Y-135662993D01*
X142495307Y-135569901D01*
X142381293Y-135504075D01*
X142317709Y-135487037D01*
X142950016Y-134854728D01*
X142895847Y-134815373D01*
X142895842Y-134815370D01*
X142776670Y-134754648D01*
X142725874Y-134706674D01*
X142709079Y-134638853D01*
X142731617Y-134572718D01*
X142776670Y-134533679D01*
X142843705Y-134499524D01*
X143002946Y-134383828D01*
X143142128Y-134244646D01*
X143257824Y-134085405D01*
X143347184Y-133910025D01*
X143408009Y-133722826D01*
X143438800Y-133528422D01*
X143438800Y-133331577D01*
X143408009Y-133137173D01*
X143347182Y-132949970D01*
X143264494Y-132787686D01*
X143257824Y-132774595D01*
X143142128Y-132615354D01*
X143002946Y-132476172D01*
X142843705Y-132360476D01*
X142776670Y-132326320D01*
X142725874Y-132278345D01*
X142709079Y-132210524D01*
X142731616Y-132144389D01*
X142776670Y-132105350D01*
X142895854Y-132044622D01*
X142950016Y-132005270D01*
X142950017Y-132005270D01*
X142317708Y-131372962D01*
X142381293Y-131355925D01*
X142495307Y-131290099D01*
X142588399Y-131197007D01*
X142654225Y-131082993D01*
X142671262Y-131019408D01*
X143303570Y-131651717D01*
X143303570Y-131651716D01*
X143342922Y-131597554D01*
X143439395Y-131408217D01*
X143505057Y-131206130D01*
X143505057Y-131206127D01*
X143538300Y-130996246D01*
X143538300Y-130783753D01*
X143505057Y-130573872D01*
X143505057Y-130573869D01*
X143439395Y-130371782D01*
X143342924Y-130182449D01*
X143303570Y-130128282D01*
X143303569Y-130128282D01*
X142671262Y-130760590D01*
X142654225Y-130697007D01*
X142588399Y-130582993D01*
X142495307Y-130489901D01*
X142381293Y-130424075D01*
X142317709Y-130407037D01*
X142950016Y-129774728D01*
X142895847Y-129735373D01*
X142895842Y-129735370D01*
X142776670Y-129674648D01*
X142725874Y-129626674D01*
X142709079Y-129558853D01*
X142731617Y-129492718D01*
X142776670Y-129453679D01*
X142843705Y-129419524D01*
X143002946Y-129303828D01*
X143142128Y-129164646D01*
X143257824Y-129005405D01*
X143347184Y-128830025D01*
X143408009Y-128642826D01*
X143423821Y-128542993D01*
X143438800Y-128448422D01*
X143438800Y-128251580D01*
X143438799Y-128251574D01*
X143408009Y-128057173D01*
X143373154Y-127949901D01*
X143347184Y-127869975D01*
X143347182Y-127869972D01*
X143347182Y-127869970D01*
X143287595Y-127753025D01*
X143257824Y-127694595D01*
X143142128Y-127535354D01*
X143002946Y-127396172D01*
X142921996Y-127337358D01*
X142843703Y-127280474D01*
X142667087Y-127190485D01*
X142616290Y-127142511D01*
X142599495Y-127074690D01*
X142622032Y-127008555D01*
X142667087Y-126969515D01*
X142843703Y-126879525D01*
X142843702Y-126879525D01*
X142843705Y-126879524D01*
X143002946Y-126763828D01*
X143142128Y-126624646D01*
X143257824Y-126465405D01*
X143347184Y-126290025D01*
X143408009Y-126102826D01*
X143435147Y-125931483D01*
X143438800Y-125908422D01*
X143438800Y-125711577D01*
X143408009Y-125517173D01*
X143374092Y-125412789D01*
X143347184Y-125329975D01*
X143347182Y-125329972D01*
X143347182Y-125329970D01*
X143257823Y-125154594D01*
X143142128Y-124995354D01*
X143002946Y-124856172D01*
X142923325Y-124798324D01*
X142843703Y-124740474D01*
X142667087Y-124650485D01*
X142616290Y-124602511D01*
X142599495Y-124534690D01*
X142622032Y-124468555D01*
X142667087Y-124429515D01*
X142843703Y-124339525D01*
X142843702Y-124339525D01*
X142843705Y-124339524D01*
X143002946Y-124223828D01*
X143142128Y-124084646D01*
X143257824Y-123925405D01*
X143347184Y-123750025D01*
X143408009Y-123562826D01*
X143428764Y-123431783D01*
X143438800Y-123368422D01*
X143438800Y-123171577D01*
X143422004Y-123065541D01*
X143408009Y-122977174D01*
X143395105Y-122937463D01*
X143393111Y-122867625D01*
X143425354Y-122811468D01*
X143918610Y-122318214D01*
X143991084Y-122192685D01*
X143994321Y-122180601D01*
X144001296Y-122154576D01*
X144012143Y-122114094D01*
X144028600Y-122052675D01*
X144028600Y-104851625D01*
X143991084Y-104711615D01*
X143970149Y-104675354D01*
X143918610Y-104586085D01*
X143198096Y-103865571D01*
X143164611Y-103804248D01*
X143169595Y-103734556D01*
X143185455Y-103705010D01*
X143257824Y-103605405D01*
X143347184Y-103430025D01*
X143408009Y-103242826D01*
X143416458Y-103189481D01*
X143438800Y-103048422D01*
X143438800Y-102851577D01*
X143408009Y-102657173D01*
X143379787Y-102570317D01*
X143347184Y-102469975D01*
X143347182Y-102469972D01*
X143347182Y-102469970D01*
X143290543Y-102358811D01*
X143257824Y-102294595D01*
X143142128Y-102135354D01*
X143002946Y-101996172D01*
X142849677Y-101884815D01*
X142807014Y-101829487D01*
X142801035Y-101759873D01*
X142833641Y-101698078D01*
X142894480Y-101663721D01*
X142922564Y-101660499D01*
X143069818Y-101660499D01*
X143163604Y-101645646D01*
X143276642Y-101588050D01*
X143366350Y-101498342D01*
X143423946Y-101385304D01*
X143423946Y-101385302D01*
X143423947Y-101385301D01*
X143438799Y-101291524D01*
X143438800Y-101291519D01*
X143438799Y-99528482D01*
X143423946Y-99434696D01*
X143366350Y-99321658D01*
X143366346Y-99321654D01*
X143366345Y-99321652D01*
X143276647Y-99231954D01*
X143276644Y-99231952D01*
X143276642Y-99231950D01*
X143199817Y-99192805D01*
X143163601Y-99174352D01*
X143069824Y-99159500D01*
X141306782Y-99159500D01*
X141215288Y-99173991D01*
X141212996Y-99174354D01*
X141209090Y-99176344D01*
X141203835Y-99177330D01*
X141203718Y-99177369D01*
X141203713Y-99177353D01*
X141140422Y-99189238D01*
X141075682Y-99162959D01*
X141035427Y-99105852D01*
X141028800Y-99065857D01*
X141028800Y-98959000D01*
X141048485Y-98891961D01*
X141101289Y-98846206D01*
X141152800Y-98835000D01*
X164787081Y-98835000D01*
X164854120Y-98854685D01*
X164899875Y-98907489D01*
X164909819Y-98976647D01*
X164880794Y-99040203D01*
X164822016Y-99077977D01*
X164806479Y-99081473D01*
X164732172Y-99093242D01*
X164732169Y-99093242D01*
X164530082Y-99158904D01*
X164340739Y-99255380D01*
X164286582Y-99294727D01*
X164286582Y-99294728D01*
X164918891Y-99927037D01*
X164855307Y-99944075D01*
X164741293Y-100009901D01*
X164648201Y-100102993D01*
X164582375Y-100217007D01*
X164565337Y-100280591D01*
X163933028Y-99648282D01*
X163933027Y-99648282D01*
X163893680Y-99702439D01*
X163797204Y-99891782D01*
X163731542Y-100093869D01*
X163731542Y-100093872D01*
X163698300Y-100303753D01*
X163698300Y-100516246D01*
X163731542Y-100726127D01*
X163731542Y-100726130D01*
X163797204Y-100928217D01*
X163893675Y-101117550D01*
X163933028Y-101171716D01*
X164565337Y-100539408D01*
X164582375Y-100602993D01*
X164648201Y-100717007D01*
X164741293Y-100810099D01*
X164855307Y-100875925D01*
X164918890Y-100892962D01*
X164286582Y-101525269D01*
X164286582Y-101525270D01*
X164340749Y-101564624D01*
X164459929Y-101625350D01*
X164510725Y-101673325D01*
X164527520Y-101741146D01*
X164504982Y-101807281D01*
X164459930Y-101846319D01*
X164392897Y-101880474D01*
X164332908Y-101924059D01*
X164233654Y-101996172D01*
X164233652Y-101996174D01*
X164233651Y-101996174D01*
X164094474Y-102135351D01*
X164094474Y-102135352D01*
X164094472Y-102135354D01*
X164058797Y-102184456D01*
X163978776Y-102294594D01*
X163889417Y-102469970D01*
X163828590Y-102657173D01*
X163797800Y-102851577D01*
X163797800Y-103048422D01*
X163828590Y-103242826D01*
X163889417Y-103430029D01*
X163946459Y-103541979D01*
X163978776Y-103605405D01*
X164075715Y-103738830D01*
X164099195Y-103804634D01*
X164083370Y-103872688D01*
X164063078Y-103899395D01*
X162746291Y-105216183D01*
X162746289Y-105216185D01*
X162709442Y-105280007D01*
X162701441Y-105293868D01*
X162693869Y-105306983D01*
X162693867Y-105306985D01*
X162673818Y-105341709D01*
X162673817Y-105341710D01*
X162673816Y-105341715D01*
X162636300Y-105481725D01*
X162636300Y-118940975D01*
X162648904Y-118988013D01*
X162673816Y-119080985D01*
X162746290Y-119206515D01*
X163302329Y-119762554D01*
X163811242Y-120271466D01*
X163844727Y-120332789D01*
X163841493Y-120397463D01*
X163828590Y-120437174D01*
X163797800Y-120631577D01*
X163797800Y-120828422D01*
X163828590Y-121022826D01*
X163889417Y-121210029D01*
X163949092Y-121327147D01*
X163978776Y-121385405D01*
X164094472Y-121544646D01*
X164233654Y-121683828D01*
X164392895Y-121799524D01*
X164516292Y-121862397D01*
X164569513Y-121889515D01*
X164620309Y-121937489D01*
X164637104Y-122005310D01*
X164614567Y-122071445D01*
X164569513Y-122110485D01*
X164392894Y-122200476D01*
X164330271Y-122245975D01*
X164233654Y-122316172D01*
X164233652Y-122316174D01*
X164233651Y-122316174D01*
X164094474Y-122455351D01*
X164094474Y-122455352D01*
X164094472Y-122455354D01*
X164053668Y-122511516D01*
X163978776Y-122614594D01*
X163889417Y-122789970D01*
X163828590Y-122977173D01*
X163797800Y-123171577D01*
X163797800Y-123368422D01*
X163828590Y-123562826D01*
X163889417Y-123750029D01*
X163978776Y-123925405D01*
X164094472Y-124084646D01*
X164233654Y-124223828D01*
X164392895Y-124339524D01*
X164516292Y-124402397D01*
X164569513Y-124429515D01*
X164620309Y-124477489D01*
X164637104Y-124545310D01*
X164614567Y-124611445D01*
X164569513Y-124650485D01*
X164392894Y-124740476D01*
X164302041Y-124806485D01*
X164233654Y-124856172D01*
X164233652Y-124856174D01*
X164233651Y-124856174D01*
X164094474Y-124995351D01*
X164094474Y-124995352D01*
X164094472Y-124995354D01*
X164044785Y-125063741D01*
X163978776Y-125154594D01*
X163889417Y-125329970D01*
X163828590Y-125517173D01*
X163797800Y-125711577D01*
X163797800Y-125908422D01*
X163828590Y-126102826D01*
X163889417Y-126290029D01*
X163964290Y-126436974D01*
X163978776Y-126465405D01*
X164094472Y-126624646D01*
X164233654Y-126763828D01*
X164284821Y-126801003D01*
X164392896Y-126879525D01*
X164459928Y-126913679D01*
X164510725Y-126961653D01*
X164527520Y-127029474D01*
X164504983Y-127095609D01*
X164459930Y-127134648D01*
X164340743Y-127195378D01*
X164340740Y-127195380D01*
X164286582Y-127234727D01*
X164286582Y-127234728D01*
X164918891Y-127867037D01*
X164855307Y-127884075D01*
X164741293Y-127949901D01*
X164648201Y-128042993D01*
X164582375Y-128157007D01*
X164565337Y-128220591D01*
X163933028Y-127588282D01*
X163933027Y-127588282D01*
X163893680Y-127642439D01*
X163797204Y-127831782D01*
X163731542Y-128033869D01*
X163731542Y-128033872D01*
X163698300Y-128243753D01*
X163698300Y-128456246D01*
X163731542Y-128666127D01*
X163731542Y-128666130D01*
X163797204Y-128868217D01*
X163893675Y-129057550D01*
X163933028Y-129111716D01*
X164565337Y-128479408D01*
X164582375Y-128542993D01*
X164648201Y-128657007D01*
X164741293Y-128750099D01*
X164855307Y-128815925D01*
X164918890Y-128832962D01*
X164286582Y-129465269D01*
X164286582Y-129465270D01*
X164340749Y-129504624D01*
X164459929Y-129565350D01*
X164510725Y-129613325D01*
X164527520Y-129681146D01*
X164504982Y-129747281D01*
X164459930Y-129786319D01*
X164392897Y-129820474D01*
X164313274Y-129878324D01*
X164233654Y-129936172D01*
X164233652Y-129936174D01*
X164233651Y-129936174D01*
X164094474Y-130075351D01*
X164094474Y-130075352D01*
X164094472Y-130075354D01*
X164074908Y-130102282D01*
X163978776Y-130234594D01*
X163889417Y-130409970D01*
X163828590Y-130597173D01*
X163797800Y-130791577D01*
X163797800Y-130988422D01*
X163828590Y-131182826D01*
X163889417Y-131370029D01*
X163978776Y-131545405D01*
X164094472Y-131704646D01*
X164233654Y-131843828D01*
X164392895Y-131959524D01*
X164482675Y-132005269D01*
X164569513Y-132049515D01*
X164620309Y-132097489D01*
X164637104Y-132165310D01*
X164614567Y-132231445D01*
X164569513Y-132270485D01*
X164392894Y-132360476D01*
X164302041Y-132426485D01*
X164233654Y-132476172D01*
X164233652Y-132476174D01*
X164233651Y-132476174D01*
X164094474Y-132615351D01*
X164094474Y-132615352D01*
X164094472Y-132615354D01*
X164044785Y-132683741D01*
X163978776Y-132774594D01*
X163889417Y-132949970D01*
X163828590Y-133137173D01*
X163797800Y-133331577D01*
X163797800Y-133528422D01*
X163828590Y-133722826D01*
X163889417Y-133910029D01*
X163978776Y-134085405D01*
X164094472Y-134244646D01*
X164233654Y-134383828D01*
X164353084Y-134470600D01*
X164392896Y-134499525D01*
X164459928Y-134533679D01*
X164510725Y-134581653D01*
X164527520Y-134649474D01*
X164504983Y-134715609D01*
X164459930Y-134754648D01*
X164340743Y-134815378D01*
X164340740Y-134815380D01*
X164286582Y-134854727D01*
X164286582Y-134854728D01*
X164918891Y-135487037D01*
X164855307Y-135504075D01*
X164741293Y-135569901D01*
X164648201Y-135662993D01*
X164582375Y-135777007D01*
X164565337Y-135840591D01*
X163933028Y-135208282D01*
X163933027Y-135208282D01*
X163893680Y-135262439D01*
X163797204Y-135451782D01*
X163731542Y-135653869D01*
X163731542Y-135653872D01*
X163698300Y-135863753D01*
X163698300Y-136076246D01*
X163731542Y-136286127D01*
X163731542Y-136286130D01*
X163797204Y-136488217D01*
X163893675Y-136677550D01*
X163933028Y-136731716D01*
X164565337Y-136099408D01*
X164582375Y-136162993D01*
X164648201Y-136277007D01*
X164741293Y-136370099D01*
X164855307Y-136435925D01*
X164918890Y-136452962D01*
X164286582Y-137085269D01*
X164286582Y-137085270D01*
X164340749Y-137124624D01*
X164530082Y-137221095D01*
X164732170Y-137286757D01*
X164942054Y-137320000D01*
X165154546Y-137320000D01*
X165364427Y-137286757D01*
X165364430Y-137286757D01*
X165566517Y-137221095D01*
X165755854Y-137124622D01*
X165810016Y-137085270D01*
X165810017Y-137085270D01*
X165177708Y-136452962D01*
X165241293Y-136435925D01*
X165355307Y-136370099D01*
X165448399Y-136277007D01*
X165514225Y-136162993D01*
X165531262Y-136099408D01*
X166163570Y-136731717D01*
X166163570Y-136731716D01*
X166202922Y-136677554D01*
X166299395Y-136488217D01*
X166365057Y-136286130D01*
X166365057Y-136286127D01*
X166398300Y-136076246D01*
X166398300Y-135863753D01*
X166365057Y-135653872D01*
X166365057Y-135653869D01*
X166299395Y-135451782D01*
X166202924Y-135262449D01*
X166163570Y-135208282D01*
X166163569Y-135208282D01*
X165531262Y-135840590D01*
X165514225Y-135777007D01*
X165448399Y-135662993D01*
X165355307Y-135569901D01*
X165241293Y-135504075D01*
X165177709Y-135487037D01*
X165810016Y-134854728D01*
X165755847Y-134815373D01*
X165755842Y-134815370D01*
X165636670Y-134754648D01*
X165585874Y-134706674D01*
X165569079Y-134638853D01*
X165591617Y-134572718D01*
X165636670Y-134533679D01*
X165703705Y-134499524D01*
X165862946Y-134383828D01*
X166002128Y-134244646D01*
X166117824Y-134085405D01*
X166207184Y-133910025D01*
X166268009Y-133722826D01*
X166298800Y-133528422D01*
X166298800Y-133331577D01*
X166268009Y-133137173D01*
X166207182Y-132949970D01*
X166124494Y-132787686D01*
X166117824Y-132774595D01*
X166002128Y-132615354D01*
X165862946Y-132476172D01*
X165783325Y-132418324D01*
X165703703Y-132360474D01*
X165527087Y-132270485D01*
X165476290Y-132222511D01*
X165459495Y-132154690D01*
X165482032Y-132088555D01*
X165527087Y-132049515D01*
X165703703Y-131959525D01*
X165703702Y-131959525D01*
X165703705Y-131959524D01*
X165862946Y-131843828D01*
X166002128Y-131704646D01*
X166117824Y-131545405D01*
X166207184Y-131370025D01*
X166268009Y-131182826D01*
X166283821Y-131082993D01*
X166298800Y-130988422D01*
X166298800Y-130791577D01*
X166268009Y-130597173D01*
X166207182Y-130409970D01*
X166160043Y-130317455D01*
X166117824Y-130234595D01*
X166002128Y-130075354D01*
X165862946Y-129936172D01*
X165703705Y-129820476D01*
X165636670Y-129786320D01*
X165585874Y-129738345D01*
X165569079Y-129670524D01*
X165591616Y-129604389D01*
X165636670Y-129565350D01*
X165755854Y-129504622D01*
X165810016Y-129465270D01*
X165810017Y-129465270D01*
X165177708Y-128832962D01*
X165241293Y-128815925D01*
X165355307Y-128750099D01*
X165448399Y-128657007D01*
X165514225Y-128542993D01*
X165531262Y-128479408D01*
X166163570Y-129111717D01*
X166163570Y-129111716D01*
X166202922Y-129057554D01*
X166299395Y-128868217D01*
X166365057Y-128666130D01*
X166365057Y-128666127D01*
X166397092Y-128463872D01*
X168777800Y-128463872D01*
X168777800Y-128726127D01*
X168796508Y-128868217D01*
X168812030Y-128986116D01*
X168873704Y-129216288D01*
X168879902Y-129239418D01*
X168879905Y-129239428D01*
X168980253Y-129481690D01*
X168980258Y-129481700D01*
X169111375Y-129708803D01*
X169271018Y-129916851D01*
X169271026Y-129916860D01*
X169456440Y-130102274D01*
X169456448Y-130102281D01*
X169664496Y-130261924D01*
X169891599Y-130393041D01*
X169891609Y-130393046D01*
X170133871Y-130493394D01*
X170133881Y-130493398D01*
X170387184Y-130561270D01*
X170647180Y-130595500D01*
X170647187Y-130595500D01*
X170909413Y-130595500D01*
X170909420Y-130595500D01*
X171169416Y-130561270D01*
X171422719Y-130493398D01*
X171664997Y-130393043D01*
X171892103Y-130261924D01*
X172100151Y-130102282D01*
X172100155Y-130102277D01*
X172100160Y-130102274D01*
X172285574Y-129916860D01*
X172285577Y-129916855D01*
X172285582Y-129916851D01*
X172445224Y-129708803D01*
X172576343Y-129481697D01*
X172585945Y-129458517D01*
X172603414Y-129416340D01*
X172676698Y-129239419D01*
X172744570Y-128986116D01*
X172778800Y-128726120D01*
X172778800Y-128463880D01*
X172778799Y-128463872D01*
X174777800Y-128463872D01*
X174777800Y-128726127D01*
X174796508Y-128868217D01*
X174812030Y-128986116D01*
X174873704Y-129216288D01*
X174879902Y-129239418D01*
X174879905Y-129239428D01*
X174980253Y-129481690D01*
X174980258Y-129481700D01*
X175111375Y-129708803D01*
X175271018Y-129916851D01*
X175271026Y-129916860D01*
X175456440Y-130102274D01*
X175456448Y-130102281D01*
X175664496Y-130261924D01*
X175891599Y-130393041D01*
X175891609Y-130393046D01*
X176133871Y-130493394D01*
X176133881Y-130493398D01*
X176387184Y-130561270D01*
X176647180Y-130595500D01*
X176647187Y-130595500D01*
X176909413Y-130595500D01*
X176909420Y-130595500D01*
X177169416Y-130561270D01*
X177422719Y-130493398D01*
X177664997Y-130393043D01*
X177892103Y-130261924D01*
X178100151Y-130102282D01*
X178100155Y-130102277D01*
X178100160Y-130102274D01*
X178285574Y-129916860D01*
X178285577Y-129916855D01*
X178285582Y-129916851D01*
X178445224Y-129708803D01*
X178576343Y-129481697D01*
X178585945Y-129458517D01*
X178603414Y-129416340D01*
X178676698Y-129239419D01*
X178744570Y-128986116D01*
X178746203Y-128973711D01*
X182427800Y-128973711D01*
X182427800Y-129216288D01*
X182459052Y-129453679D01*
X182459462Y-129456789D01*
X182473421Y-129508884D01*
X182522247Y-129691104D01*
X182561687Y-129786320D01*
X182615076Y-129915212D01*
X182736364Y-130125289D01*
X182736366Y-130125292D01*
X182736367Y-130125293D01*
X182884033Y-130317736D01*
X182884039Y-130317743D01*
X183055556Y-130489260D01*
X183055563Y-130489266D01*
X183149400Y-130561269D01*
X183248011Y-130636936D01*
X183458088Y-130758224D01*
X183682200Y-130851054D01*
X183916511Y-130913838D01*
X184096886Y-130937584D01*
X184157011Y-130945500D01*
X184157012Y-130945500D01*
X184399589Y-130945500D01*
X184447688Y-130939167D01*
X184640089Y-130913838D01*
X184874400Y-130851054D01*
X185098512Y-130758224D01*
X185308589Y-130636936D01*
X185501038Y-130489265D01*
X185672565Y-130317738D01*
X185820236Y-130125289D01*
X185941524Y-129915212D01*
X186034354Y-129691100D01*
X186097138Y-129456789D01*
X186128800Y-129216288D01*
X186128800Y-128973712D01*
X186097138Y-128733211D01*
X186034354Y-128498900D01*
X185941524Y-128274788D01*
X185820236Y-128064711D01*
X185732661Y-127950581D01*
X185672566Y-127872263D01*
X185672560Y-127872256D01*
X185501043Y-127700739D01*
X185501036Y-127700733D01*
X185308593Y-127553067D01*
X185308592Y-127553066D01*
X185308589Y-127553064D01*
X185098512Y-127431776D01*
X185098505Y-127431773D01*
X184874404Y-127338947D01*
X184640085Y-127276161D01*
X184399589Y-127244500D01*
X184399588Y-127244500D01*
X184157012Y-127244500D01*
X184157011Y-127244500D01*
X183916514Y-127276161D01*
X183682195Y-127338947D01*
X183458094Y-127431773D01*
X183458085Y-127431777D01*
X183248006Y-127553067D01*
X183055563Y-127700733D01*
X183055556Y-127700739D01*
X182884039Y-127872256D01*
X182884033Y-127872263D01*
X182736367Y-128064706D01*
X182615077Y-128274785D01*
X182615073Y-128274794D01*
X182522247Y-128498895D01*
X182459461Y-128733214D01*
X182427800Y-128973711D01*
X178746203Y-128973711D01*
X178778800Y-128726120D01*
X178778800Y-128463880D01*
X178744570Y-128203884D01*
X178676698Y-127950581D01*
X178652212Y-127891466D01*
X178576346Y-127708309D01*
X178576341Y-127708299D01*
X178445224Y-127481196D01*
X178285581Y-127273148D01*
X178285574Y-127273140D01*
X178100160Y-127087726D01*
X178100151Y-127087718D01*
X177892103Y-126928075D01*
X177665000Y-126796958D01*
X177664990Y-126796953D01*
X177422728Y-126696605D01*
X177422721Y-126696603D01*
X177422719Y-126696602D01*
X177169416Y-126628730D01*
X177111639Y-126621123D01*
X176909427Y-126594500D01*
X176909420Y-126594500D01*
X176647180Y-126594500D01*
X176647172Y-126594500D01*
X176418204Y-126624646D01*
X176387184Y-126628730D01*
X176133881Y-126696602D01*
X176133871Y-126696605D01*
X175891609Y-126796953D01*
X175891599Y-126796958D01*
X175664496Y-126928075D01*
X175456448Y-127087718D01*
X175271018Y-127273148D01*
X175111375Y-127481196D01*
X174980258Y-127708299D01*
X174980253Y-127708309D01*
X174879905Y-127950571D01*
X174879902Y-127950581D01*
X174849323Y-128064706D01*
X174812030Y-128203885D01*
X174777800Y-128463872D01*
X172778799Y-128463872D01*
X172744570Y-128203884D01*
X172676698Y-127950581D01*
X172652212Y-127891466D01*
X172576346Y-127708309D01*
X172576341Y-127708299D01*
X172445224Y-127481196D01*
X172285581Y-127273148D01*
X172285574Y-127273140D01*
X172100160Y-127087726D01*
X172100151Y-127087718D01*
X171892103Y-126928075D01*
X171665000Y-126796958D01*
X171664990Y-126796953D01*
X171422728Y-126696605D01*
X171422721Y-126696603D01*
X171422719Y-126696602D01*
X171169416Y-126628730D01*
X171111639Y-126621123D01*
X170909427Y-126594500D01*
X170909420Y-126594500D01*
X170647180Y-126594500D01*
X170647172Y-126594500D01*
X170418204Y-126624646D01*
X170387184Y-126628730D01*
X170133881Y-126696602D01*
X170133871Y-126696605D01*
X169891609Y-126796953D01*
X169891599Y-126796958D01*
X169664496Y-126928075D01*
X169456448Y-127087718D01*
X169271018Y-127273148D01*
X169111375Y-127481196D01*
X168980258Y-127708299D01*
X168980253Y-127708309D01*
X168879905Y-127950571D01*
X168879902Y-127950581D01*
X168849323Y-128064706D01*
X168812030Y-128203885D01*
X168777800Y-128463872D01*
X166397092Y-128463872D01*
X166398300Y-128456246D01*
X166398300Y-128243753D01*
X166365057Y-128033872D01*
X166365057Y-128033869D01*
X166299395Y-127831782D01*
X166202924Y-127642449D01*
X166163570Y-127588282D01*
X166163569Y-127588282D01*
X165531262Y-128220590D01*
X165514225Y-128157007D01*
X165448399Y-128042993D01*
X165355307Y-127949901D01*
X165241293Y-127884075D01*
X165177709Y-127867037D01*
X165810016Y-127234728D01*
X165755847Y-127195373D01*
X165755842Y-127195370D01*
X165636670Y-127134648D01*
X165585874Y-127086674D01*
X165569079Y-127018853D01*
X165591617Y-126952718D01*
X165636670Y-126913679D01*
X165703705Y-126879524D01*
X165862946Y-126763828D01*
X166002128Y-126624646D01*
X166117824Y-126465405D01*
X166207184Y-126290025D01*
X166268009Y-126102826D01*
X166295147Y-125931483D01*
X166298800Y-125908422D01*
X166298800Y-125711577D01*
X166268009Y-125517173D01*
X166234092Y-125412789D01*
X166207184Y-125329975D01*
X166207182Y-125329972D01*
X166207182Y-125329970D01*
X166117823Y-125154594D01*
X166002128Y-124995354D01*
X165862946Y-124856172D01*
X165783325Y-124798324D01*
X165703703Y-124740474D01*
X165527087Y-124650485D01*
X165476290Y-124602511D01*
X165459495Y-124534690D01*
X165482032Y-124468555D01*
X165527087Y-124429515D01*
X165703703Y-124339525D01*
X165703702Y-124339525D01*
X165703705Y-124339524D01*
X165862946Y-124223828D01*
X166002128Y-124084646D01*
X166117824Y-123925405D01*
X166207184Y-123750025D01*
X166268009Y-123562826D01*
X166288764Y-123431783D01*
X166298800Y-123368422D01*
X166298800Y-123171577D01*
X166268009Y-122977173D01*
X166232414Y-122867625D01*
X166207184Y-122789975D01*
X166207182Y-122789972D01*
X166207182Y-122789970D01*
X166136271Y-122650800D01*
X166117824Y-122614595D01*
X166002128Y-122455354D01*
X165862946Y-122316172D01*
X165766327Y-122245974D01*
X165703703Y-122200474D01*
X165527087Y-122110485D01*
X165476290Y-122062511D01*
X165459495Y-121994690D01*
X165482032Y-121928555D01*
X165527087Y-121889515D01*
X165703703Y-121799525D01*
X165703702Y-121799525D01*
X165703705Y-121799524D01*
X165862946Y-121683828D01*
X166002128Y-121544646D01*
X166117824Y-121385405D01*
X166207184Y-121210025D01*
X166268009Y-121022826D01*
X166270574Y-121006630D01*
X166298800Y-120828422D01*
X166298800Y-120631577D01*
X166268009Y-120437173D01*
X166234092Y-120332789D01*
X166207184Y-120249975D01*
X166207182Y-120249972D01*
X166207182Y-120249970D01*
X166143264Y-120124524D01*
X166117824Y-120074595D01*
X166002128Y-119915354D01*
X165862946Y-119776172D01*
X165772423Y-119710403D01*
X165703703Y-119660474D01*
X165527087Y-119570485D01*
X165476290Y-119522511D01*
X165459495Y-119454690D01*
X165482032Y-119388555D01*
X165527087Y-119349515D01*
X165703703Y-119259525D01*
X165703702Y-119259525D01*
X165703705Y-119259524D01*
X165862946Y-119143828D01*
X166002128Y-119004646D01*
X166117824Y-118845405D01*
X166207184Y-118670025D01*
X166268009Y-118482826D01*
X166270574Y-118466629D01*
X166298800Y-118288422D01*
X166298800Y-118091577D01*
X166274749Y-117939728D01*
X166268009Y-117897174D01*
X166255106Y-117857466D01*
X166253110Y-117787627D01*
X166285354Y-117731469D01*
X167103810Y-116913015D01*
X167176284Y-116787485D01*
X167213800Y-116647474D01*
X167213800Y-116502526D01*
X167213800Y-111527625D01*
X167233485Y-111460586D01*
X167286289Y-111414831D01*
X167355447Y-111404887D01*
X167419003Y-111433912D01*
X167425481Y-111439944D01*
X167496227Y-111510690D01*
X167626686Y-111605474D01*
X167669351Y-111660803D01*
X167677800Y-111705791D01*
X167677800Y-117008330D01*
X167677799Y-117008348D01*
X167677799Y-117174054D01*
X167677798Y-117174054D01*
X167718723Y-117326784D01*
X167718723Y-117326785D01*
X167746765Y-117375355D01*
X167746765Y-117375356D01*
X167797775Y-117463709D01*
X167797781Y-117463717D01*
X167916649Y-117582585D01*
X167916655Y-117582590D01*
X171491481Y-121157416D01*
X171524966Y-121218739D01*
X171527800Y-121245097D01*
X171527800Y-122260701D01*
X171530701Y-122297567D01*
X171530702Y-122297573D01*
X171576554Y-122455393D01*
X171576555Y-122455396D01*
X171660217Y-122596862D01*
X171660223Y-122596870D01*
X171776429Y-122713076D01*
X171776433Y-122713079D01*
X171776435Y-122713081D01*
X171917902Y-122796744D01*
X171935329Y-122801807D01*
X172075726Y-122842597D01*
X172075729Y-122842597D01*
X172075731Y-122842598D01*
X172112606Y-122845500D01*
X172112614Y-122845500D01*
X173443986Y-122845500D01*
X173443994Y-122845500D01*
X173480869Y-122842598D01*
X173480871Y-122842597D01*
X173480873Y-122842597D01*
X173525918Y-122829510D01*
X173638698Y-122796744D01*
X173780165Y-122713081D01*
X173896381Y-122596865D01*
X173980044Y-122455398D01*
X174020493Y-122316174D01*
X174027666Y-122291485D01*
X174029391Y-122291986D01*
X174056901Y-122237292D01*
X174117059Y-122201756D01*
X174186879Y-122204384D01*
X174244195Y-122244343D01*
X174247811Y-122249077D01*
X174283041Y-122297567D01*
X174364472Y-122409646D01*
X174503654Y-122548828D01*
X174662895Y-122664524D01*
X174745755Y-122706743D01*
X174838270Y-122753882D01*
X174838272Y-122753882D01*
X174838275Y-122753884D01*
X174938617Y-122786487D01*
X175025473Y-122814709D01*
X175219878Y-122845500D01*
X175219883Y-122845500D01*
X175416722Y-122845500D01*
X175505084Y-122831504D01*
X175611126Y-122814709D01*
X175650833Y-122801806D01*
X175720669Y-122799810D01*
X175776831Y-122832056D01*
X176304085Y-123359310D01*
X176429615Y-123431784D01*
X176569625Y-123469300D01*
X176569626Y-123469300D01*
X176569628Y-123469300D01*
X178495672Y-123469300D01*
X178495674Y-123469300D01*
X178495675Y-123469300D01*
X178635685Y-123431784D01*
X178761215Y-123359310D01*
X179609010Y-122511515D01*
X179681484Y-122385985D01*
X179699643Y-122318214D01*
X179719000Y-122245975D01*
X179719000Y-112598425D01*
X179681484Y-112458415D01*
X179681483Y-112458414D01*
X179679656Y-112451594D01*
X179681319Y-112381744D01*
X179720481Y-112323881D01*
X179784710Y-112296377D01*
X179799431Y-112295500D01*
X180393986Y-112295500D01*
X180393994Y-112295500D01*
X180430869Y-112292598D01*
X180430871Y-112292597D01*
X180430873Y-112292597D01*
X180478661Y-112278713D01*
X180588698Y-112246744D01*
X180730165Y-112163081D01*
X180784270Y-112108975D01*
X180845589Y-112075492D01*
X180915281Y-112080476D01*
X180944835Y-112096340D01*
X181096950Y-112206859D01*
X181279268Y-112299755D01*
X181473882Y-112362990D01*
X181675983Y-112395000D01*
X181880617Y-112395000D01*
X182082717Y-112362990D01*
X182277331Y-112299755D01*
X182459649Y-112206859D01*
X182504221Y-112174474D01*
X181824747Y-111495000D01*
X181830961Y-111495000D01*
X181932694Y-111467741D01*
X182023906Y-111415080D01*
X182098380Y-111340606D01*
X182151041Y-111249394D01*
X182178300Y-111147661D01*
X182178300Y-111141447D01*
X182857774Y-111820921D01*
X182890159Y-111776349D01*
X182983055Y-111594031D01*
X183046290Y-111399417D01*
X183078300Y-111197317D01*
X183078300Y-110992682D01*
X183046290Y-110790582D01*
X182983055Y-110595968D01*
X182890159Y-110413650D01*
X182857774Y-110369077D01*
X182857774Y-110369076D01*
X182178300Y-111048551D01*
X182178300Y-111042339D01*
X182151041Y-110940606D01*
X182098380Y-110849394D01*
X182023906Y-110774920D01*
X181932694Y-110722259D01*
X181830961Y-110695000D01*
X181824746Y-110695000D01*
X182504222Y-110015524D01*
X182504221Y-110015523D01*
X182459659Y-109983147D01*
X182459650Y-109983141D01*
X182277329Y-109890244D01*
X182133876Y-109843633D01*
X182076200Y-109804195D01*
X182049002Y-109739837D01*
X182060917Y-109670990D01*
X182084509Y-109638026D01*
X183285620Y-108436916D01*
X183364677Y-108299984D01*
X183405601Y-108147257D01*
X183405601Y-107989142D01*
X183405601Y-107981547D01*
X183405600Y-107981529D01*
X183405600Y-106492682D01*
X184678300Y-106492682D01*
X184678300Y-106697317D01*
X184710309Y-106899417D01*
X184773544Y-107094031D01*
X184866441Y-107276350D01*
X184866447Y-107276359D01*
X184898823Y-107320921D01*
X184898824Y-107320922D01*
X185578300Y-106641446D01*
X185578300Y-106647661D01*
X185605559Y-106749394D01*
X185658220Y-106840606D01*
X185732694Y-106915080D01*
X185823906Y-106967741D01*
X185925639Y-106995000D01*
X185931853Y-106995000D01*
X185252376Y-107674474D01*
X185296950Y-107706859D01*
X185479268Y-107799755D01*
X185673882Y-107862990D01*
X185875983Y-107895000D01*
X186080617Y-107895000D01*
X186282717Y-107862990D01*
X186477331Y-107799755D01*
X186659649Y-107706859D01*
X186704221Y-107674474D01*
X186024747Y-106995000D01*
X186030961Y-106995000D01*
X186132694Y-106967741D01*
X186223906Y-106915080D01*
X186298380Y-106840606D01*
X186351041Y-106749394D01*
X186378300Y-106647661D01*
X186378300Y-106641447D01*
X187057774Y-107320921D01*
X187090159Y-107276349D01*
X187183055Y-107094031D01*
X187246290Y-106899417D01*
X187278300Y-106697317D01*
X187278300Y-106492682D01*
X187246290Y-106290582D01*
X187183055Y-106095968D01*
X187090159Y-105913650D01*
X187057774Y-105869077D01*
X187057774Y-105869076D01*
X186378300Y-106548551D01*
X186378300Y-106542339D01*
X186351041Y-106440606D01*
X186298380Y-106349394D01*
X186223906Y-106274920D01*
X186132694Y-106222259D01*
X186030961Y-106195000D01*
X186024746Y-106195000D01*
X186704222Y-105515524D01*
X186704221Y-105515523D01*
X186659659Y-105483147D01*
X186659650Y-105483141D01*
X186477331Y-105390244D01*
X186282717Y-105327009D01*
X186080617Y-105295000D01*
X185875983Y-105295000D01*
X185673882Y-105327009D01*
X185479268Y-105390244D01*
X185296944Y-105483143D01*
X185252377Y-105515523D01*
X185252377Y-105515524D01*
X185931854Y-106195000D01*
X185925639Y-106195000D01*
X185823906Y-106222259D01*
X185732694Y-106274920D01*
X185658220Y-106349394D01*
X185605559Y-106440606D01*
X185578300Y-106542339D01*
X185578300Y-106548553D01*
X184898824Y-105869077D01*
X184898823Y-105869077D01*
X184866443Y-105913644D01*
X184773544Y-106095968D01*
X184710309Y-106290582D01*
X184678300Y-106492682D01*
X183405600Y-106492682D01*
X183405600Y-102992682D01*
X184678300Y-102992682D01*
X184678300Y-103197317D01*
X184710309Y-103399417D01*
X184773544Y-103594031D01*
X184866441Y-103776350D01*
X184866447Y-103776359D01*
X184898823Y-103820921D01*
X184898824Y-103820922D01*
X185578300Y-103141446D01*
X185578300Y-103147661D01*
X185605559Y-103249394D01*
X185658220Y-103340606D01*
X185732694Y-103415080D01*
X185823906Y-103467741D01*
X185925639Y-103495000D01*
X185931853Y-103495000D01*
X185252376Y-104174474D01*
X185296950Y-104206859D01*
X185479268Y-104299755D01*
X185673882Y-104362990D01*
X185875983Y-104395000D01*
X186080617Y-104395000D01*
X186282717Y-104362990D01*
X186477331Y-104299755D01*
X186659649Y-104206859D01*
X186704221Y-104174474D01*
X186024747Y-103495000D01*
X186030961Y-103495000D01*
X186132694Y-103467741D01*
X186223906Y-103415080D01*
X186298380Y-103340606D01*
X186351041Y-103249394D01*
X186378300Y-103147661D01*
X186378300Y-103141447D01*
X187057774Y-103820921D01*
X187090159Y-103776349D01*
X187183055Y-103594031D01*
X187246290Y-103399417D01*
X187278300Y-103197317D01*
X187278300Y-102992682D01*
X187246290Y-102790582D01*
X187183055Y-102595968D01*
X187090159Y-102413650D01*
X187057774Y-102369077D01*
X187057774Y-102369076D01*
X186378300Y-103048551D01*
X186378300Y-103042339D01*
X186351041Y-102940606D01*
X186298380Y-102849394D01*
X186223906Y-102774920D01*
X186132694Y-102722259D01*
X186030961Y-102695000D01*
X186024746Y-102695000D01*
X186704222Y-102015524D01*
X186704221Y-102015523D01*
X186659659Y-101983147D01*
X186659650Y-101983141D01*
X186477331Y-101890244D01*
X186282717Y-101827009D01*
X186080617Y-101795000D01*
X185875983Y-101795000D01*
X185673882Y-101827009D01*
X185479268Y-101890244D01*
X185296944Y-101983143D01*
X185252377Y-102015523D01*
X185252377Y-102015524D01*
X185931854Y-102695000D01*
X185925639Y-102695000D01*
X185823906Y-102722259D01*
X185732694Y-102774920D01*
X185658220Y-102849394D01*
X185605559Y-102940606D01*
X185578300Y-103042339D01*
X185578300Y-103048553D01*
X184898824Y-102369077D01*
X184898823Y-102369077D01*
X184866443Y-102413644D01*
X184773544Y-102595968D01*
X184710309Y-102790582D01*
X184678300Y-102992682D01*
X183405600Y-102992682D01*
X183405600Y-99492682D01*
X184678300Y-99492682D01*
X184678300Y-99697317D01*
X184710309Y-99899417D01*
X184773544Y-100094031D01*
X184866441Y-100276350D01*
X184866447Y-100276359D01*
X184898823Y-100320921D01*
X184898824Y-100320922D01*
X185578300Y-99641446D01*
X185578300Y-99647661D01*
X185605559Y-99749394D01*
X185658220Y-99840606D01*
X185732694Y-99915080D01*
X185823906Y-99967741D01*
X185925639Y-99995000D01*
X185931853Y-99995000D01*
X185252376Y-100674474D01*
X185296950Y-100706859D01*
X185479268Y-100799755D01*
X185673882Y-100862990D01*
X185875983Y-100895000D01*
X186080617Y-100895000D01*
X186282717Y-100862990D01*
X186477331Y-100799755D01*
X186659649Y-100706859D01*
X186704221Y-100674474D01*
X186024747Y-99995000D01*
X186030961Y-99995000D01*
X186132694Y-99967741D01*
X186223906Y-99915080D01*
X186298380Y-99840606D01*
X186351041Y-99749394D01*
X186378300Y-99647661D01*
X186378300Y-99641447D01*
X187057774Y-100320921D01*
X187090159Y-100276349D01*
X187183055Y-100094031D01*
X187246290Y-99899417D01*
X187278300Y-99697317D01*
X187278300Y-99492682D01*
X187246290Y-99290582D01*
X187183055Y-99095968D01*
X187090159Y-98913650D01*
X187057774Y-98869077D01*
X187057774Y-98869076D01*
X186378300Y-99548551D01*
X186378300Y-99542339D01*
X186351041Y-99440606D01*
X186298380Y-99349394D01*
X186223906Y-99274920D01*
X186132694Y-99222259D01*
X186030961Y-99195000D01*
X186024746Y-99195000D01*
X186704222Y-98515524D01*
X186704221Y-98515523D01*
X186659659Y-98483147D01*
X186659650Y-98483141D01*
X186477331Y-98390244D01*
X186282717Y-98327009D01*
X186080617Y-98295000D01*
X185875983Y-98295000D01*
X185673882Y-98327009D01*
X185479268Y-98390244D01*
X185296944Y-98483143D01*
X185252377Y-98515523D01*
X185252377Y-98515524D01*
X185931854Y-99195000D01*
X185925639Y-99195000D01*
X185823906Y-99222259D01*
X185732694Y-99274920D01*
X185658220Y-99349394D01*
X185605559Y-99440606D01*
X185578300Y-99542339D01*
X185578300Y-99548553D01*
X184898824Y-98869077D01*
X184898823Y-98869077D01*
X184866443Y-98913644D01*
X184773544Y-99095968D01*
X184710309Y-99290582D01*
X184678300Y-99492682D01*
X183405600Y-99492682D01*
X183405600Y-88368296D01*
X183425285Y-88301257D01*
X183441914Y-88280620D01*
X184216622Y-87505912D01*
X184277942Y-87472429D01*
X184347633Y-87477413D01*
X184403567Y-87519285D01*
X184427984Y-87584749D01*
X184428300Y-87593595D01*
X184428300Y-87741246D01*
X184461542Y-87951127D01*
X184461542Y-87951130D01*
X184527204Y-88153217D01*
X184623675Y-88342550D01*
X184663028Y-88396716D01*
X185295337Y-87764408D01*
X185312375Y-87827993D01*
X185378201Y-87942007D01*
X185471293Y-88035099D01*
X185585307Y-88100925D01*
X185648890Y-88117962D01*
X185016582Y-88750269D01*
X185016582Y-88750270D01*
X185070749Y-88789624D01*
X185189929Y-88850350D01*
X185240725Y-88898325D01*
X185257520Y-88966146D01*
X185234982Y-89032281D01*
X185189930Y-89071319D01*
X185122897Y-89105474D01*
X185043274Y-89163324D01*
X184963654Y-89221172D01*
X184963652Y-89221174D01*
X184963651Y-89221174D01*
X184824474Y-89360351D01*
X184824474Y-89360352D01*
X184824472Y-89360354D01*
X184774785Y-89428741D01*
X184708776Y-89519594D01*
X184619417Y-89694970D01*
X184558590Y-89882173D01*
X184527800Y-90076577D01*
X184527800Y-90273422D01*
X184558590Y-90467826D01*
X184619417Y-90655029D01*
X184683190Y-90780189D01*
X184708776Y-90830405D01*
X184824472Y-90989646D01*
X184963654Y-91128828D01*
X185122895Y-91244524D01*
X185184284Y-91275803D01*
X185299513Y-91334515D01*
X185350309Y-91382489D01*
X185367104Y-91450310D01*
X185344567Y-91516445D01*
X185299513Y-91555485D01*
X185122894Y-91645476D01*
X185032041Y-91711485D01*
X184963654Y-91761172D01*
X184963652Y-91761174D01*
X184963651Y-91761174D01*
X184824474Y-91900351D01*
X184824474Y-91900352D01*
X184824472Y-91900354D01*
X184774785Y-91968741D01*
X184708776Y-92059594D01*
X184619417Y-92234970D01*
X184558590Y-92422173D01*
X184527800Y-92616577D01*
X184527800Y-92813422D01*
X184558590Y-93007826D01*
X184619417Y-93195029D01*
X184708776Y-93370405D01*
X184824472Y-93529646D01*
X184963654Y-93668828D01*
X185122895Y-93784524D01*
X185205755Y-93826743D01*
X185298270Y-93873882D01*
X185298272Y-93873882D01*
X185298275Y-93873884D01*
X185398617Y-93906487D01*
X185485473Y-93934709D01*
X185679878Y-93965500D01*
X185679883Y-93965500D01*
X185876722Y-93965500D01*
X186071126Y-93934709D01*
X186258325Y-93873884D01*
X186433705Y-93784524D01*
X186592946Y-93668828D01*
X186732128Y-93529646D01*
X186847824Y-93370405D01*
X186937184Y-93195025D01*
X186998009Y-93007826D01*
X187028800Y-92813422D01*
X187028800Y-92616577D01*
X186998009Y-92422173D01*
X186937182Y-92234970D01*
X186847823Y-92059594D01*
X186732128Y-91900354D01*
X186592946Y-91761172D01*
X186513325Y-91703324D01*
X186433703Y-91645474D01*
X186257087Y-91555485D01*
X186206290Y-91507511D01*
X186189495Y-91439690D01*
X186212032Y-91373555D01*
X186257087Y-91334515D01*
X186433703Y-91244525D01*
X186433702Y-91244525D01*
X186433705Y-91244524D01*
X186592946Y-91128828D01*
X186732128Y-90989646D01*
X186847824Y-90830405D01*
X186937184Y-90655025D01*
X186998009Y-90467826D01*
X187002512Y-90439394D01*
X187028800Y-90273422D01*
X187028800Y-90076577D01*
X186998009Y-89882173D01*
X186937182Y-89694970D01*
X186847823Y-89519594D01*
X186732128Y-89360354D01*
X186592946Y-89221172D01*
X186433705Y-89105476D01*
X186366670Y-89071320D01*
X186315874Y-89023345D01*
X186299079Y-88955524D01*
X186321616Y-88889389D01*
X186366670Y-88850350D01*
X186485854Y-88789622D01*
X186540016Y-88750270D01*
X186540017Y-88750270D01*
X185907708Y-88117962D01*
X185971293Y-88100925D01*
X186085307Y-88035099D01*
X186178399Y-87942007D01*
X186244225Y-87827993D01*
X186261262Y-87764409D01*
X186893570Y-88396717D01*
X186893570Y-88396716D01*
X186932922Y-88342554D01*
X187029395Y-88153217D01*
X187095057Y-87951130D01*
X187095057Y-87951127D01*
X187128300Y-87741246D01*
X187128300Y-87528753D01*
X187095057Y-87318872D01*
X187095057Y-87318869D01*
X187029395Y-87116782D01*
X186932924Y-86927449D01*
X186893570Y-86873282D01*
X186893569Y-86873282D01*
X186261262Y-87505590D01*
X186244225Y-87442007D01*
X186178399Y-87327993D01*
X186085307Y-87234901D01*
X185971293Y-87169075D01*
X185907708Y-87152037D01*
X186540016Y-86519728D01*
X186536829Y-86479229D01*
X186551193Y-86410851D01*
X186600244Y-86361094D01*
X186655046Y-86346897D01*
X186654967Y-86345881D01*
X186659811Y-86345499D01*
X186659818Y-86345499D01*
X186753604Y-86330646D01*
X186866642Y-86273050D01*
X186956350Y-86183342D01*
X187013946Y-86070304D01*
X187013946Y-86070302D01*
X187013947Y-86070301D01*
X187028799Y-85976524D01*
X187028800Y-85976519D01*
X187028799Y-84213482D01*
X187013946Y-84119696D01*
X186956350Y-84006658D01*
X186956346Y-84006654D01*
X186956345Y-84006652D01*
X186866647Y-83916954D01*
X186866644Y-83916952D01*
X186866642Y-83916950D01*
X186789817Y-83877805D01*
X186753601Y-83859352D01*
X186659824Y-83844500D01*
X184896782Y-83844500D01*
X184815819Y-83857323D01*
X184802996Y-83859354D01*
X184689958Y-83916950D01*
X184689957Y-83916951D01*
X184689952Y-83916954D01*
X184600254Y-84006652D01*
X184600251Y-84006657D01*
X184600250Y-84006658D01*
X184595004Y-84016954D01*
X184542652Y-84119698D01*
X184527800Y-84213475D01*
X184527800Y-85444901D01*
X184508115Y-85511940D01*
X184491481Y-85532582D01*
X182436386Y-87587678D01*
X182324581Y-87699482D01*
X182324579Y-87699485D01*
X182274461Y-87786294D01*
X182274459Y-87786296D01*
X182245525Y-87836409D01*
X182245524Y-87836410D01*
X182245523Y-87836415D01*
X182204599Y-87989143D01*
X182204599Y-87989145D01*
X182204599Y-88157246D01*
X182204600Y-88157259D01*
X182204600Y-98858811D01*
X182184915Y-98925850D01*
X182132111Y-98971605D01*
X182062953Y-98981549D01*
X181999397Y-98952524D01*
X181980282Y-98931697D01*
X181951412Y-98891961D01*
X181893990Y-98812927D01*
X181760373Y-98679310D01*
X181607499Y-98568240D01*
X181566561Y-98547381D01*
X181439136Y-98482454D01*
X181259418Y-98424059D01*
X181072786Y-98394500D01*
X181072781Y-98394500D01*
X180883819Y-98394500D01*
X180883814Y-98394500D01*
X180697181Y-98424059D01*
X180517463Y-98482454D01*
X180349100Y-98568240D01*
X180284905Y-98614881D01*
X180196227Y-98679310D01*
X180196225Y-98679312D01*
X180196224Y-98679312D01*
X180062612Y-98812924D01*
X180062612Y-98812925D01*
X180062610Y-98812927D01*
X180014910Y-98878579D01*
X179951540Y-98965800D01*
X179865754Y-99134163D01*
X179826231Y-99255803D01*
X179786793Y-99313478D01*
X179722434Y-99340676D01*
X179653588Y-99328761D01*
X179602112Y-99281516D01*
X179590369Y-99255803D01*
X179579470Y-99222259D01*
X179550847Y-99134168D01*
X179550845Y-99134165D01*
X179550845Y-99134163D01*
X179465059Y-98965800D01*
X179353990Y-98812927D01*
X179220373Y-98679310D01*
X179067499Y-98568240D01*
X179026561Y-98547381D01*
X178899136Y-98482454D01*
X178719418Y-98424059D01*
X178532786Y-98394500D01*
X178532781Y-98394500D01*
X178343819Y-98394500D01*
X178343814Y-98394500D01*
X178157181Y-98424059D01*
X177977463Y-98482454D01*
X177809100Y-98568240D01*
X177744905Y-98614881D01*
X177656227Y-98679310D01*
X177656225Y-98679312D01*
X177656224Y-98679312D01*
X177564412Y-98771125D01*
X177503089Y-98804610D01*
X177433397Y-98799626D01*
X177389050Y-98771125D01*
X169057319Y-90439394D01*
X169023834Y-90378071D01*
X169021000Y-90351713D01*
X169021000Y-87187663D01*
X169040685Y-87120624D01*
X169093489Y-87074869D01*
X169162647Y-87064925D01*
X169226203Y-87093950D01*
X169248572Y-87120332D01*
X169248676Y-87120257D01*
X169249674Y-87121631D01*
X169250729Y-87122875D01*
X169251540Y-87124199D01*
X169362610Y-87277073D01*
X169496227Y-87410690D01*
X169649101Y-87521760D01*
X169662826Y-87528753D01*
X169817463Y-87607545D01*
X169817465Y-87607545D01*
X169817468Y-87607547D01*
X169901956Y-87634999D01*
X169997181Y-87665940D01*
X170183814Y-87695500D01*
X170183819Y-87695500D01*
X170372786Y-87695500D01*
X170559418Y-87665940D01*
X170739132Y-87607547D01*
X170907499Y-87521760D01*
X171060373Y-87410690D01*
X171193990Y-87277073D01*
X171305060Y-87124199D01*
X171390847Y-86955832D01*
X171449240Y-86776118D01*
X171478800Y-86589486D01*
X171478800Y-86400513D01*
X171458610Y-86273045D01*
X171449240Y-86213882D01*
X171445426Y-86202146D01*
X171443430Y-86132308D01*
X171475674Y-86076149D01*
X172499310Y-85052515D01*
X172571784Y-84926985D01*
X172588871Y-84863215D01*
X172609300Y-84786975D01*
X172609300Y-80101125D01*
X172571784Y-79961115D01*
X172542682Y-79910709D01*
X172499310Y-79835585D01*
X170814860Y-78151135D01*
X170781375Y-78089812D01*
X170786359Y-78020120D01*
X170828231Y-77964187D01*
X170846243Y-77952970D01*
X170907499Y-77921760D01*
X171060373Y-77810690D01*
X171193990Y-77677073D01*
X171305060Y-77524199D01*
X171390847Y-77355832D01*
X171449240Y-77176118D01*
X171469386Y-77048922D01*
X171478800Y-76989486D01*
X171478800Y-76800513D01*
X171449240Y-76613881D01*
X171406488Y-76482307D01*
X171390847Y-76434168D01*
X171390845Y-76434165D01*
X171390845Y-76434163D01*
X171321044Y-76297172D01*
X171305060Y-76265801D01*
X171193990Y-76112927D01*
X171060373Y-75979310D01*
X170907499Y-75868240D01*
X170739136Y-75782454D01*
X170559418Y-75724059D01*
X170372786Y-75694500D01*
X170372781Y-75694500D01*
X170183819Y-75694500D01*
X170183814Y-75694500D01*
X169997181Y-75724060D01*
X169997176Y-75724061D01*
X169985440Y-75727874D01*
X169915599Y-75729866D01*
X169859447Y-75697622D01*
X169572578Y-75410753D01*
X177381400Y-75410753D01*
X177381400Y-75568446D01*
X177412161Y-75723089D01*
X177412164Y-75723101D01*
X177472502Y-75868772D01*
X177472509Y-75868785D01*
X177560110Y-75999888D01*
X177560113Y-75999892D01*
X177595080Y-76034858D01*
X177628566Y-76096180D01*
X177631400Y-76122540D01*
X177631400Y-84311075D01*
X177648073Y-84373300D01*
X177648085Y-84373342D01*
X177668916Y-84451085D01*
X177741389Y-84576613D01*
X177741391Y-84576616D01*
X179240922Y-86076147D01*
X179274407Y-86137470D01*
X179271174Y-86202140D01*
X179267360Y-86213879D01*
X179237800Y-86400513D01*
X179237800Y-86589486D01*
X179267359Y-86776118D01*
X179325754Y-86955836D01*
X179381338Y-87064925D01*
X179411540Y-87124199D01*
X179522610Y-87277073D01*
X179656227Y-87410690D01*
X179809101Y-87521760D01*
X179822826Y-87528753D01*
X179977463Y-87607545D01*
X179977465Y-87607545D01*
X179977468Y-87607547D01*
X180061956Y-87634999D01*
X180157181Y-87665940D01*
X180343814Y-87695500D01*
X180343819Y-87695500D01*
X180532786Y-87695500D01*
X180719418Y-87665940D01*
X180899132Y-87607547D01*
X181067499Y-87521760D01*
X181220373Y-87410690D01*
X181353990Y-87277073D01*
X181465060Y-87124199D01*
X181550847Y-86955832D01*
X181609240Y-86776118D01*
X181638800Y-86589486D01*
X181638800Y-86400513D01*
X181609240Y-86213881D01*
X181550845Y-86034163D01*
X181481345Y-85897762D01*
X181465060Y-85865801D01*
X181353990Y-85712927D01*
X181220373Y-85579310D01*
X181067499Y-85468240D01*
X180899136Y-85382454D01*
X180719418Y-85324059D01*
X180532786Y-85294500D01*
X180532781Y-85294500D01*
X180343819Y-85294500D01*
X180343814Y-85294500D01*
X180157179Y-85324060D01*
X180145440Y-85327874D01*
X180075599Y-85329866D01*
X180019447Y-85297622D01*
X178768719Y-84046894D01*
X178735234Y-83985571D01*
X178732400Y-83959213D01*
X178732400Y-83200513D01*
X179237800Y-83200513D01*
X179237800Y-83389486D01*
X179267359Y-83576118D01*
X179325754Y-83755836D01*
X179378499Y-83859352D01*
X179411540Y-83924199D01*
X179522610Y-84077073D01*
X179656227Y-84210690D01*
X179809101Y-84321760D01*
X179888647Y-84362290D01*
X179977463Y-84407545D01*
X179977465Y-84407545D01*
X179977468Y-84407547D01*
X180073797Y-84438846D01*
X180157181Y-84465940D01*
X180343814Y-84495500D01*
X180343819Y-84495500D01*
X180532786Y-84495500D01*
X180719418Y-84465940D01*
X180899132Y-84407547D01*
X181067499Y-84321760D01*
X181220373Y-84210690D01*
X181353990Y-84077073D01*
X181465060Y-83924199D01*
X181550847Y-83755832D01*
X181609240Y-83576118D01*
X181638800Y-83389486D01*
X181638800Y-83200513D01*
X181609240Y-83013881D01*
X181550845Y-82834163D01*
X181465059Y-82665800D01*
X181353990Y-82512927D01*
X181220373Y-82379310D01*
X181067499Y-82268240D01*
X180899136Y-82182454D01*
X180719418Y-82124059D01*
X180532786Y-82094500D01*
X180532781Y-82094500D01*
X180343819Y-82094500D01*
X180343814Y-82094500D01*
X180157181Y-82124059D01*
X179977463Y-82182454D01*
X179809100Y-82268240D01*
X179760000Y-82303914D01*
X179656227Y-82379310D01*
X179656225Y-82379312D01*
X179656224Y-82379312D01*
X179522612Y-82512924D01*
X179522612Y-82512925D01*
X179522610Y-82512927D01*
X179493041Y-82553625D01*
X179411540Y-82665800D01*
X179325754Y-82834163D01*
X179267359Y-83013881D01*
X179237800Y-83200513D01*
X178732400Y-83200513D01*
X178732400Y-80000513D01*
X179237800Y-80000513D01*
X179237800Y-80189486D01*
X179267359Y-80376118D01*
X179325754Y-80555836D01*
X179411540Y-80724199D01*
X179522610Y-80877073D01*
X179656227Y-81010690D01*
X179809101Y-81121760D01*
X179888647Y-81162290D01*
X179977463Y-81207545D01*
X179977465Y-81207545D01*
X179977468Y-81207547D01*
X180073177Y-81238645D01*
X180157181Y-81265940D01*
X180343814Y-81295500D01*
X180343819Y-81295500D01*
X180532786Y-81295500D01*
X180719418Y-81265940D01*
X180737299Y-81260130D01*
X180899132Y-81207547D01*
X181067499Y-81121760D01*
X181220373Y-81010690D01*
X181353990Y-80877073D01*
X181465060Y-80724199D01*
X181550847Y-80555832D01*
X181609240Y-80376118D01*
X181613828Y-80347152D01*
X181638800Y-80189486D01*
X181638800Y-80000513D01*
X181609240Y-79813881D01*
X181566420Y-79682097D01*
X181550847Y-79634168D01*
X181550845Y-79634165D01*
X181550845Y-79634163D01*
X181505590Y-79545347D01*
X181465060Y-79465801D01*
X181353990Y-79312927D01*
X181220373Y-79179310D01*
X181067499Y-79068240D01*
X181039169Y-79053805D01*
X180899136Y-78982454D01*
X180719418Y-78924059D01*
X180532786Y-78894500D01*
X180532781Y-78894500D01*
X180343819Y-78894500D01*
X180343814Y-78894500D01*
X180157181Y-78924059D01*
X179977463Y-78982454D01*
X179809100Y-79068240D01*
X179735439Y-79121759D01*
X179656227Y-79179310D01*
X179656225Y-79179312D01*
X179656224Y-79179312D01*
X179522612Y-79312924D01*
X179522612Y-79312925D01*
X179522610Y-79312927D01*
X179497170Y-79347942D01*
X179411540Y-79465800D01*
X179325754Y-79634163D01*
X179267359Y-79813881D01*
X179237800Y-80000513D01*
X178732400Y-80000513D01*
X178732400Y-76122540D01*
X178752085Y-76055501D01*
X178768720Y-76034858D01*
X178803686Y-75999892D01*
X178803689Y-75999889D01*
X178891294Y-75868779D01*
X178951637Y-75723097D01*
X178982400Y-75568442D01*
X178982400Y-75410758D01*
X178982400Y-75410755D01*
X178982399Y-75410753D01*
X178965518Y-75325889D01*
X178951637Y-75256103D01*
X178902500Y-75137475D01*
X178891297Y-75110427D01*
X178891290Y-75110414D01*
X178803689Y-74979311D01*
X178803686Y-74979307D01*
X178692192Y-74867813D01*
X178692188Y-74867810D01*
X178561085Y-74780209D01*
X178561072Y-74780202D01*
X178415401Y-74719864D01*
X178415389Y-74719861D01*
X178260745Y-74689100D01*
X178260742Y-74689100D01*
X178103058Y-74689100D01*
X178103055Y-74689100D01*
X177948410Y-74719861D01*
X177948398Y-74719864D01*
X177802727Y-74780202D01*
X177802714Y-74780209D01*
X177671611Y-74867810D01*
X177671607Y-74867813D01*
X177560113Y-74979307D01*
X177560110Y-74979311D01*
X177472509Y-75110414D01*
X177472502Y-75110427D01*
X177412164Y-75256098D01*
X177412161Y-75256110D01*
X177381400Y-75410753D01*
X169572578Y-75410753D01*
X169335619Y-75173794D01*
X169302134Y-75112471D01*
X169299300Y-75086113D01*
X169299300Y-74710977D01*
X169318985Y-74643938D01*
X169371789Y-74598183D01*
X169440947Y-74588239D01*
X169496186Y-74610659D01*
X169496222Y-74610685D01*
X169496227Y-74610690D01*
X169649101Y-74721760D01*
X169728647Y-74762290D01*
X169817463Y-74807545D01*
X169817465Y-74807545D01*
X169817468Y-74807547D01*
X169913797Y-74838846D01*
X169997181Y-74865940D01*
X170183814Y-74895500D01*
X170183819Y-74895500D01*
X170372786Y-74895500D01*
X170559418Y-74865940D01*
X170739132Y-74807547D01*
X170907499Y-74721760D01*
X171060373Y-74610690D01*
X171193990Y-74477073D01*
X171305060Y-74324199D01*
X171390847Y-74155832D01*
X171449240Y-73976118D01*
X171453765Y-73947547D01*
X171478800Y-73789486D01*
X171478800Y-73600513D01*
X171449240Y-73413881D01*
X171390845Y-73234163D01*
X171330698Y-73116118D01*
X171305060Y-73065801D01*
X171193990Y-72912927D01*
X171060373Y-72779310D01*
X170907499Y-72668240D01*
X170904669Y-72666798D01*
X170739136Y-72582454D01*
X170559418Y-72524059D01*
X170372786Y-72494500D01*
X170372781Y-72494500D01*
X170183819Y-72494500D01*
X170183814Y-72494500D01*
X169997181Y-72524059D01*
X169817463Y-72582454D01*
X169649100Y-72668240D01*
X169496186Y-72779340D01*
X169430379Y-72802820D01*
X169362325Y-72786995D01*
X169313630Y-72736889D01*
X169299300Y-72679022D01*
X169299300Y-71510977D01*
X169318985Y-71443938D01*
X169371789Y-71398183D01*
X169440947Y-71388239D01*
X169496186Y-71410659D01*
X169496222Y-71410685D01*
X169496227Y-71410690D01*
X169649101Y-71521760D01*
X169689490Y-71542339D01*
X169817463Y-71607545D01*
X169817465Y-71607545D01*
X169817468Y-71607547D01*
X169854908Y-71619712D01*
X169997181Y-71665940D01*
X170183814Y-71695500D01*
X170183819Y-71695500D01*
X170372786Y-71695500D01*
X170559418Y-71665940D01*
X170565204Y-71664060D01*
X170739132Y-71607547D01*
X170907499Y-71521760D01*
X171060373Y-71410690D01*
X171193990Y-71277073D01*
X171305060Y-71124199D01*
X171390847Y-70955832D01*
X171449240Y-70776118D01*
X171457904Y-70721415D01*
X171478800Y-70589486D01*
X171478800Y-70400513D01*
X171449240Y-70213881D01*
X171390845Y-70034163D01*
X171345590Y-69945347D01*
X171305060Y-69865801D01*
X171193990Y-69712927D01*
X171060373Y-69579310D01*
X170907499Y-69468240D01*
X170899932Y-69464384D01*
X170849137Y-69416410D01*
X170832342Y-69348589D01*
X170854880Y-69282454D01*
X170909595Y-69239003D01*
X170956228Y-69229900D01*
X178343313Y-69229900D01*
X178410352Y-69249585D01*
X178430994Y-69266219D01*
X179240922Y-70076147D01*
X179274407Y-70137470D01*
X179271174Y-70202140D01*
X179267360Y-70213879D01*
X179237800Y-70400513D01*
X179237800Y-70589486D01*
X179267359Y-70776118D01*
X179325754Y-70955836D01*
X179387529Y-71077075D01*
X179411540Y-71124199D01*
X179522610Y-71277073D01*
X179656227Y-71410690D01*
X179809101Y-71521760D01*
X179849490Y-71542339D01*
X179977463Y-71607545D01*
X179977465Y-71607545D01*
X179977468Y-71607547D01*
X180014908Y-71619712D01*
X180157181Y-71665940D01*
X180343814Y-71695500D01*
X180343819Y-71695500D01*
X180532786Y-71695500D01*
X180719418Y-71665940D01*
X180725204Y-71664060D01*
X180899132Y-71607547D01*
X180914205Y-71599867D01*
X180982874Y-71586971D01*
X181047615Y-71613247D01*
X181087872Y-71670353D01*
X181094500Y-71710352D01*
X181094500Y-72479647D01*
X181074815Y-72546686D01*
X181022011Y-72592441D01*
X180952853Y-72602385D01*
X180914209Y-72590134D01*
X180899137Y-72582455D01*
X180899134Y-72582454D01*
X180899132Y-72582453D01*
X180850085Y-72566516D01*
X180719418Y-72524059D01*
X180532786Y-72494500D01*
X180532781Y-72494500D01*
X180343819Y-72494500D01*
X180343814Y-72494500D01*
X180157181Y-72524059D01*
X179977463Y-72582454D01*
X179809100Y-72668240D01*
X179743387Y-72715984D01*
X179656227Y-72779310D01*
X179656225Y-72779312D01*
X179656224Y-72779312D01*
X179522612Y-72912924D01*
X179522612Y-72912925D01*
X179522610Y-72912927D01*
X179477443Y-72975094D01*
X179411540Y-73065800D01*
X179325754Y-73234163D01*
X179267359Y-73413881D01*
X179237800Y-73600513D01*
X179237800Y-73789486D01*
X179267359Y-73976118D01*
X179325754Y-74155836D01*
X179402216Y-74305899D01*
X179411540Y-74324199D01*
X179522610Y-74477073D01*
X179656227Y-74610690D01*
X179809101Y-74721760D01*
X179888647Y-74762290D01*
X179977463Y-74807545D01*
X179977465Y-74807545D01*
X179977468Y-74807547D01*
X180073797Y-74838846D01*
X180157181Y-74865940D01*
X180343814Y-74895500D01*
X180343819Y-74895500D01*
X180532786Y-74895500D01*
X180719418Y-74865940D01*
X180899132Y-74807547D01*
X180914205Y-74799867D01*
X180982874Y-74786971D01*
X181047615Y-74813247D01*
X181087872Y-74870353D01*
X181094500Y-74910352D01*
X181094500Y-75408913D01*
X181074815Y-75475952D01*
X181058181Y-75496594D01*
X180857152Y-75697622D01*
X180795829Y-75731107D01*
X180731157Y-75727873D01*
X180719421Y-75724060D01*
X180532786Y-75694500D01*
X180532781Y-75694500D01*
X180343819Y-75694500D01*
X180343814Y-75694500D01*
X180157181Y-75724059D01*
X179977463Y-75782454D01*
X179809100Y-75868240D01*
X179721879Y-75931610D01*
X179656227Y-75979310D01*
X179656225Y-75979312D01*
X179656224Y-75979312D01*
X179522612Y-76112924D01*
X179522612Y-76112925D01*
X179522610Y-76112927D01*
X179474910Y-76178579D01*
X179411540Y-76265800D01*
X179325754Y-76434163D01*
X179267359Y-76613881D01*
X179237800Y-76800513D01*
X179237800Y-76989486D01*
X179267359Y-77176118D01*
X179325754Y-77355836D01*
X179399100Y-77499784D01*
X179411540Y-77524199D01*
X179522610Y-77677073D01*
X179656227Y-77810690D01*
X179809101Y-77921760D01*
X179888647Y-77962290D01*
X179977463Y-78007545D01*
X179977465Y-78007545D01*
X179977468Y-78007547D01*
X180042878Y-78028800D01*
X180157181Y-78065940D01*
X180343814Y-78095500D01*
X180343819Y-78095500D01*
X180532786Y-78095500D01*
X180719418Y-78065940D01*
X180754657Y-78054490D01*
X180899132Y-78007547D01*
X181067499Y-77921760D01*
X181220373Y-77810690D01*
X181353990Y-77677073D01*
X181465060Y-77524199D01*
X181550847Y-77355832D01*
X181609240Y-77176118D01*
X181629386Y-77048922D01*
X181638800Y-76989486D01*
X181638800Y-76800513D01*
X181615944Y-76656210D01*
X181609240Y-76613882D01*
X181605425Y-76602143D01*
X181603431Y-76532304D01*
X181635674Y-76476148D01*
X182085510Y-76026314D01*
X182157984Y-75900785D01*
X182162920Y-75882363D01*
X182166561Y-75868778D01*
X182177152Y-75829246D01*
X182195500Y-75760775D01*
X182195500Y-69883225D01*
X182157984Y-69743215D01*
X182085510Y-69617685D01*
X181116915Y-68649090D01*
X181116914Y-68649089D01*
X181116911Y-68649087D01*
X180990364Y-68576026D01*
X180942149Y-68525459D01*
X180928925Y-68456852D01*
X180954893Y-68391988D01*
X180996066Y-68358156D01*
X181067499Y-68321760D01*
X181220373Y-68210690D01*
X181353990Y-68077073D01*
X181465060Y-67924199D01*
X181550847Y-67755832D01*
X181609240Y-67576118D01*
X181616325Y-67531387D01*
X181638800Y-67389486D01*
X181638800Y-67200513D01*
X181609240Y-67013881D01*
X181552518Y-66839312D01*
X181550847Y-66834168D01*
X181550845Y-66834165D01*
X181550845Y-66834163D01*
X181465059Y-66665800D01*
X181448097Y-66642454D01*
X181353990Y-66512927D01*
X181220373Y-66379310D01*
X181067499Y-66268240D01*
X180899136Y-66182454D01*
X180719418Y-66124059D01*
X180532786Y-66094500D01*
X180532781Y-66094500D01*
X180343819Y-66094500D01*
X180343814Y-66094500D01*
X180157181Y-66124059D01*
X179977463Y-66182454D01*
X179809100Y-66268240D01*
X179727475Y-66327545D01*
X179656227Y-66379310D01*
X179656225Y-66379312D01*
X179656224Y-66379312D01*
X179522612Y-66512924D01*
X179522612Y-66512925D01*
X179522610Y-66512927D01*
X179474910Y-66578579D01*
X179411540Y-66665800D01*
X179325754Y-66834163D01*
X179308541Y-66887142D01*
X179269103Y-66944817D01*
X179204744Y-66972015D01*
X179135898Y-66960100D01*
X179102929Y-66936504D01*
X176166938Y-64000513D01*
X179237800Y-64000513D01*
X179237800Y-64189486D01*
X179267359Y-64376118D01*
X179325754Y-64555836D01*
X179405875Y-64713081D01*
X179411540Y-64724199D01*
X179522610Y-64877073D01*
X179656227Y-65010690D01*
X179809101Y-65121760D01*
X179888647Y-65162290D01*
X179977463Y-65207545D01*
X179977465Y-65207545D01*
X179977468Y-65207547D01*
X180073797Y-65238846D01*
X180157181Y-65265940D01*
X180343814Y-65295500D01*
X180343819Y-65295500D01*
X180532786Y-65295500D01*
X180719418Y-65265940D01*
X180899132Y-65207547D01*
X181067499Y-65121760D01*
X181220373Y-65010690D01*
X181353990Y-64877073D01*
X181465060Y-64724199D01*
X181550847Y-64555832D01*
X181609240Y-64376118D01*
X181612313Y-64356716D01*
X181638800Y-64189486D01*
X181638800Y-64000513D01*
X181609240Y-63813881D01*
X181570098Y-63693417D01*
X181550847Y-63634168D01*
X181550845Y-63634165D01*
X181550845Y-63634163D01*
X181480744Y-63496583D01*
X181465060Y-63465801D01*
X181353990Y-63312927D01*
X181220373Y-63179310D01*
X181067499Y-63068240D01*
X181056497Y-63062634D01*
X180899136Y-62982454D01*
X180719418Y-62924059D01*
X180532786Y-62894500D01*
X180532781Y-62894500D01*
X180343819Y-62894500D01*
X180343814Y-62894500D01*
X180157181Y-62924059D01*
X179977463Y-62982454D01*
X179809100Y-63068240D01*
X179725369Y-63129075D01*
X179656227Y-63179310D01*
X179656225Y-63179312D01*
X179656224Y-63179312D01*
X179522612Y-63312924D01*
X179522612Y-63312925D01*
X179522610Y-63312927D01*
X179497408Y-63347615D01*
X179411540Y-63465800D01*
X179325754Y-63634163D01*
X179267359Y-63813881D01*
X179237800Y-64000513D01*
X176166938Y-64000513D01*
X171140136Y-58973711D01*
X182927800Y-58973711D01*
X182927800Y-59216288D01*
X182959461Y-59456785D01*
X183022247Y-59691104D01*
X183115073Y-59915205D01*
X183115076Y-59915212D01*
X183236364Y-60125289D01*
X183236366Y-60125292D01*
X183236367Y-60125293D01*
X183384033Y-60317736D01*
X183384039Y-60317743D01*
X183555556Y-60489260D01*
X183555563Y-60489266D01*
X183594036Y-60518787D01*
X183748011Y-60636936D01*
X183958088Y-60758224D01*
X184182200Y-60851054D01*
X184416511Y-60913838D01*
X184595501Y-60937402D01*
X184657011Y-60945500D01*
X184657012Y-60945500D01*
X184899589Y-60945500D01*
X184961099Y-60937402D01*
X185140089Y-60913838D01*
X185374400Y-60851054D01*
X185598512Y-60758224D01*
X185808589Y-60636936D01*
X186001038Y-60489265D01*
X186172565Y-60317738D01*
X186320236Y-60125289D01*
X186441524Y-59915212D01*
X186534354Y-59691100D01*
X186597138Y-59456789D01*
X186628800Y-59216288D01*
X186628800Y-58973712D01*
X186597138Y-58733211D01*
X186534354Y-58498900D01*
X186441524Y-58274788D01*
X186320236Y-58064711D01*
X186239981Y-57960120D01*
X186172566Y-57872263D01*
X186172560Y-57872256D01*
X186001043Y-57700739D01*
X186001036Y-57700733D01*
X185808593Y-57553067D01*
X185808592Y-57553066D01*
X185808589Y-57553064D01*
X185598512Y-57431776D01*
X185598505Y-57431773D01*
X185374404Y-57338947D01*
X185140085Y-57276161D01*
X184899589Y-57244500D01*
X184899588Y-57244500D01*
X184657012Y-57244500D01*
X184657011Y-57244500D01*
X184416514Y-57276161D01*
X184182195Y-57338947D01*
X183958094Y-57431773D01*
X183958085Y-57431777D01*
X183748006Y-57553067D01*
X183555563Y-57700733D01*
X183555556Y-57700739D01*
X183384039Y-57872256D01*
X183384033Y-57872263D01*
X183236367Y-58064706D01*
X183115077Y-58274785D01*
X183115073Y-58274794D01*
X183022247Y-58498895D01*
X182959461Y-58733214D01*
X182927800Y-58973711D01*
X171140136Y-58973711D01*
X169651136Y-57484711D01*
X169619042Y-57429124D01*
X169618400Y-57426728D01*
X169618400Y-57426725D01*
X169580884Y-57286715D01*
X169580882Y-57286712D01*
X169580883Y-57286712D01*
X169574791Y-57276161D01*
X169574789Y-57276159D01*
X169511883Y-57167201D01*
X169508410Y-57161185D01*
X168286715Y-55939490D01*
X168161185Y-55867016D01*
X168161186Y-55867016D01*
X168130509Y-55858796D01*
X168057651Y-55839273D01*
X167997993Y-55802910D01*
X167967464Y-55740063D01*
X167975759Y-55670687D01*
X168020244Y-55616809D01*
X168086796Y-55595535D01*
X168089747Y-55595500D01*
X187653800Y-55595500D01*
X187720839Y-55615185D01*
X187766594Y-55667989D01*
X187777800Y-55719500D01*
X187777800Y-132470500D01*
X187758115Y-132537539D01*
X187705311Y-132583294D01*
X187653800Y-132594500D01*
X167712408Y-132594500D01*
X167585112Y-132628608D01*
X167470986Y-132694500D01*
X167470983Y-132694502D01*
X167377802Y-132787683D01*
X167377800Y-132787686D01*
X167311908Y-132901812D01*
X167277800Y-133029108D01*
X167277800Y-146470500D01*
X167258115Y-146537539D01*
X167205311Y-146583294D01*
X167153800Y-146594500D01*
X128902800Y-146594500D01*
X128835761Y-146574815D01*
X128790006Y-146522011D01*
X128778800Y-146470500D01*
X128778800Y-139277014D01*
X131818300Y-139277014D01*
X131818300Y-139512985D01*
X131849099Y-139746914D01*
X131910170Y-139974837D01*
X132000460Y-140192819D01*
X132000465Y-140192828D01*
X132118444Y-140397171D01*
X132118445Y-140397172D01*
X132181021Y-140478723D01*
X132902452Y-139757292D01*
X132909349Y-139773942D01*
X132996899Y-139904970D01*
X133108330Y-140016401D01*
X133239358Y-140103951D01*
X133256006Y-140110846D01*
X132534575Y-140832277D01*
X132616127Y-140894854D01*
X132616128Y-140894855D01*
X132820471Y-141012834D01*
X132820480Y-141012839D01*
X133038463Y-141103129D01*
X133038461Y-141103129D01*
X133266385Y-141164200D01*
X133500314Y-141194999D01*
X133500329Y-141195000D01*
X133736271Y-141195000D01*
X133736285Y-141194999D01*
X133970214Y-141164200D01*
X134198137Y-141103129D01*
X134416119Y-141012839D01*
X134416128Y-141012834D01*
X134620481Y-140894850D01*
X134702023Y-140832279D01*
X134702023Y-140832276D01*
X133980593Y-140110847D01*
X133997242Y-140103951D01*
X134128270Y-140016401D01*
X134239701Y-139904970D01*
X134327251Y-139773942D01*
X134334146Y-139757293D01*
X135055576Y-140478723D01*
X135055579Y-140478723D01*
X135118150Y-140397181D01*
X135236134Y-140192828D01*
X135236139Y-140192819D01*
X135326429Y-139974837D01*
X135387500Y-139746914D01*
X135418299Y-139512985D01*
X135418300Y-139512971D01*
X135418300Y-139277028D01*
X135418299Y-139277014D01*
X135387500Y-139043085D01*
X135326429Y-138815162D01*
X135236139Y-138597180D01*
X135236134Y-138597171D01*
X135118155Y-138392828D01*
X135118154Y-138392827D01*
X135055577Y-138311275D01*
X134334146Y-139032705D01*
X134327251Y-139016058D01*
X134239701Y-138885030D01*
X134128270Y-138773599D01*
X133997242Y-138686049D01*
X133980593Y-138679152D01*
X134702023Y-137957721D01*
X134620472Y-137895145D01*
X134620471Y-137895144D01*
X134416128Y-137777165D01*
X134416119Y-137777160D01*
X134198136Y-137686870D01*
X134198138Y-137686870D01*
X133970214Y-137625799D01*
X133736285Y-137595000D01*
X133500314Y-137595000D01*
X133266385Y-137625799D01*
X133038462Y-137686870D01*
X132820480Y-137777160D01*
X132820471Y-137777165D01*
X132616128Y-137895144D01*
X132616118Y-137895150D01*
X132534575Y-137957720D01*
X132534575Y-137957721D01*
X133256006Y-138679152D01*
X133239358Y-138686049D01*
X133108330Y-138773599D01*
X132996899Y-138885030D01*
X132909349Y-139016058D01*
X132902452Y-139032706D01*
X132181021Y-138311275D01*
X132181020Y-138311275D01*
X132118450Y-138392818D01*
X132118444Y-138392828D01*
X132000465Y-138597171D01*
X132000460Y-138597180D01*
X131910170Y-138815162D01*
X131849099Y-139043085D01*
X131818300Y-139277014D01*
X128778800Y-139277014D01*
X128778800Y-136283549D01*
X136617800Y-136283549D01*
X136617800Y-136506450D01*
X136617801Y-136506466D01*
X136646894Y-136727452D01*
X136646895Y-136727457D01*
X136646896Y-136727463D01*
X136646897Y-136727465D01*
X136704590Y-136942780D01*
X136704593Y-136942790D01*
X136789891Y-137148717D01*
X136789895Y-137148726D01*
X136901352Y-137341774D01*
X136901357Y-137341780D01*
X136901358Y-137341782D01*
X137037051Y-137518622D01*
X137037057Y-137518629D01*
X137194670Y-137676242D01*
X137194676Y-137676247D01*
X137371526Y-137811948D01*
X137564574Y-137923405D01*
X137770519Y-138008710D01*
X137985837Y-138066404D01*
X138206843Y-138095500D01*
X138206850Y-138095500D01*
X138429750Y-138095500D01*
X138429757Y-138095500D01*
X138650763Y-138066404D01*
X138866081Y-138008710D01*
X139072026Y-137923405D01*
X139265074Y-137811948D01*
X139441924Y-137676247D01*
X139599547Y-137518624D01*
X139735248Y-137341774D01*
X139846705Y-137148726D01*
X139856689Y-137124624D01*
X139872990Y-137085269D01*
X139932010Y-136942781D01*
X139989704Y-136727463D01*
X140018800Y-136506457D01*
X140018800Y-136283543D01*
X139989704Y-136062537D01*
X139932010Y-135847219D01*
X139846705Y-135641274D01*
X139735248Y-135448226D01*
X139599547Y-135271376D01*
X139599542Y-135271370D01*
X139441929Y-135113757D01*
X139441922Y-135113751D01*
X139265082Y-134978058D01*
X139265080Y-134978057D01*
X139265074Y-134978052D01*
X139072026Y-134866595D01*
X139072022Y-134866593D01*
X138866090Y-134781293D01*
X138866083Y-134781291D01*
X138866081Y-134781290D01*
X138650763Y-134723596D01*
X138650757Y-134723595D01*
X138650752Y-134723594D01*
X138429766Y-134694501D01*
X138429763Y-134694500D01*
X138429757Y-134694500D01*
X138206843Y-134694500D01*
X138206837Y-134694500D01*
X138206833Y-134694501D01*
X137985847Y-134723594D01*
X137985840Y-134723595D01*
X137985837Y-134723596D01*
X137974910Y-134726524D01*
X137770519Y-134781290D01*
X137770509Y-134781293D01*
X137564577Y-134866593D01*
X137564573Y-134866595D01*
X137371526Y-134978052D01*
X137371517Y-134978058D01*
X137194677Y-135113751D01*
X137194670Y-135113757D01*
X137037057Y-135271370D01*
X137037051Y-135271377D01*
X136901358Y-135448217D01*
X136901352Y-135448226D01*
X136789895Y-135641273D01*
X136789893Y-135641277D01*
X136704593Y-135847209D01*
X136704590Y-135847219D01*
X136646897Y-136062534D01*
X136646894Y-136062547D01*
X136617801Y-136283533D01*
X136617800Y-136283549D01*
X128778800Y-136283549D01*
X128778800Y-133029110D01*
X128778800Y-133029108D01*
X128744692Y-132901814D01*
X128678800Y-132787686D01*
X128585614Y-132694500D01*
X128528550Y-132661554D01*
X128471487Y-132628608D01*
X128407839Y-132611554D01*
X128344192Y-132594500D01*
X128344191Y-132594500D01*
X108402800Y-132594500D01*
X108335761Y-132574815D01*
X108290006Y-132522011D01*
X108278800Y-132470500D01*
X108278800Y-132063475D01*
X131917800Y-132063475D01*
X131917800Y-134726517D01*
X131926475Y-134781290D01*
X131932654Y-134820304D01*
X131990250Y-134933342D01*
X131990252Y-134933344D01*
X131990254Y-134933347D01*
X132079952Y-135023045D01*
X132079954Y-135023046D01*
X132079958Y-135023050D01*
X132192994Y-135080645D01*
X132192998Y-135080647D01*
X132286775Y-135095499D01*
X132286781Y-135095500D01*
X134949818Y-135095499D01*
X135043604Y-135080646D01*
X135156642Y-135023050D01*
X135246350Y-134933342D01*
X135303946Y-134820304D01*
X135303946Y-134820302D01*
X135303947Y-134820301D01*
X135318799Y-134726524D01*
X135318800Y-134726519D01*
X135318799Y-132063482D01*
X135303946Y-131969696D01*
X135246350Y-131856658D01*
X135246346Y-131856654D01*
X135246345Y-131856652D01*
X135156647Y-131766954D01*
X135156644Y-131766952D01*
X135156642Y-131766950D01*
X135079817Y-131727805D01*
X135043601Y-131709352D01*
X134949824Y-131694500D01*
X132286782Y-131694500D01*
X132205819Y-131707323D01*
X132192996Y-131709354D01*
X132079958Y-131766950D01*
X132079957Y-131766951D01*
X132079952Y-131766954D01*
X131990254Y-131856652D01*
X131990251Y-131856657D01*
X131932652Y-131969698D01*
X131917800Y-132063475D01*
X108278800Y-132063475D01*
X108278800Y-128973711D01*
X109927800Y-128973711D01*
X109927800Y-129216288D01*
X109959052Y-129453679D01*
X109959462Y-129456789D01*
X109973421Y-129508884D01*
X110022247Y-129691104D01*
X110061687Y-129786320D01*
X110115076Y-129915212D01*
X110236364Y-130125289D01*
X110236366Y-130125292D01*
X110236367Y-130125293D01*
X110384033Y-130317736D01*
X110384039Y-130317743D01*
X110555556Y-130489260D01*
X110555563Y-130489266D01*
X110649400Y-130561269D01*
X110748011Y-130636936D01*
X110958088Y-130758224D01*
X111182200Y-130851054D01*
X111416511Y-130913838D01*
X111596886Y-130937584D01*
X111657011Y-130945500D01*
X111657012Y-130945500D01*
X111899589Y-130945500D01*
X111947688Y-130939167D01*
X112140089Y-130913838D01*
X112374400Y-130851054D01*
X112598512Y-130758224D01*
X112808589Y-130636936D01*
X113001038Y-130489265D01*
X113172565Y-130317738D01*
X113320236Y-130125289D01*
X113441524Y-129915212D01*
X113534354Y-129691100D01*
X113597138Y-129456789D01*
X113628800Y-129216288D01*
X113628800Y-128973712D01*
X113597138Y-128733211D01*
X113534354Y-128498900D01*
X113441524Y-128274788D01*
X113320236Y-128064711D01*
X113232661Y-127950581D01*
X113172566Y-127872263D01*
X113172560Y-127872256D01*
X113001043Y-127700739D01*
X113001036Y-127700733D01*
X112808593Y-127553067D01*
X112808592Y-127553066D01*
X112808589Y-127553064D01*
X112598512Y-127431776D01*
X112598505Y-127431773D01*
X112374404Y-127338947D01*
X112140085Y-127276161D01*
X111899589Y-127244500D01*
X111899588Y-127244500D01*
X111657012Y-127244500D01*
X111657011Y-127244500D01*
X111416514Y-127276161D01*
X111182195Y-127338947D01*
X110958094Y-127431773D01*
X110958085Y-127431777D01*
X110748006Y-127553067D01*
X110555563Y-127700733D01*
X110555556Y-127700739D01*
X110384039Y-127872256D01*
X110384033Y-127872263D01*
X110236367Y-128064706D01*
X110115077Y-128274785D01*
X110115073Y-128274794D01*
X110022247Y-128498895D01*
X109959461Y-128733214D01*
X109927800Y-128973711D01*
X108278800Y-128973711D01*
X108278800Y-126996190D01*
X118522800Y-126996190D01*
X118522800Y-127193809D01*
X118553714Y-127388997D01*
X118614784Y-127576949D01*
X118677856Y-127700733D01*
X118704500Y-127753025D01*
X118820658Y-127912903D01*
X118960397Y-128052642D01*
X119120275Y-128168800D01*
X119203465Y-128211187D01*
X119296350Y-128258515D01*
X119296352Y-128258515D01*
X119296355Y-128258517D01*
X119375319Y-128284174D01*
X119484302Y-128319585D01*
X119581896Y-128335042D01*
X119679490Y-128350500D01*
X119679491Y-128350500D01*
X119877109Y-128350500D01*
X119877110Y-128350500D01*
X120072297Y-128319585D01*
X120260245Y-128258517D01*
X120436325Y-128168800D01*
X120596203Y-128052642D01*
X120735942Y-127912903D01*
X120852100Y-127753025D01*
X120941817Y-127576945D01*
X121002885Y-127388997D01*
X121033800Y-127193810D01*
X121033800Y-126996190D01*
X121023012Y-126928076D01*
X121002885Y-126801002D01*
X120946910Y-126628730D01*
X120941817Y-126613055D01*
X120941815Y-126613052D01*
X120941815Y-126613050D01*
X120894487Y-126520165D01*
X120852100Y-126436975D01*
X120735942Y-126277097D01*
X120596203Y-126137358D01*
X120436325Y-126021200D01*
X120260249Y-125931484D01*
X120072297Y-125870414D01*
X119903797Y-125843726D01*
X119877110Y-125839500D01*
X119679490Y-125839500D01*
X119656012Y-125843218D01*
X119484302Y-125870414D01*
X119296350Y-125931484D01*
X119120274Y-126021200D01*
X118960394Y-126137360D01*
X118820660Y-126277094D01*
X118704500Y-126436974D01*
X118614784Y-126613050D01*
X118553714Y-126801002D01*
X118522800Y-126996190D01*
X108278800Y-126996190D01*
X108278800Y-84313475D01*
X109627800Y-84313475D01*
X109627800Y-85876517D01*
X109635546Y-85925423D01*
X109642654Y-85970304D01*
X109700250Y-86083342D01*
X109700252Y-86083344D01*
X109700254Y-86083347D01*
X109789952Y-86173045D01*
X109789954Y-86173046D01*
X109789958Y-86173050D01*
X109902994Y-86230645D01*
X109902998Y-86230647D01*
X109996775Y-86245499D01*
X109996781Y-86245500D01*
X111559818Y-86245499D01*
X111653604Y-86230646D01*
X111766642Y-86173050D01*
X111856350Y-86083342D01*
X111913946Y-85970304D01*
X111913946Y-85970302D01*
X111913947Y-85970301D01*
X111928799Y-85876524D01*
X111928800Y-85876519D01*
X111928799Y-84313482D01*
X111913946Y-84219696D01*
X111856350Y-84106658D01*
X111856346Y-84106654D01*
X111856345Y-84106652D01*
X111766647Y-84016954D01*
X111766644Y-84016952D01*
X111766642Y-84016950D01*
X111689817Y-83977805D01*
X111653601Y-83959352D01*
X111559824Y-83944500D01*
X109996782Y-83944500D01*
X109915819Y-83957323D01*
X109902996Y-83959354D01*
X109789958Y-84016950D01*
X109789957Y-84016951D01*
X109789952Y-84016954D01*
X109700254Y-84106652D01*
X109700251Y-84106657D01*
X109700250Y-84106658D01*
X109693606Y-84119698D01*
X109642652Y-84219698D01*
X109627800Y-84313475D01*
X108278800Y-84313475D01*
X108278800Y-80313475D01*
X109627800Y-80313475D01*
X109627800Y-81876517D01*
X109638592Y-81944657D01*
X109642654Y-81970304D01*
X109700250Y-82083342D01*
X109700252Y-82083344D01*
X109700254Y-82083347D01*
X109789952Y-82173045D01*
X109789954Y-82173046D01*
X109789958Y-82173050D01*
X109902994Y-82230645D01*
X109902998Y-82230647D01*
X109996775Y-82245499D01*
X109996781Y-82245500D01*
X111559818Y-82245499D01*
X111653604Y-82230646D01*
X111766642Y-82173050D01*
X111856350Y-82083342D01*
X111913946Y-81970304D01*
X111913946Y-81970302D01*
X111913947Y-81970301D01*
X111928799Y-81876524D01*
X111928800Y-81876519D01*
X111928799Y-80313482D01*
X111913946Y-80219696D01*
X111856350Y-80106658D01*
X111856346Y-80106654D01*
X111856345Y-80106652D01*
X111766647Y-80016954D01*
X111766644Y-80016952D01*
X111766642Y-80016950D01*
X111689817Y-79977805D01*
X111653601Y-79959352D01*
X111559824Y-79944500D01*
X109996782Y-79944500D01*
X109915819Y-79957323D01*
X109902996Y-79959354D01*
X109789958Y-80016950D01*
X109789957Y-80016951D01*
X109789952Y-80016954D01*
X109700254Y-80106652D01*
X109700251Y-80106657D01*
X109642652Y-80219698D01*
X109627800Y-80313475D01*
X108278800Y-80313475D01*
X108278800Y-77892844D01*
X109528300Y-77892844D01*
X109534701Y-77952372D01*
X109534703Y-77952379D01*
X109584945Y-78087086D01*
X109584949Y-78087093D01*
X109671109Y-78202187D01*
X109671112Y-78202190D01*
X109786206Y-78288350D01*
X109786213Y-78288354D01*
X109920920Y-78338596D01*
X109920927Y-78338598D01*
X109980455Y-78344999D01*
X109980472Y-78345000D01*
X110528300Y-78345000D01*
X111028300Y-78345000D01*
X111576128Y-78345000D01*
X111576144Y-78344999D01*
X111635672Y-78338598D01*
X111635679Y-78338596D01*
X111770386Y-78288354D01*
X111770393Y-78288350D01*
X111885487Y-78202190D01*
X111885490Y-78202187D01*
X111971650Y-78087093D01*
X111971654Y-78087086D01*
X112021896Y-77952379D01*
X112021898Y-77952372D01*
X112028299Y-77892844D01*
X112028300Y-77892827D01*
X112028300Y-77345000D01*
X111028300Y-77345000D01*
X111028300Y-78345000D01*
X110528300Y-78345000D01*
X110528300Y-77345000D01*
X109528300Y-77345000D01*
X109528300Y-77892844D01*
X108278800Y-77892844D01*
X108278800Y-77048922D01*
X110428300Y-77048922D01*
X110428300Y-77141078D01*
X110452152Y-77230095D01*
X110498230Y-77309905D01*
X110563395Y-77375070D01*
X110643205Y-77421148D01*
X110732222Y-77445000D01*
X110824378Y-77445000D01*
X110913395Y-77421148D01*
X110993205Y-77375070D01*
X111058370Y-77309905D01*
X111104448Y-77230095D01*
X111128300Y-77141078D01*
X111128300Y-77048922D01*
X111104448Y-76959905D01*
X111058370Y-76880095D01*
X111023275Y-76845000D01*
X111028300Y-76845000D01*
X112028300Y-76845000D01*
X112028300Y-76297172D01*
X112028299Y-76297155D01*
X112021898Y-76237627D01*
X112021896Y-76237620D01*
X111971654Y-76102913D01*
X111971650Y-76102906D01*
X111885490Y-75987812D01*
X111885487Y-75987809D01*
X111770393Y-75901649D01*
X111770386Y-75901645D01*
X111635679Y-75851403D01*
X111635672Y-75851401D01*
X111576144Y-75845000D01*
X111028300Y-75845000D01*
X111028300Y-76845000D01*
X111023275Y-76845000D01*
X110993205Y-76814930D01*
X110913395Y-76768852D01*
X110824378Y-76745000D01*
X110732222Y-76745000D01*
X110643205Y-76768852D01*
X110563395Y-76814930D01*
X110498230Y-76880095D01*
X110452152Y-76959905D01*
X110428300Y-77048922D01*
X108278800Y-77048922D01*
X108278800Y-76297155D01*
X109528300Y-76297155D01*
X109528300Y-76845000D01*
X110528300Y-76845000D01*
X110528300Y-75845000D01*
X109980455Y-75845000D01*
X109920927Y-75851401D01*
X109920920Y-75851403D01*
X109786213Y-75901645D01*
X109786206Y-75901649D01*
X109671112Y-75987809D01*
X109671109Y-75987812D01*
X109584949Y-76102906D01*
X109584945Y-76102913D01*
X109534703Y-76237620D01*
X109534701Y-76237627D01*
X109528300Y-76297155D01*
X108278800Y-76297155D01*
X108278800Y-58973711D01*
X109927800Y-58973711D01*
X109927800Y-59216288D01*
X109959461Y-59456785D01*
X110022247Y-59691104D01*
X110115073Y-59915205D01*
X110115076Y-59915212D01*
X110236364Y-60125289D01*
X110236366Y-60125292D01*
X110236367Y-60125293D01*
X110384033Y-60317736D01*
X110384039Y-60317743D01*
X110555556Y-60489260D01*
X110555563Y-60489266D01*
X110594036Y-60518787D01*
X110748011Y-60636936D01*
X110958088Y-60758224D01*
X111182200Y-60851054D01*
X111416511Y-60913838D01*
X111595501Y-60937402D01*
X111657011Y-60945500D01*
X111657012Y-60945500D01*
X111899589Y-60945500D01*
X111961099Y-60937402D01*
X112140089Y-60913838D01*
X112374400Y-60851054D01*
X112598512Y-60758224D01*
X112808589Y-60636936D01*
X113001038Y-60489265D01*
X113172565Y-60317738D01*
X113320236Y-60125289D01*
X113441524Y-59915212D01*
X113534354Y-59691100D01*
X113597138Y-59456789D01*
X113628800Y-59216288D01*
X113628800Y-58973712D01*
X113597138Y-58733211D01*
X113534354Y-58498900D01*
X113441524Y-58274788D01*
X113320236Y-58064711D01*
X113239981Y-57960120D01*
X113172566Y-57872263D01*
X113172560Y-57872256D01*
X113001043Y-57700739D01*
X113001036Y-57700733D01*
X112808593Y-57553067D01*
X112808592Y-57553066D01*
X112808589Y-57553064D01*
X112598512Y-57431776D01*
X112598505Y-57431773D01*
X112374404Y-57338947D01*
X112140085Y-57276161D01*
X111899589Y-57244500D01*
X111899588Y-57244500D01*
X111657012Y-57244500D01*
X111657011Y-57244500D01*
X111416514Y-57276161D01*
X111182195Y-57338947D01*
X110958094Y-57431773D01*
X110958085Y-57431777D01*
X110748006Y-57553067D01*
X110555563Y-57700733D01*
X110555556Y-57700739D01*
X110384039Y-57872256D01*
X110384033Y-57872263D01*
X110236367Y-58064706D01*
X110115077Y-58274785D01*
X110115073Y-58274794D01*
X110022247Y-58498895D01*
X109959461Y-58733214D01*
X109927800Y-58973711D01*
X108278800Y-58973711D01*
X108278800Y-55719500D01*
X108298485Y-55652461D01*
X108351289Y-55606706D01*
X108402800Y-55595500D01*
X128344190Y-55595500D01*
X128344192Y-55595500D01*
X128471486Y-55561392D01*
X128585614Y-55495500D01*
X128678800Y-55402314D01*
X128744692Y-55288186D01*
X128778800Y-55160892D01*
X128778800Y-41719500D01*
X128798485Y-41652461D01*
X128851289Y-41606706D01*
X128902800Y-41595500D01*
X167153800Y-41595500D01*
X167220839Y-41615185D01*
G37*
%TD.AperFunction*%
%TA.AperFunction,Conductor*%
G36*
X176433570Y-119816717D02*
G01*
X176433570Y-119816716D01*
X176472922Y-119762554D01*
X176533650Y-119643370D01*
X176581624Y-119592574D01*
X176649445Y-119575779D01*
X176715580Y-119598316D01*
X176754620Y-119643370D01*
X176788776Y-119710405D01*
X176904472Y-119869646D01*
X177043654Y-120008828D01*
X177158953Y-120092598D01*
X177202896Y-120124525D01*
X177269928Y-120158679D01*
X177320725Y-120206653D01*
X177337520Y-120274474D01*
X177314983Y-120340609D01*
X177269930Y-120379648D01*
X177150743Y-120440378D01*
X177150740Y-120440380D01*
X177096582Y-120479727D01*
X177096582Y-120479728D01*
X177728891Y-121112037D01*
X177665307Y-121129075D01*
X177551293Y-121194901D01*
X177458201Y-121287993D01*
X177392375Y-121402007D01*
X177375337Y-121465591D01*
X176743028Y-120833282D01*
X176743027Y-120833282D01*
X176703680Y-120887440D01*
X176703678Y-120887443D01*
X176642948Y-121006630D01*
X176594973Y-121057426D01*
X176527152Y-121074220D01*
X176461017Y-121051682D01*
X176421979Y-121006628D01*
X176387825Y-120939596D01*
X176357904Y-120898414D01*
X176272128Y-120780354D01*
X176132946Y-120641172D01*
X175973705Y-120525476D01*
X175906670Y-120491320D01*
X175855874Y-120443345D01*
X175839079Y-120375524D01*
X175861616Y-120309389D01*
X175906670Y-120270350D01*
X176025854Y-120209622D01*
X176080016Y-120170270D01*
X176080017Y-120170270D01*
X175447708Y-119537962D01*
X175511293Y-119520925D01*
X175625307Y-119455099D01*
X175718399Y-119362007D01*
X175784225Y-119247993D01*
X175801262Y-119184408D01*
X176433570Y-119816717D01*
G37*
%TD.AperFunction*%
%TA.AperFunction,Conductor*%
G36*
X174852375Y-119247993D02*
G01*
X174918201Y-119362007D01*
X175011293Y-119455099D01*
X175125307Y-119520925D01*
X175188890Y-119537962D01*
X174556582Y-120170269D01*
X174556582Y-120170270D01*
X174610749Y-120209624D01*
X174729929Y-120270350D01*
X174780725Y-120318325D01*
X174797520Y-120386146D01*
X174774982Y-120452281D01*
X174729930Y-120491319D01*
X174662897Y-120525474D01*
X174583274Y-120583324D01*
X174503654Y-120641172D01*
X174503652Y-120641174D01*
X174503651Y-120641174D01*
X174364474Y-120780351D01*
X174364467Y-120780360D01*
X174247810Y-120940922D01*
X174192480Y-120983588D01*
X174122867Y-120989566D01*
X174061072Y-120956960D01*
X174028010Y-120898414D01*
X174027666Y-120898515D01*
X174027241Y-120897052D01*
X174026715Y-120896121D01*
X174026078Y-120893052D01*
X174024448Y-120887443D01*
X173980044Y-120734602D01*
X173896381Y-120593135D01*
X173896379Y-120593133D01*
X173896376Y-120593129D01*
X173780170Y-120476923D01*
X173780162Y-120476917D01*
X173701981Y-120430681D01*
X173638698Y-120393256D01*
X173638697Y-120393255D01*
X173638696Y-120393255D01*
X173638693Y-120393254D01*
X173474785Y-120345634D01*
X173475284Y-120343914D01*
X173420571Y-120316378D01*
X173385049Y-120256212D01*
X173387694Y-120186392D01*
X173427666Y-120129086D01*
X173432377Y-120125488D01*
X173433701Y-120124526D01*
X173433705Y-120124524D01*
X173592946Y-120008828D01*
X173732128Y-119869646D01*
X173847824Y-119710405D01*
X173881979Y-119643370D01*
X173929952Y-119592575D01*
X173997773Y-119575779D01*
X174063908Y-119598316D01*
X174102948Y-119643370D01*
X174163670Y-119762542D01*
X174163673Y-119762547D01*
X174203028Y-119816716D01*
X174835337Y-119184408D01*
X174852375Y-119247993D01*
G37*
%TD.AperFunction*%
%TA.AperFunction,Conductor*%
G36*
X179763012Y-103361238D02*
G01*
X179814488Y-103408482D01*
X179826230Y-103434194D01*
X179834654Y-103460120D01*
X179865754Y-103555836D01*
X179941759Y-103705003D01*
X179951540Y-103724199D01*
X180062610Y-103877073D01*
X180196227Y-104010690D01*
X180349101Y-104121760D01*
X180376058Y-104135495D01*
X180517463Y-104207545D01*
X180517465Y-104207545D01*
X180517468Y-104207547D01*
X180536987Y-104213889D01*
X180697181Y-104265940D01*
X180883814Y-104295500D01*
X180883819Y-104295500D01*
X181072786Y-104295500D01*
X181259418Y-104265940D01*
X181281112Y-104258891D01*
X181439132Y-104207547D01*
X181607499Y-104121760D01*
X181760373Y-104010690D01*
X181893990Y-103877073D01*
X181980283Y-103758300D01*
X182035612Y-103715637D01*
X182105226Y-103709658D01*
X182167021Y-103742264D01*
X182201378Y-103803103D01*
X182204600Y-103831188D01*
X182204600Y-105858811D01*
X182184915Y-105925850D01*
X182132111Y-105971605D01*
X182062953Y-105981549D01*
X181999397Y-105952524D01*
X181980282Y-105931697D01*
X181955364Y-105897401D01*
X181893990Y-105812927D01*
X181760373Y-105679310D01*
X181607499Y-105568240D01*
X181439136Y-105482454D01*
X181259418Y-105424059D01*
X181072786Y-105394500D01*
X181072781Y-105394500D01*
X180883819Y-105394500D01*
X180883814Y-105394500D01*
X180697181Y-105424059D01*
X180517463Y-105482454D01*
X180349100Y-105568240D01*
X180261879Y-105631610D01*
X180196227Y-105679310D01*
X180196225Y-105679312D01*
X180196224Y-105679312D01*
X180062612Y-105812924D01*
X180062612Y-105812925D01*
X180062610Y-105812927D01*
X180014910Y-105878579D01*
X179951540Y-105965800D01*
X179865754Y-106134163D01*
X179826231Y-106255803D01*
X179786793Y-106313478D01*
X179722434Y-106340676D01*
X179653588Y-106328761D01*
X179602112Y-106281516D01*
X179590369Y-106255803D01*
X179553761Y-106143137D01*
X179550847Y-106134168D01*
X179550845Y-106134165D01*
X179550845Y-106134163D01*
X179490395Y-106015524D01*
X179465060Y-105965801D01*
X179353990Y-105812927D01*
X179220373Y-105679310D01*
X179067499Y-105568240D01*
X178899136Y-105482454D01*
X178719418Y-105424059D01*
X178532786Y-105394500D01*
X178532781Y-105394500D01*
X178343819Y-105394500D01*
X178343814Y-105394500D01*
X178157181Y-105424059D01*
X177977463Y-105482454D01*
X177809100Y-105568240D01*
X177721879Y-105631610D01*
X177656227Y-105679310D01*
X177656225Y-105679312D01*
X177656224Y-105679312D01*
X177522612Y-105812924D01*
X177522612Y-105812925D01*
X177522610Y-105812927D01*
X177474910Y-105878579D01*
X177411540Y-105965800D01*
X177325754Y-106134163D01*
X177267359Y-106313881D01*
X177237800Y-106500513D01*
X177237800Y-106689486D01*
X177267359Y-106876118D01*
X177325754Y-107055836D01*
X177372542Y-107147661D01*
X177411540Y-107224199D01*
X177522610Y-107377073D01*
X177656227Y-107510690D01*
X177809101Y-107621760D01*
X177820092Y-107627360D01*
X177870889Y-107675332D01*
X177887800Y-107737846D01*
X177887800Y-112013174D01*
X177916530Y-112120399D01*
X177925313Y-112153178D01*
X177925316Y-112153185D01*
X177969319Y-112229402D01*
X177997789Y-112278713D01*
X177997791Y-112278716D01*
X178581681Y-112862606D01*
X178615166Y-112923929D01*
X178618000Y-112950287D01*
X178618000Y-117836267D01*
X178598315Y-117903306D01*
X178545511Y-117949061D01*
X178476353Y-117959005D01*
X178437706Y-117946752D01*
X178338332Y-117896118D01*
X178151126Y-117835290D01*
X177956722Y-117804500D01*
X177956717Y-117804500D01*
X177759883Y-117804500D01*
X177759878Y-117804500D01*
X177565473Y-117835290D01*
X177378270Y-117896117D01*
X177202894Y-117985476D01*
X177112041Y-118051485D01*
X177043654Y-118101172D01*
X177043652Y-118101174D01*
X177043651Y-118101174D01*
X176904474Y-118240351D01*
X176904474Y-118240352D01*
X176904472Y-118240354D01*
X176846624Y-118319974D01*
X176788774Y-118399597D01*
X176754619Y-118466630D01*
X176706645Y-118517425D01*
X176638824Y-118534220D01*
X176572689Y-118511682D01*
X176533650Y-118466629D01*
X176472924Y-118347449D01*
X176433570Y-118293282D01*
X176433569Y-118293282D01*
X175801262Y-118925590D01*
X175784225Y-118862007D01*
X175718399Y-118747993D01*
X175625307Y-118654901D01*
X175511293Y-118589075D01*
X175447709Y-118572037D01*
X176080016Y-117939728D01*
X176025850Y-117900375D01*
X175836517Y-117803904D01*
X175634429Y-117738242D01*
X175424546Y-117705000D01*
X175212054Y-117705000D01*
X175002172Y-117738242D01*
X175002169Y-117738242D01*
X174800082Y-117803904D01*
X174610739Y-117900380D01*
X174556582Y-117939727D01*
X174556582Y-117939728D01*
X175188891Y-118572037D01*
X175125307Y-118589075D01*
X175011293Y-118654901D01*
X174918201Y-118747993D01*
X174852375Y-118862007D01*
X174835337Y-118925591D01*
X174203028Y-118293282D01*
X174203027Y-118293282D01*
X174163680Y-118347440D01*
X174163678Y-118347443D01*
X174102948Y-118466630D01*
X174054973Y-118517426D01*
X173987152Y-118534220D01*
X173921017Y-118511682D01*
X173881979Y-118466628D01*
X173847825Y-118399596D01*
X173823252Y-118365775D01*
X173732128Y-118240354D01*
X173592946Y-118101172D01*
X173433705Y-117985476D01*
X173391332Y-117963886D01*
X173258329Y-117896117D01*
X173071126Y-117835290D01*
X172876722Y-117804500D01*
X172876717Y-117804500D01*
X172691100Y-117804500D01*
X172624061Y-117784815D01*
X172578306Y-117732011D01*
X172567100Y-117680500D01*
X172567100Y-111893999D01*
X172586785Y-111826960D01*
X172639589Y-111781205D01*
X172708747Y-111771261D01*
X172747396Y-111783515D01*
X172779266Y-111799754D01*
X172973882Y-111862990D01*
X173175983Y-111895000D01*
X173380617Y-111895000D01*
X173582717Y-111862990D01*
X173777331Y-111799755D01*
X173959649Y-111706859D01*
X174004221Y-111674474D01*
X173324747Y-110995000D01*
X173330961Y-110995000D01*
X173432694Y-110967741D01*
X173523906Y-110915080D01*
X173598380Y-110840606D01*
X173651041Y-110749394D01*
X173678300Y-110647661D01*
X173678300Y-110641448D01*
X174357774Y-111320922D01*
X174357774Y-111320921D01*
X174390159Y-111276349D01*
X174483055Y-111094031D01*
X174546290Y-110899417D01*
X174578300Y-110697317D01*
X174578300Y-110492682D01*
X174546290Y-110290582D01*
X174483055Y-110095968D01*
X174390159Y-109913650D01*
X174357774Y-109869077D01*
X174357774Y-109869076D01*
X173678300Y-110548551D01*
X173678300Y-110542339D01*
X173651041Y-110440606D01*
X173598380Y-110349394D01*
X173523906Y-110274920D01*
X173432694Y-110222259D01*
X173330961Y-110195000D01*
X173324746Y-110195000D01*
X174004222Y-109515524D01*
X174004221Y-109515523D01*
X173959659Y-109483147D01*
X173959650Y-109483141D01*
X173777331Y-109390244D01*
X173582717Y-109327009D01*
X173380617Y-109295000D01*
X173316186Y-109295000D01*
X173249147Y-109275315D01*
X173203392Y-109222511D01*
X173193448Y-109153353D01*
X173222473Y-109089797D01*
X173228493Y-109083331D01*
X178019449Y-104292374D01*
X178080770Y-104258891D01*
X178145446Y-104262126D01*
X178157182Y-104265940D01*
X178227170Y-104277025D01*
X178343814Y-104295500D01*
X178343819Y-104295500D01*
X178532786Y-104295500D01*
X178719418Y-104265940D01*
X178741112Y-104258891D01*
X178899132Y-104207547D01*
X179067499Y-104121760D01*
X179220373Y-104010690D01*
X179353990Y-103877073D01*
X179465060Y-103724199D01*
X179550847Y-103555832D01*
X179590369Y-103434195D01*
X179629807Y-103376521D01*
X179694166Y-103349323D01*
X179763012Y-103361238D01*
G37*
%TD.AperFunction*%
%TA.AperFunction,Conductor*%
G36*
X124942334Y-71475758D02*
G01*
X124998267Y-71517630D01*
X125022684Y-71583094D01*
X125023000Y-71591940D01*
X125023000Y-105813069D01*
X125003315Y-105880108D01*
X124950511Y-105925863D01*
X124881353Y-105935807D01*
X124842706Y-105923554D01*
X124777334Y-105890245D01*
X124582717Y-105827009D01*
X124380617Y-105795000D01*
X124175983Y-105795000D01*
X123973882Y-105827009D01*
X123779268Y-105890244D01*
X123596944Y-105983143D01*
X123552377Y-106015523D01*
X123552377Y-106015524D01*
X124231853Y-106695000D01*
X124225639Y-106695000D01*
X124123906Y-106722259D01*
X124032694Y-106774920D01*
X123958220Y-106849394D01*
X123905559Y-106940606D01*
X123878300Y-107042339D01*
X123878300Y-107048553D01*
X123198824Y-106369077D01*
X123198823Y-106369077D01*
X123166443Y-106413644D01*
X123073544Y-106595968D01*
X123010309Y-106790582D01*
X122978300Y-106992682D01*
X122978300Y-107197317D01*
X123010309Y-107399417D01*
X123073544Y-107594031D01*
X123166441Y-107776350D01*
X123166447Y-107776359D01*
X123198823Y-107820921D01*
X123198824Y-107820922D01*
X123878300Y-107141446D01*
X123878300Y-107147661D01*
X123905559Y-107249394D01*
X123958220Y-107340606D01*
X124032694Y-107415080D01*
X124123906Y-107467741D01*
X124225639Y-107495000D01*
X124231852Y-107495000D01*
X123552376Y-108174474D01*
X123596950Y-108206859D01*
X123779270Y-108299755D01*
X123905481Y-108340764D01*
X123963156Y-108380201D01*
X123990355Y-108444560D01*
X123978440Y-108513406D01*
X123954844Y-108546376D01*
X116327501Y-116173719D01*
X116266178Y-116207204D01*
X116196486Y-116202220D01*
X116192386Y-116200606D01*
X116188195Y-116198870D01*
X116182718Y-116196601D01*
X116036472Y-116157415D01*
X115929416Y-116128730D01*
X115871639Y-116121123D01*
X115669427Y-116094500D01*
X115669420Y-116094500D01*
X115407180Y-116094500D01*
X115407172Y-116094500D01*
X115176072Y-116124926D01*
X115147184Y-116128730D01*
X114979282Y-116173719D01*
X114893881Y-116196602D01*
X114893871Y-116196605D01*
X114651609Y-116296953D01*
X114651599Y-116296958D01*
X114424496Y-116428075D01*
X114216187Y-116587919D01*
X114151018Y-116613114D01*
X114082573Y-116599076D01*
X114032583Y-116550262D01*
X114016700Y-116489544D01*
X114016700Y-106479298D01*
X119577800Y-106479298D01*
X119577800Y-107710701D01*
X119580701Y-107747567D01*
X119580702Y-107747573D01*
X119626554Y-107905393D01*
X119626555Y-107905396D01*
X119710217Y-108046862D01*
X119710223Y-108046870D01*
X119826429Y-108163076D01*
X119826433Y-108163079D01*
X119826435Y-108163081D01*
X119967902Y-108246744D01*
X120009524Y-108258836D01*
X120125726Y-108292597D01*
X120125729Y-108292597D01*
X120125731Y-108292598D01*
X120162606Y-108295500D01*
X120162614Y-108295500D01*
X121393986Y-108295500D01*
X121393994Y-108295500D01*
X121430869Y-108292598D01*
X121430871Y-108292597D01*
X121430873Y-108292597D01*
X121472491Y-108280505D01*
X121588698Y-108246744D01*
X121730165Y-108163081D01*
X121846381Y-108046865D01*
X121930044Y-107905398D01*
X121975898Y-107747569D01*
X121978800Y-107710694D01*
X121978800Y-106479306D01*
X121975898Y-106442431D01*
X121954586Y-106369077D01*
X121930045Y-106284606D01*
X121930044Y-106284603D01*
X121930044Y-106284602D01*
X121846381Y-106143135D01*
X121846379Y-106143133D01*
X121846376Y-106143129D01*
X121730170Y-106026923D01*
X121730162Y-106026917D01*
X121588696Y-105943255D01*
X121588693Y-105943254D01*
X121430873Y-105897402D01*
X121430867Y-105897401D01*
X121394001Y-105894500D01*
X121393994Y-105894500D01*
X120162606Y-105894500D01*
X120162598Y-105894500D01*
X120125732Y-105897401D01*
X120125726Y-105897402D01*
X119967906Y-105943254D01*
X119967903Y-105943255D01*
X119826437Y-106026917D01*
X119826429Y-106026923D01*
X119710223Y-106143129D01*
X119710217Y-106143137D01*
X119626555Y-106284603D01*
X119626554Y-106284606D01*
X119580702Y-106442426D01*
X119580701Y-106442432D01*
X119577800Y-106479298D01*
X114016700Y-106479298D01*
X114016700Y-101393440D01*
X114036385Y-101326401D01*
X114053019Y-101305759D01*
X116375203Y-98983575D01*
X120238300Y-98983575D01*
X120238300Y-99206424D01*
X120267385Y-99427354D01*
X120267388Y-99427367D01*
X120325063Y-99642618D01*
X120410345Y-99848502D01*
X120410354Y-99848520D01*
X120521764Y-100041491D01*
X120521773Y-100041504D01*
X120572340Y-100107403D01*
X120572343Y-100107403D01*
X121373687Y-99306059D01*
X121379189Y-99326591D01*
X121458181Y-99463408D01*
X121569892Y-99575119D01*
X121706709Y-99654111D01*
X121727240Y-99659612D01*
X120925895Y-100460955D01*
X120925895Y-100460956D01*
X120991807Y-100511533D01*
X121184785Y-100622949D01*
X121184797Y-100622954D01*
X121390681Y-100708236D01*
X121605932Y-100765911D01*
X121605945Y-100765914D01*
X121826875Y-100795000D01*
X122049725Y-100795000D01*
X122270654Y-100765914D01*
X122270667Y-100765911D01*
X122485918Y-100708236D01*
X122691802Y-100622954D01*
X122691814Y-100622949D01*
X122884798Y-100511530D01*
X122950703Y-100460957D01*
X122950704Y-100460956D01*
X122149359Y-99659612D01*
X122169891Y-99654111D01*
X122306708Y-99575119D01*
X122418419Y-99463408D01*
X122497411Y-99326591D01*
X122502912Y-99306059D01*
X123304256Y-100107404D01*
X123304257Y-100107403D01*
X123354830Y-100041498D01*
X123466249Y-99848514D01*
X123466254Y-99848502D01*
X123551536Y-99642618D01*
X123609211Y-99427367D01*
X123609214Y-99427354D01*
X123638300Y-99206424D01*
X123638300Y-98983575D01*
X123609214Y-98762645D01*
X123609211Y-98762632D01*
X123551536Y-98547381D01*
X123466254Y-98341497D01*
X123466249Y-98341485D01*
X123354833Y-98148507D01*
X123304256Y-98082595D01*
X123304255Y-98082595D01*
X122502912Y-98883939D01*
X122497411Y-98863409D01*
X122418419Y-98726592D01*
X122306708Y-98614881D01*
X122169891Y-98535889D01*
X122149358Y-98530387D01*
X122950703Y-97729043D01*
X122950703Y-97729040D01*
X122884804Y-97678473D01*
X122884791Y-97678464D01*
X122691820Y-97567054D01*
X122691802Y-97567045D01*
X122485918Y-97481763D01*
X122270667Y-97424088D01*
X122270654Y-97424085D01*
X122049725Y-97395000D01*
X121826875Y-97395000D01*
X121605945Y-97424085D01*
X121605932Y-97424088D01*
X121390681Y-97481763D01*
X121184797Y-97567045D01*
X121184779Y-97567054D01*
X120991811Y-97678462D01*
X120925895Y-97729042D01*
X121727241Y-98530387D01*
X121706709Y-98535889D01*
X121569892Y-98614881D01*
X121458181Y-98726592D01*
X121379189Y-98863409D01*
X121373687Y-98883940D01*
X120572342Y-98082595D01*
X120521762Y-98148511D01*
X120410354Y-98341479D01*
X120410345Y-98341497D01*
X120325063Y-98547381D01*
X120267388Y-98762632D01*
X120267385Y-98762645D01*
X120238300Y-98983575D01*
X116375203Y-98983575D01*
X122195787Y-93162991D01*
X122195789Y-93162989D01*
X122210116Y-93141547D01*
X122283394Y-93031879D01*
X122343737Y-92886197D01*
X122374500Y-92731542D01*
X122374500Y-73992440D01*
X122394185Y-73925401D01*
X122410819Y-73904759D01*
X124811319Y-71504259D01*
X124872642Y-71470774D01*
X124942334Y-71475758D01*
G37*
%TD.AperFunction*%
%TA.AperFunction,Conductor*%
G36*
X166142081Y-101150227D02*
G01*
X166175566Y-101211550D01*
X166178400Y-101237908D01*
X166178400Y-102012264D01*
X166158715Y-102079303D01*
X166105911Y-102125058D01*
X166036753Y-102135002D01*
X165973197Y-102105977D01*
X165966719Y-102099945D01*
X165862948Y-101996174D01*
X165862946Y-101996172D01*
X165703705Y-101880476D01*
X165636670Y-101846320D01*
X165585874Y-101798345D01*
X165569079Y-101730524D01*
X165591616Y-101664389D01*
X165636670Y-101625350D01*
X165755854Y-101564622D01*
X165810016Y-101525270D01*
X165810017Y-101525270D01*
X165177708Y-100892962D01*
X165241293Y-100875925D01*
X165355307Y-100810099D01*
X165448399Y-100717007D01*
X165514225Y-100602993D01*
X165531262Y-100539408D01*
X166142081Y-101150227D01*
G37*
%TD.AperFunction*%
%TA.AperFunction,Conductor*%
G36*
X166121439Y-98854685D02*
G01*
X166167194Y-98907489D01*
X166178400Y-98959000D01*
X166178400Y-99582090D01*
X166158715Y-99649129D01*
X166142081Y-99669771D01*
X165531262Y-100280590D01*
X165514225Y-100217007D01*
X165448399Y-100102993D01*
X165355307Y-100009901D01*
X165241293Y-99944075D01*
X165177709Y-99927037D01*
X165810016Y-99294728D01*
X165755850Y-99255375D01*
X165566517Y-99158904D01*
X165364429Y-99093242D01*
X165290121Y-99081473D01*
X165226986Y-99051544D01*
X165190055Y-98992232D01*
X165191053Y-98922370D01*
X165229663Y-98864137D01*
X165293627Y-98836023D01*
X165309519Y-98835000D01*
X166054400Y-98835000D01*
X166121439Y-98854685D01*
G37*
%TD.AperFunction*%
%TA.AperFunction,Conductor*%
G36*
X148673570Y-61816717D02*
G01*
X148673570Y-61816716D01*
X148712922Y-61762554D01*
X148809394Y-61573219D01*
X148827669Y-61516972D01*
X148867105Y-61459296D01*
X148931463Y-61432097D01*
X149000310Y-61444009D01*
X149033282Y-61467607D01*
X155009381Y-67443706D01*
X155042866Y-67505029D01*
X155045700Y-67531387D01*
X155045700Y-70455875D01*
X155068115Y-70539525D01*
X155077310Y-70573842D01*
X155077310Y-70573843D01*
X155081726Y-70590327D01*
X155083216Y-70595885D01*
X155133035Y-70682174D01*
X155155689Y-70721413D01*
X155155691Y-70721416D01*
X158857377Y-74423102D01*
X158890862Y-74484425D01*
X158885878Y-74554117D01*
X158865393Y-74588927D01*
X158865474Y-74588986D01*
X158864871Y-74589815D01*
X158863996Y-74591303D01*
X158862618Y-74592916D01*
X158751540Y-74745800D01*
X158665754Y-74914163D01*
X158607359Y-75093881D01*
X158577800Y-75280513D01*
X158577800Y-75469486D01*
X158607359Y-75656118D01*
X158665754Y-75835836D01*
X158699286Y-75901645D01*
X158751540Y-76004199D01*
X158862610Y-76157073D01*
X158996227Y-76290690D01*
X159149101Y-76401760D01*
X159223647Y-76439743D01*
X159317463Y-76487545D01*
X159317465Y-76487545D01*
X159317468Y-76487547D01*
X159381219Y-76508261D01*
X159439103Y-76527069D01*
X159496778Y-76566507D01*
X159523976Y-76630866D01*
X159512061Y-76699712D01*
X159464816Y-76751188D01*
X159439103Y-76762931D01*
X159317463Y-76802454D01*
X159149100Y-76888240D01*
X159099799Y-76924060D01*
X158996227Y-76999310D01*
X158996225Y-76999312D01*
X158996224Y-76999312D01*
X158862612Y-77132924D01*
X158862612Y-77132925D01*
X158862610Y-77132927D01*
X158828911Y-77179310D01*
X158751540Y-77285800D01*
X158665754Y-77454163D01*
X158607359Y-77633881D01*
X158577800Y-77820513D01*
X158577800Y-78009486D01*
X158607359Y-78196118D01*
X158665754Y-78375836D01*
X158726472Y-78495000D01*
X158751540Y-78544199D01*
X158862610Y-78697073D01*
X158996227Y-78830690D01*
X159149101Y-78941760D01*
X159200757Y-78968080D01*
X159317463Y-79027545D01*
X159317465Y-79027545D01*
X159317468Y-79027547D01*
X159367108Y-79043676D01*
X159497181Y-79085940D01*
X159683814Y-79115500D01*
X159683819Y-79115500D01*
X159872786Y-79115500D01*
X160059418Y-79085940D01*
X160110239Y-79069427D01*
X160239132Y-79027547D01*
X160407499Y-78941760D01*
X160560373Y-78830690D01*
X160693990Y-78697073D01*
X160805060Y-78544199D01*
X160890847Y-78375832D01*
X160949240Y-78196118D01*
X160964171Y-78101848D01*
X160978800Y-78009486D01*
X160978800Y-77820513D01*
X160950711Y-77643169D01*
X160959665Y-77573876D01*
X161004662Y-77520424D01*
X161071413Y-77499784D01*
X161138727Y-77518509D01*
X161160865Y-77536090D01*
X166142081Y-82517306D01*
X166175566Y-82578629D01*
X166178400Y-82604987D01*
X166178400Y-83341000D01*
X166158715Y-83408039D01*
X166105911Y-83453794D01*
X166054400Y-83465000D01*
X141152800Y-83465000D01*
X141085761Y-83445315D01*
X141040006Y-83392511D01*
X141028800Y-83341000D01*
X141028800Y-80023110D01*
X141048485Y-79956071D01*
X141101289Y-79910316D01*
X141170447Y-79900372D01*
X141221690Y-79920007D01*
X141309221Y-79978494D01*
X141309223Y-79978495D01*
X141309227Y-79978497D01*
X141402065Y-80016951D01*
X141454903Y-80038837D01*
X141609553Y-80069599D01*
X141609556Y-80069600D01*
X141609558Y-80069600D01*
X141767244Y-80069600D01*
X141767245Y-80069599D01*
X141921897Y-80038837D01*
X142067579Y-79978494D01*
X142198689Y-79890889D01*
X142310189Y-79779389D01*
X142397794Y-79648279D01*
X142458137Y-79502597D01*
X142488900Y-79347942D01*
X142488900Y-79190258D01*
X142488900Y-79190255D01*
X142488899Y-79190253D01*
X142475275Y-79121760D01*
X142458137Y-79035603D01*
X142454531Y-79026897D01*
X142397797Y-78889927D01*
X142397790Y-78889914D01*
X142310189Y-78758811D01*
X142310186Y-78758807D01*
X142275219Y-78723840D01*
X142241734Y-78662517D01*
X142238900Y-78636159D01*
X142238900Y-74358984D01*
X142258585Y-74291945D01*
X142311389Y-74246190D01*
X142380547Y-74236246D01*
X142410350Y-74244422D01*
X142484503Y-74275137D01*
X142609276Y-74299956D01*
X142639153Y-74305899D01*
X142639156Y-74305900D01*
X142639158Y-74305900D01*
X142688613Y-74305900D01*
X142755652Y-74325585D01*
X142776294Y-74342219D01*
X147321183Y-78887108D01*
X147354668Y-78948431D01*
X147349684Y-79018123D01*
X147336607Y-79043676D01*
X147319404Y-79069423D01*
X147259064Y-79215098D01*
X147259061Y-79215110D01*
X147228300Y-79369753D01*
X147228300Y-79527446D01*
X147259061Y-79682089D01*
X147259064Y-79682101D01*
X147319402Y-79827772D01*
X147319409Y-79827785D01*
X147407010Y-79958888D01*
X147407013Y-79958892D01*
X147518507Y-80070386D01*
X147518511Y-80070389D01*
X147649614Y-80157990D01*
X147649627Y-80157997D01*
X147769253Y-80207547D01*
X147795303Y-80218337D01*
X147949953Y-80249099D01*
X147949956Y-80249100D01*
X147949958Y-80249100D01*
X148107644Y-80249100D01*
X148107645Y-80249099D01*
X148262297Y-80218337D01*
X148407979Y-80157994D01*
X148539089Y-80070389D01*
X148650589Y-79958889D01*
X148738194Y-79827779D01*
X148798537Y-79682097D01*
X148829300Y-79527442D01*
X148829300Y-79369758D01*
X148829300Y-79369755D01*
X148829299Y-79369753D01*
X148824960Y-79347942D01*
X148798537Y-79215103D01*
X148781708Y-79174474D01*
X148738197Y-79069427D01*
X148738190Y-79069414D01*
X148650589Y-78938311D01*
X148650586Y-78938307D01*
X148615619Y-78903340D01*
X148582134Y-78842017D01*
X148579300Y-78815659D01*
X148579300Y-78743727D01*
X148579300Y-78743725D01*
X148541784Y-78603715D01*
X148520860Y-78567474D01*
X148469310Y-78478185D01*
X147991638Y-78000513D01*
X150077800Y-78000513D01*
X150077800Y-78189486D01*
X150107359Y-78376118D01*
X150165754Y-78555836D01*
X150237719Y-78697074D01*
X150251540Y-78724199D01*
X150362610Y-78877073D01*
X150496227Y-79010690D01*
X150649101Y-79121760D01*
X150728647Y-79162290D01*
X150817463Y-79207545D01*
X150817465Y-79207545D01*
X150817468Y-79207547D01*
X150913797Y-79238846D01*
X150997181Y-79265940D01*
X151183814Y-79295500D01*
X151183819Y-79295500D01*
X151372786Y-79295500D01*
X151559418Y-79265940D01*
X151739132Y-79207547D01*
X151907499Y-79121760D01*
X152060373Y-79010690D01*
X152193990Y-78877073D01*
X152305060Y-78724199D01*
X152390847Y-78555832D01*
X152449240Y-78376118D01*
X152454169Y-78344999D01*
X152478800Y-78189486D01*
X152478800Y-78000514D01*
X152478799Y-78000512D01*
X152477559Y-77992682D01*
X154978300Y-77992682D01*
X154978300Y-78197317D01*
X155010309Y-78399417D01*
X155073544Y-78594031D01*
X155166441Y-78776350D01*
X155166447Y-78776359D01*
X155198823Y-78820921D01*
X155198824Y-78820922D01*
X155878300Y-78141446D01*
X155878300Y-78147661D01*
X155905559Y-78249394D01*
X155958220Y-78340606D01*
X156032694Y-78415080D01*
X156123906Y-78467741D01*
X156225639Y-78495000D01*
X156231853Y-78495000D01*
X155552376Y-79174474D01*
X155596950Y-79206859D01*
X155779268Y-79299755D01*
X155973882Y-79362990D01*
X156175983Y-79395000D01*
X156380617Y-79395000D01*
X156582717Y-79362990D01*
X156777331Y-79299755D01*
X156959649Y-79206859D01*
X157004221Y-79174474D01*
X156324747Y-78495000D01*
X156330961Y-78495000D01*
X156432694Y-78467741D01*
X156523906Y-78415080D01*
X156598380Y-78340606D01*
X156651041Y-78249394D01*
X156678300Y-78147661D01*
X156678300Y-78141447D01*
X157357774Y-78820921D01*
X157390159Y-78776349D01*
X157483055Y-78594031D01*
X157546290Y-78399417D01*
X157578300Y-78197317D01*
X157578300Y-77992682D01*
X157546290Y-77790582D01*
X157483055Y-77595968D01*
X157390159Y-77413650D01*
X157357774Y-77369077D01*
X157357774Y-77369076D01*
X156678300Y-78048551D01*
X156678300Y-78042339D01*
X156651041Y-77940606D01*
X156598380Y-77849394D01*
X156523906Y-77774920D01*
X156432694Y-77722259D01*
X156330961Y-77695000D01*
X156324746Y-77695000D01*
X157004222Y-77015524D01*
X157004221Y-77015523D01*
X156959659Y-76983147D01*
X156959650Y-76983141D01*
X156777331Y-76890244D01*
X156582717Y-76827009D01*
X156380617Y-76795000D01*
X156175983Y-76795000D01*
X155973882Y-76827009D01*
X155779268Y-76890244D01*
X155596944Y-76983143D01*
X155552377Y-77015523D01*
X155552377Y-77015524D01*
X156231854Y-77695000D01*
X156225639Y-77695000D01*
X156123906Y-77722259D01*
X156032694Y-77774920D01*
X155958220Y-77849394D01*
X155905559Y-77940606D01*
X155878300Y-78042339D01*
X155878300Y-78048553D01*
X155198824Y-77369077D01*
X155198823Y-77369077D01*
X155166443Y-77413644D01*
X155073544Y-77595968D01*
X155010309Y-77790582D01*
X154978300Y-77992682D01*
X152477559Y-77992682D01*
X152449240Y-77813881D01*
X152404788Y-77677073D01*
X152390847Y-77634168D01*
X152390845Y-77634165D01*
X152390845Y-77634163D01*
X152305059Y-77465800D01*
X152289947Y-77445000D01*
X152193990Y-77312927D01*
X152060373Y-77179310D01*
X151907499Y-77068240D01*
X151739136Y-76982454D01*
X151559418Y-76924059D01*
X151372786Y-76894500D01*
X151372781Y-76894500D01*
X151183819Y-76894500D01*
X151183814Y-76894500D01*
X150997181Y-76924059D01*
X150817463Y-76982454D01*
X150649100Y-77068240D01*
X150584894Y-77114889D01*
X150496227Y-77179310D01*
X150496225Y-77179312D01*
X150496224Y-77179312D01*
X150362612Y-77312924D01*
X150362612Y-77312925D01*
X150362610Y-77312927D01*
X150317460Y-77375070D01*
X150251540Y-77465800D01*
X150165754Y-77634163D01*
X150107359Y-77813881D01*
X150077800Y-78000513D01*
X147991638Y-78000513D01*
X143554819Y-73563694D01*
X143521334Y-73502371D01*
X143518500Y-73476013D01*
X143518500Y-73426555D01*
X143518499Y-73426553D01*
X143508443Y-73375998D01*
X143487737Y-73271903D01*
X143470516Y-73230327D01*
X143427397Y-73126227D01*
X143427390Y-73126214D01*
X143339789Y-72995111D01*
X143339786Y-72995107D01*
X143300002Y-72955323D01*
X143266517Y-72894000D01*
X143271501Y-72824308D01*
X143313373Y-72768375D01*
X143349365Y-72749711D01*
X143362359Y-72745489D01*
X143479132Y-72707547D01*
X143647499Y-72621760D01*
X143800373Y-72510690D01*
X143933990Y-72377073D01*
X144045060Y-72224199D01*
X144130847Y-72055832D01*
X144170369Y-71934195D01*
X144209807Y-71876521D01*
X144274166Y-71849323D01*
X144343012Y-71861238D01*
X144394488Y-71908482D01*
X144406231Y-71934196D01*
X144445754Y-72055836D01*
X144522165Y-72205800D01*
X144531540Y-72224199D01*
X144642610Y-72377073D01*
X144776227Y-72510690D01*
X144929101Y-72621760D01*
X144959194Y-72637093D01*
X145097463Y-72707545D01*
X145097465Y-72707545D01*
X145097468Y-72707547D01*
X145184000Y-72735663D01*
X145277181Y-72765940D01*
X145463814Y-72795500D01*
X145463819Y-72795500D01*
X145652786Y-72795500D01*
X145839418Y-72765940D01*
X145843911Y-72764480D01*
X146019132Y-72707547D01*
X146187499Y-72621760D01*
X146340373Y-72510690D01*
X146473990Y-72377073D01*
X146585060Y-72224199D01*
X146670847Y-72055832D01*
X146710369Y-71934195D01*
X146749807Y-71876521D01*
X146814166Y-71849323D01*
X146883012Y-71861238D01*
X146934488Y-71908482D01*
X146946231Y-71934196D01*
X146985754Y-72055836D01*
X147062165Y-72205800D01*
X147071540Y-72224199D01*
X147182610Y-72377073D01*
X147316227Y-72510690D01*
X147469101Y-72621760D01*
X147499194Y-72637093D01*
X147637463Y-72707545D01*
X147637465Y-72707545D01*
X147637468Y-72707547D01*
X147724000Y-72735663D01*
X147817181Y-72765940D01*
X148003814Y-72795500D01*
X148003819Y-72795500D01*
X148192786Y-72795500D01*
X148379418Y-72765940D01*
X148383911Y-72764480D01*
X148559132Y-72707547D01*
X148727499Y-72621760D01*
X148880373Y-72510690D01*
X149013990Y-72377073D01*
X149125060Y-72224199D01*
X149210847Y-72055832D01*
X149269240Y-71876118D01*
X149273484Y-71849323D01*
X149298800Y-71689486D01*
X149298800Y-71500513D01*
X149269240Y-71313881D01*
X149229886Y-71192763D01*
X149210847Y-71134168D01*
X149210845Y-71134165D01*
X149210845Y-71134163D01*
X149142076Y-70999197D01*
X149125060Y-70965801D01*
X149013990Y-70812927D01*
X148880373Y-70679310D01*
X148727499Y-70568240D01*
X148697418Y-70552913D01*
X148559136Y-70482454D01*
X148379418Y-70424059D01*
X148192786Y-70394500D01*
X148192781Y-70394500D01*
X148003819Y-70394500D01*
X148003814Y-70394500D01*
X147817181Y-70424059D01*
X147637463Y-70482454D01*
X147469100Y-70568240D01*
X147431051Y-70595885D01*
X147316227Y-70679310D01*
X147316225Y-70679312D01*
X147316224Y-70679312D01*
X147182612Y-70812924D01*
X147182612Y-70812925D01*
X147182610Y-70812927D01*
X147135573Y-70877667D01*
X147071540Y-70965800D01*
X146985754Y-71134163D01*
X146946231Y-71255803D01*
X146906793Y-71313478D01*
X146842434Y-71340676D01*
X146773588Y-71328761D01*
X146722112Y-71281516D01*
X146710369Y-71255803D01*
X146689886Y-71192763D01*
X146670847Y-71134168D01*
X146670845Y-71134165D01*
X146670845Y-71134163D01*
X146602076Y-70999197D01*
X146585060Y-70965801D01*
X146473990Y-70812927D01*
X146340373Y-70679310D01*
X146187499Y-70568240D01*
X146157418Y-70552913D01*
X146019136Y-70482454D01*
X145839418Y-70424059D01*
X145652786Y-70394500D01*
X145652781Y-70394500D01*
X145463819Y-70394500D01*
X145463814Y-70394500D01*
X145277181Y-70424059D01*
X145097463Y-70482454D01*
X144929100Y-70568240D01*
X144891051Y-70595885D01*
X144776227Y-70679310D01*
X144776225Y-70679312D01*
X144776224Y-70679312D01*
X144642612Y-70812924D01*
X144642612Y-70812925D01*
X144642610Y-70812927D01*
X144595573Y-70877667D01*
X144531540Y-70965800D01*
X144445754Y-71134163D01*
X144406231Y-71255803D01*
X144366793Y-71313478D01*
X144302434Y-71340676D01*
X144233588Y-71328761D01*
X144182112Y-71281516D01*
X144170369Y-71255803D01*
X144149886Y-71192763D01*
X144130847Y-71134168D01*
X144130845Y-71134165D01*
X144130845Y-71134163D01*
X144062076Y-70999197D01*
X144045060Y-70965801D01*
X143933990Y-70812927D01*
X143800373Y-70679310D01*
X143647499Y-70568240D01*
X143617418Y-70552913D01*
X143479136Y-70482454D01*
X143299418Y-70424059D01*
X143112786Y-70394500D01*
X143112781Y-70394500D01*
X142923819Y-70394500D01*
X142923814Y-70394500D01*
X142737181Y-70424059D01*
X142557463Y-70482454D01*
X142419195Y-70552906D01*
X142350525Y-70565802D01*
X142285785Y-70539525D01*
X142245528Y-70482419D01*
X142238900Y-70442421D01*
X142238900Y-69432227D01*
X142238900Y-69432225D01*
X142201384Y-69292215D01*
X142187542Y-69268240D01*
X142128910Y-69166685D01*
X141489219Y-68526994D01*
X141455734Y-68465671D01*
X141452900Y-68439313D01*
X141452900Y-68389855D01*
X141452899Y-68389853D01*
X141437708Y-68313482D01*
X141422137Y-68235203D01*
X141414113Y-68215832D01*
X141361797Y-68089527D01*
X141361790Y-68089514D01*
X141274189Y-67958411D01*
X141274186Y-67958407D01*
X141162692Y-67846913D01*
X141162688Y-67846910D01*
X141031585Y-67759309D01*
X141031572Y-67759302D01*
X140885901Y-67698964D01*
X140885889Y-67698961D01*
X140731245Y-67668200D01*
X140731242Y-67668200D01*
X140573558Y-67668200D01*
X140573555Y-67668200D01*
X140418910Y-67698961D01*
X140418898Y-67698964D01*
X140273227Y-67759302D01*
X140273214Y-67759309D01*
X140142111Y-67846910D01*
X140142107Y-67846913D01*
X140030613Y-67958407D01*
X140030610Y-67958411D01*
X139943009Y-68089514D01*
X139943002Y-68089527D01*
X139882664Y-68235198D01*
X139882661Y-68235210D01*
X139851900Y-68389853D01*
X139851900Y-68547546D01*
X139882661Y-68702189D01*
X139882664Y-68702201D01*
X139943002Y-68847872D01*
X139943009Y-68847885D01*
X140030610Y-68978988D01*
X140030613Y-68978992D01*
X140142107Y-69090486D01*
X140142111Y-69090489D01*
X140273214Y-69178090D01*
X140273227Y-69178097D01*
X140415132Y-69236875D01*
X140418903Y-69238437D01*
X140558572Y-69266219D01*
X140573553Y-69269199D01*
X140573556Y-69269200D01*
X140573558Y-69269200D01*
X140623013Y-69269200D01*
X140690052Y-69288885D01*
X140710694Y-69305519D01*
X141101581Y-69696406D01*
X141135066Y-69757729D01*
X141137900Y-69784087D01*
X141137900Y-70381380D01*
X141118215Y-70448419D01*
X141065411Y-70494174D01*
X140996253Y-70504118D01*
X140957606Y-70491865D01*
X140939139Y-70482455D01*
X140759418Y-70424059D01*
X140572786Y-70394500D01*
X140572781Y-70394500D01*
X140383819Y-70394500D01*
X140383814Y-70394500D01*
X140197181Y-70424059D01*
X140017463Y-70482454D01*
X139849100Y-70568240D01*
X139696204Y-70679326D01*
X139695716Y-70679744D01*
X139695493Y-70679843D01*
X139692286Y-70682174D01*
X139691795Y-70681499D01*
X139631946Y-70708294D01*
X139562863Y-70697835D01*
X139527534Y-70673109D01*
X138762716Y-69908291D01*
X138762715Y-69908290D01*
X138637185Y-69835816D01*
X138626302Y-69832900D01*
X138626301Y-69832899D01*
X138531774Y-69807570D01*
X138497175Y-69798300D01*
X134032025Y-69798300D01*
X133902897Y-69832900D01*
X133902896Y-69832900D01*
X133892017Y-69835814D01*
X133766486Y-69908289D01*
X133766483Y-69908291D01*
X133277151Y-70397622D01*
X133215828Y-70431107D01*
X133151152Y-70427872D01*
X133139420Y-70424060D01*
X132952786Y-70394500D01*
X132952781Y-70394500D01*
X132763819Y-70394500D01*
X132763814Y-70394500D01*
X132577181Y-70424059D01*
X132397463Y-70482454D01*
X132229100Y-70568240D01*
X132191051Y-70595885D01*
X132076227Y-70679310D01*
X132076225Y-70679312D01*
X132076224Y-70679312D01*
X131942612Y-70812924D01*
X131942612Y-70812925D01*
X131942610Y-70812927D01*
X131895573Y-70877667D01*
X131831540Y-70965800D01*
X131745754Y-71134163D01*
X131706231Y-71255803D01*
X131666793Y-71313478D01*
X131602434Y-71340676D01*
X131533588Y-71328761D01*
X131482112Y-71281516D01*
X131470369Y-71255803D01*
X131449886Y-71192763D01*
X131430847Y-71134168D01*
X131430845Y-71134165D01*
X131430845Y-71134163D01*
X131362076Y-70999197D01*
X131345060Y-70965801D01*
X131233990Y-70812927D01*
X131100373Y-70679310D01*
X130947499Y-70568240D01*
X130917418Y-70552913D01*
X130779136Y-70482454D01*
X130599418Y-70424059D01*
X130412786Y-70394500D01*
X130412781Y-70394500D01*
X130223819Y-70394500D01*
X130223814Y-70394500D01*
X130037181Y-70424059D01*
X129857463Y-70482454D01*
X129689100Y-70568240D01*
X129651051Y-70595885D01*
X129536227Y-70679310D01*
X129536225Y-70679312D01*
X129536224Y-70679312D01*
X129402611Y-70812925D01*
X129302618Y-70950553D01*
X129247287Y-70993218D01*
X129177674Y-70999197D01*
X129115879Y-70966591D01*
X129081522Y-70905752D01*
X129078300Y-70877667D01*
X129078300Y-70747172D01*
X129078299Y-70747155D01*
X129071898Y-70687627D01*
X129071896Y-70687620D01*
X129021654Y-70552913D01*
X129021650Y-70552906D01*
X128935490Y-70437812D01*
X128935487Y-70437809D01*
X128820393Y-70351649D01*
X128820386Y-70351645D01*
X128685679Y-70301403D01*
X128685672Y-70301401D01*
X128626144Y-70295000D01*
X127916840Y-70295000D01*
X127849801Y-70275315D01*
X127804046Y-70222511D01*
X127794102Y-70153353D01*
X127823127Y-70089797D01*
X127829159Y-70083319D01*
X130705059Y-67207419D01*
X130766382Y-67173934D01*
X130792740Y-67171100D01*
X142321544Y-67171100D01*
X142321545Y-67171099D01*
X142476197Y-67140337D01*
X142621879Y-67079994D01*
X142752989Y-66992389D01*
X144863558Y-64881818D01*
X144924881Y-64848334D01*
X144951239Y-64845500D01*
X145116722Y-64845500D01*
X145311126Y-64814709D01*
X145366419Y-64796743D01*
X145498325Y-64753884D01*
X145673705Y-64664524D01*
X145832946Y-64548828D01*
X145972128Y-64409646D01*
X146087824Y-64250405D01*
X146121979Y-64183370D01*
X146169952Y-64132575D01*
X146237773Y-64115779D01*
X146303908Y-64138316D01*
X146342948Y-64183370D01*
X146403670Y-64302542D01*
X146403673Y-64302547D01*
X146443028Y-64356716D01*
X147075337Y-63724408D01*
X147092375Y-63787993D01*
X147158201Y-63902007D01*
X147251293Y-63995099D01*
X147365307Y-64060925D01*
X147428890Y-64077962D01*
X146796582Y-64710269D01*
X146796582Y-64710270D01*
X146850749Y-64749624D01*
X147040082Y-64846095D01*
X147242170Y-64911757D01*
X147452054Y-64945000D01*
X147664546Y-64945000D01*
X147874427Y-64911757D01*
X147874430Y-64911757D01*
X148076517Y-64846095D01*
X148265854Y-64749622D01*
X148320016Y-64710270D01*
X148320017Y-64710270D01*
X147687708Y-64077962D01*
X147751293Y-64060925D01*
X147865307Y-63995099D01*
X147958399Y-63902007D01*
X148024225Y-63787993D01*
X148041262Y-63724408D01*
X148673570Y-64356717D01*
X148673570Y-64356716D01*
X148712922Y-64302554D01*
X148809395Y-64113217D01*
X148875057Y-63911130D01*
X148875057Y-63911127D01*
X148908300Y-63701246D01*
X148908300Y-63488753D01*
X148875057Y-63278872D01*
X148875057Y-63278869D01*
X148809395Y-63076782D01*
X148712924Y-62887449D01*
X148673570Y-62833282D01*
X148673569Y-62833282D01*
X148041262Y-63465590D01*
X148024225Y-63402007D01*
X147958399Y-63287993D01*
X147865307Y-63194901D01*
X147751293Y-63129075D01*
X147687709Y-63112037D01*
X148320016Y-62479728D01*
X148265850Y-62440375D01*
X148256254Y-62435486D01*
X148205457Y-62387512D01*
X148188661Y-62319692D01*
X148211197Y-62253556D01*
X148256254Y-62214514D01*
X148265854Y-62209622D01*
X148320016Y-62170270D01*
X148320017Y-62170270D01*
X147687708Y-61537962D01*
X147751293Y-61520925D01*
X147865307Y-61455099D01*
X147958399Y-61362007D01*
X148024225Y-61247993D01*
X148041262Y-61184409D01*
X148673570Y-61816717D01*
G37*
%TD.AperFunction*%
%TA.AperFunction,Conductor*%
G36*
X166867695Y-76451996D02*
G01*
X166937463Y-76487545D01*
X166937465Y-76487545D01*
X166937468Y-76487547D01*
X167001219Y-76508261D01*
X167117181Y-76545940D01*
X167303814Y-76575500D01*
X167303819Y-76575500D01*
X167377313Y-76575500D01*
X167444352Y-76595185D01*
X167464994Y-76611819D01*
X169708815Y-78855640D01*
X169742300Y-78916963D01*
X169737316Y-78986655D01*
X169695444Y-79042588D01*
X169677430Y-79053805D01*
X169649103Y-79068238D01*
X169575439Y-79121759D01*
X169496227Y-79179310D01*
X169496225Y-79179312D01*
X169496224Y-79179312D01*
X169362612Y-79312924D01*
X169362612Y-79312925D01*
X169362610Y-79312927D01*
X169337170Y-79347942D01*
X169251540Y-79465800D01*
X169165754Y-79634163D01*
X169107359Y-79813881D01*
X169077800Y-80000513D01*
X169077800Y-80189486D01*
X169107359Y-80376118D01*
X169165754Y-80555836D01*
X169251540Y-80724199D01*
X169362610Y-80877073D01*
X169496227Y-81010690D01*
X169649101Y-81121760D01*
X169728647Y-81162290D01*
X169817463Y-81207545D01*
X169817465Y-81207545D01*
X169817468Y-81207547D01*
X169913177Y-81238645D01*
X169997181Y-81265940D01*
X170183814Y-81295500D01*
X170183819Y-81295500D01*
X170372786Y-81295500D01*
X170476468Y-81279077D01*
X170559418Y-81265940D01*
X170571149Y-81262127D01*
X170640989Y-81260130D01*
X170697152Y-81292376D01*
X170920281Y-81515505D01*
X170953766Y-81576828D01*
X170956600Y-81603186D01*
X170956600Y-82090908D01*
X170936915Y-82157947D01*
X170884111Y-82203702D01*
X170814953Y-82213646D01*
X170776306Y-82201393D01*
X170739139Y-82182455D01*
X170559418Y-82124059D01*
X170372786Y-82094500D01*
X170372781Y-82094500D01*
X170183819Y-82094500D01*
X170183814Y-82094500D01*
X169997179Y-82124060D01*
X169985440Y-82127874D01*
X169915599Y-82129866D01*
X169859447Y-82097622D01*
X166723719Y-78961894D01*
X166690234Y-78900571D01*
X166687400Y-78874213D01*
X166687400Y-76562481D01*
X166707085Y-76495442D01*
X166759889Y-76449687D01*
X166829047Y-76439743D01*
X166867695Y-76451996D01*
G37*
%TD.AperFunction*%
%TA.AperFunction,Conductor*%
G36*
X147092375Y-61247993D02*
G01*
X147158201Y-61362007D01*
X147251293Y-61455099D01*
X147365307Y-61520925D01*
X147428890Y-61537962D01*
X146796582Y-62170269D01*
X146796582Y-62170270D01*
X146850752Y-62209626D01*
X146860348Y-62214516D01*
X146911144Y-62262491D01*
X146927938Y-62330312D01*
X146905400Y-62396447D01*
X146860351Y-62435483D01*
X146850740Y-62440380D01*
X146796582Y-62479727D01*
X146796582Y-62479728D01*
X147428891Y-63112037D01*
X147365307Y-63129075D01*
X147251293Y-63194901D01*
X147158201Y-63287993D01*
X147092375Y-63402007D01*
X147075337Y-63465591D01*
X146443028Y-62833282D01*
X146443027Y-62833282D01*
X146403680Y-62887440D01*
X146403678Y-62887443D01*
X146342948Y-63006630D01*
X146294973Y-63057426D01*
X146227152Y-63074220D01*
X146161017Y-63051682D01*
X146121979Y-63006628D01*
X146087825Y-62939596D01*
X146053554Y-62892426D01*
X145972128Y-62780354D01*
X145855118Y-62663344D01*
X145821634Y-62602021D01*
X145818800Y-62575663D01*
X145818800Y-62074336D01*
X145838485Y-62007297D01*
X145855119Y-61986655D01*
X145868875Y-61972899D01*
X145972128Y-61869646D01*
X146087824Y-61710405D01*
X146121979Y-61643370D01*
X146169952Y-61592575D01*
X146237773Y-61575779D01*
X146303908Y-61598316D01*
X146342948Y-61643370D01*
X146403670Y-61762542D01*
X146403673Y-61762547D01*
X146443028Y-61816716D01*
X147075336Y-61184407D01*
X147092375Y-61247993D01*
G37*
%TD.AperFunction*%
%TD*%
M02*
