%TF.GenerationSoftware,KiCad,Pcbnew,10.0.6*%
%TF.CreationDate,2026-09-28T17:22:17-04:00*%
%TF.ProjectId,DepthSensor,44657074-6853-4656-9e73-6f722e6b6963,rev?*%
%TF.SameCoordinates,Original*%
%TF.FileFunction,Profile,NP*%
%FSLAX46Y46*%
G04 Gerber Fmt 4.6, Leading zero omitted, Abs format (unit mm)*
G04 Created by KiCad (PCBNEW 10.0.6) date 2026-09-28 17:22:17*
%MOMM*%
%LPD*%
G01*
G04 APERTURE LIST*
%TA.AperFunction,Profile*%
%ADD10C,0.100000*%
%TD*%
G04 APERTURE END LIST*
D10*
X107778300Y-55095000D02*
X128278300Y-55095000D01*
X107778300Y-133095000D02*
X107778300Y-55095000D01*
X128278300Y-41095000D02*
X167778300Y-41095000D01*
X128278300Y-55095000D02*
X128278300Y-41095000D01*
X128278300Y-133095000D02*
X107778300Y-133095000D01*
X128278300Y-147095000D02*
X128278300Y-133095000D01*
X141278300Y-84095000D02*
X165978300Y-84095000D01*
X141278300Y-98295000D02*
X141278300Y-84095000D01*
X165978300Y-84095000D02*
X165978300Y-98295000D01*
X165978300Y-98295000D02*
X141278300Y-98295000D01*
X167778300Y-41095000D02*
X167778300Y-55095000D01*
X167778300Y-55095000D02*
X188278300Y-55095000D01*
X167778300Y-133095000D02*
X167778300Y-147095000D01*
X167778300Y-147095000D02*
X128278300Y-147095000D01*
X172278300Y-128595000D02*
G75*
G02*
X169278300Y-128595000I-1500000J0D01*
G01*
X169278300Y-128595000D02*
G75*
G02*
X172278300Y-128595000I1500000J0D01*
G01*
X178278300Y-128595000D02*
G75*
G02*
X175278300Y-128595000I-1500000J0D01*
G01*
X175278300Y-128595000D02*
G75*
G02*
X178278300Y-128595000I1500000J0D01*
G01*
X188278300Y-55095000D02*
X188278300Y-133095000D01*
X188278300Y-133095000D02*
X167778300Y-133095000D01*
M02*
